G04 EAGLE Gerber RS-274X export*
G75*
%MOMM*%
%FSLAX34Y34*%
%LPD*%
%INTop Copper*%
%IPPOS*%
%AMOC8*
5,1,8,0,0,1.08239X$1,22.5*%
G01*
%ADD10R,1.000000X1.400000*%
%ADD11R,1.500000X1.300000*%
%ADD12C,2.000000*%
%ADD13C,1.524000*%
%ADD14R,2.235200X1.219200*%
%ADD15R,2.200000X3.600000*%
%ADD16R,1.300000X1.500000*%
%ADD17R,2.400000X2.400000*%
%ADD18C,1.500000*%
%ADD19C,1.200000*%
%ADD20R,1.700000X0.600000*%
%ADD21R,2.800000X1.000000*%
%ADD22R,1.600000X1.803000*%
%ADD23R,2.006600X1.498600*%
%ADD24R,2.006600X3.810000*%
%ADD25R,1.168400X1.600200*%
%ADD26R,1.600200X1.168400*%
%ADD27C,2.184400*%
%ADD28R,4.900000X4.900000*%
%ADD29C,0.500000*%
%ADD30C,0.654800*%

G36*
X360164Y5093D02*
X360164Y5093D01*
X360268Y5095D01*
X360335Y5113D01*
X360404Y5121D01*
X360502Y5156D01*
X360603Y5182D01*
X360664Y5215D01*
X360729Y5238D01*
X360816Y5295D01*
X360909Y5344D01*
X360961Y5389D01*
X361019Y5427D01*
X361091Y5502D01*
X361169Y5571D01*
X361210Y5627D01*
X361257Y5677D01*
X361310Y5767D01*
X361371Y5852D01*
X361397Y5916D01*
X361432Y5975D01*
X361463Y6075D01*
X361503Y6171D01*
X361514Y6240D01*
X361534Y6306D01*
X361542Y6410D01*
X361558Y6513D01*
X361553Y6582D01*
X361558Y6651D01*
X361541Y6753D01*
X361534Y6858D01*
X361513Y6924D01*
X361502Y6992D01*
X361462Y7088D01*
X361431Y7188D01*
X361396Y7247D01*
X361369Y7311D01*
X361308Y7396D01*
X361255Y7485D01*
X361187Y7564D01*
X361167Y7591D01*
X361150Y7606D01*
X361121Y7640D01*
X360474Y8286D01*
X360474Y21234D01*
X360561Y21320D01*
X360583Y21348D01*
X360609Y21371D01*
X360690Y21483D01*
X360775Y21591D01*
X360790Y21623D01*
X360811Y21652D01*
X360864Y21780D01*
X360922Y21904D01*
X360929Y21938D01*
X360943Y21971D01*
X360965Y22108D01*
X360993Y22242D01*
X360993Y22278D01*
X360998Y22313D01*
X360988Y22450D01*
X360985Y22588D01*
X360976Y22622D01*
X360974Y22658D01*
X360933Y22789D01*
X360898Y22922D01*
X360882Y22954D01*
X360871Y22988D01*
X360801Y23106D01*
X360737Y23228D01*
X360713Y23255D01*
X360695Y23285D01*
X360561Y23440D01*
X360474Y23526D01*
X360474Y24476D01*
X360470Y24511D01*
X360473Y24547D01*
X360450Y24683D01*
X360434Y24819D01*
X360422Y24853D01*
X360417Y24888D01*
X360364Y25015D01*
X360317Y25145D01*
X360298Y25174D01*
X360284Y25207D01*
X360203Y25319D01*
X360128Y25434D01*
X360102Y25459D01*
X360082Y25487D01*
X359978Y25578D01*
X359878Y25673D01*
X359847Y25691D01*
X359821Y25714D01*
X359698Y25778D01*
X359580Y25848D01*
X359546Y25858D01*
X359514Y25875D01*
X359381Y25909D01*
X359249Y25950D01*
X359214Y25952D01*
X359180Y25961D01*
X358975Y25975D01*
X349333Y25975D01*
X319772Y55536D01*
X319663Y55623D01*
X319557Y55714D01*
X319527Y55730D01*
X319501Y55751D01*
X319375Y55810D01*
X319251Y55875D01*
X319219Y55883D01*
X319188Y55898D01*
X319052Y55926D01*
X318917Y55961D01*
X318871Y55964D01*
X318850Y55969D01*
X318816Y55968D01*
X318712Y55975D01*
X255253Y55975D01*
X255114Y55959D01*
X254975Y55949D01*
X254943Y55939D01*
X254909Y55935D01*
X254778Y55888D01*
X254645Y55847D01*
X254616Y55829D01*
X254584Y55818D01*
X254467Y55742D01*
X254347Y55671D01*
X254313Y55641D01*
X254294Y55629D01*
X254271Y55605D01*
X254192Y55536D01*
X253985Y55329D01*
X253934Y55265D01*
X253876Y55208D01*
X253827Y55130D01*
X253770Y55058D01*
X253736Y54984D01*
X253692Y54915D01*
X253663Y54828D01*
X253623Y54745D01*
X253607Y54665D01*
X253580Y54588D01*
X253571Y54496D01*
X253552Y54406D01*
X253554Y54325D01*
X253546Y54244D01*
X253558Y54153D01*
X253560Y54061D01*
X253581Y53982D01*
X253591Y53901D01*
X253624Y53815D01*
X253647Y53726D01*
X253685Y53654D01*
X253714Y53578D01*
X253766Y53502D01*
X253809Y53420D01*
X253862Y53359D01*
X253908Y53292D01*
X253976Y53229D01*
X254036Y53160D01*
X254102Y53112D01*
X254162Y53057D01*
X254242Y53012D01*
X254317Y52958D01*
X254343Y52947D01*
X255060Y52533D01*
X255533Y52060D01*
X255868Y51481D01*
X256041Y50835D01*
X256041Y48999D01*
X245000Y48999D01*
X233959Y48999D01*
X233959Y50835D01*
X234132Y51481D01*
X234467Y52060D01*
X234940Y52533D01*
X235642Y52939D01*
X235662Y52946D01*
X235730Y52994D01*
X235803Y53032D01*
X235871Y53092D01*
X235946Y53143D01*
X236001Y53205D01*
X236064Y53259D01*
X236117Y53333D01*
X236177Y53400D01*
X236217Y53473D01*
X236265Y53540D01*
X236300Y53624D01*
X236344Y53703D01*
X236366Y53783D01*
X236397Y53860D01*
X236412Y53949D01*
X236436Y54036D01*
X236439Y54119D01*
X236453Y54201D01*
X236446Y54291D01*
X236450Y54382D01*
X236434Y54463D01*
X236428Y54546D01*
X236401Y54632D01*
X236384Y54721D01*
X236350Y54797D01*
X236326Y54876D01*
X236280Y54954D01*
X236242Y55037D01*
X236192Y55103D01*
X236150Y55174D01*
X236046Y55293D01*
X236032Y55311D01*
X236025Y55317D01*
X236015Y55329D01*
X235808Y55536D01*
X235698Y55623D01*
X235593Y55714D01*
X235563Y55730D01*
X235537Y55751D01*
X235411Y55810D01*
X235287Y55875D01*
X235254Y55883D01*
X235224Y55898D01*
X235087Y55926D01*
X234952Y55961D01*
X234907Y55964D01*
X234885Y55969D01*
X234852Y55968D01*
X234747Y55975D01*
X125253Y55975D01*
X125114Y55959D01*
X124975Y55949D01*
X124943Y55939D01*
X124909Y55935D01*
X124778Y55888D01*
X124645Y55847D01*
X124616Y55829D01*
X124584Y55818D01*
X124467Y55742D01*
X124347Y55671D01*
X124313Y55641D01*
X124294Y55629D01*
X124271Y55605D01*
X124193Y55536D01*
X123985Y55329D01*
X123934Y55265D01*
X123876Y55208D01*
X123827Y55130D01*
X123770Y55058D01*
X123736Y54984D01*
X123692Y54915D01*
X123663Y54828D01*
X123623Y54745D01*
X123607Y54665D01*
X123580Y54588D01*
X123571Y54497D01*
X123552Y54406D01*
X123554Y54325D01*
X123546Y54244D01*
X123558Y54153D01*
X123560Y54061D01*
X123581Y53982D01*
X123591Y53901D01*
X123624Y53815D01*
X123647Y53726D01*
X123685Y53654D01*
X123714Y53578D01*
X123766Y53502D01*
X123809Y53420D01*
X123862Y53359D01*
X123908Y53292D01*
X123975Y53229D01*
X124036Y53160D01*
X124102Y53112D01*
X124162Y53057D01*
X124242Y53012D01*
X124317Y52958D01*
X124342Y52947D01*
X125060Y52533D01*
X125533Y52060D01*
X125868Y51481D01*
X126041Y50835D01*
X126041Y48999D01*
X115000Y48999D01*
X103959Y48999D01*
X103959Y50835D01*
X104132Y51481D01*
X104467Y52060D01*
X104940Y52533D01*
X105644Y52940D01*
X105664Y52948D01*
X105731Y52994D01*
X105803Y53032D01*
X105873Y53093D01*
X105948Y53145D01*
X106002Y53206D01*
X106064Y53260D01*
X106118Y53334D01*
X106179Y53403D01*
X106218Y53474D01*
X106266Y53540D01*
X106301Y53625D01*
X106345Y53706D01*
X106366Y53785D01*
X106397Y53860D01*
X106412Y53951D01*
X106437Y54040D01*
X106440Y54121D01*
X106453Y54201D01*
X106446Y54293D01*
X106450Y54385D01*
X106434Y54465D01*
X106428Y54546D01*
X106401Y54634D01*
X106383Y54724D01*
X106350Y54799D01*
X106325Y54876D01*
X106279Y54955D01*
X106241Y55039D01*
X106191Y55104D01*
X106150Y55174D01*
X106043Y55296D01*
X106030Y55313D01*
X106024Y55318D01*
X106015Y55329D01*
X105807Y55536D01*
X105698Y55623D01*
X105593Y55714D01*
X105563Y55730D01*
X105536Y55751D01*
X105411Y55810D01*
X105287Y55875D01*
X105254Y55883D01*
X105223Y55898D01*
X105087Y55926D01*
X104952Y55961D01*
X104907Y55964D01*
X104885Y55969D01*
X104852Y55968D01*
X104747Y55975D01*
X56853Y55975D01*
X56766Y55965D01*
X56678Y55965D01*
X56595Y55945D01*
X56509Y55935D01*
X56427Y55906D01*
X56342Y55886D01*
X56265Y55847D01*
X56184Y55818D01*
X56111Y55770D01*
X56033Y55731D01*
X55967Y55676D01*
X55895Y55629D01*
X55834Y55566D01*
X55767Y55510D01*
X55715Y55441D01*
X55656Y55379D01*
X55612Y55303D01*
X55559Y55233D01*
X55495Y55105D01*
X55481Y55081D01*
X55477Y55069D01*
X55468Y55050D01*
X55373Y54820D01*
X52800Y52247D01*
X49439Y50855D01*
X30561Y50855D01*
X27200Y52247D01*
X24627Y54820D01*
X23235Y58181D01*
X23235Y61819D01*
X24627Y65180D01*
X27200Y67753D01*
X30561Y69145D01*
X46944Y69145D01*
X47047Y69157D01*
X47152Y69159D01*
X47219Y69177D01*
X47287Y69185D01*
X47385Y69220D01*
X47486Y69246D01*
X47548Y69279D01*
X47613Y69302D01*
X47700Y69359D01*
X47792Y69408D01*
X47844Y69453D01*
X47902Y69491D01*
X47974Y69566D01*
X48053Y69635D01*
X48093Y69691D01*
X48141Y69741D01*
X48194Y69831D01*
X48254Y69916D01*
X48281Y69980D01*
X48316Y70039D01*
X48347Y70139D01*
X48386Y70235D01*
X48398Y70304D01*
X48418Y70370D01*
X48425Y70474D01*
X48442Y70577D01*
X48437Y70646D01*
X48442Y70715D01*
X48425Y70817D01*
X48417Y70922D01*
X48397Y70988D01*
X48386Y71056D01*
X48346Y71152D01*
X48315Y71252D01*
X48279Y71311D01*
X48253Y71375D01*
X48192Y71459D01*
X48139Y71549D01*
X48070Y71628D01*
X48051Y71655D01*
X48034Y71670D01*
X48004Y71704D01*
X43892Y75816D01*
X43783Y75903D01*
X43677Y75994D01*
X43647Y76010D01*
X43621Y76031D01*
X43495Y76090D01*
X43371Y76155D01*
X43339Y76163D01*
X43308Y76178D01*
X43172Y76206D01*
X43037Y76241D01*
X42991Y76244D01*
X42970Y76249D01*
X42936Y76248D01*
X42832Y76255D01*
X30561Y76255D01*
X27200Y77647D01*
X24627Y80220D01*
X23235Y83581D01*
X23235Y87219D01*
X24627Y90580D01*
X27200Y93153D01*
X30561Y94545D01*
X49439Y94545D01*
X52800Y93153D01*
X55373Y90580D01*
X56765Y87219D01*
X56765Y83581D01*
X55373Y80220D01*
X54237Y79084D01*
X54172Y79002D01*
X54100Y78927D01*
X54065Y78867D01*
X54022Y78813D01*
X53978Y78719D01*
X53925Y78629D01*
X53905Y78563D01*
X53875Y78500D01*
X53854Y78398D01*
X53823Y78298D01*
X53818Y78229D01*
X53804Y78162D01*
X53806Y78058D01*
X53799Y77953D01*
X53810Y77885D01*
X53812Y77816D01*
X53838Y77715D01*
X53855Y77612D01*
X53882Y77548D01*
X53899Y77482D01*
X53948Y77389D01*
X53988Y77293D01*
X54028Y77237D01*
X54061Y77176D01*
X54129Y77097D01*
X54190Y77013D01*
X54242Y76967D01*
X54288Y76915D01*
X54372Y76854D01*
X54451Y76786D01*
X54513Y76754D01*
X54569Y76713D01*
X54665Y76674D01*
X54757Y76625D01*
X54824Y76608D01*
X54888Y76582D01*
X54991Y76565D01*
X55092Y76539D01*
X55196Y76532D01*
X55229Y76526D01*
X55252Y76528D01*
X55297Y76525D01*
X104747Y76525D01*
X104886Y76541D01*
X105025Y76551D01*
X105057Y76561D01*
X105091Y76565D01*
X105222Y76612D01*
X105355Y76653D01*
X105384Y76671D01*
X105416Y76682D01*
X105533Y76758D01*
X105653Y76829D01*
X105687Y76859D01*
X105706Y76871D01*
X105729Y76895D01*
X105808Y76964D01*
X105868Y77025D01*
X124132Y77025D01*
X124192Y76964D01*
X124302Y76877D01*
X124407Y76786D01*
X124437Y76770D01*
X124463Y76749D01*
X124589Y76690D01*
X124713Y76625D01*
X124746Y76617D01*
X124776Y76602D01*
X124913Y76574D01*
X125048Y76539D01*
X125093Y76536D01*
X125115Y76531D01*
X125148Y76532D01*
X125253Y76525D01*
X234747Y76525D01*
X234886Y76541D01*
X235025Y76551D01*
X235057Y76561D01*
X235091Y76565D01*
X235222Y76612D01*
X235355Y76653D01*
X235384Y76671D01*
X235416Y76682D01*
X235533Y76758D01*
X235653Y76829D01*
X235687Y76859D01*
X235706Y76871D01*
X235729Y76895D01*
X235808Y76964D01*
X235868Y77025D01*
X254132Y77025D01*
X254192Y76964D01*
X254301Y76878D01*
X254407Y76786D01*
X254437Y76770D01*
X254463Y76749D01*
X254589Y76690D01*
X254713Y76625D01*
X254746Y76617D01*
X254776Y76602D01*
X254913Y76574D01*
X255048Y76539D01*
X255093Y76536D01*
X255115Y76531D01*
X255148Y76532D01*
X255253Y76525D01*
X319212Y76525D01*
X319350Y76541D01*
X319489Y76551D01*
X319522Y76561D01*
X319555Y76565D01*
X319686Y76612D01*
X319820Y76653D01*
X319849Y76671D01*
X319881Y76682D01*
X319997Y76758D01*
X320117Y76829D01*
X320151Y76859D01*
X320170Y76871D01*
X320193Y76895D01*
X320272Y76964D01*
X337333Y94025D01*
X358975Y94025D01*
X359010Y94029D01*
X359046Y94026D01*
X359182Y94049D01*
X359318Y94065D01*
X359352Y94077D01*
X359387Y94082D01*
X359514Y94135D01*
X359644Y94182D01*
X359673Y94201D01*
X359706Y94215D01*
X359818Y94296D01*
X359933Y94371D01*
X359958Y94397D01*
X359986Y94417D01*
X360077Y94521D01*
X360172Y94621D01*
X360190Y94652D01*
X360213Y94678D01*
X360277Y94801D01*
X360347Y94919D01*
X360357Y94953D01*
X360374Y94985D01*
X360408Y95118D01*
X360449Y95250D01*
X360451Y95285D01*
X360460Y95319D01*
X360474Y95524D01*
X360474Y96474D01*
X360561Y96560D01*
X360583Y96588D01*
X360609Y96611D01*
X360690Y96723D01*
X360775Y96831D01*
X360790Y96863D01*
X360811Y96892D01*
X360864Y97020D01*
X360922Y97144D01*
X360929Y97178D01*
X360943Y97211D01*
X360965Y97348D01*
X360993Y97482D01*
X360993Y97518D01*
X360998Y97553D01*
X360988Y97690D01*
X360985Y97828D01*
X360976Y97862D01*
X360974Y97898D01*
X360933Y98029D01*
X360898Y98162D01*
X360882Y98194D01*
X360871Y98228D01*
X360801Y98346D01*
X360737Y98468D01*
X360713Y98495D01*
X360695Y98525D01*
X360561Y98680D01*
X360474Y98766D01*
X360474Y111714D01*
X361367Y112607D01*
X365794Y112607D01*
X365932Y112623D01*
X366071Y112633D01*
X366104Y112643D01*
X366137Y112647D01*
X366268Y112694D01*
X366402Y112735D01*
X366431Y112753D01*
X366463Y112764D01*
X366579Y112840D01*
X366699Y112911D01*
X366733Y112941D01*
X366752Y112953D01*
X366775Y112977D01*
X366854Y113046D01*
X375555Y121747D01*
X375651Y121868D01*
X375751Y121989D01*
X375759Y122004D01*
X375769Y122018D01*
X375836Y122159D01*
X375905Y122299D01*
X375909Y122315D01*
X375916Y122331D01*
X375949Y122484D01*
X375984Y122635D01*
X375984Y122652D01*
X375988Y122669D01*
X375984Y122825D01*
X375984Y122981D01*
X375980Y122998D01*
X375979Y123015D01*
X375940Y123166D01*
X375904Y123318D01*
X375897Y123333D01*
X375892Y123349D01*
X375820Y123487D01*
X375750Y123627D01*
X375739Y123640D01*
X375731Y123655D01*
X375629Y123772D01*
X375528Y123893D01*
X375515Y123903D01*
X375504Y123916D01*
X375377Y124006D01*
X375252Y124101D01*
X375233Y124110D01*
X375223Y124117D01*
X375197Y124128D01*
X375068Y124192D01*
X373282Y124932D01*
X371932Y126282D01*
X371201Y128045D01*
X371201Y129955D01*
X371861Y131548D01*
X371866Y131565D01*
X371875Y131582D01*
X371914Y131732D01*
X371956Y131880D01*
X371957Y131899D01*
X371961Y131917D01*
X371975Y132121D01*
X371975Y145667D01*
X389893Y163584D01*
X390015Y163635D01*
X390145Y163682D01*
X390174Y163701D01*
X390207Y163715D01*
X390319Y163796D01*
X390434Y163871D01*
X390459Y163897D01*
X390487Y163917D01*
X390578Y164021D01*
X390673Y164121D01*
X390691Y164152D01*
X390714Y164178D01*
X390778Y164301D01*
X390848Y164419D01*
X390858Y164453D01*
X390875Y164485D01*
X390909Y164618D01*
X390950Y164750D01*
X390952Y164785D01*
X390961Y164819D01*
X390975Y165024D01*
X390975Y166632D01*
X391868Y167525D01*
X408164Y167525D01*
X408267Y167537D01*
X408372Y167539D01*
X408439Y167557D01*
X408507Y167565D01*
X408605Y167600D01*
X408706Y167626D01*
X408767Y167659D01*
X408833Y167682D01*
X408920Y167739D01*
X409012Y167788D01*
X409064Y167833D01*
X409122Y167871D01*
X409194Y167946D01*
X409273Y168015D01*
X409313Y168071D01*
X409361Y168121D01*
X409414Y168211D01*
X409474Y168296D01*
X409501Y168360D01*
X409536Y168419D01*
X409567Y168519D01*
X409606Y168615D01*
X409618Y168684D01*
X409638Y168750D01*
X409645Y168854D01*
X409662Y168957D01*
X409657Y169026D01*
X409662Y169095D01*
X409645Y169197D01*
X409637Y169302D01*
X409617Y169368D01*
X409606Y169436D01*
X409566Y169532D01*
X409535Y169632D01*
X409499Y169691D01*
X409473Y169755D01*
X409412Y169840D01*
X409359Y169929D01*
X409290Y170008D01*
X409271Y170035D01*
X409254Y170050D01*
X409224Y170084D01*
X389012Y190296D01*
X388903Y190383D01*
X388797Y190474D01*
X388767Y190490D01*
X388741Y190511D01*
X388615Y190570D01*
X388491Y190635D01*
X388459Y190643D01*
X388428Y190658D01*
X388292Y190686D01*
X388157Y190721D01*
X388111Y190724D01*
X388090Y190729D01*
X388056Y190728D01*
X387952Y190735D01*
X381025Y190735D01*
X380990Y190731D01*
X380954Y190734D01*
X380818Y190711D01*
X380682Y190695D01*
X380648Y190683D01*
X380613Y190678D01*
X380486Y190625D01*
X380356Y190578D01*
X380327Y190559D01*
X380294Y190545D01*
X380182Y190464D01*
X380067Y190389D01*
X380042Y190363D01*
X380014Y190343D01*
X379923Y190239D01*
X379828Y190139D01*
X379810Y190108D01*
X379787Y190082D01*
X379723Y189959D01*
X379653Y189841D01*
X379643Y189807D01*
X379626Y189775D01*
X379592Y189642D01*
X379551Y189510D01*
X379549Y189475D01*
X379540Y189441D01*
X379526Y189236D01*
X379526Y188286D01*
X378633Y187393D01*
X361367Y187393D01*
X360474Y188286D01*
X360474Y201234D01*
X360561Y201320D01*
X360583Y201348D01*
X360609Y201371D01*
X360690Y201483D01*
X360775Y201591D01*
X360790Y201623D01*
X360811Y201652D01*
X360864Y201780D01*
X360922Y201904D01*
X360929Y201938D01*
X360943Y201971D01*
X360965Y202108D01*
X360993Y202242D01*
X360993Y202278D01*
X360998Y202313D01*
X360988Y202450D01*
X360985Y202588D01*
X360976Y202622D01*
X360974Y202658D01*
X360933Y202789D01*
X360898Y202922D01*
X360882Y202954D01*
X360871Y202988D01*
X360801Y203106D01*
X360737Y203228D01*
X360713Y203255D01*
X360695Y203285D01*
X360561Y203440D01*
X360474Y203526D01*
X360474Y204476D01*
X360470Y204511D01*
X360473Y204547D01*
X360450Y204683D01*
X360434Y204819D01*
X360422Y204853D01*
X360417Y204888D01*
X360364Y205015D01*
X360317Y205145D01*
X360298Y205174D01*
X360284Y205207D01*
X360203Y205319D01*
X360128Y205434D01*
X360102Y205459D01*
X360082Y205487D01*
X359978Y205578D01*
X359878Y205673D01*
X359847Y205691D01*
X359821Y205714D01*
X359698Y205778D01*
X359580Y205848D01*
X359546Y205858D01*
X359514Y205875D01*
X359381Y205909D01*
X359249Y205950D01*
X359214Y205952D01*
X359180Y205961D01*
X358975Y205975D01*
X318024Y205975D01*
X317989Y205971D01*
X317953Y205974D01*
X317817Y205951D01*
X317681Y205935D01*
X317647Y205923D01*
X317612Y205918D01*
X317485Y205865D01*
X317355Y205818D01*
X317326Y205799D01*
X317293Y205785D01*
X317181Y205704D01*
X317066Y205629D01*
X317041Y205603D01*
X317013Y205583D01*
X316922Y205479D01*
X316827Y205379D01*
X316809Y205348D01*
X316786Y205322D01*
X316722Y205199D01*
X316652Y205081D01*
X316642Y205047D01*
X316625Y205015D01*
X316591Y204882D01*
X316550Y204750D01*
X316548Y204715D01*
X316539Y204681D01*
X316525Y204476D01*
X316525Y203605D01*
X315151Y200288D01*
X312612Y197749D01*
X309295Y196375D01*
X290705Y196375D01*
X287388Y197749D01*
X284849Y200288D01*
X284782Y200450D01*
X284740Y200526D01*
X284706Y200607D01*
X284656Y200677D01*
X284614Y200752D01*
X284555Y200816D01*
X284504Y200887D01*
X284439Y200944D01*
X284381Y201007D01*
X284309Y201057D01*
X284243Y201114D01*
X284166Y201154D01*
X284096Y201203D01*
X284014Y201234D01*
X283937Y201275D01*
X283853Y201296D01*
X283773Y201327D01*
X283687Y201339D01*
X283602Y201361D01*
X283458Y201371D01*
X283431Y201375D01*
X283419Y201374D01*
X283397Y201375D01*
X236603Y201375D01*
X236516Y201365D01*
X236428Y201365D01*
X236345Y201345D01*
X236260Y201335D01*
X236177Y201306D01*
X236092Y201286D01*
X236015Y201247D01*
X235934Y201218D01*
X235861Y201170D01*
X235783Y201131D01*
X235717Y201076D01*
X235645Y201029D01*
X235584Y200966D01*
X235517Y200910D01*
X235465Y200841D01*
X235406Y200779D01*
X235362Y200703D01*
X235309Y200633D01*
X235245Y200505D01*
X235231Y200481D01*
X235228Y200469D01*
X235218Y200450D01*
X235151Y200288D01*
X232612Y197749D01*
X229295Y196375D01*
X217288Y196375D01*
X217150Y196359D01*
X217010Y196349D01*
X216978Y196339D01*
X216945Y196335D01*
X216813Y196288D01*
X216680Y196247D01*
X216651Y196229D01*
X216619Y196218D01*
X216503Y196142D01*
X216383Y196071D01*
X216348Y196041D01*
X216330Y196029D01*
X216307Y196005D01*
X216273Y195975D01*
X157238Y195975D01*
X157100Y195959D01*
X156960Y195949D01*
X156928Y195939D01*
X156894Y195935D01*
X156764Y195888D01*
X156630Y195847D01*
X156601Y195829D01*
X156569Y195818D01*
X156452Y195742D01*
X156332Y195671D01*
X156298Y195641D01*
X156280Y195629D01*
X156256Y195605D01*
X156178Y195536D01*
X154262Y193621D01*
X151497Y192475D01*
X148503Y192475D01*
X145738Y193621D01*
X143822Y195536D01*
X143713Y195623D01*
X143608Y195714D01*
X143578Y195730D01*
X143551Y195751D01*
X143425Y195810D01*
X143302Y195875D01*
X143269Y195883D01*
X143238Y195898D01*
X143102Y195926D01*
X142967Y195961D01*
X142922Y195964D01*
X142900Y195969D01*
X142866Y195968D01*
X142762Y195975D01*
X97238Y195975D01*
X97100Y195959D01*
X96960Y195949D01*
X96928Y195939D01*
X96894Y195935D01*
X96764Y195888D01*
X96630Y195847D01*
X96601Y195829D01*
X96569Y195818D01*
X96452Y195742D01*
X96332Y195671D01*
X96298Y195641D01*
X96280Y195629D01*
X96256Y195605D01*
X96178Y195536D01*
X94262Y193621D01*
X91497Y192475D01*
X88503Y192475D01*
X85738Y193621D01*
X83822Y195536D01*
X83713Y195623D01*
X83608Y195714D01*
X83578Y195730D01*
X83551Y195751D01*
X83425Y195810D01*
X83302Y195875D01*
X83269Y195883D01*
X83238Y195898D01*
X83102Y195926D01*
X82967Y195961D01*
X82922Y195964D01*
X82900Y195969D01*
X82866Y195968D01*
X82762Y195975D01*
X43699Y195975D01*
X43677Y195994D01*
X43647Y196010D01*
X43621Y196031D01*
X43495Y196090D01*
X43371Y196155D01*
X43339Y196163D01*
X43308Y196178D01*
X43172Y196206D01*
X43037Y196241D01*
X42991Y196244D01*
X42970Y196249D01*
X42936Y196248D01*
X42832Y196255D01*
X30561Y196255D01*
X27200Y197647D01*
X24627Y200220D01*
X23235Y203581D01*
X23235Y207219D01*
X24627Y210580D01*
X27200Y213153D01*
X30561Y214545D01*
X49439Y214545D01*
X52800Y213153D01*
X55373Y210580D01*
X56765Y207219D01*
X56765Y205524D01*
X56769Y205489D01*
X56766Y205453D01*
X56789Y205317D01*
X56805Y205181D01*
X56817Y205147D01*
X56822Y205112D01*
X56875Y204985D01*
X56922Y204855D01*
X56941Y204826D01*
X56955Y204793D01*
X57036Y204681D01*
X57111Y204566D01*
X57137Y204541D01*
X57157Y204513D01*
X57261Y204422D01*
X57361Y204327D01*
X57392Y204309D01*
X57418Y204286D01*
X57541Y204222D01*
X57659Y204152D01*
X57693Y204142D01*
X57725Y204125D01*
X57858Y204091D01*
X57990Y204050D01*
X58025Y204048D01*
X58059Y204039D01*
X58264Y204025D01*
X82762Y204025D01*
X82900Y204041D01*
X83040Y204051D01*
X83072Y204061D01*
X83106Y204065D01*
X83236Y204112D01*
X83370Y204153D01*
X83399Y204171D01*
X83431Y204182D01*
X83548Y204258D01*
X83668Y204329D01*
X83702Y204359D01*
X83720Y204371D01*
X83744Y204395D01*
X83822Y204464D01*
X85738Y206379D01*
X88503Y207525D01*
X91497Y207525D01*
X94262Y206379D01*
X96178Y204464D01*
X96287Y204377D01*
X96392Y204286D01*
X96422Y204270D01*
X96449Y204249D01*
X96575Y204190D01*
X96698Y204125D01*
X96731Y204117D01*
X96762Y204102D01*
X96898Y204074D01*
X97033Y204039D01*
X97078Y204036D01*
X97100Y204031D01*
X97134Y204032D01*
X97238Y204025D01*
X142762Y204025D01*
X142900Y204041D01*
X143040Y204051D01*
X143072Y204061D01*
X143106Y204065D01*
X143236Y204112D01*
X143370Y204153D01*
X143399Y204171D01*
X143431Y204182D01*
X143548Y204258D01*
X143668Y204329D01*
X143702Y204359D01*
X143720Y204371D01*
X143744Y204395D01*
X143822Y204464D01*
X145738Y206379D01*
X148503Y207525D01*
X151497Y207525D01*
X154262Y206379D01*
X156178Y204464D01*
X156287Y204377D01*
X156392Y204286D01*
X156422Y204270D01*
X156449Y204249D01*
X156575Y204190D01*
X156698Y204125D01*
X156731Y204117D01*
X156762Y204102D01*
X156898Y204074D01*
X157033Y204039D01*
X157078Y204036D01*
X157100Y204031D01*
X157134Y204032D01*
X157238Y204025D01*
X201976Y204025D01*
X202011Y204029D01*
X202047Y204026D01*
X202183Y204049D01*
X202319Y204065D01*
X202353Y204077D01*
X202388Y204082D01*
X202515Y204135D01*
X202645Y204182D01*
X202674Y204201D01*
X202707Y204215D01*
X202819Y204296D01*
X202934Y204371D01*
X202959Y204397D01*
X202987Y204417D01*
X203078Y204521D01*
X203173Y204621D01*
X203191Y204652D01*
X203214Y204678D01*
X203278Y204801D01*
X203348Y204919D01*
X203358Y204953D01*
X203375Y204985D01*
X203409Y205118D01*
X203450Y205250D01*
X203452Y205285D01*
X203461Y205319D01*
X203475Y205524D01*
X203475Y207195D01*
X204849Y210512D01*
X207388Y213051D01*
X210705Y214425D01*
X229295Y214425D01*
X232612Y213051D01*
X235151Y210512D01*
X235218Y210350D01*
X235260Y210274D01*
X235294Y210193D01*
X235344Y210123D01*
X235386Y210048D01*
X235445Y209984D01*
X235496Y209913D01*
X235561Y209856D01*
X235619Y209793D01*
X235691Y209743D01*
X235757Y209686D01*
X235834Y209646D01*
X235904Y209597D01*
X235986Y209566D01*
X236063Y209525D01*
X236147Y209504D01*
X236227Y209473D01*
X236313Y209461D01*
X236398Y209439D01*
X236542Y209429D01*
X236569Y209425D01*
X236581Y209426D01*
X236603Y209425D01*
X283397Y209425D01*
X283484Y209435D01*
X283572Y209435D01*
X283655Y209455D01*
X283740Y209465D01*
X283823Y209494D01*
X283908Y209514D01*
X283985Y209553D01*
X284066Y209582D01*
X284139Y209630D01*
X284217Y209669D01*
X284283Y209724D01*
X284355Y209771D01*
X284416Y209834D01*
X284483Y209890D01*
X284535Y209959D01*
X284594Y210021D01*
X284638Y210097D01*
X284691Y210167D01*
X284755Y210295D01*
X284769Y210319D01*
X284772Y210331D01*
X284782Y210350D01*
X284849Y210512D01*
X287388Y213051D01*
X290705Y214425D01*
X309295Y214425D01*
X309985Y214139D01*
X310003Y214134D01*
X310020Y214125D01*
X310170Y214086D01*
X310318Y214044D01*
X310336Y214043D01*
X310354Y214039D01*
X310559Y214025D01*
X358975Y214025D01*
X359010Y214029D01*
X359046Y214026D01*
X359182Y214049D01*
X359318Y214065D01*
X359352Y214077D01*
X359387Y214082D01*
X359514Y214135D01*
X359644Y214182D01*
X359673Y214201D01*
X359706Y214215D01*
X359818Y214296D01*
X359933Y214371D01*
X359958Y214397D01*
X359986Y214417D01*
X360077Y214521D01*
X360172Y214621D01*
X360190Y214652D01*
X360213Y214678D01*
X360277Y214801D01*
X360347Y214919D01*
X360357Y214953D01*
X360374Y214985D01*
X360408Y215118D01*
X360449Y215250D01*
X360451Y215285D01*
X360460Y215319D01*
X360474Y215524D01*
X360474Y216474D01*
X360561Y216560D01*
X360583Y216588D01*
X360609Y216611D01*
X360690Y216723D01*
X360775Y216831D01*
X360790Y216863D01*
X360811Y216892D01*
X360864Y217020D01*
X360922Y217144D01*
X360929Y217178D01*
X360943Y217211D01*
X360965Y217348D01*
X360993Y217482D01*
X360993Y217518D01*
X360998Y217553D01*
X360988Y217690D01*
X360985Y217828D01*
X360976Y217862D01*
X360974Y217898D01*
X360933Y218029D01*
X360898Y218162D01*
X360882Y218194D01*
X360871Y218228D01*
X360801Y218346D01*
X360737Y218468D01*
X360713Y218495D01*
X360695Y218525D01*
X360561Y218680D01*
X360474Y218766D01*
X360474Y231714D01*
X361367Y232607D01*
X378633Y232607D01*
X379526Y231714D01*
X379526Y230764D01*
X379530Y230729D01*
X379527Y230693D01*
X379550Y230557D01*
X379566Y230421D01*
X379578Y230387D01*
X379583Y230352D01*
X379636Y230225D01*
X379683Y230095D01*
X379702Y230066D01*
X379716Y230033D01*
X379797Y229921D01*
X379872Y229806D01*
X379898Y229781D01*
X379918Y229753D01*
X380022Y229662D01*
X380122Y229567D01*
X380153Y229549D01*
X380179Y229526D01*
X380302Y229462D01*
X380420Y229392D01*
X380454Y229382D01*
X380486Y229365D01*
X380619Y229331D01*
X380751Y229290D01*
X380786Y229288D01*
X380820Y229279D01*
X381025Y229265D01*
X382458Y229265D01*
X382477Y229267D01*
X382495Y229265D01*
X382648Y229287D01*
X382802Y229305D01*
X382819Y229311D01*
X382837Y229314D01*
X383032Y229379D01*
X384045Y229799D01*
X385955Y229799D01*
X387718Y229068D01*
X389068Y227718D01*
X389799Y225955D01*
X389799Y224045D01*
X389068Y222282D01*
X387718Y220932D01*
X385955Y220201D01*
X384045Y220201D01*
X382204Y220964D01*
X382193Y220970D01*
X382166Y220991D01*
X382040Y221050D01*
X381917Y221115D01*
X381884Y221123D01*
X381853Y221138D01*
X381717Y221166D01*
X381582Y221201D01*
X381537Y221204D01*
X381515Y221209D01*
X381481Y221208D01*
X381377Y221215D01*
X381025Y221215D01*
X380990Y221211D01*
X380954Y221214D01*
X380818Y221191D01*
X380682Y221175D01*
X380648Y221163D01*
X380613Y221158D01*
X380486Y221105D01*
X380356Y221058D01*
X380327Y221039D01*
X380294Y221025D01*
X380182Y220944D01*
X380067Y220869D01*
X380042Y220843D01*
X380014Y220823D01*
X379923Y220719D01*
X379828Y220619D01*
X379810Y220588D01*
X379787Y220562D01*
X379723Y220439D01*
X379653Y220321D01*
X379643Y220287D01*
X379626Y220255D01*
X379592Y220122D01*
X379551Y219990D01*
X379549Y219955D01*
X379540Y219921D01*
X379526Y219716D01*
X379526Y218766D01*
X379439Y218680D01*
X379417Y218652D01*
X379391Y218629D01*
X379310Y218517D01*
X379225Y218409D01*
X379210Y218377D01*
X379189Y218348D01*
X379137Y218221D01*
X379078Y218096D01*
X379071Y218061D01*
X379057Y218029D01*
X379035Y217892D01*
X379007Y217758D01*
X379007Y217722D01*
X379002Y217687D01*
X379012Y217550D01*
X379015Y217412D01*
X379024Y217378D01*
X379026Y217342D01*
X379067Y217211D01*
X379102Y217078D01*
X379118Y217046D01*
X379129Y217012D01*
X379199Y216893D01*
X379263Y216772D01*
X379287Y216745D01*
X379305Y216714D01*
X379439Y216560D01*
X379526Y216474D01*
X379526Y203526D01*
X379439Y203440D01*
X379417Y203412D01*
X379391Y203389D01*
X379310Y203277D01*
X379225Y203169D01*
X379210Y203137D01*
X379189Y203108D01*
X379137Y202981D01*
X379078Y202856D01*
X379071Y202821D01*
X379057Y202789D01*
X379035Y202652D01*
X379007Y202518D01*
X379007Y202482D01*
X379002Y202447D01*
X379012Y202310D01*
X379015Y202172D01*
X379024Y202138D01*
X379026Y202102D01*
X379067Y201971D01*
X379102Y201838D01*
X379118Y201806D01*
X379129Y201772D01*
X379199Y201653D01*
X379263Y201532D01*
X379287Y201505D01*
X379305Y201474D01*
X379439Y201320D01*
X379526Y201234D01*
X379526Y200284D01*
X379530Y200249D01*
X379527Y200213D01*
X379550Y200077D01*
X379566Y199941D01*
X379578Y199907D01*
X379583Y199872D01*
X379636Y199745D01*
X379683Y199615D01*
X379702Y199586D01*
X379716Y199553D01*
X379797Y199441D01*
X379872Y199326D01*
X379898Y199301D01*
X379918Y199273D01*
X380022Y199182D01*
X380122Y199087D01*
X380153Y199069D01*
X380179Y199046D01*
X380302Y198982D01*
X380420Y198912D01*
X380454Y198902D01*
X380486Y198885D01*
X380619Y198851D01*
X380751Y198810D01*
X380786Y198808D01*
X380820Y198799D01*
X381025Y198785D01*
X391907Y198785D01*
X419025Y171667D01*
X419025Y168301D01*
X419037Y168197D01*
X419039Y168093D01*
X419057Y168026D01*
X419065Y167957D01*
X419100Y167859D01*
X419126Y167758D01*
X419159Y167697D01*
X419182Y167632D01*
X419239Y167545D01*
X419288Y167452D01*
X419333Y167400D01*
X419371Y167342D01*
X419446Y167270D01*
X419515Y167192D01*
X419571Y167151D01*
X419621Y167104D01*
X419711Y167051D01*
X419796Y166990D01*
X419860Y166964D01*
X419919Y166929D01*
X420019Y166898D01*
X420115Y166858D01*
X420184Y166847D01*
X420250Y166827D01*
X420354Y166819D01*
X420457Y166803D01*
X420526Y166808D01*
X420595Y166803D01*
X420697Y166820D01*
X420802Y166827D01*
X420868Y166848D01*
X420936Y166859D01*
X421032Y166899D01*
X421132Y166930D01*
X421191Y166965D01*
X421255Y166992D01*
X421340Y167053D01*
X421429Y167106D01*
X421508Y167174D01*
X421535Y167194D01*
X421550Y167211D01*
X421584Y167240D01*
X421868Y167525D01*
X424476Y167525D01*
X424511Y167529D01*
X424547Y167526D01*
X424683Y167549D01*
X424819Y167565D01*
X424853Y167577D01*
X424888Y167582D01*
X425015Y167635D01*
X425145Y167682D01*
X425174Y167701D01*
X425207Y167715D01*
X425319Y167796D01*
X425434Y167871D01*
X425459Y167897D01*
X425487Y167917D01*
X425578Y168021D01*
X425673Y168121D01*
X425691Y168152D01*
X425714Y168178D01*
X425778Y168301D01*
X425848Y168419D01*
X425858Y168453D01*
X425875Y168485D01*
X425909Y168618D01*
X425950Y168750D01*
X425952Y168785D01*
X425961Y168819D01*
X425975Y169024D01*
X425975Y171712D01*
X425959Y171850D01*
X425949Y171989D01*
X425939Y172022D01*
X425935Y172055D01*
X425888Y172186D01*
X425847Y172320D01*
X425829Y172349D01*
X425818Y172381D01*
X425742Y172497D01*
X425671Y172617D01*
X425641Y172651D01*
X425629Y172670D01*
X425605Y172693D01*
X425536Y172772D01*
X420975Y177333D01*
X420975Y313712D01*
X420959Y313850D01*
X420949Y313989D01*
X420939Y314022D01*
X420935Y314055D01*
X420888Y314186D01*
X420847Y314320D01*
X420829Y314349D01*
X420818Y314381D01*
X420742Y314497D01*
X420671Y314617D01*
X420641Y314651D01*
X420629Y314670D01*
X420605Y314693D01*
X420536Y314772D01*
X413772Y321536D01*
X413663Y321623D01*
X413557Y321714D01*
X413527Y321730D01*
X413501Y321751D01*
X413375Y321810D01*
X413251Y321875D01*
X413219Y321883D01*
X413188Y321898D01*
X413052Y321926D01*
X412917Y321961D01*
X412871Y321964D01*
X412850Y321969D01*
X412816Y321968D01*
X412712Y321975D01*
X397301Y321975D01*
X397197Y321963D01*
X397093Y321961D01*
X397026Y321943D01*
X396957Y321935D01*
X396859Y321900D01*
X396758Y321874D01*
X396697Y321841D01*
X396632Y321818D01*
X396544Y321761D01*
X396452Y321712D01*
X396400Y321667D01*
X396342Y321629D01*
X396270Y321554D01*
X396192Y321485D01*
X396151Y321429D01*
X396104Y321379D01*
X396051Y321289D01*
X395990Y321204D01*
X395964Y321140D01*
X395929Y321081D01*
X395898Y320981D01*
X395858Y320885D01*
X395847Y320816D01*
X395827Y320750D01*
X395819Y320646D01*
X395803Y320543D01*
X395808Y320474D01*
X395803Y320405D01*
X395820Y320303D01*
X395827Y320198D01*
X395848Y320132D01*
X395859Y320064D01*
X395899Y319968D01*
X395930Y319868D01*
X395965Y319809D01*
X395992Y319745D01*
X396053Y319661D01*
X396106Y319571D01*
X396174Y319492D01*
X396194Y319465D01*
X396211Y319450D01*
X396240Y319416D01*
X397525Y318132D01*
X397525Y302039D01*
X397529Y302004D01*
X397526Y301968D01*
X397549Y301832D01*
X397565Y301696D01*
X397577Y301662D01*
X397582Y301627D01*
X397635Y301500D01*
X397682Y301370D01*
X397701Y301341D01*
X397715Y301308D01*
X397796Y301196D01*
X397871Y301081D01*
X397897Y301056D01*
X397917Y301028D01*
X398021Y300937D01*
X398121Y300842D01*
X398152Y300824D01*
X398178Y300801D01*
X398301Y300737D01*
X398419Y300667D01*
X398453Y300657D01*
X398485Y300640D01*
X398618Y300606D01*
X398750Y300565D01*
X398785Y300563D01*
X398819Y300554D01*
X399024Y300540D01*
X402852Y300540D01*
X403745Y299647D01*
X403745Y280353D01*
X402852Y279460D01*
X385588Y279460D01*
X384695Y280353D01*
X384695Y299476D01*
X384691Y299511D01*
X384694Y299547D01*
X384671Y299683D01*
X384655Y299819D01*
X384643Y299853D01*
X384638Y299888D01*
X384585Y300015D01*
X384538Y300145D01*
X384519Y300174D01*
X384505Y300207D01*
X384424Y300319D01*
X384349Y300434D01*
X384323Y300459D01*
X384303Y300487D01*
X384199Y300578D01*
X384099Y300673D01*
X384068Y300691D01*
X384042Y300714D01*
X383919Y300778D01*
X383801Y300848D01*
X383767Y300858D01*
X383735Y300875D01*
X383602Y300909D01*
X383470Y300950D01*
X383435Y300952D01*
X383401Y300961D01*
X383196Y300975D01*
X382368Y300975D01*
X381060Y302284D01*
X381032Y302306D01*
X381009Y302332D01*
X380897Y302413D01*
X380789Y302498D01*
X380757Y302513D01*
X380728Y302534D01*
X380601Y302587D01*
X380476Y302645D01*
X380441Y302652D01*
X380409Y302666D01*
X380272Y302688D01*
X380138Y302716D01*
X380102Y302716D01*
X380067Y302721D01*
X379930Y302711D01*
X379792Y302708D01*
X379758Y302699D01*
X379722Y302697D01*
X379591Y302656D01*
X379458Y302621D01*
X379426Y302605D01*
X379392Y302594D01*
X379274Y302524D01*
X379152Y302460D01*
X379125Y302436D01*
X379095Y302418D01*
X378940Y302284D01*
X377607Y300951D01*
X377477Y300935D01*
X377443Y300923D01*
X377408Y300918D01*
X377281Y300865D01*
X377151Y300818D01*
X377122Y300799D01*
X377089Y300785D01*
X376977Y300704D01*
X376862Y300629D01*
X376837Y300603D01*
X376809Y300583D01*
X376718Y300479D01*
X376623Y300379D01*
X376605Y300348D01*
X376582Y300322D01*
X376518Y300199D01*
X376448Y300081D01*
X376438Y300047D01*
X376421Y300015D01*
X376387Y299882D01*
X376346Y299750D01*
X376344Y299715D01*
X376335Y299681D01*
X376321Y299476D01*
X376321Y292999D01*
X367280Y292999D01*
X367245Y292995D01*
X367210Y292998D01*
X367073Y292975D01*
X366937Y292959D01*
X366903Y292947D01*
X366868Y292942D01*
X366741Y292889D01*
X366611Y292842D01*
X366582Y292822D01*
X366549Y292809D01*
X366437Y292728D01*
X366322Y292653D01*
X366297Y292627D01*
X366269Y292607D01*
X366178Y292502D01*
X366083Y292403D01*
X366065Y292372D01*
X366042Y292345D01*
X365978Y292223D01*
X365908Y292105D01*
X365898Y292071D01*
X365881Y292039D01*
X365847Y291906D01*
X365806Y291774D01*
X365804Y291739D01*
X365795Y291705D01*
X365781Y291500D01*
X365781Y289999D01*
X365779Y289999D01*
X365779Y291500D01*
X365775Y291535D01*
X365777Y291570D01*
X365755Y291707D01*
X365739Y291843D01*
X365727Y291877D01*
X365721Y291912D01*
X365669Y292039D01*
X365622Y292169D01*
X365602Y292198D01*
X365589Y292231D01*
X365508Y292343D01*
X365433Y292458D01*
X365407Y292483D01*
X365387Y292511D01*
X365282Y292602D01*
X365183Y292697D01*
X365152Y292715D01*
X365125Y292738D01*
X365003Y292802D01*
X364885Y292872D01*
X364851Y292882D01*
X364819Y292899D01*
X364686Y292933D01*
X364554Y292974D01*
X364519Y292976D01*
X364485Y292985D01*
X364280Y292999D01*
X355239Y292999D01*
X355239Y296928D01*
X355227Y297031D01*
X355225Y297136D01*
X355207Y297203D01*
X355199Y297271D01*
X355164Y297369D01*
X355138Y297470D01*
X355105Y297532D01*
X355082Y297597D01*
X355025Y297684D01*
X354976Y297776D01*
X354931Y297828D01*
X354893Y297886D01*
X354818Y297958D01*
X354749Y298037D01*
X354693Y298077D01*
X354643Y298125D01*
X354553Y298178D01*
X354468Y298238D01*
X354404Y298265D01*
X354345Y298300D01*
X354245Y298331D01*
X354149Y298370D01*
X354080Y298382D01*
X354014Y298402D01*
X353910Y298409D01*
X353807Y298426D01*
X353738Y298421D01*
X353669Y298426D01*
X353567Y298409D01*
X353462Y298401D01*
X353396Y298381D01*
X353328Y298370D01*
X353232Y298330D01*
X353132Y298299D01*
X353073Y298263D01*
X353009Y298237D01*
X352924Y298176D01*
X352835Y298123D01*
X352756Y298054D01*
X352729Y298035D01*
X352714Y298018D01*
X352680Y297988D01*
X319667Y264975D01*
X287333Y264975D01*
X276772Y275536D01*
X276663Y275623D01*
X276557Y275714D01*
X276527Y275730D01*
X276501Y275751D01*
X276375Y275810D01*
X276251Y275875D01*
X276219Y275883D01*
X276188Y275898D01*
X276052Y275926D01*
X275917Y275961D01*
X275871Y275964D01*
X275850Y275969D01*
X275816Y275968D01*
X275712Y275975D01*
X273368Y275975D01*
X272475Y276868D01*
X272475Y284476D01*
X272471Y284511D01*
X272474Y284547D01*
X272451Y284683D01*
X272435Y284819D01*
X272423Y284853D01*
X272418Y284888D01*
X272365Y285015D01*
X272318Y285145D01*
X272299Y285174D01*
X272285Y285207D01*
X272204Y285319D01*
X272129Y285434D01*
X272103Y285459D01*
X272083Y285487D01*
X271979Y285578D01*
X271879Y285673D01*
X271848Y285691D01*
X271822Y285714D01*
X271699Y285778D01*
X271581Y285848D01*
X271547Y285858D01*
X271515Y285875D01*
X271382Y285909D01*
X271250Y285950D01*
X271215Y285952D01*
X271181Y285961D01*
X270976Y285975D01*
X265188Y285975D01*
X265153Y285971D01*
X265117Y285974D01*
X264981Y285951D01*
X264845Y285935D01*
X264811Y285923D01*
X264776Y285918D01*
X264649Y285865D01*
X264519Y285818D01*
X264490Y285799D01*
X264457Y285785D01*
X264345Y285704D01*
X264230Y285629D01*
X264205Y285603D01*
X264177Y285583D01*
X264086Y285479D01*
X263991Y285379D01*
X263973Y285348D01*
X263950Y285322D01*
X263886Y285199D01*
X263816Y285081D01*
X263806Y285047D01*
X263789Y285015D01*
X263755Y284882D01*
X263714Y284750D01*
X263712Y284715D01*
X263703Y284681D01*
X263689Y284476D01*
X263689Y283272D01*
X262796Y282379D01*
X239180Y282379D01*
X238287Y283272D01*
X238287Y284476D01*
X238283Y284511D01*
X238286Y284547D01*
X238263Y284683D01*
X238247Y284819D01*
X238235Y284853D01*
X238230Y284888D01*
X238177Y285015D01*
X238130Y285145D01*
X238111Y285174D01*
X238097Y285207D01*
X238016Y285319D01*
X237941Y285434D01*
X237915Y285459D01*
X237895Y285487D01*
X237791Y285578D01*
X237691Y285673D01*
X237660Y285691D01*
X237634Y285714D01*
X237511Y285778D01*
X237393Y285848D01*
X237359Y285858D01*
X237327Y285875D01*
X237194Y285909D01*
X237062Y285950D01*
X237027Y285952D01*
X236993Y285961D01*
X236788Y285975D01*
X203034Y285975D01*
X202999Y285971D01*
X202963Y285974D01*
X202827Y285951D01*
X202691Y285935D01*
X202657Y285923D01*
X202622Y285918D01*
X202495Y285865D01*
X202365Y285818D01*
X202336Y285799D01*
X202303Y285785D01*
X202191Y285704D01*
X202076Y285629D01*
X202051Y285603D01*
X202023Y285583D01*
X201932Y285479D01*
X201837Y285379D01*
X201819Y285348D01*
X201796Y285322D01*
X201732Y285199D01*
X201662Y285081D01*
X201652Y285047D01*
X201635Y285015D01*
X201601Y284882D01*
X201560Y284750D01*
X201558Y284715D01*
X201549Y284681D01*
X201535Y284476D01*
X201535Y271368D01*
X200642Y270475D01*
X177378Y270475D01*
X176485Y271368D01*
X176485Y308632D01*
X177378Y309525D01*
X200642Y309525D01*
X201535Y308632D01*
X201535Y295524D01*
X201539Y295489D01*
X201536Y295453D01*
X201559Y295317D01*
X201575Y295181D01*
X201587Y295147D01*
X201592Y295112D01*
X201645Y294985D01*
X201692Y294855D01*
X201711Y294826D01*
X201725Y294793D01*
X201806Y294681D01*
X201881Y294566D01*
X201907Y294541D01*
X201927Y294513D01*
X202032Y294422D01*
X202131Y294327D01*
X202162Y294309D01*
X202188Y294286D01*
X202311Y294222D01*
X202429Y294152D01*
X202463Y294142D01*
X202495Y294125D01*
X202628Y294091D01*
X202760Y294050D01*
X202795Y294048D01*
X202829Y294039D01*
X203034Y294025D01*
X236788Y294025D01*
X236823Y294029D01*
X236859Y294026D01*
X236995Y294049D01*
X237131Y294065D01*
X237165Y294077D01*
X237200Y294082D01*
X237327Y294135D01*
X237457Y294182D01*
X237486Y294201D01*
X237519Y294215D01*
X237631Y294296D01*
X237746Y294371D01*
X237771Y294397D01*
X237799Y294417D01*
X237890Y294521D01*
X237985Y294621D01*
X238003Y294652D01*
X238026Y294678D01*
X238090Y294801D01*
X238160Y294919D01*
X238170Y294953D01*
X238187Y294985D01*
X238221Y295118D01*
X238262Y295250D01*
X238264Y295285D01*
X238273Y295319D01*
X238287Y295524D01*
X238287Y296728D01*
X239180Y297621D01*
X262796Y297621D01*
X263689Y296728D01*
X263689Y295524D01*
X263693Y295489D01*
X263690Y295453D01*
X263713Y295317D01*
X263729Y295181D01*
X263741Y295147D01*
X263746Y295112D01*
X263799Y294985D01*
X263846Y294855D01*
X263865Y294826D01*
X263879Y294793D01*
X263960Y294681D01*
X264035Y294566D01*
X264061Y294541D01*
X264081Y294513D01*
X264186Y294422D01*
X264285Y294327D01*
X264316Y294309D01*
X264342Y294286D01*
X264465Y294222D01*
X264583Y294152D01*
X264617Y294142D01*
X264649Y294125D01*
X264782Y294091D01*
X264914Y294050D01*
X264949Y294048D01*
X264983Y294039D01*
X265188Y294025D01*
X287632Y294025D01*
X288352Y293305D01*
X288397Y293268D01*
X288437Y293226D01*
X288533Y293161D01*
X288623Y293090D01*
X288676Y293065D01*
X288724Y293033D01*
X288832Y292992D01*
X288936Y292943D01*
X288993Y292931D01*
X289048Y292910D01*
X289161Y292896D01*
X289274Y292872D01*
X289332Y292873D01*
X289390Y292866D01*
X289505Y292877D01*
X289620Y292880D01*
X289676Y292895D01*
X289734Y292901D01*
X289843Y292938D01*
X289954Y292967D01*
X290006Y292995D01*
X290061Y293014D01*
X290158Y293075D01*
X290260Y293129D01*
X290304Y293167D01*
X290353Y293198D01*
X290434Y293280D01*
X290521Y293356D01*
X290555Y293403D01*
X290596Y293445D01*
X290710Y293615D01*
X290967Y294060D01*
X291440Y294533D01*
X292019Y294868D01*
X292665Y295041D01*
X296501Y295041D01*
X296501Y286500D01*
X296505Y286465D01*
X296502Y286430D01*
X296525Y286293D01*
X296541Y286157D01*
X296553Y286123D01*
X296558Y286088D01*
X296611Y285961D01*
X296658Y285831D01*
X296678Y285802D01*
X296691Y285769D01*
X296772Y285657D01*
X296847Y285542D01*
X296873Y285517D01*
X296893Y285489D01*
X296998Y285398D01*
X297097Y285303D01*
X297128Y285285D01*
X297154Y285262D01*
X297277Y285198D01*
X297395Y285128D01*
X297429Y285118D01*
X297461Y285101D01*
X297594Y285067D01*
X297726Y285026D01*
X297761Y285024D01*
X297795Y285015D01*
X298000Y285001D01*
X299501Y285001D01*
X299501Y283500D01*
X299505Y283465D01*
X299503Y283429D01*
X299525Y283293D01*
X299541Y283157D01*
X299553Y283123D01*
X299559Y283088D01*
X299611Y282961D01*
X299658Y282831D01*
X299678Y282802D01*
X299691Y282769D01*
X299772Y282657D01*
X299847Y282542D01*
X299873Y282517D01*
X299893Y282489D01*
X299998Y282398D01*
X300097Y282303D01*
X300128Y282285D01*
X300155Y282262D01*
X300277Y282198D01*
X300395Y282128D01*
X300429Y282118D01*
X300461Y282101D01*
X300594Y282067D01*
X300726Y282026D01*
X300761Y282024D01*
X300795Y282015D01*
X301000Y282001D01*
X308541Y282001D01*
X308541Y277165D01*
X308368Y276519D01*
X308033Y275940D01*
X307677Y275584D01*
X307613Y275502D01*
X307540Y275427D01*
X307505Y275367D01*
X307463Y275313D01*
X307418Y275219D01*
X307365Y275129D01*
X307345Y275063D01*
X307316Y275000D01*
X307294Y274898D01*
X307263Y274798D01*
X307259Y274729D01*
X307244Y274662D01*
X307247Y274558D01*
X307240Y274453D01*
X307251Y274385D01*
X307253Y274316D01*
X307279Y274215D01*
X307296Y274112D01*
X307322Y274049D01*
X307340Y273982D01*
X307388Y273889D01*
X307428Y273793D01*
X307469Y273737D01*
X307501Y273676D01*
X307570Y273597D01*
X307631Y273513D01*
X307683Y273467D01*
X307728Y273415D01*
X307813Y273354D01*
X307892Y273286D01*
X307953Y273254D01*
X308009Y273213D01*
X308105Y273174D01*
X308198Y273125D01*
X308265Y273108D01*
X308329Y273082D01*
X308432Y273065D01*
X308533Y273039D01*
X308637Y273032D01*
X308670Y273026D01*
X308692Y273028D01*
X308737Y273025D01*
X315712Y273025D01*
X315850Y273041D01*
X315989Y273051D01*
X316022Y273061D01*
X316055Y273065D01*
X316186Y273112D01*
X316320Y273153D01*
X316349Y273171D01*
X316381Y273182D01*
X316497Y273258D01*
X316617Y273329D01*
X316651Y273359D01*
X316670Y273371D01*
X316693Y273395D01*
X316772Y273464D01*
X357333Y314025D01*
X360976Y314025D01*
X361011Y314029D01*
X361047Y314026D01*
X361183Y314049D01*
X361319Y314065D01*
X361353Y314077D01*
X361388Y314082D01*
X361515Y314135D01*
X361645Y314182D01*
X361674Y314201D01*
X361707Y314215D01*
X361819Y314296D01*
X361934Y314371D01*
X361959Y314397D01*
X361987Y314417D01*
X362078Y314521D01*
X362173Y314621D01*
X362191Y314652D01*
X362214Y314678D01*
X362278Y314801D01*
X362348Y314919D01*
X362358Y314953D01*
X362375Y314985D01*
X362409Y315118D01*
X362450Y315250D01*
X362452Y315285D01*
X362461Y315319D01*
X362475Y315524D01*
X362475Y318132D01*
X363368Y319025D01*
X364976Y319025D01*
X365011Y319029D01*
X365047Y319026D01*
X365183Y319049D01*
X365319Y319065D01*
X365353Y319077D01*
X365388Y319082D01*
X365515Y319135D01*
X365645Y319182D01*
X365674Y319201D01*
X365707Y319215D01*
X365819Y319296D01*
X365934Y319371D01*
X365959Y319397D01*
X365987Y319417D01*
X366078Y319521D01*
X366173Y319621D01*
X366191Y319652D01*
X366214Y319678D01*
X366278Y319801D01*
X366348Y319919D01*
X366358Y319953D01*
X366375Y319985D01*
X366409Y320118D01*
X366450Y320250D01*
X366452Y320285D01*
X366461Y320319D01*
X366475Y320524D01*
X366475Y346138D01*
X366457Y346293D01*
X366443Y346448D01*
X366437Y346464D01*
X366435Y346481D01*
X366382Y346628D01*
X366333Y346776D01*
X366324Y346790D01*
X366318Y346806D01*
X366232Y346937D01*
X366150Y347070D01*
X366138Y347082D01*
X366129Y347096D01*
X366016Y347204D01*
X365905Y347314D01*
X365891Y347323D01*
X365879Y347335D01*
X365744Y347414D01*
X365611Y347496D01*
X365595Y347501D01*
X365581Y347510D01*
X365432Y347556D01*
X365283Y347605D01*
X365266Y347607D01*
X365250Y347612D01*
X365094Y347622D01*
X364939Y347636D01*
X364922Y347634D01*
X364905Y347635D01*
X364751Y347610D01*
X364597Y347588D01*
X364576Y347581D01*
X364564Y347579D01*
X364539Y347569D01*
X364493Y347553D01*
X359524Y347553D01*
X354949Y349448D01*
X351448Y352949D01*
X349553Y357524D01*
X349553Y362476D01*
X351448Y367051D01*
X354949Y370552D01*
X359524Y372447D01*
X364476Y372447D01*
X369051Y370552D01*
X372552Y367051D01*
X374447Y362476D01*
X374447Y357524D01*
X373577Y355424D01*
X373553Y355340D01*
X373519Y355259D01*
X373506Y355174D01*
X373482Y355091D01*
X373478Y355004D01*
X373464Y354918D01*
X373470Y354832D01*
X373466Y354746D01*
X373482Y354660D01*
X373489Y354573D01*
X373514Y354491D01*
X373530Y354406D01*
X373565Y354326D01*
X373591Y354243D01*
X373635Y354168D01*
X373670Y354090D01*
X373722Y354020D01*
X373767Y353945D01*
X373861Y353836D01*
X373878Y353814D01*
X373887Y353807D01*
X373902Y353790D01*
X374525Y353167D01*
X374525Y331524D01*
X374529Y331489D01*
X374526Y331453D01*
X374549Y331317D01*
X374565Y331181D01*
X374577Y331147D01*
X374582Y331112D01*
X374635Y330985D01*
X374682Y330855D01*
X374701Y330826D01*
X374715Y330793D01*
X374796Y330681D01*
X374871Y330566D01*
X374897Y330541D01*
X374917Y330513D01*
X375021Y330422D01*
X375121Y330327D01*
X375152Y330309D01*
X375178Y330286D01*
X375301Y330222D01*
X375419Y330152D01*
X375453Y330142D01*
X375485Y330125D01*
X375618Y330091D01*
X375750Y330050D01*
X375785Y330048D01*
X375819Y330039D01*
X376024Y330025D01*
X416667Y330025D01*
X426228Y320464D01*
X429025Y317667D01*
X429025Y181288D01*
X429041Y181150D01*
X429051Y181011D01*
X429061Y180978D01*
X429065Y180945D01*
X429112Y180814D01*
X429153Y180680D01*
X429171Y180651D01*
X429182Y180619D01*
X429258Y180503D01*
X429329Y180383D01*
X429359Y180349D01*
X429371Y180330D01*
X429395Y180307D01*
X429464Y180228D01*
X431228Y178464D01*
X431337Y178377D01*
X431443Y178286D01*
X431473Y178270D01*
X431499Y178249D01*
X431625Y178190D01*
X431749Y178125D01*
X431781Y178117D01*
X431812Y178102D01*
X431948Y178074D01*
X432083Y178039D01*
X432129Y178036D01*
X432150Y178031D01*
X432184Y178032D01*
X432288Y178025D01*
X460667Y178025D01*
X468728Y169964D01*
X468837Y169877D01*
X468943Y169786D01*
X468973Y169770D01*
X468999Y169749D01*
X469125Y169690D01*
X469249Y169625D01*
X469281Y169617D01*
X469312Y169602D01*
X469448Y169574D01*
X469583Y169539D01*
X469629Y169536D01*
X469650Y169531D01*
X469684Y169532D01*
X469788Y169525D01*
X475132Y169525D01*
X476025Y168632D01*
X476025Y160788D01*
X476041Y160650D01*
X476051Y160511D01*
X476061Y160478D01*
X476065Y160445D01*
X476112Y160314D01*
X476153Y160180D01*
X476171Y160151D01*
X476182Y160119D01*
X476258Y160003D01*
X476329Y159883D01*
X476359Y159849D01*
X476371Y159830D01*
X476395Y159807D01*
X476464Y159728D01*
X485228Y150964D01*
X487643Y148549D01*
X487670Y148527D01*
X487694Y148500D01*
X487806Y148420D01*
X487914Y148335D01*
X487946Y148320D01*
X487975Y148299D01*
X488102Y148246D01*
X488227Y148188D01*
X488261Y148180D01*
X488294Y148167D01*
X488430Y148145D01*
X488565Y148116D01*
X488600Y148117D01*
X488635Y148112D01*
X488773Y148121D01*
X488911Y148125D01*
X488945Y148134D01*
X488980Y148136D01*
X489112Y148177D01*
X489245Y148212D01*
X489277Y148228D01*
X489310Y148239D01*
X489429Y148309D01*
X489551Y148373D01*
X489578Y148396D01*
X489608Y148414D01*
X489763Y148549D01*
X490282Y149068D01*
X492045Y149799D01*
X493955Y149799D01*
X495548Y149139D01*
X495565Y149134D01*
X495582Y149125D01*
X495732Y149086D01*
X495880Y149044D01*
X495899Y149043D01*
X495917Y149039D01*
X496121Y149025D01*
X506116Y149025D01*
X506220Y149037D01*
X506324Y149039D01*
X506391Y149057D01*
X506460Y149065D01*
X506558Y149100D01*
X506659Y149126D01*
X506720Y149159D01*
X506785Y149182D01*
X506872Y149239D01*
X506965Y149288D01*
X507017Y149333D01*
X507075Y149371D01*
X507147Y149446D01*
X507225Y149515D01*
X507266Y149571D01*
X507313Y149621D01*
X507366Y149711D01*
X507427Y149796D01*
X507453Y149860D01*
X507488Y149919D01*
X507519Y150019D01*
X507559Y150115D01*
X507570Y150184D01*
X507590Y150250D01*
X507598Y150354D01*
X507614Y150457D01*
X507609Y150526D01*
X507614Y150595D01*
X507597Y150698D01*
X507590Y150802D01*
X507569Y150868D01*
X507558Y150936D01*
X507518Y151032D01*
X507487Y151132D01*
X507452Y151191D01*
X507425Y151255D01*
X507393Y151300D01*
X507393Y168633D01*
X508286Y169526D01*
X509236Y169526D01*
X509271Y169530D01*
X509307Y169527D01*
X509443Y169550D01*
X509579Y169566D01*
X509613Y169578D01*
X509648Y169583D01*
X509775Y169636D01*
X509905Y169683D01*
X509934Y169702D01*
X509967Y169716D01*
X510079Y169797D01*
X510194Y169872D01*
X510219Y169898D01*
X510247Y169918D01*
X510338Y170022D01*
X510433Y170122D01*
X510451Y170153D01*
X510474Y170179D01*
X510538Y170302D01*
X510608Y170420D01*
X510618Y170454D01*
X510635Y170486D01*
X510669Y170619D01*
X510710Y170751D01*
X510712Y170786D01*
X510721Y170820D01*
X510735Y171025D01*
X510735Y231952D01*
X510719Y232090D01*
X510709Y232229D01*
X510699Y232262D01*
X510695Y232295D01*
X510648Y232426D01*
X510607Y232560D01*
X510589Y232589D01*
X510578Y232621D01*
X510502Y232737D01*
X510431Y232857D01*
X510401Y232891D01*
X510389Y232910D01*
X510365Y232933D01*
X510296Y233012D01*
X501361Y241947D01*
X501347Y241959D01*
X501335Y241973D01*
X501211Y242066D01*
X501090Y242162D01*
X501073Y242169D01*
X501059Y242181D01*
X500875Y242272D01*
X499282Y242932D01*
X497932Y244282D01*
X497201Y246045D01*
X497201Y247955D01*
X497932Y249718D01*
X499282Y251068D01*
X501045Y251799D01*
X502890Y251799D01*
X502993Y251811D01*
X503098Y251813D01*
X503165Y251831D01*
X503233Y251839D01*
X503331Y251874D01*
X503432Y251900D01*
X503493Y251933D01*
X503559Y251956D01*
X503646Y252013D01*
X503738Y252062D01*
X503790Y252107D01*
X503848Y252145D01*
X503920Y252220D01*
X503999Y252289D01*
X504039Y252345D01*
X504087Y252395D01*
X504140Y252485D01*
X504200Y252570D01*
X504227Y252634D01*
X504262Y252693D01*
X504293Y252793D01*
X504332Y252889D01*
X504344Y252958D01*
X504364Y253024D01*
X504371Y253128D01*
X504388Y253231D01*
X504383Y253300D01*
X504388Y253369D01*
X504371Y253471D01*
X504363Y253576D01*
X504343Y253642D01*
X504332Y253710D01*
X504292Y253806D01*
X504261Y253906D01*
X504225Y253965D01*
X504199Y254029D01*
X504138Y254114D01*
X504085Y254203D01*
X504016Y254282D01*
X503997Y254309D01*
X503980Y254324D01*
X503950Y254358D01*
X493975Y264333D01*
X493975Y309712D01*
X493959Y309850D01*
X493949Y309989D01*
X493939Y310022D01*
X493935Y310055D01*
X493888Y310186D01*
X493847Y310320D01*
X493829Y310349D01*
X493818Y310381D01*
X493742Y310497D01*
X493671Y310617D01*
X493641Y310651D01*
X493629Y310670D01*
X493605Y310693D01*
X493536Y310772D01*
X482772Y321536D01*
X482663Y321623D01*
X482557Y321714D01*
X482527Y321730D01*
X482501Y321751D01*
X482375Y321810D01*
X482251Y321875D01*
X482219Y321883D01*
X482188Y321898D01*
X482052Y321926D01*
X481917Y321961D01*
X481871Y321964D01*
X481850Y321969D01*
X481816Y321968D01*
X481712Y321975D01*
X477301Y321975D01*
X477197Y321963D01*
X477093Y321961D01*
X477026Y321943D01*
X476957Y321935D01*
X476859Y321900D01*
X476758Y321874D01*
X476697Y321841D01*
X476632Y321818D01*
X476544Y321761D01*
X476452Y321712D01*
X476400Y321667D01*
X476342Y321629D01*
X476270Y321554D01*
X476192Y321485D01*
X476151Y321429D01*
X476104Y321379D01*
X476051Y321289D01*
X475990Y321204D01*
X475964Y321140D01*
X475929Y321081D01*
X475898Y320981D01*
X475858Y320885D01*
X475847Y320816D01*
X475827Y320750D01*
X475819Y320646D01*
X475803Y320543D01*
X475808Y320474D01*
X475803Y320405D01*
X475820Y320303D01*
X475827Y320198D01*
X475848Y320132D01*
X475859Y320064D01*
X475899Y319968D01*
X475930Y319868D01*
X475965Y319809D01*
X475992Y319745D01*
X476053Y319661D01*
X476106Y319571D01*
X476174Y319492D01*
X476194Y319465D01*
X476211Y319450D01*
X476240Y319416D01*
X477525Y318132D01*
X477525Y302039D01*
X477529Y302004D01*
X477526Y301968D01*
X477549Y301832D01*
X477565Y301696D01*
X477577Y301662D01*
X477582Y301627D01*
X477635Y301500D01*
X477682Y301370D01*
X477701Y301341D01*
X477715Y301308D01*
X477796Y301196D01*
X477871Y301081D01*
X477897Y301056D01*
X477917Y301028D01*
X478021Y300937D01*
X478121Y300842D01*
X478152Y300824D01*
X478178Y300801D01*
X478301Y300737D01*
X478419Y300667D01*
X478453Y300657D01*
X478485Y300640D01*
X478618Y300606D01*
X478750Y300565D01*
X478785Y300563D01*
X478819Y300554D01*
X479024Y300540D01*
X482852Y300540D01*
X483745Y299647D01*
X483745Y280353D01*
X482852Y279460D01*
X465588Y279460D01*
X464695Y280353D01*
X464695Y299476D01*
X464691Y299511D01*
X464694Y299547D01*
X464671Y299683D01*
X464655Y299819D01*
X464643Y299853D01*
X464638Y299888D01*
X464585Y300015D01*
X464538Y300145D01*
X464519Y300174D01*
X464505Y300207D01*
X464424Y300319D01*
X464349Y300434D01*
X464323Y300459D01*
X464303Y300487D01*
X464199Y300578D01*
X464099Y300673D01*
X464068Y300691D01*
X464042Y300714D01*
X463919Y300778D01*
X463801Y300848D01*
X463767Y300858D01*
X463735Y300875D01*
X463602Y300909D01*
X463470Y300950D01*
X463435Y300952D01*
X463401Y300961D01*
X463196Y300975D01*
X462368Y300975D01*
X461060Y302284D01*
X461032Y302306D01*
X461009Y302332D01*
X460897Y302413D01*
X460789Y302498D01*
X460757Y302513D01*
X460728Y302534D01*
X460601Y302587D01*
X460476Y302645D01*
X460441Y302652D01*
X460409Y302666D01*
X460272Y302688D01*
X460138Y302716D01*
X460102Y302716D01*
X460067Y302721D01*
X459930Y302711D01*
X459792Y302708D01*
X459758Y302699D01*
X459722Y302697D01*
X459591Y302656D01*
X459458Y302621D01*
X459426Y302605D01*
X459392Y302594D01*
X459274Y302524D01*
X459152Y302460D01*
X459125Y302436D01*
X459095Y302418D01*
X458940Y302284D01*
X457607Y300951D01*
X457477Y300935D01*
X457443Y300923D01*
X457408Y300918D01*
X457281Y300865D01*
X457151Y300818D01*
X457122Y300799D01*
X457089Y300785D01*
X456977Y300704D01*
X456862Y300629D01*
X456837Y300603D01*
X456809Y300583D01*
X456718Y300479D01*
X456623Y300379D01*
X456605Y300348D01*
X456582Y300322D01*
X456518Y300199D01*
X456448Y300081D01*
X456438Y300047D01*
X456421Y300015D01*
X456387Y299882D01*
X456346Y299750D01*
X456344Y299715D01*
X456335Y299681D01*
X456321Y299476D01*
X456321Y292999D01*
X447280Y292999D01*
X447245Y292995D01*
X447210Y292998D01*
X447073Y292975D01*
X446937Y292959D01*
X446903Y292947D01*
X446868Y292942D01*
X446741Y292889D01*
X446611Y292842D01*
X446582Y292822D01*
X446549Y292809D01*
X446437Y292728D01*
X446322Y292653D01*
X446297Y292627D01*
X446269Y292607D01*
X446178Y292502D01*
X446083Y292403D01*
X446065Y292372D01*
X446042Y292345D01*
X445978Y292223D01*
X445908Y292105D01*
X445898Y292071D01*
X445881Y292039D01*
X445847Y291906D01*
X445806Y291774D01*
X445804Y291739D01*
X445795Y291705D01*
X445781Y291500D01*
X445781Y289999D01*
X445779Y289999D01*
X445779Y291500D01*
X445775Y291535D01*
X445777Y291570D01*
X445755Y291707D01*
X445739Y291843D01*
X445727Y291877D01*
X445721Y291912D01*
X445669Y292039D01*
X445622Y292169D01*
X445602Y292198D01*
X445589Y292231D01*
X445508Y292343D01*
X445433Y292458D01*
X445407Y292483D01*
X445387Y292511D01*
X445282Y292602D01*
X445183Y292697D01*
X445152Y292715D01*
X445125Y292738D01*
X445003Y292802D01*
X444885Y292872D01*
X444851Y292882D01*
X444819Y292899D01*
X444686Y292933D01*
X444554Y292974D01*
X444519Y292976D01*
X444485Y292985D01*
X444280Y292999D01*
X435239Y292999D01*
X435239Y299350D01*
X435412Y299996D01*
X435747Y300575D01*
X436220Y301048D01*
X436799Y301383D01*
X437445Y301556D01*
X440976Y301556D01*
X441011Y301560D01*
X441047Y301557D01*
X441183Y301580D01*
X441319Y301596D01*
X441353Y301608D01*
X441388Y301613D01*
X441515Y301666D01*
X441645Y301713D01*
X441674Y301732D01*
X441707Y301746D01*
X441819Y301827D01*
X441934Y301902D01*
X441959Y301928D01*
X441987Y301948D01*
X442078Y302052D01*
X442173Y302152D01*
X442191Y302183D01*
X442214Y302209D01*
X442278Y302332D01*
X442348Y302450D01*
X442358Y302484D01*
X442375Y302516D01*
X442409Y302649D01*
X442450Y302781D01*
X442452Y302816D01*
X442461Y302850D01*
X442475Y303055D01*
X442475Y318132D01*
X443368Y319025D01*
X444976Y319025D01*
X445011Y319029D01*
X445047Y319026D01*
X445183Y319049D01*
X445319Y319065D01*
X445353Y319077D01*
X445388Y319082D01*
X445515Y319135D01*
X445645Y319182D01*
X445674Y319201D01*
X445707Y319215D01*
X445819Y319296D01*
X445934Y319371D01*
X445959Y319397D01*
X445987Y319417D01*
X446078Y319521D01*
X446173Y319621D01*
X446191Y319652D01*
X446214Y319678D01*
X446278Y319801D01*
X446348Y319919D01*
X446358Y319953D01*
X446375Y319985D01*
X446409Y320118D01*
X446450Y320250D01*
X446452Y320285D01*
X446461Y320319D01*
X446475Y320524D01*
X446475Y346138D01*
X446457Y346293D01*
X446443Y346448D01*
X446437Y346464D01*
X446435Y346481D01*
X446382Y346628D01*
X446333Y346776D01*
X446324Y346790D01*
X446318Y346806D01*
X446232Y346937D01*
X446150Y347070D01*
X446138Y347082D01*
X446129Y347096D01*
X446016Y347204D01*
X445905Y347314D01*
X445891Y347323D01*
X445879Y347335D01*
X445744Y347414D01*
X445611Y347496D01*
X445595Y347501D01*
X445581Y347510D01*
X445432Y347556D01*
X445283Y347605D01*
X445266Y347607D01*
X445250Y347612D01*
X445094Y347622D01*
X444939Y347636D01*
X444922Y347634D01*
X444905Y347635D01*
X444751Y347610D01*
X444597Y347588D01*
X444576Y347581D01*
X444564Y347579D01*
X444539Y347569D01*
X444493Y347553D01*
X439524Y347553D01*
X434949Y349448D01*
X431448Y352949D01*
X429553Y357524D01*
X429553Y362476D01*
X431448Y367051D01*
X434949Y370552D01*
X439524Y372447D01*
X444476Y372447D01*
X449051Y370552D01*
X452552Y367051D01*
X454447Y362476D01*
X454447Y357524D01*
X453577Y355424D01*
X453553Y355340D01*
X453519Y355259D01*
X453506Y355174D01*
X453482Y355091D01*
X453478Y355004D01*
X453464Y354917D01*
X453470Y354832D01*
X453466Y354746D01*
X453482Y354660D01*
X453489Y354573D01*
X453514Y354491D01*
X453530Y354406D01*
X453565Y354326D01*
X453591Y354242D01*
X453635Y354169D01*
X453670Y354090D01*
X453723Y354020D01*
X453767Y353945D01*
X453862Y353836D01*
X453878Y353814D01*
X453887Y353807D01*
X453902Y353790D01*
X454525Y353167D01*
X454525Y331524D01*
X454529Y331489D01*
X454526Y331453D01*
X454549Y331317D01*
X454565Y331181D01*
X454577Y331147D01*
X454582Y331112D01*
X454635Y330985D01*
X454682Y330855D01*
X454701Y330826D01*
X454715Y330793D01*
X454796Y330681D01*
X454871Y330566D01*
X454897Y330541D01*
X454917Y330513D01*
X455021Y330422D01*
X455121Y330327D01*
X455152Y330309D01*
X455178Y330286D01*
X455301Y330222D01*
X455419Y330152D01*
X455453Y330142D01*
X455485Y330125D01*
X455618Y330091D01*
X455750Y330050D01*
X455785Y330048D01*
X455819Y330039D01*
X456024Y330025D01*
X485667Y330025D01*
X502025Y313667D01*
X502025Y268288D01*
X502041Y268150D01*
X502051Y268011D01*
X502061Y267978D01*
X502065Y267945D01*
X502112Y267814D01*
X502153Y267680D01*
X502171Y267651D01*
X502182Y267619D01*
X502258Y267503D01*
X502329Y267383D01*
X502359Y267349D01*
X502371Y267330D01*
X502395Y267307D01*
X502464Y267228D01*
X528940Y240752D01*
X528968Y240730D01*
X528991Y240703D01*
X529103Y240623D01*
X529211Y240537D01*
X529243Y240522D01*
X529272Y240502D01*
X529399Y240449D01*
X529524Y240390D01*
X529559Y240383D01*
X529591Y240370D01*
X529728Y240348D01*
X529862Y240319D01*
X529898Y240320D01*
X529933Y240314D01*
X530070Y240324D01*
X530208Y240327D01*
X530242Y240336D01*
X530278Y240339D01*
X530409Y240380D01*
X530542Y240414D01*
X530574Y240431D01*
X530608Y240441D01*
X530727Y240512D01*
X530848Y240576D01*
X530875Y240599D01*
X530905Y240617D01*
X531060Y240752D01*
X531536Y241228D01*
X534333Y244025D01*
X584199Y244025D01*
X584303Y244037D01*
X584407Y244039D01*
X584474Y244057D01*
X584543Y244065D01*
X584641Y244100D01*
X584742Y244126D01*
X584803Y244159D01*
X584868Y244182D01*
X584955Y244239D01*
X585048Y244288D01*
X585100Y244333D01*
X585158Y244371D01*
X585230Y244446D01*
X585308Y244515D01*
X585349Y244571D01*
X585396Y244621D01*
X585449Y244711D01*
X585510Y244796D01*
X585536Y244860D01*
X585571Y244919D01*
X585602Y245019D01*
X585642Y245115D01*
X585653Y245184D01*
X585673Y245250D01*
X585681Y245354D01*
X585697Y245457D01*
X585692Y245526D01*
X585697Y245595D01*
X585680Y245697D01*
X585673Y245802D01*
X585652Y245868D01*
X585641Y245936D01*
X585601Y246032D01*
X585570Y246132D01*
X585535Y246191D01*
X585508Y246255D01*
X585447Y246339D01*
X585394Y246429D01*
X585326Y246508D01*
X585306Y246535D01*
X585289Y246550D01*
X585260Y246584D01*
X584475Y247368D01*
X584475Y272632D01*
X585368Y273525D01*
X592476Y273525D01*
X592511Y273529D01*
X592547Y273526D01*
X592683Y273549D01*
X592819Y273565D01*
X592853Y273577D01*
X592888Y273582D01*
X593015Y273635D01*
X593145Y273682D01*
X593174Y273701D01*
X593207Y273715D01*
X593319Y273796D01*
X593434Y273871D01*
X593459Y273897D01*
X593487Y273917D01*
X593578Y274021D01*
X593673Y274121D01*
X593691Y274152D01*
X593714Y274178D01*
X593778Y274301D01*
X593848Y274419D01*
X593858Y274453D01*
X593875Y274485D01*
X593909Y274618D01*
X593950Y274750D01*
X593952Y274785D01*
X593961Y274819D01*
X593975Y275024D01*
X593975Y284976D01*
X593971Y285011D01*
X593974Y285047D01*
X593951Y285183D01*
X593935Y285319D01*
X593923Y285353D01*
X593918Y285388D01*
X593865Y285515D01*
X593818Y285645D01*
X593799Y285674D01*
X593785Y285707D01*
X593704Y285819D01*
X593629Y285934D01*
X593603Y285959D01*
X593583Y285987D01*
X593479Y286078D01*
X593379Y286173D01*
X593348Y286191D01*
X593322Y286214D01*
X593199Y286278D01*
X593081Y286348D01*
X593047Y286358D01*
X593015Y286375D01*
X592882Y286409D01*
X592750Y286450D01*
X592715Y286452D01*
X592681Y286461D01*
X592476Y286475D01*
X585368Y286475D01*
X584475Y287368D01*
X584475Y307212D01*
X584459Y307350D01*
X584449Y307489D01*
X584439Y307522D01*
X584435Y307555D01*
X584388Y307686D01*
X584347Y307820D01*
X584329Y307849D01*
X584318Y307881D01*
X584242Y307997D01*
X584171Y308117D01*
X584141Y308151D01*
X584129Y308170D01*
X584105Y308193D01*
X584036Y308272D01*
X570772Y321536D01*
X570663Y321623D01*
X570557Y321714D01*
X570527Y321730D01*
X570501Y321751D01*
X570375Y321810D01*
X570251Y321875D01*
X570219Y321883D01*
X570188Y321898D01*
X570052Y321926D01*
X569917Y321961D01*
X569871Y321964D01*
X569850Y321969D01*
X569816Y321968D01*
X569712Y321975D01*
X557301Y321975D01*
X557197Y321963D01*
X557093Y321961D01*
X557026Y321943D01*
X556957Y321935D01*
X556859Y321900D01*
X556758Y321874D01*
X556697Y321841D01*
X556632Y321818D01*
X556544Y321761D01*
X556452Y321712D01*
X556400Y321667D01*
X556342Y321629D01*
X556270Y321554D01*
X556192Y321485D01*
X556151Y321429D01*
X556104Y321379D01*
X556051Y321289D01*
X555990Y321204D01*
X555964Y321140D01*
X555929Y321081D01*
X555898Y320981D01*
X555858Y320885D01*
X555847Y320816D01*
X555827Y320750D01*
X555819Y320646D01*
X555803Y320543D01*
X555808Y320474D01*
X555803Y320405D01*
X555820Y320303D01*
X555827Y320198D01*
X555848Y320132D01*
X555859Y320064D01*
X555899Y319968D01*
X555930Y319868D01*
X555965Y319809D01*
X555992Y319745D01*
X556053Y319661D01*
X556106Y319571D01*
X556174Y319492D01*
X556194Y319465D01*
X556211Y319450D01*
X556240Y319416D01*
X557525Y318132D01*
X557525Y302039D01*
X557529Y302004D01*
X557526Y301968D01*
X557549Y301832D01*
X557565Y301696D01*
X557577Y301662D01*
X557582Y301627D01*
X557635Y301500D01*
X557682Y301370D01*
X557701Y301341D01*
X557715Y301308D01*
X557796Y301196D01*
X557871Y301081D01*
X557897Y301056D01*
X557917Y301028D01*
X558021Y300937D01*
X558121Y300842D01*
X558152Y300824D01*
X558178Y300801D01*
X558301Y300737D01*
X558419Y300667D01*
X558453Y300657D01*
X558485Y300640D01*
X558618Y300606D01*
X558750Y300565D01*
X558785Y300563D01*
X558819Y300554D01*
X559024Y300540D01*
X562852Y300540D01*
X563745Y299647D01*
X563745Y280353D01*
X562852Y279460D01*
X545588Y279460D01*
X544695Y280353D01*
X544695Y299476D01*
X544691Y299511D01*
X544694Y299547D01*
X544671Y299683D01*
X544655Y299819D01*
X544643Y299853D01*
X544638Y299888D01*
X544585Y300015D01*
X544538Y300145D01*
X544519Y300174D01*
X544505Y300207D01*
X544424Y300319D01*
X544349Y300434D01*
X544323Y300459D01*
X544303Y300487D01*
X544199Y300578D01*
X544099Y300673D01*
X544068Y300691D01*
X544042Y300714D01*
X543919Y300778D01*
X543801Y300848D01*
X543767Y300858D01*
X543735Y300875D01*
X543602Y300909D01*
X543470Y300950D01*
X543435Y300952D01*
X543401Y300961D01*
X543196Y300975D01*
X542368Y300975D01*
X541060Y302284D01*
X541032Y302306D01*
X541009Y302332D01*
X540897Y302413D01*
X540789Y302498D01*
X540757Y302513D01*
X540728Y302534D01*
X540601Y302587D01*
X540476Y302645D01*
X540441Y302652D01*
X540409Y302666D01*
X540272Y302688D01*
X540138Y302716D01*
X540102Y302716D01*
X540067Y302721D01*
X539930Y302711D01*
X539792Y302708D01*
X539758Y302699D01*
X539722Y302697D01*
X539591Y302656D01*
X539458Y302621D01*
X539426Y302605D01*
X539392Y302594D01*
X539274Y302524D01*
X539152Y302460D01*
X539125Y302436D01*
X539095Y302418D01*
X538940Y302284D01*
X537607Y300951D01*
X537477Y300935D01*
X537443Y300923D01*
X537408Y300918D01*
X537281Y300865D01*
X537151Y300818D01*
X537122Y300799D01*
X537089Y300785D01*
X536977Y300704D01*
X536862Y300629D01*
X536837Y300603D01*
X536809Y300583D01*
X536718Y300479D01*
X536623Y300379D01*
X536605Y300348D01*
X536582Y300322D01*
X536518Y300199D01*
X536448Y300081D01*
X536438Y300047D01*
X536421Y300015D01*
X536387Y299882D01*
X536346Y299750D01*
X536344Y299715D01*
X536335Y299681D01*
X536321Y299476D01*
X536321Y292999D01*
X527280Y292999D01*
X527245Y292995D01*
X527210Y292998D01*
X527073Y292975D01*
X526937Y292959D01*
X526903Y292947D01*
X526868Y292942D01*
X526741Y292889D01*
X526611Y292842D01*
X526582Y292822D01*
X526549Y292809D01*
X526437Y292728D01*
X526322Y292653D01*
X526297Y292627D01*
X526269Y292607D01*
X526178Y292502D01*
X526083Y292403D01*
X526065Y292372D01*
X526042Y292345D01*
X525978Y292223D01*
X525908Y292105D01*
X525898Y292071D01*
X525881Y292039D01*
X525847Y291906D01*
X525806Y291774D01*
X525804Y291739D01*
X525795Y291705D01*
X525781Y291500D01*
X525781Y289999D01*
X525779Y289999D01*
X525779Y291500D01*
X525775Y291535D01*
X525777Y291570D01*
X525755Y291707D01*
X525739Y291843D01*
X525727Y291877D01*
X525721Y291912D01*
X525669Y292039D01*
X525622Y292169D01*
X525602Y292198D01*
X525589Y292231D01*
X525508Y292343D01*
X525433Y292458D01*
X525407Y292483D01*
X525387Y292511D01*
X525282Y292602D01*
X525183Y292697D01*
X525152Y292715D01*
X525125Y292738D01*
X525003Y292802D01*
X524885Y292872D01*
X524851Y292882D01*
X524819Y292899D01*
X524686Y292933D01*
X524554Y292974D01*
X524519Y292976D01*
X524485Y292985D01*
X524280Y292999D01*
X515239Y292999D01*
X515239Y299350D01*
X515412Y299996D01*
X515747Y300575D01*
X516220Y301048D01*
X516799Y301383D01*
X517445Y301556D01*
X520976Y301556D01*
X521011Y301560D01*
X521047Y301557D01*
X521183Y301580D01*
X521319Y301596D01*
X521353Y301608D01*
X521388Y301613D01*
X521515Y301666D01*
X521645Y301713D01*
X521674Y301732D01*
X521707Y301746D01*
X521819Y301827D01*
X521934Y301902D01*
X521959Y301928D01*
X521987Y301948D01*
X522078Y302052D01*
X522173Y302152D01*
X522191Y302183D01*
X522214Y302209D01*
X522278Y302332D01*
X522348Y302450D01*
X522358Y302484D01*
X522375Y302516D01*
X522409Y302649D01*
X522450Y302781D01*
X522452Y302816D01*
X522461Y302850D01*
X522475Y303055D01*
X522475Y318132D01*
X523368Y319025D01*
X524976Y319025D01*
X525011Y319029D01*
X525047Y319026D01*
X525183Y319049D01*
X525319Y319065D01*
X525353Y319077D01*
X525388Y319082D01*
X525515Y319135D01*
X525645Y319182D01*
X525674Y319201D01*
X525707Y319215D01*
X525819Y319296D01*
X525934Y319371D01*
X525959Y319397D01*
X525987Y319417D01*
X526078Y319521D01*
X526173Y319621D01*
X526191Y319652D01*
X526214Y319678D01*
X526278Y319801D01*
X526348Y319919D01*
X526358Y319953D01*
X526375Y319985D01*
X526409Y320118D01*
X526450Y320250D01*
X526452Y320285D01*
X526461Y320319D01*
X526475Y320524D01*
X526475Y346138D01*
X526457Y346293D01*
X526443Y346448D01*
X526437Y346464D01*
X526435Y346481D01*
X526382Y346628D01*
X526333Y346776D01*
X526324Y346790D01*
X526318Y346806D01*
X526233Y346937D01*
X526150Y347070D01*
X526138Y347082D01*
X526129Y347096D01*
X526016Y347204D01*
X525906Y347314D01*
X525891Y347323D01*
X525879Y347335D01*
X525744Y347413D01*
X525611Y347496D01*
X525595Y347501D01*
X525581Y347510D01*
X525432Y347555D01*
X525283Y347605D01*
X525267Y347607D01*
X525250Y347612D01*
X525094Y347622D01*
X524939Y347636D01*
X524922Y347634D01*
X524905Y347635D01*
X524751Y347610D01*
X524597Y347588D01*
X524576Y347581D01*
X524564Y347579D01*
X524539Y347569D01*
X524493Y347553D01*
X519524Y347553D01*
X514949Y349448D01*
X511448Y352949D01*
X509553Y357524D01*
X509553Y362476D01*
X511448Y367051D01*
X514949Y370552D01*
X519524Y372447D01*
X524476Y372447D01*
X529051Y370552D01*
X532552Y367051D01*
X534447Y362476D01*
X534447Y357524D01*
X533577Y355424D01*
X533553Y355340D01*
X533519Y355259D01*
X533506Y355174D01*
X533482Y355091D01*
X533478Y355004D01*
X533464Y354917D01*
X533470Y354832D01*
X533466Y354746D01*
X533482Y354660D01*
X533489Y354573D01*
X533514Y354491D01*
X533530Y354406D01*
X533565Y354326D01*
X533591Y354242D01*
X533635Y354169D01*
X533670Y354090D01*
X533723Y354020D01*
X533767Y353945D01*
X533862Y353836D01*
X533878Y353814D01*
X533887Y353807D01*
X533902Y353790D01*
X534525Y353167D01*
X534525Y331524D01*
X534529Y331489D01*
X534526Y331453D01*
X534549Y331317D01*
X534565Y331181D01*
X534577Y331147D01*
X534582Y331112D01*
X534635Y330985D01*
X534682Y330855D01*
X534701Y330826D01*
X534715Y330793D01*
X534796Y330681D01*
X534871Y330566D01*
X534897Y330541D01*
X534917Y330513D01*
X535021Y330422D01*
X535121Y330327D01*
X535152Y330309D01*
X535178Y330286D01*
X535301Y330222D01*
X535419Y330152D01*
X535453Y330142D01*
X535485Y330125D01*
X535618Y330091D01*
X535750Y330050D01*
X535785Y330048D01*
X535819Y330039D01*
X536024Y330025D01*
X573667Y330025D01*
X589728Y313964D01*
X589837Y313877D01*
X589943Y313786D01*
X589973Y313770D01*
X589999Y313749D01*
X590125Y313690D01*
X590249Y313625D01*
X590281Y313617D01*
X590312Y313602D01*
X590448Y313574D01*
X590583Y313539D01*
X590629Y313536D01*
X590650Y313531D01*
X590684Y313532D01*
X590788Y313525D01*
X610632Y313525D01*
X611525Y312632D01*
X611525Y287368D01*
X610632Y286475D01*
X603524Y286475D01*
X603489Y286471D01*
X603453Y286474D01*
X603317Y286451D01*
X603181Y286435D01*
X603147Y286423D01*
X603112Y286418D01*
X602985Y286365D01*
X602855Y286318D01*
X602826Y286299D01*
X602793Y286285D01*
X602681Y286204D01*
X602566Y286129D01*
X602541Y286103D01*
X602513Y286083D01*
X602422Y285979D01*
X602327Y285879D01*
X602309Y285848D01*
X602286Y285822D01*
X602222Y285699D01*
X602152Y285581D01*
X602142Y285547D01*
X602125Y285515D01*
X602091Y285382D01*
X602050Y285250D01*
X602048Y285215D01*
X602039Y285181D01*
X602025Y284976D01*
X602025Y275024D01*
X602029Y274989D01*
X602026Y274953D01*
X602049Y274817D01*
X602065Y274681D01*
X602077Y274647D01*
X602082Y274612D01*
X602135Y274485D01*
X602182Y274355D01*
X602201Y274326D01*
X602215Y274293D01*
X602296Y274181D01*
X602371Y274066D01*
X602397Y274041D01*
X602417Y274013D01*
X602521Y273922D01*
X602621Y273827D01*
X602652Y273809D01*
X602678Y273786D01*
X602801Y273722D01*
X602919Y273652D01*
X602953Y273642D01*
X602985Y273625D01*
X603118Y273591D01*
X603250Y273550D01*
X603285Y273548D01*
X603319Y273539D01*
X603524Y273525D01*
X610632Y273525D01*
X611525Y272632D01*
X611525Y247368D01*
X610740Y246584D01*
X610676Y246502D01*
X610604Y246427D01*
X610569Y246367D01*
X610526Y246313D01*
X610481Y246219D01*
X610429Y246129D01*
X610408Y246063D01*
X610379Y246000D01*
X610357Y245898D01*
X610327Y245798D01*
X610322Y245729D01*
X610308Y245662D01*
X610310Y245558D01*
X610303Y245453D01*
X610314Y245385D01*
X610316Y245316D01*
X610342Y245215D01*
X610359Y245112D01*
X610385Y245048D01*
X610403Y244982D01*
X610452Y244889D01*
X610492Y244793D01*
X610532Y244737D01*
X610564Y244676D01*
X610633Y244597D01*
X610694Y244513D01*
X610746Y244467D01*
X610791Y244415D01*
X610876Y244354D01*
X610955Y244286D01*
X611016Y244254D01*
X611072Y244213D01*
X611168Y244174D01*
X611261Y244125D01*
X611328Y244108D01*
X611392Y244082D01*
X611495Y244065D01*
X611596Y244039D01*
X611700Y244032D01*
X611733Y244026D01*
X611756Y244028D01*
X611801Y244025D01*
X619712Y244025D01*
X619850Y244041D01*
X619989Y244051D01*
X620022Y244061D01*
X620055Y244065D01*
X620186Y244112D01*
X620320Y244153D01*
X620349Y244171D01*
X620381Y244182D01*
X620497Y244258D01*
X620617Y244329D01*
X620651Y244359D01*
X620670Y244371D01*
X620693Y244395D01*
X620772Y244464D01*
X628036Y251728D01*
X628123Y251837D01*
X628214Y251943D01*
X628230Y251973D01*
X628251Y251999D01*
X628310Y252125D01*
X628375Y252249D01*
X628383Y252281D01*
X628398Y252312D01*
X628426Y252448D01*
X628461Y252583D01*
X628464Y252629D01*
X628469Y252650D01*
X628468Y252684D01*
X628475Y252788D01*
X628475Y272632D01*
X629368Y273525D01*
X654632Y273525D01*
X655525Y272632D01*
X655525Y247368D01*
X654632Y246475D01*
X634788Y246475D01*
X634650Y246459D01*
X634511Y246449D01*
X634478Y246439D01*
X634445Y246435D01*
X634314Y246388D01*
X634180Y246347D01*
X634151Y246329D01*
X634119Y246318D01*
X634003Y246242D01*
X633883Y246171D01*
X633849Y246141D01*
X633830Y246129D01*
X633816Y246115D01*
X633815Y246114D01*
X633802Y246101D01*
X633728Y246036D01*
X626464Y238772D01*
X623667Y235975D01*
X613472Y235975D01*
X613362Y235962D01*
X613250Y235959D01*
X613190Y235943D01*
X613128Y235935D01*
X613024Y235898D01*
X612917Y235869D01*
X612862Y235839D01*
X612803Y235818D01*
X612710Y235757D01*
X612612Y235705D01*
X612566Y235663D01*
X612514Y235629D01*
X612437Y235549D01*
X612354Y235475D01*
X612318Y235424D01*
X612275Y235379D01*
X612219Y235283D01*
X612155Y235192D01*
X612131Y235135D01*
X612100Y235081D01*
X612067Y234975D01*
X612026Y234872D01*
X612016Y234810D01*
X611998Y234750D01*
X611990Y234640D01*
X611973Y234530D01*
X611978Y234468D01*
X611974Y234405D01*
X611992Y234296D01*
X612001Y234185D01*
X612020Y234126D01*
X612030Y234064D01*
X612073Y233962D01*
X612107Y233856D01*
X612139Y233803D01*
X612163Y233745D01*
X612228Y233655D01*
X612285Y233560D01*
X612329Y233515D01*
X612365Y233465D01*
X612449Y233392D01*
X612526Y233312D01*
X612579Y233279D01*
X612626Y233238D01*
X612724Y233186D01*
X612818Y233127D01*
X612903Y233093D01*
X612932Y233077D01*
X612955Y233071D01*
X612963Y233067D01*
X612972Y233065D01*
X613009Y233050D01*
X613420Y232916D01*
X614845Y232190D01*
X616139Y231250D01*
X617270Y230119D01*
X618210Y228825D01*
X618936Y227400D01*
X619379Y226039D01*
X602940Y226039D01*
X602905Y226035D01*
X602870Y226038D01*
X602734Y226015D01*
X602597Y225999D01*
X602563Y225987D01*
X602528Y225982D01*
X602401Y225929D01*
X602272Y225882D01*
X602242Y225863D01*
X602209Y225849D01*
X602097Y225768D01*
X601982Y225693D01*
X601958Y225667D01*
X601929Y225647D01*
X601898Y225611D01*
X601862Y225642D01*
X601763Y225737D01*
X601732Y225755D01*
X601705Y225778D01*
X601583Y225842D01*
X601465Y225912D01*
X601431Y225922D01*
X601399Y225939D01*
X601266Y225973D01*
X601134Y226014D01*
X601099Y226016D01*
X601064Y226025D01*
X600860Y226039D01*
X584421Y226039D01*
X584864Y227400D01*
X585590Y228825D01*
X586530Y230119D01*
X587661Y231250D01*
X588955Y232190D01*
X590380Y232916D01*
X590791Y233050D01*
X590893Y233096D01*
X590997Y233134D01*
X591049Y233168D01*
X591106Y233194D01*
X591193Y233262D01*
X591286Y233323D01*
X591330Y233368D01*
X591379Y233406D01*
X591448Y233493D01*
X591525Y233573D01*
X591557Y233627D01*
X591596Y233675D01*
X591644Y233775D01*
X591700Y233871D01*
X591719Y233931D01*
X591746Y233987D01*
X591769Y234095D01*
X591802Y234202D01*
X591806Y234264D01*
X591820Y234325D01*
X591818Y234436D01*
X591826Y234547D01*
X591816Y234608D01*
X591815Y234670D01*
X591788Y234778D01*
X591770Y234888D01*
X591746Y234945D01*
X591731Y235006D01*
X591680Y235105D01*
X591637Y235207D01*
X591601Y235258D01*
X591572Y235313D01*
X591500Y235397D01*
X591435Y235487D01*
X591388Y235528D01*
X591347Y235576D01*
X591258Y235641D01*
X591174Y235714D01*
X591119Y235743D01*
X591068Y235780D01*
X590966Y235823D01*
X590868Y235875D01*
X590807Y235890D01*
X590750Y235915D01*
X590640Y235933D01*
X590533Y235961D01*
X590442Y235967D01*
X590409Y235973D01*
X590383Y235971D01*
X590328Y235975D01*
X538288Y235975D01*
X538150Y235959D01*
X538011Y235949D01*
X537978Y235939D01*
X537945Y235935D01*
X537814Y235888D01*
X537680Y235847D01*
X537651Y235829D01*
X537619Y235818D01*
X537503Y235742D01*
X537383Y235671D01*
X537349Y235641D01*
X537330Y235629D01*
X537321Y235620D01*
X537320Y235619D01*
X537304Y235602D01*
X537228Y235536D01*
X534464Y232772D01*
X534377Y232663D01*
X534286Y232557D01*
X534270Y232527D01*
X534249Y232501D01*
X534190Y232375D01*
X534125Y232251D01*
X534117Y232219D01*
X534102Y232188D01*
X534074Y232052D01*
X534039Y231917D01*
X534036Y231871D01*
X534031Y231850D01*
X534032Y231816D01*
X534025Y231712D01*
X534025Y171025D01*
X534029Y170990D01*
X534026Y170954D01*
X534049Y170818D01*
X534065Y170682D01*
X534077Y170648D01*
X534082Y170613D01*
X534135Y170486D01*
X534182Y170356D01*
X534201Y170327D01*
X534215Y170294D01*
X534296Y170182D01*
X534371Y170067D01*
X534397Y170042D01*
X534417Y170014D01*
X534521Y169923D01*
X534621Y169828D01*
X534652Y169810D01*
X534678Y169787D01*
X534801Y169723D01*
X534919Y169653D01*
X534953Y169643D01*
X534985Y169626D01*
X535118Y169592D01*
X535250Y169551D01*
X535285Y169549D01*
X535319Y169540D01*
X535524Y169526D01*
X536474Y169526D01*
X536560Y169439D01*
X536588Y169417D01*
X536611Y169391D01*
X536723Y169310D01*
X536831Y169225D01*
X536863Y169210D01*
X536892Y169189D01*
X537020Y169136D01*
X537144Y169078D01*
X537178Y169071D01*
X537211Y169057D01*
X537348Y169035D01*
X537482Y169007D01*
X537518Y169007D01*
X537553Y169002D01*
X537690Y169012D01*
X537828Y169015D01*
X537862Y169024D01*
X537898Y169026D01*
X538029Y169067D01*
X538162Y169102D01*
X538194Y169118D01*
X538228Y169129D01*
X538346Y169199D01*
X538468Y169263D01*
X538495Y169287D01*
X538525Y169305D01*
X538680Y169439D01*
X538766Y169526D01*
X548453Y169526D01*
X548591Y169542D01*
X548730Y169552D01*
X548763Y169562D01*
X548796Y169566D01*
X548927Y169613D01*
X549061Y169654D01*
X549090Y169672D01*
X549122Y169683D01*
X549238Y169759D01*
X549358Y169830D01*
X549392Y169860D01*
X549411Y169872D01*
X549434Y169896D01*
X549513Y169965D01*
X556273Y176725D01*
X585047Y176725D01*
X585134Y176735D01*
X585222Y176735D01*
X585305Y176755D01*
X585391Y176765D01*
X585473Y176794D01*
X585558Y176814D01*
X585635Y176853D01*
X585716Y176882D01*
X585789Y176930D01*
X585867Y176969D01*
X585933Y177024D01*
X586005Y177071D01*
X586066Y177134D01*
X586133Y177190D01*
X586185Y177259D01*
X586244Y177321D01*
X586288Y177397D01*
X586341Y177467D01*
X586405Y177595D01*
X586419Y177619D01*
X586423Y177631D01*
X586432Y177650D01*
X586527Y177880D01*
X589100Y180453D01*
X592461Y181845D01*
X611339Y181845D01*
X614700Y180453D01*
X617273Y177880D01*
X618665Y174519D01*
X618665Y170881D01*
X617273Y167520D01*
X614700Y164947D01*
X611339Y163555D01*
X592461Y163555D01*
X589100Y164947D01*
X586527Y167520D01*
X586432Y167750D01*
X586390Y167826D01*
X586356Y167907D01*
X586306Y167977D01*
X586264Y168052D01*
X586205Y168116D01*
X586154Y168187D01*
X586089Y168244D01*
X586031Y168307D01*
X585959Y168357D01*
X585893Y168414D01*
X585816Y168454D01*
X585746Y168503D01*
X585664Y168534D01*
X585587Y168575D01*
X585503Y168596D01*
X585423Y168627D01*
X585337Y168639D01*
X585252Y168661D01*
X585108Y168671D01*
X585081Y168675D01*
X585069Y168674D01*
X585047Y168675D01*
X560228Y168675D01*
X560090Y168659D01*
X559951Y168649D01*
X559918Y168639D01*
X559885Y168635D01*
X559754Y168588D01*
X559620Y168547D01*
X559591Y168529D01*
X559559Y168518D01*
X559443Y168442D01*
X559323Y168371D01*
X559289Y168341D01*
X559270Y168329D01*
X559247Y168305D01*
X559168Y168236D01*
X553046Y162114D01*
X552959Y162005D01*
X552868Y161899D01*
X552852Y161869D01*
X552831Y161843D01*
X552772Y161717D01*
X552707Y161593D01*
X552699Y161561D01*
X552684Y161530D01*
X552656Y161394D01*
X552621Y161259D01*
X552618Y161213D01*
X552613Y161192D01*
X552614Y161158D01*
X552607Y161054D01*
X552607Y151367D01*
X551714Y150474D01*
X538766Y150474D01*
X538680Y150561D01*
X538652Y150583D01*
X538629Y150609D01*
X538517Y150690D01*
X538409Y150775D01*
X538377Y150790D01*
X538348Y150811D01*
X538221Y150863D01*
X538096Y150922D01*
X538061Y150929D01*
X538029Y150943D01*
X537892Y150965D01*
X537758Y150993D01*
X537722Y150993D01*
X537687Y150998D01*
X537550Y150988D01*
X537412Y150985D01*
X537378Y150976D01*
X537342Y150974D01*
X537211Y150933D01*
X537078Y150898D01*
X537046Y150882D01*
X537012Y150871D01*
X536893Y150801D01*
X536772Y150737D01*
X536745Y150713D01*
X536714Y150695D01*
X536560Y150561D01*
X536474Y150474D01*
X535524Y150474D01*
X535489Y150470D01*
X535453Y150473D01*
X535317Y150450D01*
X535181Y150434D01*
X535147Y150422D01*
X535112Y150417D01*
X534985Y150364D01*
X534855Y150317D01*
X534826Y150298D01*
X534793Y150284D01*
X534681Y150203D01*
X534566Y150128D01*
X534541Y150102D01*
X534513Y150082D01*
X534422Y149977D01*
X534327Y149878D01*
X534309Y149847D01*
X534286Y149821D01*
X534222Y149698D01*
X534152Y149580D01*
X534142Y149546D01*
X534125Y149514D01*
X534091Y149381D01*
X534050Y149249D01*
X534048Y149214D01*
X534039Y149180D01*
X534025Y148975D01*
X534025Y147333D01*
X530464Y143772D01*
X530276Y143584D01*
X530211Y143502D01*
X530139Y143427D01*
X530104Y143367D01*
X530061Y143313D01*
X530017Y143219D01*
X529964Y143129D01*
X529944Y143063D01*
X529914Y143000D01*
X529893Y142898D01*
X529862Y142798D01*
X529857Y142729D01*
X529843Y142662D01*
X529846Y142558D01*
X529838Y142453D01*
X529850Y142385D01*
X529851Y142316D01*
X529878Y142215D01*
X529894Y142112D01*
X529921Y142049D01*
X529938Y141982D01*
X529987Y141889D01*
X530027Y141793D01*
X530067Y141737D01*
X530100Y141676D01*
X530168Y141597D01*
X530229Y141513D01*
X530281Y141467D01*
X530327Y141415D01*
X530412Y141354D01*
X530490Y141286D01*
X530552Y141254D01*
X530608Y141214D01*
X530704Y141174D01*
X530797Y141125D01*
X530864Y141108D01*
X530927Y141082D01*
X531030Y141065D01*
X531131Y141039D01*
X531235Y141032D01*
X531269Y141026D01*
X531291Y141028D01*
X531336Y141025D01*
X536667Y141025D01*
X543728Y133964D01*
X543837Y133877D01*
X543943Y133786D01*
X543973Y133770D01*
X543999Y133749D01*
X544125Y133690D01*
X544249Y133625D01*
X544281Y133617D01*
X544312Y133602D01*
X544448Y133574D01*
X544583Y133539D01*
X544629Y133536D01*
X544650Y133531D01*
X544684Y133532D01*
X544788Y133525D01*
X564632Y133525D01*
X565525Y132632D01*
X565525Y107368D01*
X564464Y106308D01*
X564377Y106198D01*
X564286Y106093D01*
X564270Y106063D01*
X564249Y106037D01*
X564190Y105911D01*
X564125Y105787D01*
X564117Y105754D01*
X564102Y105724D01*
X564074Y105587D01*
X564039Y105452D01*
X564036Y105407D01*
X564031Y105385D01*
X564032Y105352D01*
X564025Y105247D01*
X564025Y101024D01*
X564028Y100992D01*
X564026Y100962D01*
X564027Y100960D01*
X564026Y100953D01*
X564049Y100817D01*
X564065Y100681D01*
X564077Y100647D01*
X564082Y100612D01*
X564135Y100485D01*
X564182Y100355D01*
X564201Y100326D01*
X564215Y100293D01*
X564296Y100181D01*
X564371Y100066D01*
X564397Y100041D01*
X564417Y100013D01*
X564521Y99922D01*
X564621Y99827D01*
X564652Y99809D01*
X564678Y99786D01*
X564801Y99722D01*
X564919Y99652D01*
X564953Y99642D01*
X564985Y99625D01*
X565118Y99591D01*
X565250Y99550D01*
X565285Y99548D01*
X565319Y99539D01*
X565524Y99525D01*
X565632Y99525D01*
X566525Y98632D01*
X566525Y83368D01*
X565632Y82475D01*
X554368Y82475D01*
X553475Y83368D01*
X553475Y98632D01*
X554368Y99525D01*
X554476Y99525D01*
X554511Y99529D01*
X554547Y99526D01*
X554683Y99549D01*
X554819Y99565D01*
X554853Y99577D01*
X554888Y99582D01*
X555015Y99635D01*
X555145Y99682D01*
X555174Y99701D01*
X555207Y99715D01*
X555319Y99796D01*
X555434Y99871D01*
X555459Y99897D01*
X555487Y99917D01*
X555578Y100021D01*
X555673Y100121D01*
X555691Y100152D01*
X555714Y100178D01*
X555778Y100301D01*
X555848Y100419D01*
X555858Y100453D01*
X555875Y100485D01*
X555909Y100618D01*
X555950Y100750D01*
X555952Y100785D01*
X555961Y100819D01*
X555975Y101024D01*
X555975Y104976D01*
X555971Y105011D01*
X555974Y105047D01*
X555951Y105183D01*
X555935Y105319D01*
X555923Y105353D01*
X555918Y105388D01*
X555865Y105515D01*
X555818Y105645D01*
X555799Y105674D01*
X555785Y105707D01*
X555704Y105819D01*
X555629Y105934D01*
X555603Y105959D01*
X555583Y105987D01*
X555479Y106078D01*
X555379Y106173D01*
X555348Y106191D01*
X555322Y106214D01*
X555199Y106278D01*
X555081Y106348D01*
X555047Y106358D01*
X555015Y106375D01*
X554882Y106409D01*
X554750Y106450D01*
X554715Y106452D01*
X554681Y106461D01*
X554476Y106475D01*
X539368Y106475D01*
X538475Y107368D01*
X538475Y127212D01*
X538459Y127350D01*
X538449Y127489D01*
X538439Y127522D01*
X538435Y127555D01*
X538388Y127686D01*
X538347Y127820D01*
X538329Y127849D01*
X538318Y127881D01*
X538242Y127997D01*
X538171Y128117D01*
X538141Y128151D01*
X538129Y128170D01*
X538105Y128193D01*
X538036Y128272D01*
X533772Y132536D01*
X533663Y132623D01*
X533557Y132714D01*
X533527Y132730D01*
X533501Y132751D01*
X533375Y132810D01*
X533251Y132875D01*
X533219Y132883D01*
X533188Y132898D01*
X533052Y132926D01*
X532917Y132961D01*
X532871Y132964D01*
X532850Y132969D01*
X532816Y132968D01*
X532712Y132975D01*
X523024Y132975D01*
X522989Y132971D01*
X522953Y132974D01*
X522817Y132951D01*
X522681Y132935D01*
X522647Y132923D01*
X522612Y132918D01*
X522485Y132865D01*
X522355Y132818D01*
X522326Y132799D01*
X522293Y132785D01*
X522181Y132704D01*
X522066Y132629D01*
X522041Y132603D01*
X522013Y132583D01*
X521922Y132479D01*
X521827Y132379D01*
X521809Y132348D01*
X521786Y132322D01*
X521722Y132199D01*
X521652Y132081D01*
X521642Y132047D01*
X521625Y132015D01*
X521591Y131882D01*
X521550Y131750D01*
X521548Y131715D01*
X521539Y131681D01*
X521525Y131476D01*
X521525Y107368D01*
X520632Y106475D01*
X516024Y106475D01*
X515989Y106471D01*
X515953Y106474D01*
X515817Y106451D01*
X515681Y106435D01*
X515647Y106423D01*
X515612Y106418D01*
X515485Y106365D01*
X515355Y106318D01*
X515326Y106299D01*
X515293Y106285D01*
X515181Y106204D01*
X515066Y106129D01*
X515041Y106103D01*
X515013Y106083D01*
X514922Y105979D01*
X514827Y105879D01*
X514809Y105848D01*
X514786Y105822D01*
X514722Y105699D01*
X514652Y105581D01*
X514642Y105547D01*
X514625Y105515D01*
X514591Y105382D01*
X514550Y105250D01*
X514548Y105215D01*
X514539Y105181D01*
X514525Y104976D01*
X514525Y101524D01*
X514529Y101489D01*
X514526Y101453D01*
X514549Y101317D01*
X514565Y101181D01*
X514577Y101147D01*
X514582Y101112D01*
X514635Y100985D01*
X514682Y100855D01*
X514701Y100826D01*
X514715Y100793D01*
X514796Y100681D01*
X514871Y100566D01*
X514897Y100541D01*
X514917Y100513D01*
X515021Y100422D01*
X515121Y100327D01*
X515152Y100309D01*
X515178Y100286D01*
X515301Y100222D01*
X515419Y100152D01*
X515453Y100142D01*
X515485Y100125D01*
X515618Y100091D01*
X515750Y100050D01*
X515785Y100048D01*
X515819Y100039D01*
X516024Y100025D01*
X520879Y100025D01*
X520897Y100027D01*
X520916Y100025D01*
X521068Y100047D01*
X521222Y100065D01*
X521240Y100071D01*
X521258Y100074D01*
X521452Y100139D01*
X523045Y100799D01*
X524955Y100799D01*
X526718Y100068D01*
X528068Y98718D01*
X528799Y96955D01*
X528799Y95045D01*
X528068Y93282D01*
X526718Y91932D01*
X526663Y91909D01*
X526627Y91889D01*
X526602Y91880D01*
X526596Y91876D01*
X526568Y91866D01*
X526467Y91800D01*
X526361Y91741D01*
X526323Y91706D01*
X526279Y91677D01*
X526195Y91590D01*
X526106Y91508D01*
X526076Y91465D01*
X526040Y91427D01*
X525979Y91323D01*
X525911Y91223D01*
X525892Y91174D01*
X525865Y91129D01*
X525830Y91013D01*
X525786Y90900D01*
X525779Y90848D01*
X525763Y90798D01*
X525755Y90678D01*
X525738Y90558D01*
X525743Y90506D01*
X525740Y90453D01*
X525759Y90334D01*
X525770Y90213D01*
X525787Y90164D01*
X525796Y90112D01*
X525842Y90000D01*
X525881Y89886D01*
X525908Y89841D01*
X525928Y89793D01*
X525999Y89695D01*
X526063Y89592D01*
X526100Y89555D01*
X526130Y89513D01*
X526222Y89433D01*
X526308Y89348D01*
X526352Y89320D01*
X526392Y89286D01*
X526499Y89230D01*
X526602Y89166D01*
X526651Y89149D01*
X526698Y89125D01*
X526815Y89095D01*
X526930Y89057D01*
X526982Y89052D01*
X527032Y89039D01*
X527237Y89025D01*
X536632Y89025D01*
X537525Y88132D01*
X537525Y85524D01*
X537529Y85489D01*
X537526Y85453D01*
X537549Y85317D01*
X537565Y85181D01*
X537577Y85147D01*
X537582Y85112D01*
X537635Y84985D01*
X537682Y84855D01*
X537701Y84826D01*
X537715Y84793D01*
X537796Y84681D01*
X537871Y84566D01*
X537897Y84541D01*
X537917Y84513D01*
X538021Y84422D01*
X538121Y84327D01*
X538152Y84309D01*
X538178Y84286D01*
X538301Y84222D01*
X538419Y84152D01*
X538453Y84142D01*
X538485Y84125D01*
X538618Y84091D01*
X538750Y84050D01*
X538785Y84048D01*
X538819Y84039D01*
X539024Y84025D01*
X541167Y84025D01*
X547228Y77964D01*
X547337Y77877D01*
X547443Y77786D01*
X547473Y77770D01*
X547499Y77749D01*
X547625Y77690D01*
X547749Y77625D01*
X547781Y77617D01*
X547812Y77602D01*
X547948Y77574D01*
X548083Y77539D01*
X548129Y77536D01*
X548150Y77531D01*
X548184Y77532D01*
X548288Y77525D01*
X556132Y77525D01*
X557025Y76632D01*
X557025Y61368D01*
X556132Y60475D01*
X544868Y60475D01*
X543975Y61368D01*
X543975Y69212D01*
X543959Y69350D01*
X543949Y69489D01*
X543939Y69522D01*
X543935Y69555D01*
X543888Y69686D01*
X543847Y69820D01*
X543829Y69849D01*
X543818Y69881D01*
X543742Y69997D01*
X543671Y70117D01*
X543641Y70151D01*
X543629Y70170D01*
X543605Y70193D01*
X543536Y70272D01*
X540084Y73724D01*
X540002Y73789D01*
X539927Y73861D01*
X539867Y73896D01*
X539813Y73939D01*
X539719Y73983D01*
X539629Y74036D01*
X539563Y74056D01*
X539500Y74086D01*
X539398Y74107D01*
X539298Y74138D01*
X539229Y74143D01*
X539162Y74157D01*
X539058Y74154D01*
X538953Y74162D01*
X538885Y74150D01*
X538816Y74149D01*
X538715Y74122D01*
X538612Y74106D01*
X538548Y74079D01*
X538482Y74062D01*
X538389Y74013D01*
X538293Y73973D01*
X538237Y73933D01*
X538176Y73900D01*
X538097Y73832D01*
X538013Y73771D01*
X537967Y73718D01*
X537915Y73673D01*
X537854Y73588D01*
X537786Y73510D01*
X537754Y73448D01*
X537713Y73392D01*
X537674Y73296D01*
X537625Y73203D01*
X537608Y73136D01*
X537582Y73073D01*
X537565Y72970D01*
X537539Y72869D01*
X537532Y72765D01*
X537526Y72731D01*
X537528Y72709D01*
X537525Y72664D01*
X537525Y71868D01*
X536632Y70975D01*
X522368Y70975D01*
X521060Y72284D01*
X521032Y72306D01*
X521009Y72332D01*
X520897Y72413D01*
X520789Y72498D01*
X520757Y72513D01*
X520728Y72534D01*
X520601Y72587D01*
X520476Y72645D01*
X520441Y72652D01*
X520409Y72666D01*
X520272Y72688D01*
X520138Y72716D01*
X520102Y72716D01*
X520067Y72721D01*
X519930Y72711D01*
X519792Y72708D01*
X519758Y72699D01*
X519722Y72697D01*
X519591Y72656D01*
X519458Y72621D01*
X519426Y72605D01*
X519392Y72594D01*
X519274Y72524D01*
X519152Y72460D01*
X519125Y72436D01*
X519095Y72418D01*
X518940Y72284D01*
X517632Y70975D01*
X503368Y70975D01*
X502475Y71868D01*
X502475Y88132D01*
X503368Y89025D01*
X504976Y89025D01*
X505011Y89029D01*
X505047Y89026D01*
X505183Y89049D01*
X505319Y89065D01*
X505353Y89077D01*
X505388Y89082D01*
X505515Y89135D01*
X505645Y89182D01*
X505674Y89201D01*
X505707Y89215D01*
X505819Y89296D01*
X505934Y89371D01*
X505959Y89397D01*
X505987Y89417D01*
X506078Y89521D01*
X506173Y89621D01*
X506191Y89652D01*
X506214Y89678D01*
X506278Y89801D01*
X506348Y89919D01*
X506358Y89953D01*
X506375Y89985D01*
X506409Y90118D01*
X506450Y90250D01*
X506452Y90285D01*
X506461Y90319D01*
X506475Y90524D01*
X506475Y104976D01*
X506471Y105011D01*
X506474Y105047D01*
X506451Y105183D01*
X506435Y105319D01*
X506423Y105353D01*
X506418Y105388D01*
X506365Y105515D01*
X506318Y105645D01*
X506299Y105674D01*
X506285Y105707D01*
X506204Y105819D01*
X506129Y105934D01*
X506103Y105959D01*
X506083Y105987D01*
X505979Y106078D01*
X505879Y106173D01*
X505848Y106191D01*
X505822Y106214D01*
X505699Y106278D01*
X505581Y106348D01*
X505547Y106358D01*
X505515Y106375D01*
X505382Y106409D01*
X505250Y106450D01*
X505215Y106452D01*
X505181Y106461D01*
X504976Y106475D01*
X495368Y106475D01*
X494475Y107368D01*
X494475Y131476D01*
X494471Y131511D01*
X494474Y131547D01*
X494451Y131683D01*
X494435Y131819D01*
X494423Y131853D01*
X494418Y131888D01*
X494365Y132015D01*
X494318Y132145D01*
X494299Y132174D01*
X494285Y132207D01*
X494204Y132319D01*
X494129Y132434D01*
X494103Y132459D01*
X494083Y132487D01*
X493979Y132578D01*
X493879Y132673D01*
X493848Y132691D01*
X493822Y132714D01*
X493699Y132778D01*
X493581Y132848D01*
X493547Y132858D01*
X493515Y132875D01*
X493382Y132909D01*
X493250Y132950D01*
X493215Y132952D01*
X493181Y132961D01*
X492976Y132975D01*
X482288Y132975D01*
X482150Y132959D01*
X482011Y132949D01*
X481978Y132939D01*
X481945Y132935D01*
X481814Y132888D01*
X481680Y132847D01*
X481651Y132829D01*
X481619Y132818D01*
X481503Y132742D01*
X481383Y132671D01*
X481349Y132641D01*
X481330Y132629D01*
X481307Y132605D01*
X481228Y132536D01*
X462667Y113975D01*
X426288Y113975D01*
X426150Y113959D01*
X426011Y113949D01*
X425978Y113939D01*
X425945Y113935D01*
X425814Y113888D01*
X425680Y113847D01*
X425651Y113829D01*
X425619Y113818D01*
X425503Y113742D01*
X425383Y113671D01*
X425349Y113641D01*
X425330Y113629D01*
X425307Y113605D01*
X425228Y113536D01*
X418599Y106908D01*
X418567Y106867D01*
X418528Y106831D01*
X418460Y106731D01*
X418385Y106636D01*
X418362Y106589D01*
X418333Y106546D01*
X418289Y106433D01*
X418238Y106323D01*
X418227Y106272D01*
X418208Y106223D01*
X418192Y106104D01*
X418167Y105985D01*
X418168Y105933D01*
X418161Y105881D01*
X418172Y105761D01*
X418175Y105640D01*
X418188Y105589D01*
X418193Y105537D01*
X418231Y105422D01*
X418262Y105305D01*
X418286Y105259D01*
X418303Y105209D01*
X418367Y105106D01*
X418423Y104999D01*
X418458Y104960D01*
X418485Y104915D01*
X418571Y104830D01*
X418650Y104739D01*
X418693Y104708D01*
X418730Y104671D01*
X418833Y104608D01*
X418931Y104537D01*
X418980Y104517D01*
X419024Y104489D01*
X419139Y104451D01*
X419251Y104405D01*
X419303Y104397D01*
X419352Y104380D01*
X419472Y104369D01*
X419592Y104350D01*
X419644Y104353D01*
X419696Y104349D01*
X419816Y104365D01*
X419937Y104374D01*
X419987Y104390D01*
X420039Y104397D01*
X420233Y104462D01*
X421046Y104799D01*
X422955Y104799D01*
X424718Y104068D01*
X426068Y102718D01*
X426799Y100955D01*
X426799Y99045D01*
X426139Y97452D01*
X426134Y97435D01*
X426125Y97418D01*
X426086Y97268D01*
X426044Y97120D01*
X426043Y97101D01*
X426039Y97083D01*
X426025Y96879D01*
X426025Y95573D01*
X379965Y49513D01*
X379878Y49404D01*
X379787Y49298D01*
X379771Y49268D01*
X379750Y49242D01*
X379691Y49116D01*
X379626Y48992D01*
X379618Y48960D01*
X379603Y48929D01*
X379575Y48793D01*
X379540Y48658D01*
X379537Y48612D01*
X379532Y48591D01*
X379533Y48557D01*
X379526Y48453D01*
X379526Y38766D01*
X379439Y38680D01*
X379417Y38652D01*
X379391Y38629D01*
X379310Y38517D01*
X379225Y38409D01*
X379210Y38377D01*
X379189Y38348D01*
X379137Y38221D01*
X379078Y38096D01*
X379071Y38061D01*
X379057Y38029D01*
X379035Y37892D01*
X379007Y37758D01*
X379007Y37722D01*
X379002Y37687D01*
X379012Y37550D01*
X379015Y37412D01*
X379024Y37378D01*
X379026Y37342D01*
X379067Y37211D01*
X379102Y37078D01*
X379118Y37046D01*
X379129Y37012D01*
X379199Y36893D01*
X379263Y36772D01*
X379287Y36745D01*
X379305Y36714D01*
X379439Y36560D01*
X379526Y36474D01*
X379526Y23526D01*
X379439Y23440D01*
X379417Y23412D01*
X379391Y23389D01*
X379310Y23277D01*
X379225Y23169D01*
X379210Y23137D01*
X379189Y23108D01*
X379137Y22981D01*
X379078Y22856D01*
X379071Y22821D01*
X379057Y22789D01*
X379035Y22652D01*
X379007Y22518D01*
X379007Y22482D01*
X379002Y22447D01*
X379012Y22310D01*
X379015Y22172D01*
X379024Y22138D01*
X379026Y22102D01*
X379067Y21971D01*
X379102Y21838D01*
X379118Y21806D01*
X379129Y21772D01*
X379199Y21653D01*
X379263Y21532D01*
X379287Y21505D01*
X379305Y21474D01*
X379439Y21320D01*
X379526Y21234D01*
X379526Y20837D01*
X379538Y20734D01*
X379540Y20629D01*
X379558Y20562D01*
X379566Y20494D01*
X379601Y20396D01*
X379627Y20295D01*
X379660Y20234D01*
X379683Y20168D01*
X379740Y20081D01*
X379789Y19989D01*
X379834Y19937D01*
X379872Y19879D01*
X379947Y19807D01*
X380016Y19728D01*
X380072Y19688D01*
X380122Y19640D01*
X380212Y19587D01*
X380297Y19527D01*
X380361Y19500D01*
X380420Y19465D01*
X380520Y19434D01*
X380616Y19395D01*
X380685Y19383D01*
X380751Y19363D01*
X380855Y19356D01*
X380958Y19339D01*
X381027Y19344D01*
X381096Y19339D01*
X381198Y19356D01*
X381303Y19364D01*
X381369Y19384D01*
X381437Y19395D01*
X381533Y19435D01*
X381633Y19466D01*
X381692Y19502D01*
X381756Y19528D01*
X381841Y19589D01*
X381930Y19642D01*
X382009Y19711D01*
X382036Y19730D01*
X382051Y19747D01*
X382085Y19777D01*
X464536Y102228D01*
X464623Y102337D01*
X464714Y102443D01*
X464730Y102473D01*
X464751Y102499D01*
X464810Y102625D01*
X464875Y102749D01*
X464883Y102781D01*
X464898Y102812D01*
X464926Y102948D01*
X464961Y103083D01*
X464964Y103129D01*
X464969Y103150D01*
X464968Y103184D01*
X464975Y103288D01*
X464975Y104879D01*
X464973Y104897D01*
X464975Y104916D01*
X464953Y105068D01*
X464935Y105222D01*
X464929Y105240D01*
X464926Y105258D01*
X464861Y105452D01*
X464201Y107045D01*
X464201Y108955D01*
X464932Y110718D01*
X466282Y112068D01*
X468045Y112799D01*
X469955Y112799D01*
X471718Y112068D01*
X473068Y110718D01*
X473799Y108955D01*
X473799Y107045D01*
X473139Y105452D01*
X473134Y105435D01*
X473125Y105418D01*
X473086Y105268D01*
X473044Y105120D01*
X473043Y105101D01*
X473039Y105083D01*
X473025Y104879D01*
X473025Y99333D01*
X384427Y10735D01*
X381025Y10735D01*
X380990Y10731D01*
X380954Y10734D01*
X380818Y10711D01*
X380682Y10695D01*
X380648Y10683D01*
X380613Y10678D01*
X380486Y10625D01*
X380356Y10578D01*
X380327Y10559D01*
X380294Y10545D01*
X380182Y10464D01*
X380067Y10389D01*
X380042Y10363D01*
X380014Y10343D01*
X379923Y10239D01*
X379828Y10139D01*
X379810Y10108D01*
X379787Y10082D01*
X379723Y9959D01*
X379653Y9841D01*
X379643Y9807D01*
X379626Y9775D01*
X379592Y9642D01*
X379551Y9510D01*
X379549Y9475D01*
X379540Y9441D01*
X379526Y9236D01*
X379526Y8286D01*
X378879Y7640D01*
X378815Y7558D01*
X378743Y7483D01*
X378708Y7423D01*
X378665Y7369D01*
X378620Y7275D01*
X378568Y7185D01*
X378547Y7119D01*
X378518Y7056D01*
X378496Y6954D01*
X378466Y6854D01*
X378461Y6785D01*
X378447Y6718D01*
X378449Y6614D01*
X378442Y6509D01*
X378453Y6441D01*
X378455Y6372D01*
X378481Y6271D01*
X378498Y6168D01*
X378524Y6105D01*
X378542Y6038D01*
X378591Y5945D01*
X378631Y5849D01*
X378671Y5793D01*
X378703Y5732D01*
X378772Y5653D01*
X378833Y5569D01*
X378885Y5523D01*
X378930Y5471D01*
X379015Y5410D01*
X379094Y5342D01*
X379155Y5310D01*
X379211Y5269D01*
X379307Y5230D01*
X379400Y5181D01*
X379467Y5164D01*
X379531Y5138D01*
X379634Y5121D01*
X379735Y5095D01*
X379839Y5088D01*
X379872Y5082D01*
X379895Y5084D01*
X379940Y5081D01*
X793420Y5081D01*
X793455Y5085D01*
X793491Y5082D01*
X793627Y5105D01*
X793763Y5121D01*
X793797Y5133D01*
X793832Y5138D01*
X793959Y5191D01*
X794089Y5238D01*
X794118Y5257D01*
X794151Y5271D01*
X794263Y5352D01*
X794378Y5427D01*
X794403Y5453D01*
X794431Y5473D01*
X794522Y5577D01*
X794617Y5677D01*
X794635Y5708D01*
X794658Y5734D01*
X794722Y5857D01*
X794792Y5975D01*
X794802Y6009D01*
X794819Y6041D01*
X794853Y6174D01*
X794894Y6306D01*
X794896Y6341D01*
X794905Y6375D01*
X794919Y6580D01*
X794919Y393420D01*
X794917Y393443D01*
X794918Y393457D01*
X794916Y393467D01*
X794918Y393491D01*
X794895Y393627D01*
X794879Y393763D01*
X794867Y393797D01*
X794862Y393832D01*
X794809Y393959D01*
X794762Y394089D01*
X794743Y394118D01*
X794729Y394151D01*
X794648Y394263D01*
X794573Y394378D01*
X794547Y394403D01*
X794527Y394431D01*
X794423Y394522D01*
X794323Y394617D01*
X794292Y394635D01*
X794266Y394658D01*
X794143Y394722D01*
X794025Y394792D01*
X793991Y394802D01*
X793959Y394819D01*
X793826Y394853D01*
X793694Y394894D01*
X793659Y394896D01*
X793625Y394905D01*
X793420Y394919D01*
X6580Y394919D01*
X6545Y394915D01*
X6509Y394918D01*
X6373Y394895D01*
X6237Y394879D01*
X6203Y394867D01*
X6168Y394862D01*
X6041Y394809D01*
X5911Y394762D01*
X5882Y394743D01*
X5849Y394729D01*
X5737Y394648D01*
X5622Y394573D01*
X5597Y394547D01*
X5569Y394527D01*
X5478Y394423D01*
X5383Y394323D01*
X5365Y394292D01*
X5342Y394266D01*
X5278Y394143D01*
X5208Y394025D01*
X5198Y393991D01*
X5181Y393959D01*
X5147Y393826D01*
X5106Y393694D01*
X5104Y393659D01*
X5095Y393625D01*
X5081Y393420D01*
X5081Y6580D01*
X5085Y6545D01*
X5082Y6509D01*
X5105Y6373D01*
X5121Y6237D01*
X5133Y6203D01*
X5138Y6168D01*
X5191Y6041D01*
X5238Y5911D01*
X5257Y5882D01*
X5271Y5849D01*
X5352Y5737D01*
X5427Y5622D01*
X5453Y5597D01*
X5473Y5569D01*
X5577Y5478D01*
X5677Y5383D01*
X5708Y5365D01*
X5734Y5342D01*
X5857Y5278D01*
X5975Y5208D01*
X6009Y5198D01*
X6041Y5181D01*
X6174Y5147D01*
X6306Y5106D01*
X6341Y5104D01*
X6375Y5095D01*
X6580Y5081D01*
X360060Y5081D01*
X360164Y5093D01*
G37*
%LPC*%
G36*
X30561Y170855D02*
X30561Y170855D01*
X27200Y172247D01*
X24627Y174820D01*
X23235Y178181D01*
X23235Y181819D01*
X24627Y185180D01*
X27200Y187753D01*
X30561Y189145D01*
X49439Y189145D01*
X52800Y187753D01*
X55373Y185180D01*
X55468Y184950D01*
X55510Y184874D01*
X55544Y184793D01*
X55594Y184723D01*
X55636Y184648D01*
X55695Y184584D01*
X55746Y184513D01*
X55811Y184456D01*
X55869Y184393D01*
X55941Y184343D01*
X56007Y184286D01*
X56084Y184246D01*
X56154Y184197D01*
X56236Y184166D01*
X56313Y184125D01*
X56397Y184104D01*
X56477Y184073D01*
X56563Y184061D01*
X56648Y184039D01*
X56792Y184029D01*
X56819Y184025D01*
X56831Y184026D01*
X56853Y184025D01*
X82762Y184025D01*
X82900Y184041D01*
X83040Y184051D01*
X83072Y184061D01*
X83106Y184065D01*
X83236Y184112D01*
X83370Y184153D01*
X83399Y184171D01*
X83431Y184182D01*
X83548Y184258D01*
X83668Y184329D01*
X83702Y184359D01*
X83720Y184371D01*
X83744Y184395D01*
X83822Y184464D01*
X85738Y186379D01*
X88503Y187525D01*
X91497Y187525D01*
X94262Y186379D01*
X96178Y184464D01*
X96287Y184377D01*
X96392Y184286D01*
X96422Y184270D01*
X96449Y184249D01*
X96575Y184190D01*
X96698Y184125D01*
X96731Y184117D01*
X96762Y184102D01*
X96898Y184074D01*
X97033Y184039D01*
X97078Y184036D01*
X97100Y184031D01*
X97134Y184032D01*
X97238Y184025D01*
X142762Y184025D01*
X142900Y184041D01*
X143040Y184051D01*
X143072Y184061D01*
X143106Y184065D01*
X143236Y184112D01*
X143370Y184153D01*
X143399Y184171D01*
X143431Y184182D01*
X143548Y184258D01*
X143668Y184329D01*
X143702Y184359D01*
X143720Y184371D01*
X143744Y184395D01*
X143822Y184464D01*
X145738Y186379D01*
X148503Y187525D01*
X151497Y187525D01*
X154262Y186379D01*
X156178Y184464D01*
X156287Y184377D01*
X156392Y184286D01*
X156422Y184270D01*
X156449Y184249D01*
X156575Y184190D01*
X156698Y184125D01*
X156731Y184117D01*
X156762Y184102D01*
X156898Y184074D01*
X157033Y184039D01*
X157078Y184036D01*
X157100Y184031D01*
X157134Y184032D01*
X157238Y184025D01*
X203397Y184025D01*
X203484Y184035D01*
X203572Y184035D01*
X203655Y184055D01*
X203740Y184065D01*
X203823Y184094D01*
X203908Y184114D01*
X203985Y184153D01*
X204066Y184182D01*
X204139Y184230D01*
X204217Y184269D01*
X204283Y184324D01*
X204355Y184371D01*
X204416Y184434D01*
X204483Y184490D01*
X204535Y184559D01*
X204594Y184621D01*
X204638Y184697D01*
X204691Y184767D01*
X204755Y184895D01*
X204769Y184919D01*
X204772Y184931D01*
X204782Y184950D01*
X204849Y185112D01*
X207388Y187651D01*
X210705Y189025D01*
X229295Y189025D01*
X232612Y187651D01*
X235151Y185112D01*
X235218Y184950D01*
X235260Y184874D01*
X235294Y184793D01*
X235344Y184723D01*
X235386Y184648D01*
X235445Y184584D01*
X235496Y184513D01*
X235561Y184456D01*
X235619Y184393D01*
X235691Y184343D01*
X235757Y184286D01*
X235834Y184246D01*
X235904Y184197D01*
X235986Y184166D01*
X236063Y184125D01*
X236147Y184104D01*
X236227Y184073D01*
X236313Y184061D01*
X236398Y184039D01*
X236542Y184029D01*
X236569Y184025D01*
X236581Y184026D01*
X236603Y184025D01*
X283397Y184025D01*
X283484Y184035D01*
X283572Y184035D01*
X283655Y184055D01*
X283740Y184065D01*
X283823Y184094D01*
X283908Y184114D01*
X283985Y184153D01*
X284066Y184182D01*
X284139Y184230D01*
X284217Y184269D01*
X284283Y184324D01*
X284355Y184371D01*
X284416Y184434D01*
X284483Y184490D01*
X284535Y184559D01*
X284594Y184621D01*
X284638Y184697D01*
X284691Y184767D01*
X284755Y184895D01*
X284769Y184919D01*
X284772Y184931D01*
X284782Y184950D01*
X284849Y185112D01*
X287388Y187651D01*
X290705Y189025D01*
X309295Y189025D01*
X312612Y187651D01*
X315151Y185112D01*
X316525Y181795D01*
X316525Y178205D01*
X315151Y174888D01*
X312612Y172349D01*
X309295Y170975D01*
X290705Y170975D01*
X287388Y172349D01*
X284849Y174888D01*
X284782Y175050D01*
X284740Y175126D01*
X284706Y175207D01*
X284656Y175277D01*
X284614Y175352D01*
X284555Y175416D01*
X284504Y175487D01*
X284439Y175544D01*
X284381Y175607D01*
X284309Y175657D01*
X284243Y175714D01*
X284166Y175754D01*
X284096Y175803D01*
X284014Y175834D01*
X283937Y175875D01*
X283853Y175896D01*
X283773Y175927D01*
X283687Y175939D01*
X283602Y175961D01*
X283458Y175971D01*
X283431Y175975D01*
X283419Y175974D01*
X283397Y175975D01*
X236603Y175975D01*
X236516Y175965D01*
X236428Y175965D01*
X236345Y175945D01*
X236260Y175935D01*
X236177Y175906D01*
X236092Y175886D01*
X236015Y175847D01*
X235934Y175818D01*
X235861Y175770D01*
X235783Y175731D01*
X235717Y175676D01*
X235645Y175629D01*
X235584Y175566D01*
X235517Y175510D01*
X235465Y175441D01*
X235406Y175379D01*
X235362Y175303D01*
X235309Y175233D01*
X235245Y175105D01*
X235231Y175081D01*
X235228Y175069D01*
X235218Y175050D01*
X235151Y174888D01*
X232612Y172349D01*
X229295Y170975D01*
X210705Y170975D01*
X207388Y172349D01*
X204849Y174888D01*
X204782Y175050D01*
X204740Y175126D01*
X204706Y175207D01*
X204656Y175277D01*
X204614Y175352D01*
X204555Y175416D01*
X204504Y175487D01*
X204439Y175544D01*
X204381Y175607D01*
X204309Y175657D01*
X204243Y175714D01*
X204166Y175754D01*
X204096Y175803D01*
X204014Y175834D01*
X203937Y175875D01*
X203853Y175896D01*
X203773Y175927D01*
X203687Y175939D01*
X203602Y175961D01*
X203458Y175971D01*
X203431Y175975D01*
X203419Y175974D01*
X203397Y175975D01*
X157238Y175975D01*
X157100Y175959D01*
X156960Y175949D01*
X156928Y175939D01*
X156894Y175935D01*
X156764Y175888D01*
X156630Y175847D01*
X156601Y175829D01*
X156569Y175818D01*
X156452Y175742D01*
X156332Y175671D01*
X156298Y175641D01*
X156280Y175629D01*
X156256Y175605D01*
X156178Y175536D01*
X154262Y173621D01*
X151497Y172475D01*
X148503Y172475D01*
X145738Y173621D01*
X143822Y175536D01*
X143713Y175623D01*
X143608Y175714D01*
X143578Y175730D01*
X143551Y175751D01*
X143425Y175810D01*
X143302Y175875D01*
X143269Y175883D01*
X143238Y175898D01*
X143102Y175926D01*
X142967Y175961D01*
X142922Y175964D01*
X142900Y175969D01*
X142866Y175968D01*
X142762Y175975D01*
X97238Y175975D01*
X97100Y175959D01*
X96960Y175949D01*
X96928Y175939D01*
X96894Y175935D01*
X96764Y175888D01*
X96630Y175847D01*
X96601Y175829D01*
X96569Y175818D01*
X96452Y175742D01*
X96332Y175671D01*
X96298Y175641D01*
X96280Y175629D01*
X96256Y175605D01*
X96178Y175536D01*
X94262Y173621D01*
X91497Y172475D01*
X88503Y172475D01*
X85738Y173621D01*
X83822Y175536D01*
X83713Y175623D01*
X83608Y175714D01*
X83578Y175730D01*
X83551Y175751D01*
X83425Y175810D01*
X83302Y175875D01*
X83269Y175883D01*
X83238Y175898D01*
X83102Y175926D01*
X82967Y175961D01*
X82922Y175964D01*
X82900Y175969D01*
X82866Y175968D01*
X82762Y175975D01*
X56853Y175975D01*
X56766Y175965D01*
X56678Y175965D01*
X56595Y175945D01*
X56509Y175935D01*
X56427Y175906D01*
X56342Y175886D01*
X56265Y175847D01*
X56184Y175818D01*
X56111Y175770D01*
X56033Y175731D01*
X55967Y175676D01*
X55895Y175629D01*
X55834Y175566D01*
X55767Y175510D01*
X55715Y175441D01*
X55656Y175379D01*
X55612Y175303D01*
X55559Y175233D01*
X55495Y175105D01*
X55481Y175081D01*
X55477Y175069D01*
X55468Y175050D01*
X55373Y174820D01*
X52800Y172247D01*
X49439Y170855D01*
X30561Y170855D01*
G37*
%LPD*%
%LPC*%
G36*
X292665Y299959D02*
X292665Y299959D01*
X292019Y300132D01*
X291440Y300467D01*
X290967Y300940D01*
X290710Y301385D01*
X290675Y301432D01*
X290648Y301483D01*
X290572Y301570D01*
X290504Y301662D01*
X290459Y301700D01*
X290421Y301744D01*
X290327Y301811D01*
X290240Y301885D01*
X290187Y301912D01*
X290140Y301946D01*
X290034Y301990D01*
X289931Y302042D01*
X289874Y302055D01*
X289820Y302078D01*
X289707Y302096D01*
X289595Y302123D01*
X289537Y302124D01*
X289479Y302133D01*
X289364Y302125D01*
X289249Y302126D01*
X289193Y302113D01*
X289134Y302109D01*
X289024Y302074D01*
X288912Y302049D01*
X288860Y302023D01*
X288804Y302006D01*
X288705Y301947D01*
X288602Y301897D01*
X288557Y301860D01*
X288506Y301830D01*
X288352Y301695D01*
X287632Y300975D01*
X273368Y300975D01*
X272475Y301868D01*
X272475Y307590D01*
X272471Y307625D01*
X272474Y307661D01*
X272451Y307796D01*
X272435Y307933D01*
X272423Y307967D01*
X272418Y308002D01*
X272365Y308129D01*
X272318Y308259D01*
X272299Y308288D01*
X272285Y308321D01*
X272204Y308433D01*
X272129Y308548D01*
X272103Y308573D01*
X272083Y308601D01*
X271979Y308692D01*
X271879Y308787D01*
X271848Y308805D01*
X271822Y308828D01*
X271699Y308892D01*
X271581Y308962D01*
X271547Y308972D01*
X271515Y308989D01*
X271382Y309023D01*
X271250Y309064D01*
X271215Y309066D01*
X271181Y309075D01*
X270976Y309089D01*
X265188Y309089D01*
X265153Y309085D01*
X265117Y309088D01*
X264981Y309065D01*
X264845Y309049D01*
X264811Y309037D01*
X264776Y309032D01*
X264649Y308979D01*
X264519Y308932D01*
X264490Y308913D01*
X264457Y308899D01*
X264345Y308818D01*
X264230Y308743D01*
X264205Y308717D01*
X264177Y308697D01*
X264086Y308593D01*
X263991Y308493D01*
X263973Y308462D01*
X263950Y308436D01*
X263886Y308313D01*
X263816Y308195D01*
X263806Y308161D01*
X263789Y308129D01*
X263755Y307996D01*
X263714Y307864D01*
X263712Y307829D01*
X263703Y307795D01*
X263689Y307590D01*
X263689Y306386D01*
X262796Y305493D01*
X239180Y305493D01*
X238287Y306386D01*
X238287Y319502D01*
X238271Y319640D01*
X238261Y319779D01*
X238251Y319812D01*
X238247Y319845D01*
X238200Y319976D01*
X238159Y320110D01*
X238141Y320139D01*
X238130Y320171D01*
X238054Y320287D01*
X237983Y320407D01*
X237953Y320441D01*
X237941Y320460D01*
X237917Y320483D01*
X237848Y320562D01*
X235463Y322947D01*
X235449Y322959D01*
X235437Y322973D01*
X235313Y323066D01*
X235192Y323162D01*
X235175Y323169D01*
X235161Y323181D01*
X234977Y323272D01*
X233554Y323861D01*
X233537Y323866D01*
X233520Y323875D01*
X233370Y323914D01*
X233222Y323956D01*
X233203Y323957D01*
X233185Y323961D01*
X232981Y323975D01*
X131288Y323975D01*
X131150Y323959D01*
X131011Y323949D01*
X130978Y323939D01*
X130945Y323935D01*
X130814Y323888D01*
X130680Y323847D01*
X130651Y323829D01*
X130619Y323818D01*
X130503Y323742D01*
X130383Y323671D01*
X130349Y323641D01*
X130330Y323629D01*
X130307Y323605D01*
X130228Y323536D01*
X127734Y321042D01*
X127712Y321015D01*
X127685Y320991D01*
X127605Y320879D01*
X127520Y320771D01*
X127504Y320739D01*
X127484Y320710D01*
X127431Y320583D01*
X127373Y320458D01*
X127365Y320424D01*
X127352Y320391D01*
X127330Y320255D01*
X127301Y320120D01*
X127302Y320085D01*
X127297Y320050D01*
X127306Y319912D01*
X127310Y319774D01*
X127318Y319740D01*
X127321Y319705D01*
X127362Y319573D01*
X127397Y319440D01*
X127413Y319408D01*
X127424Y319375D01*
X127494Y319256D01*
X127558Y319134D01*
X127581Y319107D01*
X127599Y319077D01*
X127734Y318922D01*
X128352Y318305D01*
X128397Y318268D01*
X128437Y318226D01*
X128532Y318161D01*
X128623Y318090D01*
X128676Y318065D01*
X128724Y318033D01*
X128832Y317992D01*
X128936Y317943D01*
X128993Y317931D01*
X129047Y317911D01*
X129162Y317896D01*
X129274Y317872D01*
X129332Y317873D01*
X129390Y317866D01*
X129505Y317877D01*
X129620Y317880D01*
X129676Y317895D01*
X129734Y317901D01*
X129843Y317938D01*
X129954Y317967D01*
X130006Y317995D01*
X130061Y318014D01*
X130158Y318075D01*
X130260Y318129D01*
X130304Y318167D01*
X130353Y318198D01*
X130434Y318280D01*
X130521Y318356D01*
X130555Y318403D01*
X130596Y318445D01*
X130710Y318615D01*
X130967Y319060D01*
X131440Y319533D01*
X132019Y319868D01*
X132665Y320041D01*
X136501Y320041D01*
X136501Y311500D01*
X136505Y311465D01*
X136502Y311430D01*
X136525Y311293D01*
X136541Y311157D01*
X136553Y311123D01*
X136558Y311088D01*
X136611Y310961D01*
X136658Y310831D01*
X136678Y310802D01*
X136691Y310769D01*
X136772Y310657D01*
X136847Y310542D01*
X136873Y310517D01*
X136893Y310489D01*
X136998Y310398D01*
X137097Y310303D01*
X137128Y310285D01*
X137154Y310262D01*
X137277Y310198D01*
X137395Y310128D01*
X137429Y310118D01*
X137461Y310101D01*
X137594Y310067D01*
X137726Y310026D01*
X137761Y310024D01*
X137795Y310015D01*
X138000Y310001D01*
X139501Y310001D01*
X139501Y309999D01*
X138000Y309999D01*
X137965Y309995D01*
X137929Y309997D01*
X137793Y309975D01*
X137657Y309959D01*
X137623Y309947D01*
X137588Y309941D01*
X137461Y309889D01*
X137331Y309842D01*
X137302Y309822D01*
X137269Y309809D01*
X137157Y309728D01*
X137042Y309653D01*
X137017Y309627D01*
X136989Y309607D01*
X136898Y309502D01*
X136803Y309403D01*
X136785Y309372D01*
X136762Y309345D01*
X136698Y309223D01*
X136628Y309105D01*
X136618Y309071D01*
X136601Y309039D01*
X136567Y308906D01*
X136526Y308774D01*
X136524Y308739D01*
X136515Y308705D01*
X136501Y308500D01*
X136501Y299959D01*
X132665Y299959D01*
X132019Y300132D01*
X131440Y300467D01*
X130967Y300940D01*
X130710Y301385D01*
X130675Y301432D01*
X130648Y301483D01*
X130573Y301570D01*
X130504Y301662D01*
X130459Y301700D01*
X130421Y301744D01*
X130327Y301811D01*
X130240Y301885D01*
X130187Y301912D01*
X130140Y301946D01*
X130033Y301990D01*
X129931Y302042D01*
X129875Y302055D01*
X129820Y302078D01*
X129707Y302096D01*
X129595Y302123D01*
X129537Y302124D01*
X129479Y302133D01*
X129364Y302125D01*
X129249Y302126D01*
X129193Y302113D01*
X129134Y302108D01*
X129024Y302074D01*
X128912Y302049D01*
X128860Y302023D01*
X128804Y302006D01*
X128705Y301947D01*
X128602Y301897D01*
X128557Y301860D01*
X128506Y301830D01*
X128352Y301695D01*
X127632Y300975D01*
X113368Y300975D01*
X112475Y301868D01*
X112475Y307590D01*
X112471Y307625D01*
X112474Y307661D01*
X112451Y307796D01*
X112435Y307933D01*
X112423Y307967D01*
X112418Y308002D01*
X112365Y308129D01*
X112318Y308259D01*
X112299Y308288D01*
X112285Y308321D01*
X112204Y308433D01*
X112129Y308548D01*
X112103Y308573D01*
X112083Y308601D01*
X111979Y308692D01*
X111879Y308787D01*
X111848Y308805D01*
X111822Y308828D01*
X111699Y308892D01*
X111581Y308962D01*
X111547Y308972D01*
X111515Y308989D01*
X111382Y309023D01*
X111250Y309064D01*
X111215Y309066D01*
X111181Y309075D01*
X110976Y309089D01*
X104553Y309089D01*
X104518Y309085D01*
X104482Y309088D01*
X104346Y309065D01*
X104210Y309049D01*
X104176Y309037D01*
X104141Y309032D01*
X104014Y308979D01*
X103884Y308932D01*
X103855Y308913D01*
X103822Y308899D01*
X103710Y308818D01*
X103595Y308743D01*
X103570Y308717D01*
X103542Y308697D01*
X103451Y308593D01*
X103356Y308493D01*
X103338Y308462D01*
X103315Y308436D01*
X103251Y308313D01*
X103181Y308195D01*
X103171Y308161D01*
X103154Y308129D01*
X103120Y307996D01*
X103079Y307864D01*
X103077Y307829D01*
X103068Y307795D01*
X103054Y307590D01*
X103054Y304989D01*
X102161Y304096D01*
X80831Y304096D01*
X79938Y304989D01*
X79938Y321239D01*
X80831Y322132D01*
X102161Y322132D01*
X103054Y321239D01*
X103054Y318638D01*
X103058Y318603D01*
X103055Y318567D01*
X103078Y318431D01*
X103094Y318295D01*
X103106Y318261D01*
X103111Y318226D01*
X103164Y318099D01*
X103211Y317969D01*
X103230Y317940D01*
X103244Y317907D01*
X103325Y317795D01*
X103400Y317680D01*
X103426Y317655D01*
X103446Y317627D01*
X103550Y317536D01*
X103650Y317441D01*
X103681Y317423D01*
X103707Y317400D01*
X103830Y317336D01*
X103948Y317266D01*
X103982Y317256D01*
X104014Y317239D01*
X104147Y317205D01*
X104279Y317164D01*
X104314Y317162D01*
X104348Y317153D01*
X104553Y317139D01*
X110976Y317139D01*
X111011Y317143D01*
X111047Y317140D01*
X111183Y317163D01*
X111319Y317179D01*
X111353Y317191D01*
X111388Y317196D01*
X111515Y317249D01*
X111645Y317296D01*
X111674Y317315D01*
X111707Y317329D01*
X111819Y317410D01*
X111934Y317485D01*
X111959Y317511D01*
X111987Y317531D01*
X112078Y317635D01*
X112173Y317735D01*
X112191Y317766D01*
X112214Y317792D01*
X112278Y317915D01*
X112307Y317963D01*
X113368Y319025D01*
X114976Y319025D01*
X115011Y319029D01*
X115047Y319026D01*
X115183Y319049D01*
X115319Y319065D01*
X115353Y319077D01*
X115388Y319082D01*
X115515Y319135D01*
X115645Y319182D01*
X115674Y319201D01*
X115707Y319215D01*
X115819Y319296D01*
X115934Y319371D01*
X115959Y319397D01*
X115987Y319417D01*
X116078Y319521D01*
X116173Y319621D01*
X116191Y319652D01*
X116214Y319678D01*
X116278Y319801D01*
X116348Y319919D01*
X116358Y319953D01*
X116375Y319985D01*
X116409Y320118D01*
X116450Y320250D01*
X116452Y320285D01*
X116461Y320319D01*
X116475Y320524D01*
X116475Y321167D01*
X127333Y332025D01*
X232981Y332025D01*
X232999Y332027D01*
X233018Y332025D01*
X233170Y332047D01*
X233324Y332065D01*
X233342Y332071D01*
X233360Y332074D01*
X233554Y332139D01*
X235147Y332799D01*
X237057Y332799D01*
X238820Y332068D01*
X240170Y330718D01*
X240830Y329125D01*
X240839Y329109D01*
X240845Y329091D01*
X240923Y328958D01*
X240998Y328823D01*
X241011Y328809D01*
X241020Y328793D01*
X241155Y328639D01*
X248620Y321174D01*
X248729Y321087D01*
X248835Y320996D01*
X248865Y320980D01*
X248891Y320959D01*
X249017Y320900D01*
X249141Y320835D01*
X249173Y320827D01*
X249204Y320812D01*
X249340Y320784D01*
X249475Y320749D01*
X249521Y320746D01*
X249542Y320741D01*
X249576Y320742D01*
X249680Y320735D01*
X262796Y320735D01*
X263689Y319842D01*
X263689Y318638D01*
X263693Y318603D01*
X263690Y318567D01*
X263713Y318431D01*
X263729Y318295D01*
X263741Y318261D01*
X263746Y318226D01*
X263799Y318099D01*
X263846Y317969D01*
X263865Y317940D01*
X263879Y317907D01*
X263960Y317795D01*
X264035Y317680D01*
X264061Y317655D01*
X264081Y317627D01*
X264185Y317536D01*
X264285Y317441D01*
X264316Y317423D01*
X264342Y317400D01*
X264465Y317336D01*
X264583Y317266D01*
X264617Y317256D01*
X264649Y317239D01*
X264782Y317205D01*
X264914Y317164D01*
X264949Y317162D01*
X264983Y317153D01*
X265188Y317139D01*
X270976Y317139D01*
X271011Y317143D01*
X271047Y317140D01*
X271183Y317163D01*
X271319Y317179D01*
X271353Y317191D01*
X271388Y317196D01*
X271515Y317249D01*
X271645Y317296D01*
X271674Y317315D01*
X271707Y317329D01*
X271819Y317410D01*
X271934Y317485D01*
X271959Y317511D01*
X271987Y317531D01*
X272078Y317635D01*
X272173Y317735D01*
X272191Y317766D01*
X272214Y317792D01*
X272278Y317915D01*
X272307Y317963D01*
X273368Y319025D01*
X287632Y319025D01*
X288352Y318305D01*
X288397Y318268D01*
X288437Y318226D01*
X288533Y318161D01*
X288623Y318090D01*
X288676Y318065D01*
X288724Y318033D01*
X288832Y317992D01*
X288936Y317943D01*
X288993Y317931D01*
X289048Y317910D01*
X289161Y317896D01*
X289274Y317872D01*
X289332Y317873D01*
X289390Y317866D01*
X289505Y317877D01*
X289620Y317880D01*
X289676Y317895D01*
X289734Y317901D01*
X289843Y317938D01*
X289954Y317967D01*
X290006Y317995D01*
X290061Y318014D01*
X290158Y318075D01*
X290260Y318129D01*
X290304Y318167D01*
X290353Y318198D01*
X290434Y318280D01*
X290521Y318356D01*
X290555Y318403D01*
X290596Y318445D01*
X290710Y318615D01*
X290967Y319060D01*
X291440Y319533D01*
X292019Y319868D01*
X292665Y320041D01*
X296501Y320041D01*
X296501Y311500D01*
X296505Y311465D01*
X296502Y311430D01*
X296525Y311293D01*
X296541Y311157D01*
X296553Y311123D01*
X296558Y311088D01*
X296611Y310961D01*
X296658Y310831D01*
X296678Y310802D01*
X296691Y310769D01*
X296772Y310657D01*
X296847Y310542D01*
X296873Y310517D01*
X296893Y310489D01*
X296998Y310398D01*
X297097Y310303D01*
X297128Y310285D01*
X297154Y310262D01*
X297277Y310198D01*
X297395Y310128D01*
X297429Y310118D01*
X297461Y310101D01*
X297594Y310067D01*
X297726Y310026D01*
X297761Y310024D01*
X297795Y310015D01*
X298000Y310001D01*
X299501Y310001D01*
X299501Y309999D01*
X298000Y309999D01*
X297965Y309995D01*
X297929Y309997D01*
X297793Y309975D01*
X297657Y309959D01*
X297623Y309947D01*
X297588Y309941D01*
X297461Y309889D01*
X297331Y309842D01*
X297302Y309822D01*
X297269Y309809D01*
X297157Y309728D01*
X297042Y309653D01*
X297017Y309627D01*
X296989Y309607D01*
X296898Y309502D01*
X296803Y309403D01*
X296785Y309372D01*
X296762Y309345D01*
X296698Y309223D01*
X296628Y309105D01*
X296618Y309071D01*
X296601Y309039D01*
X296567Y308906D01*
X296526Y308774D01*
X296524Y308739D01*
X296515Y308705D01*
X296501Y308500D01*
X296501Y299959D01*
X292665Y299959D01*
G37*
%LPD*%
%LPC*%
G36*
X629368Y286475D02*
X629368Y286475D01*
X628475Y287368D01*
X628475Y312632D01*
X629368Y313525D01*
X636476Y313525D01*
X636511Y313529D01*
X636547Y313526D01*
X636683Y313549D01*
X636819Y313565D01*
X636853Y313577D01*
X636888Y313582D01*
X637015Y313635D01*
X637145Y313682D01*
X637174Y313701D01*
X637207Y313715D01*
X637319Y313796D01*
X637434Y313871D01*
X637459Y313897D01*
X637487Y313917D01*
X637578Y314021D01*
X637673Y314121D01*
X637691Y314152D01*
X637714Y314178D01*
X637778Y314301D01*
X637848Y314419D01*
X637858Y314453D01*
X637875Y314485D01*
X637909Y314618D01*
X637950Y314750D01*
X637952Y314785D01*
X637961Y314819D01*
X637975Y315024D01*
X637975Y317712D01*
X637959Y317850D01*
X637949Y317989D01*
X637939Y318022D01*
X637935Y318055D01*
X637888Y318186D01*
X637847Y318320D01*
X637829Y318349D01*
X637818Y318381D01*
X637742Y318497D01*
X637671Y318617D01*
X637641Y318651D01*
X637629Y318670D01*
X637605Y318693D01*
X637536Y318772D01*
X608210Y348098D01*
X608141Y348153D01*
X608079Y348214D01*
X608006Y348260D01*
X607939Y348313D01*
X607860Y348350D01*
X607785Y348396D01*
X607704Y348423D01*
X607626Y348460D01*
X607540Y348478D01*
X607457Y348506D01*
X607372Y348513D01*
X607288Y348531D01*
X607200Y348529D01*
X607113Y348537D01*
X607028Y348525D01*
X606942Y348523D01*
X606857Y348501D01*
X606771Y348489D01*
X606634Y348443D01*
X606607Y348436D01*
X606597Y348430D01*
X606576Y348423D01*
X604476Y347553D01*
X599524Y347553D01*
X594949Y349448D01*
X591448Y352949D01*
X589553Y357524D01*
X589553Y362476D01*
X591448Y367051D01*
X594949Y370552D01*
X599524Y372447D01*
X604476Y372447D01*
X609051Y370552D01*
X612552Y367051D01*
X614447Y362476D01*
X614447Y357524D01*
X613577Y355424D01*
X613553Y355340D01*
X613519Y355259D01*
X613506Y355174D01*
X613482Y355091D01*
X613478Y355004D01*
X613464Y354918D01*
X613470Y354832D01*
X613466Y354746D01*
X613482Y354660D01*
X613489Y354573D01*
X613514Y354491D01*
X613530Y354406D01*
X613565Y354326D01*
X613591Y354243D01*
X613635Y354168D01*
X613670Y354090D01*
X613722Y354020D01*
X613767Y353945D01*
X613861Y353836D01*
X613878Y353814D01*
X613887Y353807D01*
X613902Y353790D01*
X646025Y321667D01*
X646025Y315024D01*
X646029Y314989D01*
X646026Y314953D01*
X646049Y314817D01*
X646065Y314681D01*
X646077Y314647D01*
X646082Y314612D01*
X646135Y314485D01*
X646182Y314355D01*
X646201Y314326D01*
X646215Y314293D01*
X646296Y314181D01*
X646371Y314066D01*
X646397Y314041D01*
X646417Y314013D01*
X646521Y313922D01*
X646621Y313827D01*
X646652Y313809D01*
X646678Y313786D01*
X646801Y313722D01*
X646919Y313652D01*
X646953Y313642D01*
X646985Y313625D01*
X647118Y313591D01*
X647250Y313550D01*
X647285Y313548D01*
X647319Y313539D01*
X647524Y313525D01*
X654632Y313525D01*
X654672Y313484D01*
X654700Y313462D01*
X654723Y313435D01*
X654835Y313355D01*
X654943Y313270D01*
X654975Y313255D01*
X655004Y313234D01*
X655132Y313181D01*
X655256Y313123D01*
X655291Y313115D01*
X655324Y313102D01*
X655460Y313080D01*
X655594Y313051D01*
X655630Y313052D01*
X655665Y313047D01*
X655802Y313056D01*
X655940Y313060D01*
X655974Y313068D01*
X656010Y313071D01*
X656141Y313112D01*
X656275Y313147D01*
X656306Y313163D01*
X656340Y313174D01*
X656459Y313244D01*
X656580Y313308D01*
X656607Y313331D01*
X656638Y313349D01*
X656792Y313484D01*
X667036Y323728D01*
X667123Y323837D01*
X667214Y323943D01*
X667230Y323973D01*
X667251Y323999D01*
X667310Y324125D01*
X667375Y324249D01*
X667383Y324281D01*
X667398Y324312D01*
X667426Y324448D01*
X667461Y324583D01*
X667464Y324629D01*
X667469Y324650D01*
X667468Y324684D01*
X667475Y324788D01*
X667475Y342292D01*
X669230Y346528D01*
X672472Y349770D01*
X676708Y351525D01*
X681292Y351525D01*
X685528Y349770D01*
X688770Y346528D01*
X690525Y342292D01*
X690525Y317708D01*
X688770Y313472D01*
X685528Y310230D01*
X681292Y308475D01*
X676708Y308475D01*
X672472Y310230D01*
X669757Y312945D01*
X669729Y312967D01*
X669706Y312993D01*
X669594Y313074D01*
X669486Y313159D01*
X669454Y313174D01*
X669425Y313195D01*
X669297Y313248D01*
X669173Y313306D01*
X669138Y313314D01*
X669105Y313327D01*
X668969Y313349D01*
X668834Y313378D01*
X668799Y313377D01*
X668764Y313382D01*
X668627Y313373D01*
X668489Y313369D01*
X668455Y313360D01*
X668419Y313358D01*
X668287Y313317D01*
X668154Y313282D01*
X668123Y313266D01*
X668089Y313255D01*
X667970Y313185D01*
X667848Y313121D01*
X667822Y313098D01*
X667791Y313080D01*
X667637Y312945D01*
X655964Y301272D01*
X655877Y301163D01*
X655786Y301057D01*
X655770Y301027D01*
X655749Y301001D01*
X655690Y300875D01*
X655625Y300751D01*
X655617Y300719D01*
X655602Y300688D01*
X655574Y300552D01*
X655539Y300417D01*
X655536Y300371D01*
X655531Y300350D01*
X655532Y300316D01*
X655525Y300212D01*
X655525Y287368D01*
X654632Y286475D01*
X629368Y286475D01*
G37*
%LPD*%
%LPC*%
G36*
X299045Y242201D02*
X299045Y242201D01*
X297452Y242861D01*
X297435Y242866D01*
X297418Y242875D01*
X297268Y242914D01*
X297120Y242956D01*
X297101Y242957D01*
X297083Y242961D01*
X296879Y242975D01*
X145333Y242975D01*
X116475Y271833D01*
X116475Y274476D01*
X116471Y274511D01*
X116474Y274547D01*
X116451Y274683D01*
X116435Y274819D01*
X116423Y274853D01*
X116418Y274888D01*
X116365Y275015D01*
X116318Y275145D01*
X116299Y275174D01*
X116285Y275207D01*
X116204Y275319D01*
X116129Y275434D01*
X116103Y275459D01*
X116083Y275487D01*
X115979Y275578D01*
X115879Y275673D01*
X115848Y275691D01*
X115822Y275714D01*
X115699Y275778D01*
X115581Y275848D01*
X115547Y275858D01*
X115515Y275875D01*
X115382Y275909D01*
X115250Y275950D01*
X115215Y275952D01*
X115181Y275961D01*
X114976Y275975D01*
X113368Y275975D01*
X112475Y276868D01*
X112475Y284730D01*
X112471Y284765D01*
X112474Y284801D01*
X112451Y284937D01*
X112435Y285073D01*
X112423Y285107D01*
X112418Y285142D01*
X112365Y285269D01*
X112318Y285399D01*
X112299Y285428D01*
X112285Y285461D01*
X112204Y285573D01*
X112129Y285688D01*
X112103Y285713D01*
X112083Y285741D01*
X111979Y285832D01*
X111879Y285927D01*
X111848Y285945D01*
X111822Y285968D01*
X111699Y286032D01*
X111581Y286102D01*
X111547Y286112D01*
X111515Y286129D01*
X111382Y286163D01*
X111250Y286204D01*
X111215Y286206D01*
X111181Y286215D01*
X110976Y286229D01*
X104553Y286229D01*
X104518Y286225D01*
X104482Y286228D01*
X104346Y286205D01*
X104210Y286189D01*
X104176Y286177D01*
X104141Y286172D01*
X104014Y286119D01*
X103884Y286072D01*
X103855Y286053D01*
X103822Y286039D01*
X103710Y285958D01*
X103595Y285883D01*
X103570Y285857D01*
X103542Y285837D01*
X103451Y285733D01*
X103356Y285633D01*
X103338Y285602D01*
X103315Y285576D01*
X103251Y285453D01*
X103181Y285335D01*
X103171Y285301D01*
X103154Y285269D01*
X103120Y285136D01*
X103079Y285004D01*
X103077Y284969D01*
X103068Y284935D01*
X103054Y284730D01*
X103054Y282129D01*
X102161Y281236D01*
X80831Y281236D01*
X79938Y282129D01*
X79938Y298379D01*
X80831Y299272D01*
X102161Y299272D01*
X103054Y298379D01*
X103054Y295778D01*
X103058Y295743D01*
X103055Y295707D01*
X103078Y295571D01*
X103094Y295435D01*
X103106Y295401D01*
X103111Y295366D01*
X103164Y295239D01*
X103211Y295109D01*
X103230Y295080D01*
X103244Y295047D01*
X103325Y294935D01*
X103400Y294820D01*
X103426Y294795D01*
X103446Y294767D01*
X103550Y294676D01*
X103650Y294581D01*
X103681Y294563D01*
X103707Y294540D01*
X103830Y294476D01*
X103948Y294406D01*
X103982Y294396D01*
X104014Y294379D01*
X104147Y294345D01*
X104279Y294304D01*
X104314Y294302D01*
X104348Y294293D01*
X104553Y294279D01*
X116956Y294279D01*
X116972Y294270D01*
X116999Y294249D01*
X117125Y294190D01*
X117249Y294125D01*
X117281Y294117D01*
X117312Y294102D01*
X117448Y294074D01*
X117583Y294039D01*
X117628Y294036D01*
X117650Y294031D01*
X117684Y294032D01*
X117788Y294025D01*
X127632Y294025D01*
X128352Y293305D01*
X128397Y293268D01*
X128437Y293226D01*
X128533Y293161D01*
X128623Y293090D01*
X128676Y293065D01*
X128724Y293033D01*
X128832Y292992D01*
X128936Y292943D01*
X128993Y292931D01*
X129048Y292910D01*
X129161Y292896D01*
X129274Y292872D01*
X129332Y292873D01*
X129390Y292866D01*
X129505Y292877D01*
X129620Y292880D01*
X129676Y292895D01*
X129734Y292901D01*
X129843Y292938D01*
X129954Y292967D01*
X130006Y292995D01*
X130061Y293014D01*
X130158Y293075D01*
X130260Y293129D01*
X130304Y293167D01*
X130353Y293198D01*
X130434Y293280D01*
X130521Y293356D01*
X130555Y293403D01*
X130596Y293445D01*
X130710Y293615D01*
X130967Y294060D01*
X131440Y294533D01*
X132019Y294868D01*
X132665Y295041D01*
X136501Y295041D01*
X136501Y286500D01*
X136505Y286465D01*
X136502Y286430D01*
X136525Y286293D01*
X136541Y286157D01*
X136553Y286123D01*
X136558Y286088D01*
X136611Y285961D01*
X136658Y285831D01*
X136678Y285802D01*
X136691Y285769D01*
X136772Y285657D01*
X136847Y285542D01*
X136873Y285517D01*
X136893Y285489D01*
X136998Y285398D01*
X137097Y285303D01*
X137128Y285285D01*
X137154Y285262D01*
X137277Y285198D01*
X137395Y285128D01*
X137429Y285118D01*
X137461Y285101D01*
X137594Y285067D01*
X137726Y285026D01*
X137761Y285024D01*
X137795Y285015D01*
X138000Y285001D01*
X139501Y285001D01*
X139501Y284999D01*
X138000Y284999D01*
X137965Y284995D01*
X137929Y284997D01*
X137793Y284975D01*
X137657Y284959D01*
X137623Y284947D01*
X137588Y284941D01*
X137461Y284889D01*
X137331Y284842D01*
X137302Y284822D01*
X137269Y284809D01*
X137157Y284728D01*
X137042Y284653D01*
X137017Y284627D01*
X136989Y284607D01*
X136898Y284502D01*
X136803Y284403D01*
X136785Y284372D01*
X136762Y284345D01*
X136698Y284223D01*
X136628Y284105D01*
X136618Y284071D01*
X136601Y284039D01*
X136567Y283906D01*
X136526Y283774D01*
X136524Y283739D01*
X136515Y283705D01*
X136501Y283500D01*
X136501Y274959D01*
X132665Y274959D01*
X132019Y275132D01*
X131440Y275467D01*
X130967Y275940D01*
X130710Y276385D01*
X130675Y276432D01*
X130648Y276483D01*
X130573Y276570D01*
X130504Y276662D01*
X130459Y276700D01*
X130421Y276744D01*
X130327Y276811D01*
X130240Y276885D01*
X130187Y276912D01*
X130140Y276946D01*
X130033Y276990D01*
X129931Y277042D01*
X129875Y277055D01*
X129820Y277078D01*
X129707Y277096D01*
X129595Y277123D01*
X129537Y277124D01*
X129479Y277133D01*
X129364Y277125D01*
X129249Y277126D01*
X129193Y277113D01*
X129134Y277108D01*
X129024Y277074D01*
X128912Y277049D01*
X128860Y277023D01*
X128804Y277006D01*
X128705Y276947D01*
X128602Y276897D01*
X128557Y276860D01*
X128506Y276830D01*
X128352Y276695D01*
X127632Y275975D01*
X127336Y275975D01*
X127233Y275963D01*
X127128Y275961D01*
X127061Y275943D01*
X126993Y275935D01*
X126895Y275900D01*
X126794Y275874D01*
X126733Y275841D01*
X126667Y275818D01*
X126580Y275761D01*
X126488Y275712D01*
X126436Y275667D01*
X126378Y275629D01*
X126306Y275554D01*
X126227Y275485D01*
X126187Y275429D01*
X126139Y275379D01*
X126086Y275289D01*
X126026Y275204D01*
X125999Y275140D01*
X125964Y275081D01*
X125933Y274981D01*
X125894Y274885D01*
X125882Y274816D01*
X125862Y274750D01*
X125855Y274646D01*
X125838Y274543D01*
X125843Y274474D01*
X125838Y274405D01*
X125855Y274303D01*
X125863Y274198D01*
X125883Y274132D01*
X125894Y274064D01*
X125934Y273968D01*
X125965Y273868D01*
X126001Y273809D01*
X126027Y273745D01*
X126088Y273660D01*
X126141Y273571D01*
X126210Y273492D01*
X126229Y273465D01*
X126246Y273450D01*
X126276Y273416D01*
X148228Y251464D01*
X148337Y251377D01*
X148443Y251286D01*
X148473Y251270D01*
X148499Y251249D01*
X148625Y251190D01*
X148749Y251125D01*
X148781Y251117D01*
X148812Y251102D01*
X148948Y251074D01*
X149083Y251039D01*
X149129Y251036D01*
X149150Y251031D01*
X149184Y251032D01*
X149288Y251025D01*
X296879Y251025D01*
X296897Y251027D01*
X296916Y251025D01*
X297068Y251047D01*
X297222Y251065D01*
X297240Y251071D01*
X297258Y251074D01*
X297452Y251139D01*
X299045Y251799D01*
X300955Y251799D01*
X302718Y251068D01*
X304068Y249718D01*
X304799Y247955D01*
X304799Y246045D01*
X304068Y244282D01*
X302718Y242932D01*
X300955Y242201D01*
X299045Y242201D01*
G37*
%LPD*%
%LPC*%
G36*
X563868Y60475D02*
X563868Y60475D01*
X562975Y61368D01*
X562975Y76632D01*
X563868Y77525D01*
X571712Y77525D01*
X571850Y77541D01*
X571989Y77551D01*
X572022Y77561D01*
X572055Y77565D01*
X572186Y77612D01*
X572320Y77653D01*
X572349Y77671D01*
X572381Y77682D01*
X572497Y77758D01*
X572617Y77829D01*
X572651Y77859D01*
X572670Y77871D01*
X572693Y77895D01*
X572772Y77964D01*
X576536Y81728D01*
X576623Y81837D01*
X576714Y81943D01*
X576730Y81973D01*
X576751Y81999D01*
X576810Y82125D01*
X576875Y82249D01*
X576883Y82281D01*
X576898Y82312D01*
X576926Y82448D01*
X576961Y82583D01*
X576964Y82629D01*
X576969Y82650D01*
X576968Y82684D01*
X576975Y82788D01*
X576975Y117667D01*
X585250Y125942D01*
X585305Y125955D01*
X585391Y125965D01*
X585473Y125994D01*
X585558Y126014D01*
X585635Y126053D01*
X585716Y126082D01*
X585789Y126130D01*
X585867Y126169D01*
X585933Y126224D01*
X586005Y126271D01*
X586066Y126334D01*
X586133Y126390D01*
X586185Y126459D01*
X586244Y126521D01*
X586288Y126597D01*
X586341Y126667D01*
X586405Y126795D01*
X586419Y126819D01*
X586423Y126831D01*
X586432Y126850D01*
X586527Y127080D01*
X589100Y129653D01*
X592461Y131045D01*
X611339Y131045D01*
X614700Y129653D01*
X617273Y127080D01*
X618665Y123719D01*
X618665Y120081D01*
X617273Y116720D01*
X614700Y114147D01*
X611339Y112755D01*
X592461Y112755D01*
X589100Y114147D01*
X588030Y115218D01*
X588002Y115240D01*
X587979Y115266D01*
X587867Y115347D01*
X587759Y115432D01*
X587727Y115447D01*
X587698Y115468D01*
X587571Y115521D01*
X587446Y115579D01*
X587411Y115587D01*
X587378Y115600D01*
X587242Y115622D01*
X587107Y115650D01*
X587072Y115650D01*
X587037Y115655D01*
X586900Y115646D01*
X586762Y115642D01*
X586727Y115633D01*
X586692Y115631D01*
X586561Y115590D01*
X586427Y115555D01*
X586396Y115539D01*
X586362Y115528D01*
X586243Y115458D01*
X586121Y115394D01*
X586095Y115370D01*
X586064Y115352D01*
X585909Y115218D01*
X585464Y114772D01*
X585378Y114663D01*
X585286Y114557D01*
X585270Y114527D01*
X585249Y114501D01*
X585190Y114375D01*
X585125Y114251D01*
X585117Y114218D01*
X585102Y114188D01*
X585074Y114052D01*
X585039Y113917D01*
X585036Y113871D01*
X585031Y113850D01*
X585032Y113816D01*
X585025Y113712D01*
X585025Y103797D01*
X585037Y103693D01*
X585039Y103589D01*
X585057Y103522D01*
X585065Y103453D01*
X585100Y103355D01*
X585126Y103254D01*
X585159Y103193D01*
X585182Y103128D01*
X585239Y103041D01*
X585288Y102949D01*
X585333Y102897D01*
X585371Y102839D01*
X585446Y102767D01*
X585515Y102688D01*
X585571Y102648D01*
X585621Y102600D01*
X585711Y102547D01*
X585796Y102486D01*
X585860Y102460D01*
X585919Y102425D01*
X586019Y102394D01*
X586115Y102354D01*
X586184Y102343D01*
X586250Y102323D01*
X586354Y102316D01*
X586457Y102299D01*
X586526Y102304D01*
X586595Y102299D01*
X586697Y102316D01*
X586802Y102323D01*
X586868Y102344D01*
X586936Y102355D01*
X587032Y102395D01*
X587132Y102426D01*
X587191Y102461D01*
X587255Y102488D01*
X587339Y102549D01*
X587429Y102602D01*
X587508Y102670D01*
X587535Y102690D01*
X587550Y102707D01*
X587584Y102737D01*
X589100Y104253D01*
X592461Y105645D01*
X611339Y105645D01*
X614700Y104253D01*
X617273Y101680D01*
X618665Y98319D01*
X618665Y94681D01*
X617273Y91320D01*
X614700Y88747D01*
X611339Y87355D01*
X592461Y87355D01*
X589100Y88747D01*
X587584Y90263D01*
X587502Y90328D01*
X587427Y90400D01*
X587367Y90435D01*
X587313Y90478D01*
X587219Y90522D01*
X587129Y90575D01*
X587063Y90595D01*
X587000Y90625D01*
X586898Y90646D01*
X586798Y90677D01*
X586729Y90682D01*
X586662Y90696D01*
X586558Y90694D01*
X586453Y90701D01*
X586385Y90690D01*
X586316Y90688D01*
X586215Y90662D01*
X586112Y90645D01*
X586048Y90618D01*
X585982Y90601D01*
X585889Y90552D01*
X585793Y90512D01*
X585737Y90472D01*
X585676Y90439D01*
X585597Y90371D01*
X585513Y90310D01*
X585467Y90258D01*
X585415Y90212D01*
X585354Y90128D01*
X585286Y90049D01*
X585254Y89987D01*
X585213Y89931D01*
X585174Y89835D01*
X585125Y89743D01*
X585108Y89676D01*
X585082Y89612D01*
X585065Y89509D01*
X585039Y89408D01*
X585032Y89304D01*
X585026Y89271D01*
X585028Y89248D01*
X585025Y89203D01*
X585025Y78833D01*
X576464Y70272D01*
X576377Y70163D01*
X576286Y70057D01*
X576270Y70027D01*
X576249Y70001D01*
X576190Y69875D01*
X576125Y69751D01*
X576117Y69719D01*
X576102Y69688D01*
X576074Y69552D01*
X576039Y69417D01*
X576036Y69371D01*
X576031Y69350D01*
X576032Y69316D01*
X576025Y69212D01*
X576025Y61368D01*
X575132Y60475D01*
X563868Y60475D01*
G37*
%LPD*%
%LPC*%
G36*
X17839Y269425D02*
X17839Y269425D01*
X16946Y270318D01*
X16946Y309682D01*
X17839Y310575D01*
X39169Y310575D01*
X40062Y309682D01*
X40062Y270318D01*
X39169Y269425D01*
X17839Y269425D01*
G37*
%LPD*%
%LPC*%
G36*
X592461Y138155D02*
X592461Y138155D01*
X589100Y139547D01*
X586527Y142120D01*
X585135Y145481D01*
X585135Y149119D01*
X586527Y152480D01*
X589100Y155053D01*
X592461Y156445D01*
X611339Y156445D01*
X614700Y155053D01*
X617273Y152480D01*
X618665Y149119D01*
X618665Y145481D01*
X617273Y142120D01*
X614700Y139547D01*
X611339Y138155D01*
X592461Y138155D01*
G37*
%LPD*%
%LPC*%
G36*
X592461Y188955D02*
X592461Y188955D01*
X589100Y190347D01*
X586527Y192920D01*
X585135Y196281D01*
X585135Y199919D01*
X586527Y203280D01*
X589100Y205853D01*
X592461Y207245D01*
X611339Y207245D01*
X614700Y205853D01*
X617273Y203280D01*
X618665Y199919D01*
X618665Y196281D01*
X617273Y192920D01*
X614700Y190347D01*
X611339Y188955D01*
X592461Y188955D01*
G37*
%LPD*%
%LPC*%
G36*
X133868Y22475D02*
X133868Y22475D01*
X132975Y23368D01*
X132975Y34632D01*
X133868Y35525D01*
X163132Y35525D01*
X164025Y34632D01*
X164025Y23368D01*
X163132Y22475D01*
X133868Y22475D01*
G37*
%LPD*%
%LPC*%
G36*
X263868Y22475D02*
X263868Y22475D01*
X262975Y23368D01*
X262975Y34632D01*
X263868Y35525D01*
X293132Y35525D01*
X294025Y34632D01*
X294025Y23368D01*
X293132Y22475D01*
X263868Y22475D01*
G37*
%LPD*%
%LPC*%
G36*
X263868Y84475D02*
X263868Y84475D01*
X262975Y85368D01*
X262975Y96632D01*
X263868Y97525D01*
X293132Y97525D01*
X294025Y96632D01*
X294025Y85368D01*
X293132Y84475D01*
X263868Y84475D01*
G37*
%LPD*%
%LPC*%
G36*
X133868Y84475D02*
X133868Y84475D01*
X132975Y85368D01*
X132975Y96632D01*
X133868Y97525D01*
X163132Y97525D01*
X164025Y96632D01*
X164025Y85368D01*
X163132Y84475D01*
X133868Y84475D01*
G37*
%LPD*%
%LPC*%
G36*
X742499Y332499D02*
X742499Y332499D01*
X742499Y352301D01*
X742937Y352232D01*
X744814Y351622D01*
X746573Y350726D01*
X748170Y349566D01*
X749566Y348170D01*
X750726Y346573D01*
X751622Y344814D01*
X752232Y342937D01*
X752541Y340987D01*
X752541Y332499D01*
X742499Y332499D01*
G37*
%LPD*%
%LPC*%
G36*
X712499Y380499D02*
X712499Y380499D01*
X712499Y390541D01*
X720987Y390541D01*
X722937Y390232D01*
X724814Y389622D01*
X726573Y388726D01*
X728170Y387566D01*
X729566Y386170D01*
X730726Y384573D01*
X731622Y382814D01*
X732232Y380937D01*
X732301Y380499D01*
X712499Y380499D01*
G37*
%LPD*%
%LPC*%
G36*
X687699Y380499D02*
X687699Y380499D01*
X687768Y380937D01*
X688378Y382814D01*
X689274Y384573D01*
X690434Y386170D01*
X691830Y387566D01*
X693427Y388726D01*
X695186Y389622D01*
X697063Y390232D01*
X699013Y390541D01*
X707501Y390541D01*
X707501Y380499D01*
X687699Y380499D01*
G37*
%LPD*%
%LPC*%
G36*
X742499Y327501D02*
X742499Y327501D01*
X752541Y327501D01*
X752541Y319013D01*
X752232Y317063D01*
X751622Y315186D01*
X750726Y313427D01*
X749566Y311830D01*
X748170Y310434D01*
X746573Y309274D01*
X744814Y308378D01*
X742937Y307768D01*
X742499Y307699D01*
X742499Y327501D01*
G37*
%LPD*%
%LPC*%
G36*
X712499Y365459D02*
X712499Y365459D01*
X712499Y375501D01*
X732301Y375501D01*
X732232Y375063D01*
X731622Y373186D01*
X730726Y371427D01*
X729566Y369830D01*
X728170Y368434D01*
X726573Y367274D01*
X724814Y366378D01*
X722937Y365768D01*
X720987Y365459D01*
X712499Y365459D01*
G37*
%LPD*%
%LPC*%
G36*
X727459Y332499D02*
X727459Y332499D01*
X727459Y340987D01*
X727768Y342937D01*
X728378Y344814D01*
X729274Y346573D01*
X730434Y348170D01*
X731830Y349566D01*
X733427Y350726D01*
X735186Y351622D01*
X737063Y352232D01*
X737501Y352301D01*
X737501Y332499D01*
X727459Y332499D01*
G37*
%LPD*%
%LPC*%
G36*
X699013Y365459D02*
X699013Y365459D01*
X697063Y365768D01*
X695186Y366378D01*
X693427Y367274D01*
X691830Y368434D01*
X690434Y369830D01*
X689274Y371427D01*
X688378Y373186D01*
X687768Y375063D01*
X687699Y375501D01*
X707501Y375501D01*
X707501Y365459D01*
X699013Y365459D01*
G37*
%LPD*%
%LPC*%
G36*
X737063Y307768D02*
X737063Y307768D01*
X735186Y308378D01*
X733427Y309274D01*
X731830Y310434D01*
X730434Y311830D01*
X729274Y313427D01*
X728378Y315186D01*
X727768Y317063D01*
X727459Y319013D01*
X727459Y327501D01*
X737501Y327501D01*
X737501Y307699D01*
X737063Y307768D01*
G37*
%LPD*%
%LPC*%
G36*
X42539Y37139D02*
X42539Y37139D01*
X42539Y44761D01*
X48420Y44761D01*
X49999Y44511D01*
X51520Y44016D01*
X52945Y43290D01*
X54239Y42350D01*
X55370Y41219D01*
X56310Y39925D01*
X57036Y38500D01*
X57479Y37139D01*
X42539Y37139D01*
G37*
%LPD*%
%LPC*%
G36*
X42539Y157139D02*
X42539Y157139D01*
X42539Y164761D01*
X48420Y164761D01*
X49999Y164511D01*
X51520Y164016D01*
X52945Y163290D01*
X54239Y162350D01*
X55370Y161219D01*
X56310Y159925D01*
X57036Y158500D01*
X57479Y157139D01*
X42539Y157139D01*
G37*
%LPD*%
%LPC*%
G36*
X22521Y37139D02*
X22521Y37139D01*
X22964Y38500D01*
X23690Y39925D01*
X24630Y41219D01*
X25761Y42350D01*
X27055Y43290D01*
X28480Y44016D01*
X30001Y44511D01*
X31580Y44761D01*
X37461Y44761D01*
X37461Y37139D01*
X22521Y37139D01*
G37*
%LPD*%
%LPC*%
G36*
X22521Y157139D02*
X22521Y157139D01*
X22964Y158500D01*
X23690Y159925D01*
X24630Y161219D01*
X25761Y162350D01*
X27055Y163290D01*
X28480Y164016D01*
X30001Y164511D01*
X31580Y164761D01*
X37461Y164761D01*
X37461Y157139D01*
X22521Y157139D01*
G37*
%LPD*%
%LPC*%
G36*
X42539Y24439D02*
X42539Y24439D01*
X42539Y32061D01*
X57479Y32061D01*
X57036Y30700D01*
X56310Y29275D01*
X55370Y27981D01*
X54239Y26850D01*
X52945Y25910D01*
X51520Y25184D01*
X49999Y24689D01*
X48420Y24439D01*
X42539Y24439D01*
G37*
%LPD*%
%LPC*%
G36*
X42539Y144439D02*
X42539Y144439D01*
X42539Y152061D01*
X57479Y152061D01*
X57036Y150700D01*
X56310Y149275D01*
X55370Y147981D01*
X54239Y146850D01*
X52945Y145910D01*
X51520Y145184D01*
X49999Y144689D01*
X48420Y144439D01*
X42539Y144439D01*
G37*
%LPD*%
%LPC*%
G36*
X604439Y213339D02*
X604439Y213339D01*
X604439Y220961D01*
X619379Y220961D01*
X618936Y219600D01*
X618210Y218175D01*
X617270Y216881D01*
X616139Y215750D01*
X614845Y214810D01*
X613420Y214084D01*
X611899Y213589D01*
X610320Y213339D01*
X604439Y213339D01*
G37*
%LPD*%
%LPC*%
G36*
X593480Y213339D02*
X593480Y213339D01*
X591901Y213589D01*
X590380Y214084D01*
X588955Y214810D01*
X587661Y215750D01*
X586530Y216881D01*
X585590Y218175D01*
X584864Y219600D01*
X584421Y220961D01*
X599361Y220961D01*
X599361Y213339D01*
X593480Y213339D01*
G37*
%LPD*%
%LPC*%
G36*
X31580Y144439D02*
X31580Y144439D01*
X30001Y144689D01*
X28480Y145184D01*
X27055Y145910D01*
X25761Y146850D01*
X24630Y147981D01*
X23690Y149275D01*
X22964Y150700D01*
X22521Y152061D01*
X37461Y152061D01*
X37461Y144439D01*
X31580Y144439D01*
G37*
%LPD*%
%LPC*%
G36*
X31580Y24439D02*
X31580Y24439D01*
X30001Y24689D01*
X28480Y25184D01*
X27055Y25910D01*
X25761Y26850D01*
X24630Y27981D01*
X23690Y29275D01*
X22964Y30700D01*
X22521Y32061D01*
X37461Y32061D01*
X37461Y24439D01*
X31580Y24439D01*
G37*
%LPD*%
%LPC*%
G36*
X302499Y157099D02*
X302499Y157099D01*
X302499Y164641D01*
X308290Y164641D01*
X309851Y164394D01*
X311354Y163905D01*
X312762Y163188D01*
X314041Y162259D01*
X315159Y161141D01*
X316088Y159862D01*
X316805Y158454D01*
X317245Y157099D01*
X302499Y157099D01*
G37*
%LPD*%
%LPC*%
G36*
X222499Y157099D02*
X222499Y157099D01*
X222499Y164641D01*
X228290Y164641D01*
X229851Y164394D01*
X231354Y163905D01*
X232762Y163188D01*
X234041Y162259D01*
X235159Y161141D01*
X236088Y159862D01*
X236805Y158454D01*
X237245Y157099D01*
X222499Y157099D01*
G37*
%LPD*%
%LPC*%
G36*
X202755Y157099D02*
X202755Y157099D01*
X203195Y158454D01*
X203912Y159862D01*
X204841Y161141D01*
X205959Y162259D01*
X207238Y163188D01*
X208646Y163905D01*
X210149Y164394D01*
X211710Y164641D01*
X217501Y164641D01*
X217501Y157099D01*
X202755Y157099D01*
G37*
%LPD*%
%LPC*%
G36*
X282755Y157099D02*
X282755Y157099D01*
X283195Y158454D01*
X283912Y159862D01*
X284841Y161141D01*
X285959Y162259D01*
X287238Y163188D01*
X288646Y163905D01*
X290149Y164394D01*
X291710Y164641D01*
X297501Y164641D01*
X297501Y157099D01*
X282755Y157099D01*
G37*
%LPD*%
%LPC*%
G36*
X302499Y144559D02*
X302499Y144559D01*
X302499Y152101D01*
X317245Y152101D01*
X316805Y150746D01*
X316088Y149338D01*
X315159Y148059D01*
X314041Y146941D01*
X312762Y146012D01*
X311354Y145295D01*
X309851Y144806D01*
X308290Y144559D01*
X302499Y144559D01*
G37*
%LPD*%
%LPC*%
G36*
X222499Y144559D02*
X222499Y144559D01*
X222499Y152101D01*
X237245Y152101D01*
X236805Y150746D01*
X236088Y149338D01*
X235159Y148059D01*
X234041Y146941D01*
X232762Y146012D01*
X231354Y145295D01*
X229851Y144806D01*
X228290Y144559D01*
X222499Y144559D01*
G37*
%LPD*%
%LPC*%
G36*
X211710Y144559D02*
X211710Y144559D01*
X210149Y144806D01*
X208646Y145295D01*
X207238Y146012D01*
X205959Y146941D01*
X204841Y148059D01*
X203912Y149338D01*
X203195Y150746D01*
X202755Y152101D01*
X217501Y152101D01*
X217501Y144559D01*
X211710Y144559D01*
G37*
%LPD*%
%LPC*%
G36*
X291710Y144559D02*
X291710Y144559D01*
X290149Y144806D01*
X288646Y145295D01*
X287238Y146012D01*
X285959Y146941D01*
X284841Y148059D01*
X283912Y149338D01*
X283195Y150746D01*
X282755Y152101D01*
X297501Y152101D01*
X297501Y144559D01*
X291710Y144559D01*
G37*
%LPD*%
%LPC*%
G36*
X399499Y362499D02*
X399499Y362499D01*
X399499Y373235D01*
X400152Y373131D01*
X402168Y372476D01*
X404056Y371514D01*
X405770Y370269D01*
X407269Y368770D01*
X408514Y367056D01*
X409476Y365168D01*
X410131Y363152D01*
X410235Y362499D01*
X399499Y362499D01*
G37*
%LPD*%
%LPC*%
G36*
X479499Y362499D02*
X479499Y362499D01*
X479499Y373235D01*
X480152Y373131D01*
X482168Y372476D01*
X484056Y371514D01*
X485770Y370269D01*
X487269Y368770D01*
X488514Y367056D01*
X489476Y365168D01*
X490131Y363152D01*
X490235Y362499D01*
X479499Y362499D01*
G37*
%LPD*%
%LPC*%
G36*
X639499Y362499D02*
X639499Y362499D01*
X639499Y373235D01*
X640152Y373131D01*
X642168Y372476D01*
X644056Y371514D01*
X645770Y370269D01*
X647269Y368770D01*
X648514Y367056D01*
X649476Y365168D01*
X650131Y363152D01*
X650235Y362499D01*
X639499Y362499D01*
G37*
%LPD*%
%LPC*%
G36*
X559499Y362499D02*
X559499Y362499D01*
X559499Y373235D01*
X560152Y373131D01*
X562168Y372476D01*
X564056Y371514D01*
X565770Y370269D01*
X567269Y368770D01*
X568514Y367056D01*
X569476Y365168D01*
X570131Y363152D01*
X570235Y362499D01*
X559499Y362499D01*
G37*
%LPD*%
%LPC*%
G36*
X463765Y362499D02*
X463765Y362499D01*
X463869Y363152D01*
X464524Y365168D01*
X465486Y367056D01*
X466731Y368770D01*
X468230Y370269D01*
X469944Y371514D01*
X471832Y372476D01*
X473848Y373131D01*
X474501Y373235D01*
X474501Y362499D01*
X463765Y362499D01*
G37*
%LPD*%
%LPC*%
G36*
X623765Y362499D02*
X623765Y362499D01*
X623869Y363152D01*
X624524Y365168D01*
X625486Y367056D01*
X626731Y368770D01*
X628230Y370269D01*
X629944Y371514D01*
X631832Y372476D01*
X633848Y373131D01*
X634501Y373235D01*
X634501Y362499D01*
X623765Y362499D01*
G37*
%LPD*%
%LPC*%
G36*
X543765Y362499D02*
X543765Y362499D01*
X543869Y363152D01*
X544524Y365168D01*
X545486Y367056D01*
X546731Y368770D01*
X548230Y370269D01*
X549944Y371514D01*
X551832Y372476D01*
X553848Y373131D01*
X554501Y373235D01*
X554501Y362499D01*
X543765Y362499D01*
G37*
%LPD*%
%LPC*%
G36*
X559499Y357501D02*
X559499Y357501D01*
X570235Y357501D01*
X570131Y356848D01*
X569476Y354832D01*
X568514Y352944D01*
X567269Y351230D01*
X565770Y349731D01*
X564056Y348486D01*
X562168Y347524D01*
X560152Y346869D01*
X559499Y346765D01*
X559499Y357501D01*
G37*
%LPD*%
%LPC*%
G36*
X479499Y357501D02*
X479499Y357501D01*
X490235Y357501D01*
X490131Y356848D01*
X489476Y354832D01*
X488514Y352944D01*
X487269Y351230D01*
X485770Y349731D01*
X484056Y348486D01*
X482168Y347524D01*
X480152Y346869D01*
X479499Y346765D01*
X479499Y357501D01*
G37*
%LPD*%
%LPC*%
G36*
X639499Y357501D02*
X639499Y357501D01*
X650235Y357501D01*
X650131Y356848D01*
X649476Y354832D01*
X648514Y352944D01*
X647269Y351230D01*
X645770Y349731D01*
X644056Y348486D01*
X642168Y347524D01*
X640152Y346869D01*
X639499Y346765D01*
X639499Y357501D01*
G37*
%LPD*%
%LPC*%
G36*
X399499Y357501D02*
X399499Y357501D01*
X410235Y357501D01*
X410131Y356848D01*
X409476Y354832D01*
X408514Y352944D01*
X407269Y351230D01*
X405770Y349731D01*
X404056Y348486D01*
X402168Y347524D01*
X400152Y346869D01*
X399499Y346765D01*
X399499Y357501D01*
G37*
%LPD*%
%LPC*%
G36*
X383765Y362499D02*
X383765Y362499D01*
X383869Y363152D01*
X384524Y365168D01*
X385486Y367056D01*
X386731Y368770D01*
X388230Y370269D01*
X389944Y371514D01*
X391832Y372476D01*
X393848Y373131D01*
X394501Y373235D01*
X394501Y362499D01*
X383765Y362499D01*
G37*
%LPD*%
%LPC*%
G36*
X633848Y346869D02*
X633848Y346869D01*
X631832Y347524D01*
X629944Y348486D01*
X628230Y349731D01*
X626731Y351230D01*
X625486Y352944D01*
X624524Y354832D01*
X623869Y356848D01*
X623765Y357501D01*
X634501Y357501D01*
X634501Y346765D01*
X633848Y346869D01*
G37*
%LPD*%
%LPC*%
G36*
X473848Y346869D02*
X473848Y346869D01*
X471832Y347524D01*
X469944Y348486D01*
X468230Y349731D01*
X466731Y351230D01*
X465486Y352944D01*
X464524Y354832D01*
X463869Y356848D01*
X463765Y357501D01*
X474501Y357501D01*
X474501Y346765D01*
X473848Y346869D01*
G37*
%LPD*%
%LPC*%
G36*
X553848Y346869D02*
X553848Y346869D01*
X551832Y347524D01*
X549944Y348486D01*
X548230Y349731D01*
X546731Y351230D01*
X545486Y352944D01*
X544524Y354832D01*
X543869Y356848D01*
X543765Y357501D01*
X554501Y357501D01*
X554501Y346765D01*
X553848Y346869D01*
G37*
%LPD*%
%LPC*%
G36*
X393848Y346869D02*
X393848Y346869D01*
X391832Y347524D01*
X389944Y348486D01*
X388230Y349731D01*
X386731Y351230D01*
X385486Y352944D01*
X384524Y354832D01*
X383869Y356848D01*
X383765Y357501D01*
X394501Y357501D01*
X394501Y346765D01*
X393848Y346869D01*
G37*
%LPD*%
%LPC*%
G36*
X94495Y270393D02*
X94495Y270393D01*
X94495Y277428D01*
X101864Y277428D01*
X102510Y277255D01*
X103089Y276920D01*
X103562Y276447D01*
X103897Y275868D01*
X104070Y275222D01*
X104070Y270393D01*
X94495Y270393D01*
G37*
%LPD*%
%LPC*%
G36*
X78922Y270393D02*
X78922Y270393D01*
X78922Y275222D01*
X79095Y275868D01*
X79430Y276447D01*
X79903Y276920D01*
X80482Y277255D01*
X81128Y277428D01*
X88497Y277428D01*
X88497Y270393D01*
X78922Y270393D01*
G37*
%LPD*%
%LPC*%
G36*
X94495Y257360D02*
X94495Y257360D01*
X94495Y264395D01*
X104070Y264395D01*
X104070Y259566D01*
X103897Y258920D01*
X103562Y258341D01*
X103089Y257868D01*
X102510Y257533D01*
X101864Y257360D01*
X94495Y257360D01*
G37*
%LPD*%
%LPC*%
G36*
X81128Y257360D02*
X81128Y257360D01*
X80482Y257533D01*
X79903Y257868D01*
X79430Y258341D01*
X79095Y258920D01*
X78922Y259566D01*
X78922Y264395D01*
X88497Y264395D01*
X88497Y257360D01*
X81128Y257360D01*
G37*
%LPD*%
%LPC*%
G36*
X448779Y278444D02*
X448779Y278444D01*
X448779Y287001D01*
X456321Y287001D01*
X456321Y280650D01*
X456148Y280004D01*
X455813Y279425D01*
X455340Y278952D01*
X454761Y278617D01*
X454115Y278444D01*
X448779Y278444D01*
G37*
%LPD*%
%LPC*%
G36*
X528779Y278444D02*
X528779Y278444D01*
X528779Y287001D01*
X536321Y287001D01*
X536321Y280650D01*
X536148Y280004D01*
X535813Y279425D01*
X535340Y278952D01*
X534761Y278617D01*
X534115Y278444D01*
X528779Y278444D01*
G37*
%LPD*%
%LPC*%
G36*
X368779Y278444D02*
X368779Y278444D01*
X368779Y287001D01*
X376321Y287001D01*
X376321Y280650D01*
X376148Y280004D01*
X375813Y279425D01*
X375340Y278952D01*
X374761Y278617D01*
X374115Y278444D01*
X368779Y278444D01*
G37*
%LPD*%
%LPC*%
G36*
X437445Y278444D02*
X437445Y278444D01*
X436799Y278617D01*
X436220Y278952D01*
X435747Y279425D01*
X435412Y280004D01*
X435239Y280650D01*
X435239Y287001D01*
X442781Y287001D01*
X442781Y278444D01*
X437445Y278444D01*
G37*
%LPD*%
%LPC*%
G36*
X357445Y278444D02*
X357445Y278444D01*
X356799Y278617D01*
X356220Y278952D01*
X355747Y279425D01*
X355412Y280004D01*
X355239Y280650D01*
X355239Y287001D01*
X362781Y287001D01*
X362781Y278444D01*
X357445Y278444D01*
G37*
%LPD*%
%LPC*%
G36*
X517445Y278444D02*
X517445Y278444D01*
X516799Y278617D01*
X516220Y278952D01*
X515747Y279425D01*
X515412Y280004D01*
X515239Y280650D01*
X515239Y287001D01*
X522781Y287001D01*
X522781Y278444D01*
X517445Y278444D01*
G37*
%LPD*%
%LPC*%
G36*
X253987Y269885D02*
X253987Y269885D01*
X253987Y275523D01*
X262499Y275523D01*
X263145Y275350D01*
X263724Y275015D01*
X264197Y274542D01*
X264532Y273963D01*
X264705Y273317D01*
X264705Y269885D01*
X253987Y269885D01*
G37*
%LPD*%
%LPC*%
G36*
X237271Y269885D02*
X237271Y269885D01*
X237271Y273317D01*
X237444Y273963D01*
X237779Y274542D01*
X238252Y275015D01*
X238831Y275350D01*
X239477Y275523D01*
X247989Y275523D01*
X247989Y269885D01*
X237271Y269885D01*
G37*
%LPD*%
%LPC*%
G36*
X253987Y258249D02*
X253987Y258249D01*
X253987Y263887D01*
X264705Y263887D01*
X264705Y260455D01*
X264532Y259809D01*
X264197Y259230D01*
X263724Y258757D01*
X263145Y258422D01*
X262499Y258249D01*
X253987Y258249D01*
G37*
%LPD*%
%LPC*%
G36*
X239477Y258249D02*
X239477Y258249D01*
X238831Y258422D01*
X238252Y258757D01*
X237779Y259230D01*
X237444Y259809D01*
X237271Y260455D01*
X237271Y263887D01*
X247989Y263887D01*
X247989Y258249D01*
X239477Y258249D01*
G37*
%LPD*%
%LPC*%
G36*
X302499Y312999D02*
X302499Y312999D01*
X302499Y320041D01*
X306335Y320041D01*
X306981Y319868D01*
X307560Y319533D01*
X308033Y319060D01*
X308368Y318481D01*
X308541Y317835D01*
X308541Y312999D01*
X302499Y312999D01*
G37*
%LPD*%
%LPC*%
G36*
X142499Y287999D02*
X142499Y287999D01*
X142499Y295041D01*
X146335Y295041D01*
X146981Y294868D01*
X147560Y294533D01*
X148033Y294060D01*
X148368Y293481D01*
X148541Y292835D01*
X148541Y287999D01*
X142499Y287999D01*
G37*
%LPD*%
%LPC*%
G36*
X302499Y287999D02*
X302499Y287999D01*
X302499Y295041D01*
X306335Y295041D01*
X306981Y294868D01*
X307560Y294533D01*
X308033Y294060D01*
X308368Y293481D01*
X308541Y292835D01*
X308541Y287999D01*
X302499Y287999D01*
G37*
%LPD*%
%LPC*%
G36*
X142499Y312999D02*
X142499Y312999D01*
X142499Y320041D01*
X146335Y320041D01*
X146981Y319868D01*
X147560Y319533D01*
X148033Y319060D01*
X148368Y318481D01*
X148541Y317835D01*
X148541Y312999D01*
X142499Y312999D01*
G37*
%LPD*%
%LPC*%
G36*
X142499Y299959D02*
X142499Y299959D01*
X142499Y307001D01*
X148541Y307001D01*
X148541Y302165D01*
X148368Y301519D01*
X148033Y300940D01*
X147560Y300467D01*
X146981Y300132D01*
X146335Y299959D01*
X142499Y299959D01*
G37*
%LPD*%
%LPC*%
G36*
X302499Y299959D02*
X302499Y299959D01*
X302499Y307001D01*
X308541Y307001D01*
X308541Y302165D01*
X308368Y301519D01*
X308033Y300940D01*
X307560Y300467D01*
X306981Y300132D01*
X306335Y299959D01*
X302499Y299959D01*
G37*
%LPD*%
%LPC*%
G36*
X142499Y274959D02*
X142499Y274959D01*
X142499Y282001D01*
X148541Y282001D01*
X148541Y277165D01*
X148368Y276519D01*
X148033Y275940D01*
X147560Y275467D01*
X146981Y275132D01*
X146335Y274959D01*
X142499Y274959D01*
G37*
%LPD*%
%LPC*%
G36*
X246499Y41959D02*
X246499Y41959D01*
X246499Y46001D01*
X256041Y46001D01*
X256041Y44165D01*
X255868Y43519D01*
X255533Y42940D01*
X255060Y42467D01*
X254481Y42132D01*
X253835Y41959D01*
X246499Y41959D01*
G37*
%LPD*%
%LPC*%
G36*
X116499Y41959D02*
X116499Y41959D01*
X116499Y46001D01*
X126041Y46001D01*
X126041Y44165D01*
X125868Y43519D01*
X125533Y42940D01*
X125060Y42467D01*
X124481Y42132D01*
X123835Y41959D01*
X116499Y41959D01*
G37*
%LPD*%
%LPC*%
G36*
X236165Y41959D02*
X236165Y41959D01*
X235519Y42132D01*
X234940Y42467D01*
X234467Y42940D01*
X234132Y43519D01*
X233959Y44165D01*
X233959Y46001D01*
X243501Y46001D01*
X243501Y41959D01*
X236165Y41959D01*
G37*
%LPD*%
%LPC*%
G36*
X106165Y41959D02*
X106165Y41959D01*
X105519Y42132D01*
X104940Y42467D01*
X104467Y42940D01*
X104132Y43519D01*
X103959Y44165D01*
X103959Y46001D01*
X113501Y46001D01*
X113501Y41959D01*
X106165Y41959D01*
G37*
%LPD*%
%LPC*%
G36*
X91999Y161999D02*
X91999Y161999D01*
X91999Y168310D01*
X92491Y168213D01*
X94046Y167569D01*
X95444Y166634D01*
X96634Y165444D01*
X97569Y164046D01*
X98213Y162491D01*
X98310Y161999D01*
X91999Y161999D01*
G37*
%LPD*%
%LPC*%
G36*
X151999Y161999D02*
X151999Y161999D01*
X151999Y168310D01*
X152491Y168213D01*
X154046Y167569D01*
X155444Y166634D01*
X156634Y165444D01*
X157569Y164046D01*
X158213Y162491D01*
X158310Y161999D01*
X151999Y161999D01*
G37*
%LPD*%
%LPC*%
G36*
X151999Y158001D02*
X151999Y158001D01*
X158310Y158001D01*
X158213Y157509D01*
X157569Y155954D01*
X156634Y154556D01*
X155444Y153366D01*
X154046Y152431D01*
X152491Y151787D01*
X151999Y151690D01*
X151999Y158001D01*
G37*
%LPD*%
%LPC*%
G36*
X141690Y161999D02*
X141690Y161999D01*
X141787Y162491D01*
X142431Y164046D01*
X143366Y165444D01*
X144556Y166634D01*
X145954Y167569D01*
X147509Y168213D01*
X148001Y168310D01*
X148001Y161999D01*
X141690Y161999D01*
G37*
%LPD*%
%LPC*%
G36*
X81690Y161999D02*
X81690Y161999D01*
X81787Y162491D01*
X82431Y164046D01*
X83366Y165444D01*
X84556Y166634D01*
X85954Y167569D01*
X87509Y168213D01*
X88001Y168310D01*
X88001Y161999D01*
X81690Y161999D01*
G37*
%LPD*%
%LPC*%
G36*
X91999Y158001D02*
X91999Y158001D01*
X98310Y158001D01*
X98213Y157509D01*
X97569Y155954D01*
X96634Y154556D01*
X95444Y153366D01*
X94046Y152431D01*
X92491Y151787D01*
X91999Y151690D01*
X91999Y158001D01*
G37*
%LPD*%
%LPC*%
G36*
X87509Y151787D02*
X87509Y151787D01*
X85954Y152431D01*
X84556Y153366D01*
X83366Y154556D01*
X82431Y155954D01*
X81787Y157509D01*
X81690Y158001D01*
X88001Y158001D01*
X88001Y151690D01*
X87509Y151787D01*
G37*
%LPD*%
%LPC*%
G36*
X147509Y151787D02*
X147509Y151787D01*
X145954Y152431D01*
X144556Y153366D01*
X143366Y154556D01*
X142431Y155954D01*
X141787Y157509D01*
X141690Y158001D01*
X148001Y158001D01*
X148001Y151690D01*
X147509Y151787D01*
G37*
%LPD*%
%LPC*%
G36*
X91495Y267393D02*
X91495Y267393D01*
X91495Y267395D01*
X91497Y267395D01*
X91497Y267393D01*
X91495Y267393D01*
G37*
%LPD*%
%LPC*%
G36*
X250987Y266885D02*
X250987Y266885D01*
X250987Y266887D01*
X250989Y266887D01*
X250989Y266885D01*
X250987Y266885D01*
G37*
%LPD*%
D10*
X460000Y139000D03*
X450500Y161000D03*
X469500Y161000D03*
D11*
X400000Y159500D03*
X400000Y140500D03*
D12*
X679000Y320000D02*
X679000Y340000D01*
X740000Y340000D02*
X740000Y320000D01*
X720000Y378000D02*
X700000Y378000D01*
D13*
X609520Y223500D02*
X594280Y223500D01*
X594280Y198100D02*
X609520Y198100D01*
X609520Y172700D02*
X594280Y172700D01*
X594280Y147300D02*
X609520Y147300D01*
X609520Y121900D02*
X594280Y121900D01*
X594280Y96500D02*
X609520Y96500D01*
D14*
X250988Y266886D03*
X250988Y290000D03*
X250988Y313114D03*
D15*
X189010Y290000D03*
D16*
X280500Y285000D03*
X299500Y285000D03*
X280500Y310000D03*
X299500Y310000D03*
D10*
X560000Y91000D03*
X569500Y69000D03*
X550500Y69000D03*
D16*
X529500Y80000D03*
X510500Y80000D03*
D17*
X598000Y300000D03*
X642000Y300000D03*
D18*
X227500Y180000D02*
X212500Y180000D01*
X212500Y154600D02*
X227500Y154600D01*
X227500Y205400D02*
X212500Y205400D01*
D19*
X90000Y180000D03*
X90000Y160000D03*
X90000Y200000D03*
D20*
X245000Y47500D03*
X245000Y60000D03*
D21*
X278500Y91000D03*
X278500Y29000D03*
D20*
X245000Y72500D03*
D22*
X554220Y290000D03*
X525780Y290000D03*
D17*
X598000Y260000D03*
X642000Y260000D03*
D20*
X115000Y47500D03*
X115000Y60000D03*
D21*
X148500Y91000D03*
X148500Y29000D03*
D20*
X115000Y72500D03*
D17*
X508000Y120000D03*
X552000Y120000D03*
D11*
X430000Y159500D03*
X430000Y140500D03*
D13*
X47620Y34600D02*
X32380Y34600D01*
X32380Y60000D02*
X47620Y60000D01*
X47620Y85400D02*
X32380Y85400D01*
X32380Y154600D02*
X47620Y154600D01*
X47620Y180000D02*
X32380Y180000D01*
X32380Y205400D02*
X47620Y205400D01*
D18*
X292500Y180000D02*
X307500Y180000D01*
X307500Y154600D02*
X292500Y154600D01*
X292500Y205400D02*
X307500Y205400D01*
D19*
X150000Y180000D03*
X150000Y160000D03*
X150000Y200000D03*
D23*
X91496Y267394D03*
X91496Y290254D03*
X91496Y313114D03*
D24*
X28504Y290000D03*
D16*
X120500Y310000D03*
X139500Y310000D03*
X120500Y285000D03*
X139500Y285000D03*
D25*
X514760Y160000D03*
X530000Y160000D03*
X545240Y160000D03*
D26*
X370000Y14760D03*
X370000Y30000D03*
X370000Y45240D03*
X370000Y74760D03*
X370000Y90000D03*
X370000Y105240D03*
X370000Y194760D03*
X370000Y210000D03*
X370000Y225240D03*
D16*
X549500Y310000D03*
X530500Y310000D03*
D22*
X474220Y290000D03*
X445780Y290000D03*
D16*
X469500Y310000D03*
X450500Y310000D03*
D22*
X394220Y290000D03*
X365780Y290000D03*
D16*
X389500Y310000D03*
X370500Y310000D03*
D27*
X522000Y360000D03*
X557000Y360000D03*
X442000Y360000D03*
X477000Y360000D03*
X362000Y360000D03*
X397000Y360000D03*
X602000Y360000D03*
X637000Y360000D03*
D28*
X30000Y370000D03*
X770000Y30000D03*
D29*
X275500Y290000D02*
X250988Y290000D01*
X275500Y290000D02*
X280500Y285000D01*
X370500Y310000D02*
X370500Y326000D01*
X370500Y351500D01*
X362000Y360000D01*
X250988Y290000D02*
X189010Y290000D01*
X469500Y163500D02*
X469500Y161000D01*
X459000Y174000D02*
X430000Y174000D01*
X425000Y179000D01*
X425000Y316000D01*
X430000Y174000D02*
X430000Y159500D01*
X459000Y174000D02*
X469500Y163500D01*
X280500Y277500D02*
X280500Y285000D01*
X280500Y277500D02*
X289000Y269000D01*
X359000Y310000D02*
X370500Y310000D01*
X318000Y269000D02*
X289000Y269000D01*
X318000Y269000D02*
X359000Y310000D01*
X370500Y326000D02*
X415000Y326000D01*
X425000Y316000D01*
X469500Y161000D02*
X484000Y146500D01*
X484000Y145000D01*
D30*
X484000Y145000D03*
X469000Y108000D03*
D29*
X469000Y101000D01*
X382760Y14760D02*
X370000Y14760D01*
X382760Y14760D02*
X469000Y101000D01*
X90000Y180000D02*
X40000Y180000D01*
X90000Y180000D02*
X150000Y180000D01*
X220000Y180000D01*
X300000Y180000D01*
X117386Y313114D02*
X91496Y313114D01*
X117386Y313114D02*
X120500Y310000D01*
X250988Y313114D02*
X277386Y313114D01*
X280500Y310000D01*
X522000Y360000D02*
X530500Y351500D01*
X530500Y326000D01*
X530500Y310000D01*
X572000Y326000D02*
X598000Y300000D01*
X572000Y326000D02*
X530500Y326000D01*
X120500Y319500D02*
X120500Y310000D01*
X236102Y328000D02*
X250988Y313114D01*
X129000Y328000D02*
X120500Y319500D01*
X129000Y328000D02*
X236102Y328000D01*
X598000Y300000D02*
X598000Y260000D01*
D30*
X236102Y328000D03*
D29*
X602000Y360000D02*
X642000Y320000D01*
X642000Y300000D01*
X649000Y300000D02*
X679000Y330000D01*
X649000Y300000D02*
X642000Y300000D01*
X450500Y310000D02*
X450500Y326000D01*
X450500Y351500D01*
X442000Y360000D01*
X622000Y240000D02*
X642000Y260000D01*
X536000Y240000D02*
X530000Y234000D01*
X530000Y160000D01*
X536000Y240000D02*
X622000Y240000D01*
X484000Y326000D02*
X450500Y326000D01*
X484000Y326000D02*
X498000Y312000D01*
X498000Y266000D01*
X530000Y234000D01*
X400000Y159500D02*
X391500Y159500D01*
X376000Y144000D02*
X376000Y129000D01*
D30*
X376000Y129000D03*
D29*
X376000Y144000D02*
X391500Y159500D01*
X530000Y160000D02*
X530000Y149000D01*
X526000Y145000D01*
D30*
X493000Y145000D03*
D29*
X526000Y145000D01*
X422000Y97240D02*
X370000Y45240D01*
X422000Y97240D02*
X422000Y100000D01*
D30*
X422000Y100000D03*
D29*
X510500Y96000D02*
X510500Y80000D01*
X510500Y96000D02*
X510500Y117500D01*
X508000Y120000D01*
X510500Y96000D02*
X524000Y96000D01*
D30*
X524000Y96000D03*
D29*
X586900Y121900D02*
X601900Y121900D01*
X581000Y80500D02*
X569500Y69000D01*
X581000Y116000D02*
X586900Y121900D01*
X581000Y116000D02*
X581000Y80500D01*
X560000Y91000D02*
X560000Y112000D01*
X552000Y120000D01*
X535000Y137000D01*
X380760Y74760D02*
X370000Y74760D01*
X430000Y124000D02*
X430000Y140500D01*
X424000Y118000D02*
X380760Y74760D01*
X424000Y118000D02*
X430000Y124000D01*
X430000Y140500D02*
X437500Y140500D01*
X450500Y153500D02*
X450500Y161000D01*
X450500Y153500D02*
X437500Y140500D01*
X424000Y118000D02*
X461000Y118000D01*
X480000Y137000D02*
X535000Y137000D01*
X480000Y137000D02*
X461000Y118000D01*
X430000Y140500D02*
X423500Y140500D01*
X390240Y194760D02*
X370000Y194760D01*
X415000Y149000D02*
X423500Y140500D01*
X415000Y149000D02*
X415000Y170000D01*
X390240Y194760D01*
X539500Y80000D02*
X550500Y69000D01*
X539500Y80000D02*
X529500Y80000D01*
X370000Y105240D02*
X370000Y110500D01*
X385750Y126250D01*
X400000Y140500D01*
X447000Y126000D02*
X460000Y139000D01*
X447000Y126000D02*
X445000Y126000D01*
D30*
X445000Y126000D03*
X385750Y126250D03*
X385000Y225000D03*
D29*
X384760Y225240D01*
X370000Y225240D01*
X115000Y60000D02*
X40000Y60000D01*
X115000Y60000D02*
X245000Y60000D01*
X321000Y60000D01*
X351000Y30000D02*
X370000Y30000D01*
X351000Y30000D02*
X321000Y60000D01*
X52900Y72500D02*
X40000Y85400D01*
X52900Y72500D02*
X115000Y72500D01*
X245000Y72500D01*
X321500Y72500D01*
X339000Y90000D02*
X370000Y90000D01*
X339000Y90000D02*
X321500Y72500D01*
X45400Y200000D02*
X40000Y205400D01*
X45400Y200000D02*
X90000Y200000D01*
X150000Y200000D01*
X214600Y200000D01*
X220000Y205400D01*
X300000Y205400D01*
X304600Y210000D01*
X370000Y210000D01*
X557940Y172700D02*
X601900Y172700D01*
X557940Y172700D02*
X545240Y160000D01*
X115246Y290254D02*
X91496Y290254D01*
X115246Y290254D02*
X120500Y285000D01*
X120500Y273500D01*
D30*
X300000Y247000D03*
X502000Y247000D03*
D29*
X514760Y234240D01*
X514760Y160000D01*
X147000Y247000D02*
X120500Y273500D01*
X147000Y247000D02*
X300000Y247000D01*
X549500Y294720D02*
X549500Y310000D01*
X549500Y294720D02*
X554220Y290000D01*
X469500Y294720D02*
X469500Y310000D01*
X469500Y294720D02*
X474220Y290000D01*
X389500Y294720D02*
X389500Y310000D01*
X389500Y294720D02*
X394220Y290000D01*
M02*
