G04 EAGLE Gerber RS-274X export*
G75*
%MOMM*%
%FSLAX34Y34*%
%LPD*%
%INBottom Copper*%
%IPPOS*%
%AMOC8*
5,1,8,0,0,1.08239X$1,22.5*%
G01*
%ADD10C,2.000000*%
%ADD11C,1.524000*%
%ADD12C,1.500000*%
%ADD13C,1.200000*%
%ADD14C,2.184400*%
%ADD15R,4.900000X4.900000*%
%ADD16C,0.654800*%
%ADD17C,0.500000*%

G36*
X793455Y5085D02*
X793455Y5085D01*
X793491Y5082D01*
X793627Y5105D01*
X793763Y5121D01*
X793797Y5133D01*
X793832Y5138D01*
X793959Y5191D01*
X794089Y5238D01*
X794118Y5257D01*
X794151Y5271D01*
X794263Y5352D01*
X794378Y5427D01*
X794403Y5453D01*
X794431Y5473D01*
X794522Y5577D01*
X794617Y5677D01*
X794635Y5708D01*
X794658Y5734D01*
X794722Y5857D01*
X794792Y5975D01*
X794802Y6009D01*
X794819Y6041D01*
X794853Y6174D01*
X794894Y6306D01*
X794896Y6341D01*
X794905Y6375D01*
X794919Y6580D01*
X794919Y393420D01*
X794917Y393443D01*
X794918Y393457D01*
X794916Y393467D01*
X794918Y393491D01*
X794895Y393627D01*
X794879Y393763D01*
X794867Y393797D01*
X794862Y393832D01*
X794809Y393959D01*
X794762Y394089D01*
X794743Y394118D01*
X794729Y394151D01*
X794648Y394263D01*
X794573Y394378D01*
X794547Y394403D01*
X794527Y394431D01*
X794423Y394522D01*
X794323Y394617D01*
X794292Y394635D01*
X794266Y394658D01*
X794143Y394722D01*
X794025Y394792D01*
X793991Y394802D01*
X793959Y394819D01*
X793826Y394853D01*
X793694Y394894D01*
X793659Y394896D01*
X793625Y394905D01*
X793420Y394919D01*
X6580Y394919D01*
X6545Y394915D01*
X6509Y394918D01*
X6373Y394895D01*
X6237Y394879D01*
X6203Y394867D01*
X6168Y394862D01*
X6041Y394809D01*
X5911Y394762D01*
X5882Y394743D01*
X5849Y394729D01*
X5737Y394648D01*
X5622Y394573D01*
X5597Y394547D01*
X5569Y394527D01*
X5478Y394423D01*
X5383Y394323D01*
X5365Y394292D01*
X5342Y394266D01*
X5278Y394143D01*
X5208Y394025D01*
X5198Y393991D01*
X5181Y393959D01*
X5147Y393826D01*
X5106Y393694D01*
X5104Y393659D01*
X5095Y393625D01*
X5081Y393420D01*
X5081Y6580D01*
X5085Y6545D01*
X5082Y6509D01*
X5105Y6373D01*
X5121Y6237D01*
X5133Y6203D01*
X5138Y6168D01*
X5191Y6041D01*
X5238Y5911D01*
X5257Y5882D01*
X5271Y5849D01*
X5352Y5737D01*
X5427Y5622D01*
X5453Y5597D01*
X5473Y5569D01*
X5577Y5478D01*
X5677Y5383D01*
X5708Y5365D01*
X5734Y5342D01*
X5857Y5278D01*
X5975Y5208D01*
X6009Y5198D01*
X6041Y5181D01*
X6174Y5147D01*
X6306Y5106D01*
X6341Y5104D01*
X6375Y5095D01*
X6580Y5081D01*
X793420Y5081D01*
X793455Y5085D01*
G37*
%LPC*%
G36*
X210705Y170975D02*
X210705Y170975D01*
X207388Y172349D01*
X204849Y174888D01*
X203475Y178205D01*
X203475Y181795D01*
X204849Y185112D01*
X207388Y187651D01*
X210705Y189025D01*
X229383Y189025D01*
X229436Y189010D01*
X229523Y189006D01*
X229610Y188992D01*
X229696Y188998D01*
X229781Y188994D01*
X229867Y189010D01*
X229955Y189016D01*
X230037Y189041D01*
X230121Y189057D01*
X230201Y189093D01*
X230285Y189119D01*
X230359Y189162D01*
X230437Y189197D01*
X230507Y189250D01*
X230583Y189294D01*
X230691Y189389D01*
X230713Y189406D01*
X230721Y189415D01*
X230737Y189429D01*
X238536Y197228D01*
X238623Y197337D01*
X238714Y197443D01*
X238730Y197473D01*
X238751Y197499D01*
X238810Y197625D01*
X238875Y197749D01*
X238883Y197781D01*
X238898Y197812D01*
X238926Y197948D01*
X238961Y198083D01*
X238964Y198129D01*
X238969Y198150D01*
X238968Y198184D01*
X238975Y198288D01*
X238975Y201984D01*
X238969Y202036D01*
X238972Y202088D01*
X238949Y202207D01*
X238935Y202327D01*
X238918Y202376D01*
X238908Y202428D01*
X238859Y202539D01*
X238818Y202652D01*
X238789Y202696D01*
X238768Y202744D01*
X238695Y202841D01*
X238629Y202942D01*
X238591Y202978D01*
X238560Y203020D01*
X238466Y203097D01*
X238379Y203181D01*
X238334Y203207D01*
X238294Y203241D01*
X238185Y203294D01*
X238081Y203356D01*
X238031Y203371D01*
X237984Y203394D01*
X237866Y203422D01*
X237750Y203458D01*
X237698Y203461D01*
X237647Y203473D01*
X237526Y203473D01*
X237405Y203481D01*
X237354Y203473D01*
X237302Y203473D01*
X237184Y203445D01*
X237064Y203425D01*
X237016Y203405D01*
X236965Y203393D01*
X236857Y203339D01*
X236745Y203293D01*
X236703Y203262D01*
X236656Y203239D01*
X236563Y203161D01*
X236465Y203090D01*
X236430Y203051D01*
X236390Y203017D01*
X236317Y202921D01*
X236238Y202829D01*
X236214Y202783D01*
X236182Y202741D01*
X236091Y202558D01*
X235151Y200288D01*
X232612Y197749D01*
X229295Y196375D01*
X210705Y196375D01*
X207388Y197749D01*
X204849Y200288D01*
X203475Y203605D01*
X203475Y207195D01*
X204849Y210512D01*
X207388Y213051D01*
X210705Y214425D01*
X229295Y214425D01*
X232612Y213051D01*
X235151Y210512D01*
X236091Y208242D01*
X236116Y208197D01*
X236134Y208148D01*
X236200Y208046D01*
X236259Y207940D01*
X236294Y207902D01*
X236323Y207858D01*
X236410Y207775D01*
X236492Y207685D01*
X236535Y207655D01*
X236573Y207619D01*
X236677Y207558D01*
X236777Y207490D01*
X236826Y207471D01*
X236871Y207444D01*
X236987Y207409D01*
X237100Y207365D01*
X237152Y207358D01*
X237202Y207342D01*
X237322Y207334D01*
X237442Y207317D01*
X237494Y207322D01*
X237547Y207319D01*
X237666Y207338D01*
X237787Y207350D01*
X237836Y207366D01*
X237888Y207375D01*
X237999Y207421D01*
X238114Y207460D01*
X238159Y207487D01*
X238207Y207507D01*
X238305Y207578D01*
X238408Y207642D01*
X238445Y207679D01*
X238487Y207710D01*
X238567Y207801D01*
X238652Y207887D01*
X238680Y207931D01*
X238714Y207971D01*
X238770Y208078D01*
X238834Y208181D01*
X238851Y208230D01*
X238875Y208277D01*
X238905Y208394D01*
X238943Y208509D01*
X238948Y208561D01*
X238961Y208612D01*
X238975Y208816D01*
X238975Y318814D01*
X238959Y318952D01*
X238949Y319091D01*
X238939Y319124D01*
X238935Y319157D01*
X238888Y319288D01*
X238847Y319422D01*
X238829Y319451D01*
X238818Y319483D01*
X238742Y319599D01*
X238671Y319719D01*
X238641Y319753D01*
X238629Y319772D01*
X238605Y319795D01*
X238536Y319874D01*
X235463Y322947D01*
X235449Y322959D01*
X235437Y322973D01*
X235313Y323066D01*
X235192Y323162D01*
X235175Y323169D01*
X235161Y323181D01*
X234977Y323272D01*
X233384Y323932D01*
X232034Y325282D01*
X231303Y327045D01*
X231303Y328955D01*
X232034Y330718D01*
X233384Y332068D01*
X234977Y332728D01*
X234993Y332737D01*
X235011Y332743D01*
X235144Y332821D01*
X235279Y332896D01*
X235293Y332909D01*
X235309Y332918D01*
X235463Y333053D01*
X282638Y380228D01*
X285435Y383025D01*
X504667Y383025D01*
X507464Y380228D01*
X515790Y371902D01*
X515859Y371847D01*
X515921Y371786D01*
X515994Y371740D01*
X516061Y371687D01*
X516140Y371650D01*
X516215Y371604D01*
X516296Y371577D01*
X516374Y371540D01*
X516460Y371522D01*
X516543Y371494D01*
X516628Y371487D01*
X516712Y371469D01*
X516800Y371471D01*
X516887Y371463D01*
X516972Y371475D01*
X517058Y371477D01*
X517143Y371499D01*
X517229Y371511D01*
X517366Y371557D01*
X517393Y371564D01*
X517403Y371570D01*
X517424Y371577D01*
X519524Y372447D01*
X524476Y372447D01*
X529051Y370552D01*
X532552Y367051D01*
X534447Y362476D01*
X534447Y357524D01*
X532552Y352949D01*
X529051Y349448D01*
X524476Y347553D01*
X519524Y347553D01*
X514949Y349448D01*
X511448Y352949D01*
X509553Y357524D01*
X509553Y362476D01*
X510423Y364576D01*
X510447Y364660D01*
X510481Y364741D01*
X510494Y364826D01*
X510518Y364909D01*
X510522Y364996D01*
X510536Y365082D01*
X510530Y365168D01*
X510534Y365254D01*
X510518Y365340D01*
X510511Y365427D01*
X510486Y365509D01*
X510470Y365594D01*
X510435Y365674D01*
X510409Y365757D01*
X510365Y365832D01*
X510330Y365910D01*
X510278Y365980D01*
X510233Y366055D01*
X510139Y366164D01*
X510122Y366186D01*
X510113Y366194D01*
X510098Y366210D01*
X501772Y374536D01*
X501663Y374623D01*
X501557Y374714D01*
X501527Y374730D01*
X501501Y374751D01*
X501375Y374810D01*
X501251Y374875D01*
X501219Y374883D01*
X501188Y374898D01*
X501052Y374926D01*
X500917Y374961D01*
X500871Y374964D01*
X500850Y374969D01*
X500816Y374968D01*
X500712Y374975D01*
X483508Y374975D01*
X483343Y374956D01*
X483178Y374938D01*
X483172Y374936D01*
X483165Y374935D01*
X483008Y374879D01*
X482852Y374824D01*
X482846Y374820D01*
X482840Y374818D01*
X482700Y374727D01*
X482561Y374638D01*
X482556Y374633D01*
X482550Y374629D01*
X482435Y374509D01*
X482320Y374390D01*
X482316Y374384D01*
X482312Y374379D01*
X482227Y374235D01*
X482142Y374093D01*
X482140Y374087D01*
X482137Y374081D01*
X482088Y373922D01*
X482037Y373764D01*
X482036Y373757D01*
X482034Y373750D01*
X482023Y373583D01*
X482010Y373419D01*
X482011Y373412D01*
X482011Y373405D01*
X482038Y373242D01*
X482063Y373077D01*
X482066Y373071D01*
X482067Y373064D01*
X482130Y372912D01*
X482193Y372757D01*
X482197Y372751D01*
X482199Y372745D01*
X482296Y372611D01*
X482393Y372475D01*
X482398Y372470D01*
X482402Y372465D01*
X482528Y372355D01*
X482652Y372246D01*
X482659Y372241D01*
X482663Y372238D01*
X482677Y372231D01*
X482828Y372140D01*
X484056Y371514D01*
X485770Y370269D01*
X487269Y368770D01*
X488514Y367056D01*
X489476Y365168D01*
X490131Y363152D01*
X490235Y362499D01*
X478000Y362499D01*
X477965Y362495D01*
X477930Y362498D01*
X477794Y362475D01*
X477657Y362459D01*
X477623Y362447D01*
X477588Y362442D01*
X477461Y362389D01*
X477332Y362342D01*
X477302Y362323D01*
X477269Y362309D01*
X477157Y362228D01*
X477042Y362153D01*
X477018Y362127D01*
X476994Y362110D01*
X476903Y362197D01*
X476872Y362215D01*
X476845Y362238D01*
X476723Y362302D01*
X476605Y362372D01*
X476571Y362382D01*
X476539Y362399D01*
X476406Y362433D01*
X476274Y362474D01*
X476239Y362476D01*
X476204Y362485D01*
X476000Y362499D01*
X463765Y362499D01*
X463869Y363152D01*
X464524Y365168D01*
X465486Y367056D01*
X466731Y368770D01*
X468230Y370269D01*
X469944Y371514D01*
X471172Y372140D01*
X471310Y372231D01*
X471450Y372323D01*
X471455Y372328D01*
X471460Y372332D01*
X471574Y372453D01*
X471688Y372573D01*
X471692Y372579D01*
X471697Y372584D01*
X471779Y372728D01*
X471863Y372871D01*
X471865Y372878D01*
X471869Y372884D01*
X471916Y373043D01*
X471966Y373202D01*
X471966Y373208D01*
X471968Y373215D01*
X471978Y373381D01*
X471989Y373547D01*
X471988Y373553D01*
X471989Y373560D01*
X471960Y373724D01*
X471933Y373888D01*
X471931Y373894D01*
X471929Y373901D01*
X471864Y374054D01*
X471801Y374207D01*
X471797Y374212D01*
X471794Y374219D01*
X471695Y374354D01*
X471598Y374487D01*
X471593Y374492D01*
X471589Y374497D01*
X471463Y374605D01*
X471337Y374714D01*
X471331Y374717D01*
X471326Y374722D01*
X471179Y374797D01*
X471031Y374875D01*
X471025Y374877D01*
X471019Y374880D01*
X470857Y374920D01*
X470696Y374961D01*
X470688Y374962D01*
X470683Y374963D01*
X470668Y374963D01*
X470492Y374975D01*
X445909Y374975D01*
X445857Y374969D01*
X445804Y374972D01*
X445685Y374949D01*
X445565Y374935D01*
X445516Y374918D01*
X445465Y374908D01*
X445354Y374859D01*
X445240Y374818D01*
X445196Y374789D01*
X445148Y374768D01*
X445052Y374695D01*
X444950Y374629D01*
X444914Y374591D01*
X444873Y374560D01*
X444795Y374466D01*
X444712Y374379D01*
X444685Y374334D01*
X444652Y374294D01*
X444598Y374185D01*
X444537Y374081D01*
X444521Y374031D01*
X444498Y373984D01*
X444470Y373866D01*
X444435Y373750D01*
X444431Y373698D01*
X444419Y373647D01*
X444419Y373526D01*
X444411Y373405D01*
X444419Y373354D01*
X444420Y373302D01*
X444447Y373184D01*
X444467Y373064D01*
X444487Y373016D01*
X444499Y372965D01*
X444553Y372857D01*
X444600Y372745D01*
X444630Y372703D01*
X444654Y372656D01*
X444731Y372563D01*
X444802Y372465D01*
X444841Y372430D01*
X444875Y372390D01*
X444971Y372317D01*
X445063Y372238D01*
X445109Y372214D01*
X445151Y372182D01*
X445335Y372091D01*
X449051Y370552D01*
X452552Y367051D01*
X454447Y362476D01*
X454447Y357524D01*
X452552Y352949D01*
X449051Y349448D01*
X444476Y347553D01*
X439524Y347553D01*
X434949Y349448D01*
X431448Y352949D01*
X429553Y357524D01*
X429553Y362476D01*
X431448Y367051D01*
X434949Y370552D01*
X438665Y372091D01*
X438711Y372116D01*
X438760Y372134D01*
X438861Y372200D01*
X438967Y372259D01*
X439006Y372294D01*
X439050Y372323D01*
X439133Y372410D01*
X439223Y372492D01*
X439252Y372535D01*
X439288Y372573D01*
X439350Y372677D01*
X439418Y372777D01*
X439437Y372826D01*
X439463Y372871D01*
X439499Y372987D01*
X439543Y373100D01*
X439550Y373152D01*
X439565Y373202D01*
X439574Y373322D01*
X439590Y373442D01*
X439585Y373494D01*
X439589Y373547D01*
X439569Y373666D01*
X439558Y373787D01*
X439541Y373836D01*
X439533Y373888D01*
X439487Y373999D01*
X439448Y374114D01*
X439420Y374159D01*
X439400Y374207D01*
X439330Y374305D01*
X439266Y374408D01*
X439229Y374445D01*
X439198Y374487D01*
X439107Y374567D01*
X439021Y374652D01*
X438976Y374680D01*
X438937Y374714D01*
X438830Y374770D01*
X438727Y374834D01*
X438677Y374851D01*
X438631Y374875D01*
X438514Y374905D01*
X438399Y374943D01*
X438347Y374948D01*
X438296Y374961D01*
X438091Y374975D01*
X403508Y374975D01*
X403343Y374956D01*
X403178Y374938D01*
X403172Y374936D01*
X403165Y374935D01*
X403008Y374879D01*
X402852Y374824D01*
X402846Y374820D01*
X402840Y374818D01*
X402700Y374727D01*
X402561Y374638D01*
X402556Y374633D01*
X402550Y374629D01*
X402435Y374509D01*
X402320Y374390D01*
X402316Y374384D01*
X402312Y374379D01*
X402227Y374235D01*
X402142Y374093D01*
X402140Y374087D01*
X402137Y374081D01*
X402088Y373922D01*
X402037Y373764D01*
X402036Y373757D01*
X402034Y373750D01*
X402023Y373583D01*
X402010Y373419D01*
X402011Y373412D01*
X402011Y373405D01*
X402038Y373242D01*
X402063Y373077D01*
X402066Y373071D01*
X402067Y373064D01*
X402130Y372912D01*
X402193Y372757D01*
X402197Y372751D01*
X402199Y372745D01*
X402296Y372611D01*
X402393Y372475D01*
X402398Y372470D01*
X402402Y372465D01*
X402528Y372355D01*
X402652Y372246D01*
X402659Y372241D01*
X402663Y372238D01*
X402677Y372231D01*
X402828Y372140D01*
X404056Y371514D01*
X405770Y370269D01*
X407269Y368770D01*
X408514Y367056D01*
X409476Y365168D01*
X410131Y363152D01*
X410235Y362499D01*
X398000Y362499D01*
X397965Y362495D01*
X397930Y362498D01*
X397794Y362475D01*
X397657Y362459D01*
X397623Y362447D01*
X397588Y362442D01*
X397461Y362389D01*
X397332Y362342D01*
X397302Y362323D01*
X397269Y362309D01*
X397157Y362228D01*
X397042Y362153D01*
X397018Y362127D01*
X396994Y362110D01*
X396903Y362197D01*
X396872Y362215D01*
X396845Y362238D01*
X396723Y362302D01*
X396605Y362372D01*
X396571Y362382D01*
X396539Y362399D01*
X396406Y362433D01*
X396274Y362474D01*
X396239Y362476D01*
X396204Y362485D01*
X396000Y362499D01*
X383765Y362499D01*
X383869Y363152D01*
X384524Y365168D01*
X385486Y367056D01*
X386731Y368770D01*
X388230Y370269D01*
X389944Y371514D01*
X391172Y372140D01*
X391310Y372231D01*
X391450Y372323D01*
X391454Y372328D01*
X391460Y372332D01*
X391574Y372453D01*
X391688Y372573D01*
X391692Y372579D01*
X391697Y372584D01*
X391779Y372728D01*
X391863Y372871D01*
X391865Y372878D01*
X391869Y372884D01*
X391916Y373043D01*
X391966Y373202D01*
X391966Y373208D01*
X391968Y373215D01*
X391978Y373381D01*
X391989Y373547D01*
X391988Y373553D01*
X391988Y373560D01*
X391960Y373724D01*
X391933Y373888D01*
X391931Y373894D01*
X391929Y373901D01*
X391864Y374054D01*
X391801Y374207D01*
X391797Y374213D01*
X391794Y374219D01*
X391696Y374352D01*
X391598Y374487D01*
X391593Y374492D01*
X391589Y374497D01*
X391463Y374605D01*
X391337Y374714D01*
X391331Y374717D01*
X391326Y374722D01*
X391179Y374797D01*
X391031Y374875D01*
X391024Y374877D01*
X391018Y374880D01*
X390857Y374920D01*
X390696Y374961D01*
X390688Y374962D01*
X390683Y374963D01*
X390667Y374963D01*
X390492Y374975D01*
X365909Y374975D01*
X365857Y374969D01*
X365804Y374972D01*
X365685Y374949D01*
X365565Y374935D01*
X365516Y374918D01*
X365465Y374908D01*
X365354Y374859D01*
X365240Y374818D01*
X365196Y374789D01*
X365148Y374768D01*
X365052Y374695D01*
X364950Y374629D01*
X364914Y374591D01*
X364873Y374560D01*
X364795Y374466D01*
X364712Y374379D01*
X364685Y374334D01*
X364652Y374294D01*
X364598Y374185D01*
X364537Y374081D01*
X364521Y374031D01*
X364498Y373984D01*
X364470Y373866D01*
X364435Y373750D01*
X364431Y373698D01*
X364419Y373647D01*
X364419Y373526D01*
X364411Y373405D01*
X364419Y373354D01*
X364420Y373302D01*
X364447Y373184D01*
X364467Y373064D01*
X364487Y373016D01*
X364499Y372965D01*
X364553Y372857D01*
X364600Y372745D01*
X364630Y372703D01*
X364654Y372656D01*
X364731Y372563D01*
X364802Y372465D01*
X364841Y372430D01*
X364875Y372390D01*
X364971Y372317D01*
X365063Y372238D01*
X365109Y372214D01*
X365151Y372182D01*
X365335Y372091D01*
X369051Y370552D01*
X372552Y367051D01*
X374447Y362476D01*
X374447Y357524D01*
X372552Y352949D01*
X369051Y349448D01*
X364476Y347553D01*
X359524Y347553D01*
X354949Y349448D01*
X351448Y352949D01*
X349553Y357524D01*
X349553Y362476D01*
X351448Y367051D01*
X354949Y370552D01*
X358665Y372091D01*
X358711Y372116D01*
X358760Y372134D01*
X358861Y372200D01*
X358967Y372259D01*
X359006Y372294D01*
X359050Y372323D01*
X359133Y372410D01*
X359223Y372492D01*
X359252Y372535D01*
X359288Y372573D01*
X359350Y372677D01*
X359418Y372777D01*
X359437Y372826D01*
X359463Y372871D01*
X359499Y372987D01*
X359543Y373100D01*
X359550Y373152D01*
X359565Y373202D01*
X359574Y373322D01*
X359590Y373442D01*
X359585Y373494D01*
X359589Y373547D01*
X359569Y373666D01*
X359558Y373787D01*
X359541Y373836D01*
X359533Y373888D01*
X359487Y373999D01*
X359448Y374114D01*
X359420Y374159D01*
X359400Y374207D01*
X359330Y374305D01*
X359266Y374408D01*
X359229Y374445D01*
X359198Y374487D01*
X359107Y374567D01*
X359021Y374652D01*
X358976Y374680D01*
X358937Y374714D01*
X358830Y374770D01*
X358727Y374834D01*
X358677Y374851D01*
X358631Y374875D01*
X358514Y374905D01*
X358399Y374943D01*
X358347Y374948D01*
X358296Y374961D01*
X358091Y374975D01*
X289390Y374975D01*
X289252Y374959D01*
X289113Y374949D01*
X289080Y374939D01*
X289047Y374935D01*
X288916Y374888D01*
X288782Y374847D01*
X288753Y374829D01*
X288721Y374818D01*
X288605Y374742D01*
X288485Y374671D01*
X288451Y374641D01*
X288432Y374629D01*
X288409Y374605D01*
X288330Y374536D01*
X242854Y329060D01*
X242832Y329032D01*
X242805Y329009D01*
X242725Y328897D01*
X242639Y328789D01*
X242624Y328757D01*
X242604Y328728D01*
X242551Y328601D01*
X242492Y328476D01*
X242485Y328441D01*
X242472Y328409D01*
X242450Y328272D01*
X242421Y328138D01*
X242422Y328102D01*
X242416Y328067D01*
X242426Y327930D01*
X242429Y327792D01*
X242438Y327758D01*
X242441Y327722D01*
X242482Y327591D01*
X242516Y327458D01*
X242533Y327426D01*
X242543Y327392D01*
X242614Y327273D01*
X242678Y327152D01*
X242701Y327125D01*
X242719Y327095D01*
X242854Y326940D01*
X247025Y322769D01*
X247025Y194333D01*
X236636Y183944D01*
X236582Y183876D01*
X236520Y183814D01*
X236475Y183741D01*
X236422Y183673D01*
X236384Y183594D01*
X236338Y183520D01*
X236311Y183438D01*
X236275Y183360D01*
X236257Y183275D01*
X236229Y183192D01*
X236221Y183106D01*
X236203Y183022D01*
X236206Y182934D01*
X236198Y182847D01*
X236210Y182762D01*
X236212Y182676D01*
X236234Y182592D01*
X236246Y182505D01*
X236292Y182369D01*
X236299Y182342D01*
X236304Y182331D01*
X236311Y182311D01*
X236525Y181795D01*
X236525Y178205D01*
X235151Y174888D01*
X232612Y172349D01*
X229295Y170975D01*
X210705Y170975D01*
G37*
%LPD*%
%LPC*%
G36*
X421045Y95201D02*
X421045Y95201D01*
X419452Y95861D01*
X419435Y95866D01*
X419418Y95875D01*
X419268Y95914D01*
X419120Y95956D01*
X419101Y95957D01*
X419083Y95961D01*
X418879Y95975D01*
X397333Y95975D01*
X371975Y121333D01*
X371975Y125879D01*
X371973Y125897D01*
X371975Y125916D01*
X371953Y126068D01*
X371935Y126222D01*
X371929Y126240D01*
X371926Y126258D01*
X371861Y126452D01*
X371201Y128045D01*
X371201Y129955D01*
X371932Y131718D01*
X373282Y133068D01*
X375045Y133799D01*
X376955Y133799D01*
X378902Y132992D01*
X379053Y132949D01*
X379202Y132903D01*
X379219Y132902D01*
X379235Y132897D01*
X379390Y132890D01*
X379547Y132879D01*
X379563Y132882D01*
X379580Y132881D01*
X379734Y132910D01*
X379888Y132935D01*
X379903Y132942D01*
X379920Y132945D01*
X380063Y133008D01*
X380207Y133068D01*
X380221Y133078D01*
X380236Y133085D01*
X380361Y133179D01*
X380487Y133270D01*
X380499Y133283D01*
X380512Y133293D01*
X380611Y133413D01*
X380714Y133531D01*
X380722Y133547D01*
X380733Y133560D01*
X380802Y133699D01*
X380875Y133838D01*
X380879Y133854D01*
X380887Y133869D01*
X380922Y134021D01*
X380961Y134172D01*
X380963Y134194D01*
X380965Y134206D01*
X380965Y134233D01*
X380975Y134377D01*
X380975Y221879D01*
X380973Y221897D01*
X380975Y221916D01*
X380953Y222068D01*
X380935Y222222D01*
X380929Y222240D01*
X380926Y222258D01*
X380861Y222452D01*
X380201Y224045D01*
X380201Y225955D01*
X380932Y227718D01*
X382282Y229068D01*
X384045Y229799D01*
X385955Y229799D01*
X387718Y229068D01*
X389068Y227718D01*
X389799Y225955D01*
X389799Y224045D01*
X389139Y222452D01*
X389134Y222435D01*
X389125Y222418D01*
X389086Y222268D01*
X389044Y222120D01*
X389043Y222101D01*
X389039Y222083D01*
X389025Y221879D01*
X389025Y131524D01*
X389029Y131489D01*
X389026Y131453D01*
X389049Y131317D01*
X389065Y131181D01*
X389077Y131147D01*
X389082Y131112D01*
X389135Y130985D01*
X389182Y130855D01*
X389201Y130826D01*
X389215Y130793D01*
X389296Y130681D01*
X389371Y130566D01*
X389397Y130541D01*
X389417Y130513D01*
X389521Y130422D01*
X389621Y130327D01*
X389652Y130309D01*
X389678Y130286D01*
X389801Y130222D01*
X389919Y130152D01*
X389953Y130142D01*
X389985Y130125D01*
X390118Y130091D01*
X390250Y130050D01*
X390285Y130048D01*
X390319Y130039D01*
X390524Y130025D01*
X441879Y130025D01*
X441897Y130027D01*
X441916Y130025D01*
X442068Y130047D01*
X442222Y130065D01*
X442240Y130071D01*
X442258Y130074D01*
X442452Y130139D01*
X444045Y130799D01*
X445955Y130799D01*
X447718Y130068D01*
X449068Y128718D01*
X449799Y126955D01*
X449799Y125045D01*
X449068Y123282D01*
X447718Y121932D01*
X445955Y121201D01*
X444045Y121201D01*
X442452Y121861D01*
X442435Y121866D01*
X442418Y121875D01*
X442268Y121914D01*
X442120Y121956D01*
X442101Y121957D01*
X442083Y121961D01*
X441879Y121975D01*
X388268Y121975D01*
X388249Y121973D01*
X388231Y121975D01*
X388078Y121953D01*
X387924Y121935D01*
X387907Y121929D01*
X387889Y121926D01*
X387694Y121861D01*
X386671Y121437D01*
X386652Y121437D01*
X386585Y121419D01*
X386517Y121411D01*
X386419Y121376D01*
X386318Y121350D01*
X386257Y121317D01*
X386191Y121294D01*
X386104Y121237D01*
X386012Y121188D01*
X385960Y121143D01*
X385902Y121105D01*
X385830Y121030D01*
X385751Y120961D01*
X385711Y120905D01*
X385663Y120855D01*
X385610Y120765D01*
X385550Y120680D01*
X385523Y120616D01*
X385488Y120557D01*
X385457Y120457D01*
X385418Y120361D01*
X385406Y120292D01*
X385386Y120226D01*
X385379Y120122D01*
X385362Y120019D01*
X385367Y119950D01*
X385362Y119881D01*
X385379Y119779D01*
X385387Y119674D01*
X385407Y119608D01*
X385418Y119540D01*
X385458Y119444D01*
X385489Y119344D01*
X385525Y119285D01*
X385551Y119221D01*
X385612Y119136D01*
X385665Y119047D01*
X385734Y118968D01*
X385753Y118941D01*
X385770Y118926D01*
X385800Y118892D01*
X400228Y104464D01*
X400337Y104377D01*
X400443Y104286D01*
X400473Y104270D01*
X400499Y104249D01*
X400625Y104190D01*
X400749Y104125D01*
X400781Y104117D01*
X400812Y104102D01*
X400948Y104074D01*
X401083Y104039D01*
X401129Y104036D01*
X401150Y104031D01*
X401184Y104032D01*
X401288Y104025D01*
X418879Y104025D01*
X418897Y104027D01*
X418916Y104025D01*
X419068Y104047D01*
X419222Y104065D01*
X419240Y104071D01*
X419258Y104074D01*
X419452Y104139D01*
X421045Y104799D01*
X422955Y104799D01*
X424548Y104139D01*
X424558Y104136D01*
X424566Y104132D01*
X424573Y104130D01*
X424582Y104125D01*
X424732Y104086D01*
X424880Y104044D01*
X424899Y104043D01*
X424917Y104039D01*
X425121Y104025D01*
X463209Y104025D01*
X463364Y104043D01*
X463519Y104057D01*
X463535Y104063D01*
X463552Y104065D01*
X463699Y104118D01*
X463847Y104167D01*
X463861Y104176D01*
X463877Y104182D01*
X464008Y104267D01*
X464141Y104350D01*
X464153Y104362D01*
X464167Y104371D01*
X464275Y104484D01*
X464385Y104594D01*
X464394Y104609D01*
X464406Y104621D01*
X464485Y104756D01*
X464567Y104889D01*
X464572Y104905D01*
X464581Y104919D01*
X464627Y105068D01*
X464676Y105217D01*
X464678Y105233D01*
X464683Y105250D01*
X464693Y105406D01*
X464708Y105561D01*
X464705Y105578D01*
X464706Y105595D01*
X464681Y105749D01*
X464659Y105903D01*
X464652Y105924D01*
X464650Y105936D01*
X464640Y105961D01*
X464594Y106098D01*
X464201Y107046D01*
X464201Y108955D01*
X464932Y110718D01*
X466282Y112068D01*
X467875Y112728D01*
X467891Y112737D01*
X467909Y112743D01*
X468042Y112821D01*
X468177Y112896D01*
X468191Y112909D01*
X468207Y112918D01*
X468361Y113053D01*
X479536Y124228D01*
X479623Y124337D01*
X479714Y124443D01*
X479730Y124473D01*
X479751Y124499D01*
X479810Y124625D01*
X479875Y124749D01*
X479883Y124781D01*
X479898Y124812D01*
X479926Y124948D01*
X479961Y125083D01*
X479964Y125129D01*
X479969Y125150D01*
X479968Y125184D01*
X479975Y125288D01*
X479975Y141879D01*
X479973Y141897D01*
X479975Y141916D01*
X479953Y142068D01*
X479935Y142222D01*
X479929Y142240D01*
X479926Y142258D01*
X479861Y142452D01*
X479201Y144045D01*
X479201Y145955D01*
X479932Y147718D01*
X481282Y149068D01*
X483045Y149799D01*
X484955Y149799D01*
X486718Y149068D01*
X487440Y148347D01*
X487468Y148324D01*
X487491Y148298D01*
X487603Y148218D01*
X487711Y148132D01*
X487743Y148117D01*
X487772Y148096D01*
X487899Y148044D01*
X488024Y147985D01*
X488059Y147978D01*
X488091Y147964D01*
X488228Y147942D01*
X488362Y147914D01*
X488398Y147915D01*
X488433Y147909D01*
X488570Y147919D01*
X488708Y147922D01*
X488742Y147931D01*
X488778Y147933D01*
X488909Y147974D01*
X489042Y148009D01*
X489074Y148026D01*
X489108Y148036D01*
X489226Y148106D01*
X489348Y148170D01*
X489375Y148194D01*
X489405Y148212D01*
X489560Y148347D01*
X490282Y149068D01*
X492045Y149799D01*
X493955Y149799D01*
X495718Y149068D01*
X497068Y147718D01*
X497799Y145955D01*
X497799Y144045D01*
X497139Y142452D01*
X497134Y142435D01*
X497125Y142418D01*
X497086Y142268D01*
X497044Y142120D01*
X497043Y142101D01*
X497039Y142083D01*
X497025Y141879D01*
X497025Y114333D01*
X481464Y98772D01*
X478667Y95975D01*
X425121Y95975D01*
X425103Y95973D01*
X425084Y95975D01*
X424932Y95953D01*
X424778Y95935D01*
X424760Y95929D01*
X424742Y95926D01*
X424548Y95861D01*
X422955Y95201D01*
X421045Y95201D01*
G37*
%LPD*%
%LPC*%
G36*
X299045Y242201D02*
X299045Y242201D01*
X297282Y242932D01*
X295932Y244282D01*
X295201Y246045D01*
X295201Y247955D01*
X295932Y249718D01*
X297282Y251068D01*
X299045Y251799D01*
X300955Y251799D01*
X302548Y251139D01*
X302565Y251134D01*
X302582Y251125D01*
X302732Y251086D01*
X302880Y251044D01*
X302899Y251043D01*
X302917Y251039D01*
X303121Y251025D01*
X498879Y251025D01*
X498897Y251027D01*
X498916Y251025D01*
X499068Y251047D01*
X499222Y251065D01*
X499240Y251071D01*
X499258Y251074D01*
X499452Y251139D01*
X501045Y251799D01*
X502955Y251799D01*
X504718Y251068D01*
X506068Y249718D01*
X506799Y247955D01*
X506799Y246045D01*
X506068Y244282D01*
X504718Y242932D01*
X502955Y242201D01*
X501045Y242201D01*
X499452Y242861D01*
X499435Y242866D01*
X499418Y242875D01*
X499268Y242914D01*
X499120Y242956D01*
X499101Y242957D01*
X499083Y242961D01*
X498879Y242975D01*
X303121Y242975D01*
X303103Y242973D01*
X303084Y242975D01*
X302932Y242953D01*
X302778Y242935D01*
X302760Y242929D01*
X302742Y242926D01*
X302548Y242861D01*
X300955Y242201D01*
X299045Y242201D01*
G37*
%LPD*%
%LPC*%
G36*
X523045Y91201D02*
X523045Y91201D01*
X521282Y91932D01*
X519932Y93282D01*
X519201Y95045D01*
X519201Y96955D01*
X519932Y98718D01*
X521282Y100068D01*
X522875Y100728D01*
X522891Y100737D01*
X522909Y100743D01*
X523042Y100821D01*
X523177Y100896D01*
X523191Y100909D01*
X523207Y100918D01*
X523361Y101053D01*
X570836Y148528D01*
X573633Y151325D01*
X585047Y151325D01*
X585134Y151335D01*
X585222Y151335D01*
X585305Y151355D01*
X585391Y151365D01*
X585473Y151394D01*
X585558Y151414D01*
X585635Y151453D01*
X585716Y151482D01*
X585789Y151530D01*
X585867Y151569D01*
X585933Y151624D01*
X586005Y151671D01*
X586066Y151734D01*
X586133Y151790D01*
X586185Y151859D01*
X586244Y151921D01*
X586288Y151997D01*
X586341Y152067D01*
X586405Y152195D01*
X586419Y152219D01*
X586423Y152231D01*
X586432Y152250D01*
X586527Y152480D01*
X589100Y155053D01*
X592461Y156445D01*
X611339Y156445D01*
X614700Y155053D01*
X617273Y152480D01*
X618665Y149119D01*
X618665Y145481D01*
X617273Y142120D01*
X614700Y139547D01*
X611339Y138155D01*
X592461Y138155D01*
X589100Y139547D01*
X586527Y142120D01*
X586432Y142350D01*
X586390Y142426D01*
X586356Y142507D01*
X586306Y142577D01*
X586264Y142652D01*
X586205Y142716D01*
X586154Y142787D01*
X586089Y142844D01*
X586031Y142907D01*
X585959Y142957D01*
X585893Y143014D01*
X585816Y143054D01*
X585746Y143103D01*
X585664Y143134D01*
X585587Y143175D01*
X585503Y143196D01*
X585423Y143227D01*
X585337Y143239D01*
X585252Y143261D01*
X585108Y143271D01*
X585081Y143275D01*
X585069Y143274D01*
X585047Y143275D01*
X577588Y143275D01*
X577450Y143259D01*
X577311Y143249D01*
X577278Y143239D01*
X577245Y143235D01*
X577114Y143188D01*
X576980Y143147D01*
X576951Y143129D01*
X576919Y143118D01*
X576803Y143042D01*
X576683Y142971D01*
X576649Y142941D01*
X576630Y142929D01*
X576607Y142905D01*
X576528Y142836D01*
X529053Y95361D01*
X529041Y95347D01*
X529027Y95335D01*
X528934Y95211D01*
X528838Y95090D01*
X528831Y95073D01*
X528819Y95059D01*
X528728Y94875D01*
X528068Y93282D01*
X526718Y91932D01*
X524955Y91201D01*
X523045Y91201D01*
G37*
%LPD*%
%LPC*%
G36*
X676708Y308475D02*
X676708Y308475D01*
X672472Y310230D01*
X669230Y313472D01*
X667475Y317708D01*
X667475Y342292D01*
X669230Y346528D01*
X672472Y349770D01*
X676708Y351525D01*
X681292Y351525D01*
X685528Y349770D01*
X688770Y346528D01*
X690525Y342292D01*
X690525Y317708D01*
X688770Y313472D01*
X685528Y310230D01*
X681292Y308475D01*
X676708Y308475D01*
G37*
%LPD*%
%LPC*%
G36*
X30561Y170855D02*
X30561Y170855D01*
X27200Y172247D01*
X24627Y174820D01*
X23235Y178181D01*
X23235Y181819D01*
X24627Y185180D01*
X27200Y187753D01*
X30561Y189145D01*
X49439Y189145D01*
X52800Y187753D01*
X55373Y185180D01*
X56765Y181819D01*
X56765Y178181D01*
X55373Y174820D01*
X52800Y172247D01*
X49439Y170855D01*
X30561Y170855D01*
G37*
%LPD*%
%LPC*%
G36*
X592461Y188955D02*
X592461Y188955D01*
X589100Y190347D01*
X586527Y192920D01*
X585135Y196281D01*
X585135Y199919D01*
X586527Y203280D01*
X589100Y205853D01*
X592461Y207245D01*
X611339Y207245D01*
X614700Y205853D01*
X617273Y203280D01*
X618665Y199919D01*
X618665Y196281D01*
X617273Y192920D01*
X614700Y190347D01*
X611339Y188955D01*
X592461Y188955D01*
G37*
%LPD*%
%LPC*%
G36*
X592461Y87355D02*
X592461Y87355D01*
X589100Y88747D01*
X586527Y91320D01*
X585135Y94681D01*
X585135Y98319D01*
X586527Y101680D01*
X589100Y104253D01*
X592461Y105645D01*
X611339Y105645D01*
X614700Y104253D01*
X617273Y101680D01*
X618665Y98319D01*
X618665Y94681D01*
X617273Y91320D01*
X614700Y88747D01*
X611339Y87355D01*
X592461Y87355D01*
G37*
%LPD*%
%LPC*%
G36*
X592461Y112755D02*
X592461Y112755D01*
X589100Y114147D01*
X586527Y116720D01*
X585135Y120081D01*
X585135Y123719D01*
X586527Y127080D01*
X589100Y129653D01*
X592461Y131045D01*
X611339Y131045D01*
X614700Y129653D01*
X617273Y127080D01*
X618665Y123719D01*
X618665Y120081D01*
X617273Y116720D01*
X614700Y114147D01*
X611339Y112755D01*
X592461Y112755D01*
G37*
%LPD*%
%LPC*%
G36*
X592461Y163555D02*
X592461Y163555D01*
X589100Y164947D01*
X586527Y167520D01*
X585135Y170881D01*
X585135Y174519D01*
X586527Y177880D01*
X589100Y180453D01*
X592461Y181845D01*
X611339Y181845D01*
X614700Y180453D01*
X617273Y177880D01*
X618665Y174519D01*
X618665Y170881D01*
X617273Y167520D01*
X614700Y164947D01*
X611339Y163555D01*
X592461Y163555D01*
G37*
%LPD*%
%LPC*%
G36*
X30561Y196255D02*
X30561Y196255D01*
X27200Y197647D01*
X24627Y200220D01*
X23235Y203581D01*
X23235Y207219D01*
X24627Y210580D01*
X27200Y213153D01*
X30561Y214545D01*
X49439Y214545D01*
X52800Y213153D01*
X55373Y210580D01*
X56765Y207219D01*
X56765Y203581D01*
X55373Y200220D01*
X52800Y197647D01*
X49439Y196255D01*
X30561Y196255D01*
G37*
%LPD*%
%LPC*%
G36*
X30561Y76255D02*
X30561Y76255D01*
X27200Y77647D01*
X24627Y80220D01*
X23235Y83581D01*
X23235Y87219D01*
X24627Y90580D01*
X27200Y93153D01*
X30561Y94545D01*
X49439Y94545D01*
X52800Y93153D01*
X55373Y90580D01*
X56765Y87219D01*
X56765Y83581D01*
X55373Y80220D01*
X52800Y77647D01*
X49439Y76255D01*
X30561Y76255D01*
G37*
%LPD*%
%LPC*%
G36*
X30561Y50855D02*
X30561Y50855D01*
X27200Y52247D01*
X24627Y54820D01*
X23235Y58181D01*
X23235Y61819D01*
X24627Y65180D01*
X27200Y67753D01*
X30561Y69145D01*
X49439Y69145D01*
X52800Y67753D01*
X55373Y65180D01*
X56765Y61819D01*
X56765Y58181D01*
X55373Y54820D01*
X52800Y52247D01*
X49439Y50855D01*
X30561Y50855D01*
G37*
%LPD*%
%LPC*%
G36*
X290705Y170975D02*
X290705Y170975D01*
X287388Y172349D01*
X284849Y174888D01*
X283475Y178205D01*
X283475Y181795D01*
X284849Y185112D01*
X287388Y187651D01*
X290705Y189025D01*
X309295Y189025D01*
X312612Y187651D01*
X315151Y185112D01*
X316525Y181795D01*
X316525Y178205D01*
X315151Y174888D01*
X312612Y172349D01*
X309295Y170975D01*
X290705Y170975D01*
G37*
%LPD*%
%LPC*%
G36*
X290705Y196375D02*
X290705Y196375D01*
X287388Y197749D01*
X284849Y200288D01*
X283475Y203605D01*
X283475Y207195D01*
X284849Y210512D01*
X287388Y213051D01*
X290705Y214425D01*
X309295Y214425D01*
X312612Y213051D01*
X315151Y210512D01*
X316525Y207195D01*
X316525Y203605D01*
X315151Y200288D01*
X312612Y197749D01*
X309295Y196375D01*
X290705Y196375D01*
G37*
%LPD*%
%LPC*%
G36*
X599524Y347553D02*
X599524Y347553D01*
X594949Y349448D01*
X591448Y352949D01*
X589553Y357524D01*
X589553Y362476D01*
X591448Y367051D01*
X594949Y370552D01*
X599524Y372447D01*
X604476Y372447D01*
X609051Y370552D01*
X612552Y367051D01*
X614447Y362476D01*
X614447Y357524D01*
X612552Y352949D01*
X609051Y349448D01*
X604476Y347553D01*
X599524Y347553D01*
G37*
%LPD*%
%LPC*%
G36*
X88503Y172475D02*
X88503Y172475D01*
X85738Y173621D01*
X83621Y175738D01*
X82475Y178503D01*
X82475Y181497D01*
X83621Y184262D01*
X85738Y186379D01*
X88503Y187525D01*
X91497Y187525D01*
X94262Y186379D01*
X96379Y184262D01*
X97525Y181497D01*
X97525Y178503D01*
X96379Y175738D01*
X94262Y173621D01*
X91497Y172475D01*
X88503Y172475D01*
G37*
%LPD*%
%LPC*%
G36*
X148503Y172475D02*
X148503Y172475D01*
X145738Y173621D01*
X143621Y175738D01*
X142475Y178503D01*
X142475Y181497D01*
X143621Y184262D01*
X145738Y186379D01*
X148503Y187525D01*
X151497Y187525D01*
X154262Y186379D01*
X156379Y184262D01*
X157525Y181497D01*
X157525Y178503D01*
X156379Y175738D01*
X154262Y173621D01*
X151497Y172475D01*
X148503Y172475D01*
G37*
%LPD*%
%LPC*%
G36*
X88503Y192475D02*
X88503Y192475D01*
X85738Y193621D01*
X83621Y195738D01*
X82475Y198503D01*
X82475Y201497D01*
X83621Y204262D01*
X85738Y206379D01*
X88503Y207525D01*
X91497Y207525D01*
X94262Y206379D01*
X96379Y204262D01*
X97525Y201497D01*
X97525Y198503D01*
X96379Y195738D01*
X94262Y193621D01*
X91497Y192475D01*
X88503Y192475D01*
G37*
%LPD*%
%LPC*%
G36*
X148503Y192475D02*
X148503Y192475D01*
X145738Y193621D01*
X143621Y195738D01*
X142475Y198503D01*
X142475Y201497D01*
X143621Y204262D01*
X145738Y206379D01*
X148503Y207525D01*
X151497Y207525D01*
X154262Y206379D01*
X156379Y204262D01*
X157525Y201497D01*
X157525Y198503D01*
X156379Y195738D01*
X154262Y193621D01*
X151497Y192475D01*
X148503Y192475D01*
G37*
%LPD*%
%LPC*%
G36*
X742499Y332499D02*
X742499Y332499D01*
X742499Y352301D01*
X742937Y352232D01*
X744814Y351622D01*
X746573Y350726D01*
X748170Y349566D01*
X749566Y348170D01*
X750726Y346573D01*
X751622Y344814D01*
X752232Y342937D01*
X752541Y340987D01*
X752541Y332499D01*
X742499Y332499D01*
G37*
%LPD*%
%LPC*%
G36*
X712499Y380499D02*
X712499Y380499D01*
X712499Y390541D01*
X720987Y390541D01*
X722937Y390232D01*
X724814Y389622D01*
X726573Y388726D01*
X728170Y387566D01*
X729566Y386170D01*
X730726Y384573D01*
X731622Y382814D01*
X732232Y380937D01*
X732301Y380499D01*
X712499Y380499D01*
G37*
%LPD*%
%LPC*%
G36*
X687699Y380499D02*
X687699Y380499D01*
X687768Y380937D01*
X688378Y382814D01*
X689274Y384573D01*
X690434Y386170D01*
X691830Y387566D01*
X693427Y388726D01*
X695186Y389622D01*
X697063Y390232D01*
X699013Y390541D01*
X707501Y390541D01*
X707501Y380499D01*
X687699Y380499D01*
G37*
%LPD*%
%LPC*%
G36*
X742499Y327501D02*
X742499Y327501D01*
X752541Y327501D01*
X752541Y319013D01*
X752232Y317063D01*
X751622Y315186D01*
X750726Y313427D01*
X749566Y311830D01*
X748170Y310434D01*
X746573Y309274D01*
X744814Y308378D01*
X742937Y307768D01*
X742499Y307699D01*
X742499Y327501D01*
G37*
%LPD*%
%LPC*%
G36*
X727459Y332499D02*
X727459Y332499D01*
X727459Y340987D01*
X727768Y342937D01*
X728378Y344814D01*
X729274Y346573D01*
X730434Y348170D01*
X731830Y349566D01*
X733427Y350726D01*
X735186Y351622D01*
X737063Y352232D01*
X737501Y352301D01*
X737501Y332499D01*
X727459Y332499D01*
G37*
%LPD*%
%LPC*%
G36*
X712499Y365459D02*
X712499Y365459D01*
X712499Y375501D01*
X732301Y375501D01*
X732232Y375063D01*
X731622Y373186D01*
X730726Y371427D01*
X729566Y369830D01*
X728170Y368434D01*
X726573Y367274D01*
X724814Y366378D01*
X722937Y365768D01*
X720987Y365459D01*
X712499Y365459D01*
G37*
%LPD*%
%LPC*%
G36*
X737063Y307768D02*
X737063Y307768D01*
X735186Y308378D01*
X733427Y309274D01*
X731830Y310434D01*
X730434Y311830D01*
X729274Y313427D01*
X728378Y315186D01*
X727768Y317063D01*
X727459Y319013D01*
X727459Y327501D01*
X737501Y327501D01*
X737501Y307699D01*
X737063Y307768D01*
G37*
%LPD*%
%LPC*%
G36*
X699013Y365459D02*
X699013Y365459D01*
X697063Y365768D01*
X695186Y366378D01*
X693427Y367274D01*
X691830Y368434D01*
X690434Y369830D01*
X689274Y371427D01*
X688378Y373186D01*
X687768Y375063D01*
X687699Y375501D01*
X707501Y375501D01*
X707501Y365459D01*
X699013Y365459D01*
G37*
%LPD*%
%LPC*%
G36*
X42539Y157139D02*
X42539Y157139D01*
X42539Y164761D01*
X48420Y164761D01*
X49999Y164511D01*
X51520Y164016D01*
X52945Y163290D01*
X54239Y162350D01*
X55370Y161219D01*
X56310Y159925D01*
X57036Y158500D01*
X57479Y157139D01*
X42539Y157139D01*
G37*
%LPD*%
%LPC*%
G36*
X604439Y226039D02*
X604439Y226039D01*
X604439Y233661D01*
X610320Y233661D01*
X611899Y233411D01*
X613420Y232916D01*
X614845Y232190D01*
X616139Y231250D01*
X617270Y230119D01*
X618210Y228825D01*
X618936Y227400D01*
X619379Y226039D01*
X604439Y226039D01*
G37*
%LPD*%
%LPC*%
G36*
X42539Y37139D02*
X42539Y37139D01*
X42539Y44761D01*
X48420Y44761D01*
X49999Y44511D01*
X51520Y44016D01*
X52945Y43290D01*
X54239Y42350D01*
X55370Y41219D01*
X56310Y39925D01*
X57036Y38500D01*
X57479Y37139D01*
X42539Y37139D01*
G37*
%LPD*%
%LPC*%
G36*
X22521Y157139D02*
X22521Y157139D01*
X22964Y158500D01*
X23690Y159925D01*
X24630Y161219D01*
X25761Y162350D01*
X27055Y163290D01*
X28480Y164016D01*
X30001Y164511D01*
X31580Y164761D01*
X37461Y164761D01*
X37461Y157139D01*
X22521Y157139D01*
G37*
%LPD*%
%LPC*%
G36*
X584421Y226039D02*
X584421Y226039D01*
X584864Y227400D01*
X585590Y228825D01*
X586530Y230119D01*
X587661Y231250D01*
X588955Y232190D01*
X590380Y232916D01*
X591901Y233411D01*
X593480Y233661D01*
X599361Y233661D01*
X599361Y226039D01*
X584421Y226039D01*
G37*
%LPD*%
%LPC*%
G36*
X22521Y37139D02*
X22521Y37139D01*
X22964Y38500D01*
X23690Y39925D01*
X24630Y41219D01*
X25761Y42350D01*
X27055Y43290D01*
X28480Y44016D01*
X30001Y44511D01*
X31580Y44761D01*
X37461Y44761D01*
X37461Y37139D01*
X22521Y37139D01*
G37*
%LPD*%
%LPC*%
G36*
X604439Y213339D02*
X604439Y213339D01*
X604439Y220961D01*
X619379Y220961D01*
X618936Y219600D01*
X618210Y218175D01*
X617270Y216881D01*
X616139Y215750D01*
X614845Y214810D01*
X613420Y214084D01*
X611899Y213589D01*
X610320Y213339D01*
X604439Y213339D01*
G37*
%LPD*%
%LPC*%
G36*
X42539Y144439D02*
X42539Y144439D01*
X42539Y152061D01*
X57479Y152061D01*
X57036Y150700D01*
X56310Y149275D01*
X55370Y147981D01*
X54239Y146850D01*
X52945Y145910D01*
X51520Y145184D01*
X49999Y144689D01*
X48420Y144439D01*
X42539Y144439D01*
G37*
%LPD*%
%LPC*%
G36*
X42539Y24439D02*
X42539Y24439D01*
X42539Y32061D01*
X57479Y32061D01*
X57036Y30700D01*
X56310Y29275D01*
X55370Y27981D01*
X54239Y26850D01*
X52945Y25910D01*
X51520Y25184D01*
X49999Y24689D01*
X48420Y24439D01*
X42539Y24439D01*
G37*
%LPD*%
%LPC*%
G36*
X31580Y144439D02*
X31580Y144439D01*
X30001Y144689D01*
X28480Y145184D01*
X27055Y145910D01*
X25761Y146850D01*
X24630Y147981D01*
X23690Y149275D01*
X22964Y150700D01*
X22521Y152061D01*
X37461Y152061D01*
X37461Y144439D01*
X31580Y144439D01*
G37*
%LPD*%
%LPC*%
G36*
X593480Y213339D02*
X593480Y213339D01*
X591901Y213589D01*
X590380Y214084D01*
X588955Y214810D01*
X587661Y215750D01*
X586530Y216881D01*
X585590Y218175D01*
X584864Y219600D01*
X584421Y220961D01*
X599361Y220961D01*
X599361Y213339D01*
X593480Y213339D01*
G37*
%LPD*%
%LPC*%
G36*
X31580Y24439D02*
X31580Y24439D01*
X30001Y24689D01*
X28480Y25184D01*
X27055Y25910D01*
X25761Y26850D01*
X24630Y27981D01*
X23690Y29275D01*
X22964Y30700D01*
X22521Y32061D01*
X37461Y32061D01*
X37461Y24439D01*
X31580Y24439D01*
G37*
%LPD*%
%LPC*%
G36*
X302499Y157099D02*
X302499Y157099D01*
X302499Y164641D01*
X308290Y164641D01*
X309851Y164394D01*
X311354Y163905D01*
X312762Y163188D01*
X314041Y162259D01*
X315159Y161141D01*
X316088Y159862D01*
X316805Y158454D01*
X317245Y157099D01*
X302499Y157099D01*
G37*
%LPD*%
%LPC*%
G36*
X222499Y157099D02*
X222499Y157099D01*
X222499Y164641D01*
X228290Y164641D01*
X229851Y164394D01*
X231354Y163905D01*
X232762Y163188D01*
X234041Y162259D01*
X235159Y161141D01*
X236088Y159862D01*
X236805Y158454D01*
X237245Y157099D01*
X222499Y157099D01*
G37*
%LPD*%
%LPC*%
G36*
X282755Y157099D02*
X282755Y157099D01*
X283195Y158454D01*
X283912Y159862D01*
X284841Y161141D01*
X285959Y162259D01*
X287238Y163188D01*
X288646Y163905D01*
X290149Y164394D01*
X291710Y164641D01*
X297501Y164641D01*
X297501Y157099D01*
X282755Y157099D01*
G37*
%LPD*%
%LPC*%
G36*
X202755Y157099D02*
X202755Y157099D01*
X203195Y158454D01*
X203912Y159862D01*
X204841Y161141D01*
X205959Y162259D01*
X207238Y163188D01*
X208646Y163905D01*
X210149Y164394D01*
X211710Y164641D01*
X217501Y164641D01*
X217501Y157099D01*
X202755Y157099D01*
G37*
%LPD*%
%LPC*%
G36*
X302499Y144559D02*
X302499Y144559D01*
X302499Y152101D01*
X317245Y152101D01*
X316805Y150746D01*
X316088Y149338D01*
X315159Y148059D01*
X314041Y146941D01*
X312762Y146012D01*
X311354Y145295D01*
X309851Y144806D01*
X308290Y144559D01*
X302499Y144559D01*
G37*
%LPD*%
%LPC*%
G36*
X222499Y144559D02*
X222499Y144559D01*
X222499Y152101D01*
X237245Y152101D01*
X236805Y150746D01*
X236088Y149338D01*
X235159Y148059D01*
X234041Y146941D01*
X232762Y146012D01*
X231354Y145295D01*
X229851Y144806D01*
X228290Y144559D01*
X222499Y144559D01*
G37*
%LPD*%
%LPC*%
G36*
X291710Y144559D02*
X291710Y144559D01*
X290149Y144806D01*
X288646Y145295D01*
X287238Y146012D01*
X285959Y146941D01*
X284841Y148059D01*
X283912Y149338D01*
X283195Y150746D01*
X282755Y152101D01*
X297501Y152101D01*
X297501Y144559D01*
X291710Y144559D01*
G37*
%LPD*%
%LPC*%
G36*
X211710Y144559D02*
X211710Y144559D01*
X210149Y144806D01*
X208646Y145295D01*
X207238Y146012D01*
X205959Y146941D01*
X204841Y148059D01*
X203912Y149338D01*
X203195Y150746D01*
X202755Y152101D01*
X217501Y152101D01*
X217501Y144559D01*
X211710Y144559D01*
G37*
%LPD*%
%LPC*%
G36*
X639499Y362499D02*
X639499Y362499D01*
X639499Y373235D01*
X640152Y373131D01*
X642168Y372476D01*
X644056Y371514D01*
X645770Y370269D01*
X647269Y368770D01*
X648514Y367056D01*
X649476Y365168D01*
X650131Y363152D01*
X650235Y362499D01*
X639499Y362499D01*
G37*
%LPD*%
%LPC*%
G36*
X559499Y362499D02*
X559499Y362499D01*
X559499Y373235D01*
X560152Y373131D01*
X562168Y372476D01*
X564056Y371514D01*
X565770Y370269D01*
X567269Y368770D01*
X568514Y367056D01*
X569476Y365168D01*
X570131Y363152D01*
X570235Y362499D01*
X559499Y362499D01*
G37*
%LPD*%
%LPC*%
G36*
X559499Y357501D02*
X559499Y357501D01*
X570235Y357501D01*
X570131Y356848D01*
X569476Y354832D01*
X568514Y352944D01*
X567269Y351230D01*
X565770Y349731D01*
X564056Y348486D01*
X562168Y347524D01*
X560152Y346869D01*
X559499Y346765D01*
X559499Y357501D01*
G37*
%LPD*%
%LPC*%
G36*
X639499Y357501D02*
X639499Y357501D01*
X650235Y357501D01*
X650131Y356848D01*
X649476Y354832D01*
X648514Y352944D01*
X647269Y351230D01*
X645770Y349731D01*
X644056Y348486D01*
X642168Y347524D01*
X640152Y346869D01*
X639499Y346765D01*
X639499Y357501D01*
G37*
%LPD*%
%LPC*%
G36*
X623765Y362499D02*
X623765Y362499D01*
X623869Y363152D01*
X624524Y365168D01*
X625486Y367056D01*
X626731Y368770D01*
X628230Y370269D01*
X629944Y371514D01*
X631832Y372476D01*
X633848Y373131D01*
X634501Y373235D01*
X634501Y362499D01*
X623765Y362499D01*
G37*
%LPD*%
%LPC*%
G36*
X543765Y362499D02*
X543765Y362499D01*
X543869Y363152D01*
X544524Y365168D01*
X545486Y367056D01*
X546731Y368770D01*
X548230Y370269D01*
X549944Y371514D01*
X551832Y372476D01*
X553848Y373131D01*
X554501Y373235D01*
X554501Y362499D01*
X543765Y362499D01*
G37*
%LPD*%
%LPC*%
G36*
X399499Y357501D02*
X399499Y357501D01*
X410235Y357501D01*
X410131Y356848D01*
X409476Y354832D01*
X408514Y352944D01*
X407269Y351230D01*
X405770Y349731D01*
X404056Y348486D01*
X402168Y347524D01*
X400152Y346869D01*
X399499Y346765D01*
X399499Y357501D01*
G37*
%LPD*%
%LPC*%
G36*
X479499Y357501D02*
X479499Y357501D01*
X490235Y357501D01*
X490131Y356848D01*
X489476Y354832D01*
X488514Y352944D01*
X487269Y351230D01*
X485770Y349731D01*
X484056Y348486D01*
X482168Y347524D01*
X480152Y346869D01*
X479499Y346765D01*
X479499Y357501D01*
G37*
%LPD*%
%LPC*%
G36*
X633848Y346869D02*
X633848Y346869D01*
X631832Y347524D01*
X629944Y348486D01*
X628230Y349731D01*
X626731Y351230D01*
X625486Y352944D01*
X624524Y354832D01*
X623869Y356848D01*
X623765Y357501D01*
X634501Y357501D01*
X634501Y346765D01*
X633848Y346869D01*
G37*
%LPD*%
%LPC*%
G36*
X393848Y346869D02*
X393848Y346869D01*
X391832Y347524D01*
X389944Y348486D01*
X388230Y349731D01*
X386731Y351230D01*
X385486Y352944D01*
X384524Y354832D01*
X383869Y356848D01*
X383765Y357501D01*
X394501Y357501D01*
X394501Y346765D01*
X393848Y346869D01*
G37*
%LPD*%
%LPC*%
G36*
X473848Y346869D02*
X473848Y346869D01*
X471832Y347524D01*
X469944Y348486D01*
X468230Y349731D01*
X466731Y351230D01*
X465486Y352944D01*
X464524Y354832D01*
X463869Y356848D01*
X463765Y357501D01*
X474501Y357501D01*
X474501Y346765D01*
X473848Y346869D01*
G37*
%LPD*%
%LPC*%
G36*
X553848Y346869D02*
X553848Y346869D01*
X551832Y347524D01*
X549944Y348486D01*
X548230Y349731D01*
X546731Y351230D01*
X545486Y352944D01*
X544524Y354832D01*
X543869Y356848D01*
X543765Y357501D01*
X554501Y357501D01*
X554501Y346765D01*
X553848Y346869D01*
G37*
%LPD*%
%LPC*%
G36*
X151999Y161999D02*
X151999Y161999D01*
X151999Y168310D01*
X152491Y168213D01*
X154046Y167569D01*
X155444Y166634D01*
X156634Y165444D01*
X157569Y164046D01*
X158213Y162491D01*
X158310Y161999D01*
X151999Y161999D01*
G37*
%LPD*%
%LPC*%
G36*
X91999Y161999D02*
X91999Y161999D01*
X91999Y168310D01*
X92491Y168213D01*
X94046Y167569D01*
X95444Y166634D01*
X96634Y165444D01*
X97569Y164046D01*
X98213Y162491D01*
X98310Y161999D01*
X91999Y161999D01*
G37*
%LPD*%
%LPC*%
G36*
X81690Y161999D02*
X81690Y161999D01*
X81787Y162491D01*
X82431Y164046D01*
X83366Y165444D01*
X84556Y166634D01*
X85954Y167569D01*
X87509Y168213D01*
X88001Y168310D01*
X88001Y161999D01*
X81690Y161999D01*
G37*
%LPD*%
%LPC*%
G36*
X141690Y161999D02*
X141690Y161999D01*
X141787Y162491D01*
X142431Y164046D01*
X143366Y165444D01*
X144556Y166634D01*
X145954Y167569D01*
X147509Y168213D01*
X148001Y168310D01*
X148001Y161999D01*
X141690Y161999D01*
G37*
%LPD*%
%LPC*%
G36*
X91999Y158001D02*
X91999Y158001D01*
X98310Y158001D01*
X98213Y157509D01*
X97569Y155954D01*
X96634Y154556D01*
X95444Y153366D01*
X94046Y152431D01*
X92491Y151787D01*
X91999Y151690D01*
X91999Y158001D01*
G37*
%LPD*%
%LPC*%
G36*
X151999Y158001D02*
X151999Y158001D01*
X158310Y158001D01*
X158213Y157509D01*
X157569Y155954D01*
X156634Y154556D01*
X155444Y153366D01*
X154046Y152431D01*
X152491Y151787D01*
X151999Y151690D01*
X151999Y158001D01*
G37*
%LPD*%
%LPC*%
G36*
X147509Y151787D02*
X147509Y151787D01*
X145954Y152431D01*
X144556Y153366D01*
X143366Y154556D01*
X142431Y155954D01*
X141787Y157509D01*
X141690Y158001D01*
X148001Y158001D01*
X148001Y151690D01*
X147509Y151787D01*
G37*
%LPD*%
%LPC*%
G36*
X87509Y151787D02*
X87509Y151787D01*
X85954Y152431D01*
X84556Y153366D01*
X83366Y154556D01*
X82431Y155954D01*
X81787Y157509D01*
X81690Y158001D01*
X88001Y158001D01*
X88001Y151690D01*
X87509Y151787D01*
G37*
%LPD*%
D10*
X679000Y340000D02*
X679000Y320000D01*
X740000Y320000D02*
X740000Y340000D01*
X720000Y378000D02*
X700000Y378000D01*
D11*
X609520Y223500D02*
X594280Y223500D01*
X594280Y198100D02*
X609520Y198100D01*
X609520Y172700D02*
X594280Y172700D01*
X594280Y147300D02*
X609520Y147300D01*
X609520Y121900D02*
X594280Y121900D01*
X594280Y96500D02*
X609520Y96500D01*
D12*
X227500Y180000D02*
X212500Y180000D01*
X212500Y154600D02*
X227500Y154600D01*
X227500Y205400D02*
X212500Y205400D01*
D13*
X90000Y180000D03*
X90000Y160000D03*
X90000Y200000D03*
D11*
X47620Y34600D02*
X32380Y34600D01*
X32380Y60000D02*
X47620Y60000D01*
X47620Y85400D02*
X32380Y85400D01*
X32380Y154600D02*
X47620Y154600D01*
X47620Y180000D02*
X32380Y180000D01*
X32380Y205400D02*
X47620Y205400D01*
D12*
X292500Y180000D02*
X307500Y180000D01*
X307500Y154600D02*
X292500Y154600D01*
X292500Y205400D02*
X307500Y205400D01*
D13*
X150000Y180000D03*
X150000Y160000D03*
X150000Y200000D03*
D14*
X522000Y360000D03*
X557000Y360000D03*
X442000Y360000D03*
X477000Y360000D03*
X362000Y360000D03*
X397000Y360000D03*
X602000Y360000D03*
X637000Y360000D03*
D15*
X30000Y370000D03*
X770000Y30000D03*
D16*
X484000Y145000D03*
D17*
X484000Y123000D01*
D16*
X469000Y108000D03*
D17*
X484000Y123000D01*
X522000Y360000D02*
X503000Y379000D01*
X287102Y379000D02*
X236102Y328000D01*
D16*
X236102Y328000D03*
D17*
X287102Y379000D02*
X503000Y379000D01*
X243000Y321102D02*
X236102Y328000D01*
X243000Y321102D02*
X243000Y196000D01*
X227000Y180000D01*
X220000Y180000D01*
D16*
X376000Y129000D03*
D17*
X376000Y123000D01*
X399000Y100000D01*
X422000Y100000D01*
X477000Y100000D01*
D16*
X493000Y145000D03*
D17*
X493000Y116000D01*
X477000Y100000D01*
D16*
X422000Y100000D03*
X524000Y96000D03*
D17*
X575300Y147300D01*
X601900Y147300D01*
D16*
X445000Y126000D03*
D17*
X386000Y126000D01*
X385750Y126250D01*
D16*
X385750Y126250D03*
D17*
X385000Y127000D01*
X385000Y225000D01*
D16*
X385000Y225000D03*
X300000Y247000D03*
D17*
X502000Y247000D01*
D16*
X502000Y247000D03*
M02*
