G04 EAGLE Gerber RS-274X export*
G75*
%MOMM*%
%FSLAX34Y34*%
%LPD*%
%INSilkscreen Top*%
%IPPOS*%
%AMOC8*
5,1,8,0,0,1.08239X$1,22.5*%
G01*
%ADD10C,0.101600*%
%ADD11R,2.000000X13.500000*%
%ADD12R,2.000000X8.000000*%
%ADD13C,0.152400*%
%ADD14C,0.300000*%
%ADD15C,0.203200*%
%ADD16C,0.762000*%
%ADD17R,0.508000X0.762000*%
%ADD18R,1.016000X0.762000*%
%ADD19C,0.127000*%
%ADD20R,0.200000X0.200000*%
%ADD21R,0.150000X0.250000*%

G36*
X280107Y214379D02*
X280107Y214379D01*
X280131Y214379D01*
X280213Y214413D01*
X280298Y214440D01*
X280319Y214456D01*
X280338Y214464D01*
X280376Y214498D01*
X280448Y214552D01*
X295448Y229552D01*
X295499Y229625D01*
X295555Y229694D01*
X295563Y229716D01*
X295577Y229736D01*
X295599Y229822D01*
X295627Y229906D01*
X295627Y229930D01*
X295633Y229953D01*
X295623Y230042D01*
X295621Y230131D01*
X295612Y230153D01*
X295609Y230176D01*
X295570Y230256D01*
X295536Y230338D01*
X295520Y230356D01*
X295510Y230377D01*
X295445Y230438D01*
X295385Y230504D01*
X295364Y230515D01*
X295347Y230531D01*
X295265Y230566D01*
X295185Y230607D01*
X295159Y230610D01*
X295140Y230619D01*
X295090Y230621D01*
X295000Y230634D01*
X280000Y230634D01*
X279935Y230623D01*
X279869Y230621D01*
X279826Y230603D01*
X279779Y230595D01*
X279722Y230561D01*
X279662Y230536D01*
X279627Y230505D01*
X279586Y230480D01*
X279545Y230429D01*
X279496Y230385D01*
X279474Y230343D01*
X279445Y230306D01*
X279424Y230244D01*
X279393Y230185D01*
X279385Y230131D01*
X279373Y230094D01*
X279374Y230054D01*
X279366Y230000D01*
X279366Y215000D01*
X279382Y214912D01*
X279391Y214824D01*
X279401Y214803D01*
X279405Y214779D01*
X279451Y214702D01*
X279490Y214623D01*
X279507Y214606D01*
X279520Y214586D01*
X279589Y214530D01*
X279653Y214469D01*
X279675Y214460D01*
X279694Y214445D01*
X279778Y214416D01*
X279860Y214381D01*
X279884Y214380D01*
X279906Y214373D01*
X279995Y214375D01*
X280084Y214371D01*
X280107Y214379D01*
G37*
G36*
X200107Y214379D02*
X200107Y214379D01*
X200131Y214379D01*
X200213Y214413D01*
X200298Y214440D01*
X200319Y214456D01*
X200338Y214464D01*
X200376Y214498D01*
X200448Y214552D01*
X215448Y229552D01*
X215499Y229625D01*
X215555Y229694D01*
X215563Y229716D01*
X215577Y229736D01*
X215599Y229822D01*
X215627Y229906D01*
X215627Y229930D01*
X215633Y229953D01*
X215623Y230042D01*
X215621Y230131D01*
X215612Y230153D01*
X215609Y230176D01*
X215570Y230256D01*
X215536Y230338D01*
X215520Y230356D01*
X215510Y230377D01*
X215445Y230438D01*
X215385Y230504D01*
X215364Y230515D01*
X215347Y230531D01*
X215265Y230566D01*
X215185Y230607D01*
X215159Y230610D01*
X215140Y230619D01*
X215090Y230621D01*
X215000Y230634D01*
X200000Y230634D01*
X199935Y230623D01*
X199869Y230621D01*
X199826Y230603D01*
X199779Y230595D01*
X199722Y230561D01*
X199662Y230536D01*
X199627Y230505D01*
X199586Y230480D01*
X199545Y230429D01*
X199496Y230385D01*
X199474Y230343D01*
X199445Y230306D01*
X199424Y230244D01*
X199393Y230185D01*
X199385Y230131D01*
X199373Y230094D01*
X199374Y230054D01*
X199366Y230000D01*
X199366Y215000D01*
X199382Y214912D01*
X199391Y214824D01*
X199401Y214803D01*
X199405Y214779D01*
X199451Y214702D01*
X199490Y214623D01*
X199507Y214606D01*
X199520Y214586D01*
X199589Y214530D01*
X199653Y214469D01*
X199675Y214460D01*
X199694Y214445D01*
X199778Y214416D01*
X199860Y214381D01*
X199884Y214380D01*
X199906Y214373D01*
X199995Y214375D01*
X200084Y214371D01*
X200107Y214379D01*
G37*
G36*
X280107Y187379D02*
X280107Y187379D01*
X280131Y187379D01*
X280213Y187413D01*
X280298Y187440D01*
X280319Y187456D01*
X280338Y187464D01*
X280376Y187498D01*
X280448Y187552D01*
X285448Y192552D01*
X285486Y192606D01*
X285531Y192653D01*
X285550Y192697D01*
X285577Y192736D01*
X285593Y192799D01*
X285619Y192860D01*
X285621Y192907D01*
X285633Y192953D01*
X285626Y193018D01*
X285629Y193084D01*
X285614Y193129D01*
X285609Y193176D01*
X285580Y193235D01*
X285560Y193298D01*
X285527Y193342D01*
X285510Y193377D01*
X285481Y193404D01*
X285448Y193448D01*
X280448Y198448D01*
X280375Y198499D01*
X280306Y198555D01*
X280284Y198563D01*
X280264Y198577D01*
X280178Y198599D01*
X280094Y198627D01*
X280070Y198627D01*
X280047Y198633D01*
X279958Y198623D01*
X279869Y198621D01*
X279847Y198612D01*
X279824Y198609D01*
X279744Y198570D01*
X279662Y198536D01*
X279644Y198520D01*
X279623Y198510D01*
X279562Y198445D01*
X279496Y198385D01*
X279485Y198364D01*
X279469Y198347D01*
X279434Y198265D01*
X279393Y198185D01*
X279390Y198159D01*
X279381Y198140D01*
X279379Y198090D01*
X279366Y198000D01*
X279366Y188000D01*
X279382Y187912D01*
X279391Y187824D01*
X279401Y187803D01*
X279405Y187779D01*
X279451Y187702D01*
X279490Y187623D01*
X279507Y187606D01*
X279520Y187586D01*
X279589Y187530D01*
X279653Y187469D01*
X279675Y187460D01*
X279694Y187445D01*
X279778Y187416D01*
X279860Y187381D01*
X279884Y187380D01*
X279906Y187373D01*
X279995Y187375D01*
X280084Y187371D01*
X280107Y187379D01*
G37*
G36*
X200107Y187379D02*
X200107Y187379D01*
X200131Y187379D01*
X200213Y187413D01*
X200298Y187440D01*
X200319Y187456D01*
X200338Y187464D01*
X200376Y187498D01*
X200448Y187552D01*
X205448Y192552D01*
X205486Y192606D01*
X205531Y192653D01*
X205550Y192697D01*
X205577Y192736D01*
X205593Y192799D01*
X205619Y192860D01*
X205621Y192907D01*
X205633Y192953D01*
X205626Y193018D01*
X205629Y193084D01*
X205614Y193129D01*
X205609Y193176D01*
X205580Y193235D01*
X205560Y193298D01*
X205527Y193342D01*
X205510Y193377D01*
X205481Y193404D01*
X205448Y193448D01*
X200448Y198448D01*
X200375Y198499D01*
X200306Y198555D01*
X200284Y198563D01*
X200264Y198577D01*
X200178Y198599D01*
X200094Y198627D01*
X200070Y198627D01*
X200047Y198633D01*
X199958Y198623D01*
X199869Y198621D01*
X199847Y198612D01*
X199824Y198609D01*
X199744Y198570D01*
X199662Y198536D01*
X199644Y198520D01*
X199623Y198510D01*
X199562Y198445D01*
X199496Y198385D01*
X199485Y198364D01*
X199469Y198347D01*
X199434Y198265D01*
X199393Y198185D01*
X199390Y198159D01*
X199381Y198140D01*
X199379Y198090D01*
X199366Y198000D01*
X199366Y188000D01*
X199382Y187912D01*
X199391Y187824D01*
X199401Y187803D01*
X199405Y187779D01*
X199451Y187702D01*
X199490Y187623D01*
X199507Y187606D01*
X199520Y187586D01*
X199589Y187530D01*
X199653Y187469D01*
X199675Y187460D01*
X199694Y187445D01*
X199778Y187416D01*
X199860Y187381D01*
X199884Y187380D01*
X199906Y187373D01*
X199995Y187375D01*
X200084Y187371D01*
X200107Y187379D01*
G37*
G36*
X280107Y161379D02*
X280107Y161379D01*
X280131Y161379D01*
X280213Y161413D01*
X280298Y161440D01*
X280319Y161456D01*
X280338Y161464D01*
X280376Y161498D01*
X280448Y161552D01*
X285448Y166552D01*
X285486Y166606D01*
X285531Y166653D01*
X285550Y166697D01*
X285577Y166736D01*
X285593Y166799D01*
X285619Y166860D01*
X285621Y166907D01*
X285633Y166953D01*
X285626Y167018D01*
X285629Y167084D01*
X285614Y167129D01*
X285609Y167176D01*
X285580Y167235D01*
X285560Y167298D01*
X285527Y167342D01*
X285510Y167377D01*
X285481Y167404D01*
X285448Y167448D01*
X280448Y172448D01*
X280375Y172499D01*
X280306Y172555D01*
X280284Y172563D01*
X280264Y172577D01*
X280178Y172599D01*
X280094Y172627D01*
X280070Y172627D01*
X280047Y172633D01*
X279958Y172623D01*
X279869Y172621D01*
X279847Y172612D01*
X279824Y172609D01*
X279744Y172570D01*
X279662Y172536D01*
X279644Y172520D01*
X279623Y172510D01*
X279562Y172445D01*
X279496Y172385D01*
X279485Y172364D01*
X279469Y172347D01*
X279434Y172265D01*
X279393Y172185D01*
X279390Y172159D01*
X279381Y172140D01*
X279379Y172090D01*
X279366Y172000D01*
X279366Y162000D01*
X279382Y161912D01*
X279391Y161824D01*
X279401Y161803D01*
X279405Y161779D01*
X279451Y161702D01*
X279490Y161623D01*
X279507Y161606D01*
X279520Y161586D01*
X279589Y161530D01*
X279653Y161469D01*
X279675Y161460D01*
X279694Y161445D01*
X279778Y161416D01*
X279860Y161381D01*
X279884Y161380D01*
X279906Y161373D01*
X279995Y161375D01*
X280084Y161371D01*
X280107Y161379D01*
G37*
G36*
X200107Y161379D02*
X200107Y161379D01*
X200131Y161379D01*
X200213Y161413D01*
X200298Y161440D01*
X200319Y161456D01*
X200338Y161464D01*
X200376Y161498D01*
X200448Y161552D01*
X205448Y166552D01*
X205486Y166606D01*
X205531Y166653D01*
X205550Y166697D01*
X205577Y166736D01*
X205593Y166799D01*
X205619Y166860D01*
X205621Y166907D01*
X205633Y166953D01*
X205626Y167018D01*
X205629Y167084D01*
X205614Y167129D01*
X205609Y167176D01*
X205580Y167235D01*
X205560Y167298D01*
X205527Y167342D01*
X205510Y167377D01*
X205481Y167404D01*
X205448Y167448D01*
X200448Y172448D01*
X200375Y172499D01*
X200306Y172555D01*
X200284Y172563D01*
X200264Y172577D01*
X200178Y172599D01*
X200094Y172627D01*
X200070Y172627D01*
X200047Y172633D01*
X199958Y172623D01*
X199869Y172621D01*
X199847Y172612D01*
X199824Y172609D01*
X199744Y172570D01*
X199662Y172536D01*
X199644Y172520D01*
X199623Y172510D01*
X199562Y172445D01*
X199496Y172385D01*
X199485Y172364D01*
X199469Y172347D01*
X199434Y172265D01*
X199393Y172185D01*
X199390Y172159D01*
X199381Y172140D01*
X199379Y172090D01*
X199366Y172000D01*
X199366Y162000D01*
X199382Y161912D01*
X199391Y161824D01*
X199401Y161803D01*
X199405Y161779D01*
X199451Y161702D01*
X199490Y161623D01*
X199507Y161606D01*
X199520Y161586D01*
X199589Y161530D01*
X199653Y161469D01*
X199675Y161460D01*
X199694Y161445D01*
X199778Y161416D01*
X199860Y161381D01*
X199884Y161380D01*
X199906Y161373D01*
X199995Y161375D01*
X200084Y161371D01*
X200107Y161379D01*
G37*
D10*
X385508Y204158D02*
X385508Y215842D01*
X388754Y215842D01*
X388867Y215840D01*
X388980Y215834D01*
X389093Y215824D01*
X389206Y215810D01*
X389318Y215793D01*
X389429Y215771D01*
X389539Y215746D01*
X389649Y215716D01*
X389757Y215683D01*
X389864Y215646D01*
X389970Y215606D01*
X390074Y215561D01*
X390177Y215513D01*
X390278Y215462D01*
X390377Y215407D01*
X390474Y215349D01*
X390569Y215287D01*
X390662Y215222D01*
X390752Y215154D01*
X390840Y215083D01*
X390926Y215008D01*
X391009Y214931D01*
X391089Y214851D01*
X391166Y214768D01*
X391241Y214682D01*
X391312Y214594D01*
X391380Y214504D01*
X391445Y214411D01*
X391507Y214316D01*
X391565Y214219D01*
X391620Y214120D01*
X391671Y214019D01*
X391719Y213916D01*
X391764Y213812D01*
X391804Y213706D01*
X391841Y213599D01*
X391874Y213491D01*
X391904Y213381D01*
X391929Y213271D01*
X391951Y213160D01*
X391968Y213048D01*
X391982Y212935D01*
X391992Y212822D01*
X391998Y212709D01*
X392000Y212596D01*
X391999Y212596D02*
X391999Y207404D01*
X392000Y207404D02*
X391998Y207291D01*
X391992Y207178D01*
X391982Y207065D01*
X391968Y206952D01*
X391951Y206840D01*
X391929Y206729D01*
X391904Y206619D01*
X391874Y206509D01*
X391841Y206401D01*
X391804Y206294D01*
X391764Y206188D01*
X391719Y206084D01*
X391671Y205981D01*
X391620Y205880D01*
X391565Y205781D01*
X391507Y205684D01*
X391445Y205589D01*
X391380Y205496D01*
X391312Y205406D01*
X391241Y205318D01*
X391166Y205232D01*
X391089Y205149D01*
X391009Y205069D01*
X390926Y204992D01*
X390840Y204917D01*
X390752Y204846D01*
X390662Y204778D01*
X390569Y204713D01*
X390474Y204651D01*
X390377Y204593D01*
X390278Y204538D01*
X390177Y204487D01*
X390074Y204439D01*
X389970Y204394D01*
X389864Y204354D01*
X389757Y204317D01*
X389649Y204284D01*
X389539Y204254D01*
X389429Y204229D01*
X389318Y204207D01*
X389206Y204190D01*
X389093Y204176D01*
X388980Y204166D01*
X388867Y204160D01*
X388754Y204158D01*
X385508Y204158D01*
X396670Y204158D02*
X400565Y215842D01*
X404459Y204158D01*
X403486Y207079D02*
X397644Y207079D01*
X411233Y204158D02*
X411233Y215842D01*
X414478Y215842D02*
X407987Y215842D01*
X421901Y215842D02*
X418006Y204158D01*
X425795Y204158D02*
X421901Y215842D01*
X424822Y207079D02*
X418980Y207079D01*
X435532Y204158D02*
X439427Y215842D01*
X443321Y204158D01*
X442348Y207079D02*
X436506Y207079D01*
X446962Y204158D02*
X454751Y215842D01*
X446962Y215842D02*
X454751Y204158D01*
X459041Y213246D02*
X462286Y215842D01*
X462286Y204158D01*
X459041Y204158D02*
X465532Y204158D01*
X476962Y212921D02*
X476960Y213028D01*
X476954Y213134D01*
X476944Y213240D01*
X476931Y213346D01*
X476913Y213452D01*
X476892Y213556D01*
X476867Y213660D01*
X476838Y213763D01*
X476806Y213864D01*
X476769Y213964D01*
X476729Y214063D01*
X476686Y214161D01*
X476639Y214257D01*
X476588Y214351D01*
X476534Y214443D01*
X476477Y214533D01*
X476417Y214621D01*
X476353Y214706D01*
X476286Y214789D01*
X476216Y214870D01*
X476144Y214948D01*
X476068Y215024D01*
X475990Y215096D01*
X475909Y215166D01*
X475826Y215233D01*
X475741Y215297D01*
X475653Y215357D01*
X475563Y215414D01*
X475471Y215468D01*
X475377Y215519D01*
X475281Y215566D01*
X475183Y215609D01*
X475084Y215649D01*
X474984Y215686D01*
X474883Y215718D01*
X474780Y215747D01*
X474676Y215772D01*
X474572Y215793D01*
X474466Y215811D01*
X474360Y215824D01*
X474254Y215834D01*
X474148Y215840D01*
X474041Y215842D01*
X473920Y215840D01*
X473799Y215834D01*
X473679Y215824D01*
X473558Y215811D01*
X473439Y215793D01*
X473319Y215772D01*
X473201Y215747D01*
X473084Y215718D01*
X472967Y215685D01*
X472852Y215649D01*
X472738Y215608D01*
X472625Y215565D01*
X472513Y215517D01*
X472404Y215466D01*
X472296Y215411D01*
X472189Y215353D01*
X472085Y215292D01*
X471983Y215227D01*
X471883Y215159D01*
X471785Y215088D01*
X471689Y215014D01*
X471596Y214937D01*
X471506Y214856D01*
X471418Y214773D01*
X471333Y214687D01*
X471250Y214598D01*
X471171Y214507D01*
X471094Y214413D01*
X471021Y214317D01*
X470951Y214219D01*
X470884Y214118D01*
X470820Y214015D01*
X470760Y213910D01*
X470703Y213803D01*
X470649Y213695D01*
X470599Y213585D01*
X470553Y213473D01*
X470510Y213360D01*
X470471Y213245D01*
X475989Y210649D02*
X476068Y210726D01*
X476144Y210807D01*
X476217Y210890D01*
X476287Y210975D01*
X476354Y211063D01*
X476418Y211153D01*
X476478Y211245D01*
X476535Y211340D01*
X476589Y211436D01*
X476640Y211534D01*
X476687Y211634D01*
X476731Y211736D01*
X476771Y211839D01*
X476807Y211943D01*
X476839Y212049D01*
X476868Y212155D01*
X476893Y212263D01*
X476915Y212371D01*
X476932Y212481D01*
X476946Y212590D01*
X476955Y212700D01*
X476961Y212811D01*
X476963Y212921D01*
X475988Y210649D02*
X470471Y204158D01*
X476962Y204158D01*
X388754Y224158D02*
X388754Y235842D01*
X391999Y235842D02*
X385508Y235842D01*
X398660Y235842D02*
X398660Y224158D01*
X395414Y235842D02*
X401905Y235842D01*
X406486Y235842D02*
X406486Y224158D01*
X411678Y224158D01*
X422084Y224158D02*
X425979Y224158D01*
X426078Y224160D01*
X426178Y224166D01*
X426277Y224175D01*
X426375Y224188D01*
X426473Y224205D01*
X426571Y224226D01*
X426667Y224251D01*
X426762Y224279D01*
X426856Y224311D01*
X426949Y224346D01*
X427041Y224385D01*
X427131Y224428D01*
X427219Y224473D01*
X427306Y224523D01*
X427390Y224575D01*
X427473Y224631D01*
X427553Y224689D01*
X427631Y224751D01*
X427706Y224816D01*
X427779Y224884D01*
X427849Y224954D01*
X427917Y225027D01*
X427982Y225102D01*
X428044Y225180D01*
X428102Y225260D01*
X428158Y225343D01*
X428210Y225427D01*
X428260Y225514D01*
X428305Y225602D01*
X428348Y225692D01*
X428387Y225784D01*
X428422Y225877D01*
X428454Y225971D01*
X428482Y226066D01*
X428507Y226162D01*
X428528Y226260D01*
X428545Y226358D01*
X428558Y226456D01*
X428567Y226555D01*
X428573Y226655D01*
X428575Y226754D01*
X428575Y228053D01*
X428573Y228152D01*
X428567Y228252D01*
X428558Y228351D01*
X428545Y228449D01*
X428528Y228547D01*
X428507Y228645D01*
X428482Y228741D01*
X428454Y228836D01*
X428422Y228930D01*
X428387Y229023D01*
X428348Y229115D01*
X428305Y229205D01*
X428260Y229293D01*
X428210Y229380D01*
X428158Y229464D01*
X428102Y229547D01*
X428044Y229627D01*
X427982Y229705D01*
X427917Y229780D01*
X427849Y229853D01*
X427779Y229923D01*
X427706Y229991D01*
X427631Y230056D01*
X427553Y230118D01*
X427473Y230176D01*
X427390Y230232D01*
X427306Y230284D01*
X427219Y230334D01*
X427131Y230379D01*
X427041Y230422D01*
X426949Y230461D01*
X426856Y230496D01*
X426762Y230528D01*
X426667Y230556D01*
X426571Y230581D01*
X426473Y230602D01*
X426375Y230619D01*
X426277Y230632D01*
X426178Y230641D01*
X426078Y230647D01*
X425979Y230649D01*
X422084Y230649D01*
X422084Y235842D01*
X428575Y235842D01*
X432865Y235842D02*
X436759Y224158D01*
X440654Y235842D01*
X388754Y195842D02*
X388754Y184158D01*
X385508Y195842D02*
X391999Y195842D01*
X398660Y195842D02*
X398660Y184158D01*
X395414Y195842D02*
X401905Y195842D01*
X406486Y195842D02*
X406486Y184158D01*
X411678Y184158D01*
X422084Y184158D02*
X425329Y184158D01*
X425442Y184160D01*
X425555Y184166D01*
X425668Y184176D01*
X425781Y184190D01*
X425893Y184207D01*
X426004Y184229D01*
X426114Y184254D01*
X426224Y184284D01*
X426332Y184317D01*
X426439Y184354D01*
X426545Y184394D01*
X426649Y184439D01*
X426752Y184487D01*
X426853Y184538D01*
X426952Y184593D01*
X427049Y184651D01*
X427144Y184713D01*
X427237Y184778D01*
X427327Y184846D01*
X427415Y184917D01*
X427501Y184992D01*
X427584Y185069D01*
X427664Y185149D01*
X427741Y185232D01*
X427816Y185318D01*
X427887Y185406D01*
X427955Y185496D01*
X428020Y185589D01*
X428082Y185684D01*
X428140Y185781D01*
X428195Y185880D01*
X428246Y185981D01*
X428294Y186084D01*
X428339Y186188D01*
X428379Y186294D01*
X428416Y186401D01*
X428449Y186509D01*
X428479Y186619D01*
X428504Y186729D01*
X428526Y186840D01*
X428543Y186952D01*
X428557Y187065D01*
X428567Y187178D01*
X428573Y187291D01*
X428575Y187404D01*
X428573Y187517D01*
X428567Y187630D01*
X428557Y187743D01*
X428543Y187856D01*
X428526Y187968D01*
X428504Y188079D01*
X428479Y188189D01*
X428449Y188299D01*
X428416Y188407D01*
X428379Y188514D01*
X428339Y188620D01*
X428294Y188724D01*
X428246Y188827D01*
X428195Y188928D01*
X428140Y189027D01*
X428082Y189124D01*
X428020Y189219D01*
X427955Y189312D01*
X427887Y189402D01*
X427816Y189490D01*
X427741Y189576D01*
X427664Y189659D01*
X427584Y189739D01*
X427501Y189816D01*
X427415Y189891D01*
X427327Y189962D01*
X427237Y190030D01*
X427144Y190095D01*
X427049Y190157D01*
X426952Y190215D01*
X426853Y190270D01*
X426752Y190321D01*
X426649Y190369D01*
X426545Y190414D01*
X426439Y190454D01*
X426332Y190491D01*
X426224Y190524D01*
X426114Y190554D01*
X426004Y190579D01*
X425893Y190601D01*
X425781Y190618D01*
X425668Y190632D01*
X425555Y190642D01*
X425442Y190648D01*
X425329Y190650D01*
X425979Y195842D02*
X422084Y195842D01*
X425979Y195842D02*
X426080Y195840D01*
X426180Y195834D01*
X426280Y195824D01*
X426380Y195811D01*
X426479Y195793D01*
X426578Y195772D01*
X426675Y195747D01*
X426772Y195718D01*
X426867Y195685D01*
X426961Y195649D01*
X427053Y195609D01*
X427144Y195566D01*
X427233Y195519D01*
X427320Y195469D01*
X427406Y195415D01*
X427489Y195358D01*
X427569Y195298D01*
X427648Y195235D01*
X427724Y195168D01*
X427797Y195099D01*
X427867Y195027D01*
X427935Y194953D01*
X428000Y194876D01*
X428061Y194796D01*
X428120Y194714D01*
X428175Y194630D01*
X428227Y194544D01*
X428276Y194456D01*
X428321Y194366D01*
X428363Y194274D01*
X428401Y194181D01*
X428435Y194086D01*
X428466Y193991D01*
X428493Y193894D01*
X428516Y193796D01*
X428536Y193697D01*
X428551Y193597D01*
X428563Y193497D01*
X428571Y193397D01*
X428575Y193296D01*
X428575Y193196D01*
X428571Y193095D01*
X428563Y192995D01*
X428551Y192895D01*
X428536Y192795D01*
X428516Y192696D01*
X428493Y192598D01*
X428466Y192501D01*
X428435Y192406D01*
X428401Y192311D01*
X428363Y192218D01*
X428321Y192126D01*
X428276Y192036D01*
X428227Y191948D01*
X428175Y191862D01*
X428120Y191778D01*
X428061Y191696D01*
X428000Y191616D01*
X427935Y191539D01*
X427867Y191465D01*
X427797Y191393D01*
X427724Y191324D01*
X427648Y191257D01*
X427569Y191194D01*
X427489Y191134D01*
X427406Y191077D01*
X427320Y191023D01*
X427233Y190973D01*
X427144Y190926D01*
X427053Y190883D01*
X426961Y190843D01*
X426867Y190807D01*
X426772Y190774D01*
X426675Y190745D01*
X426578Y190720D01*
X426479Y190699D01*
X426380Y190681D01*
X426280Y190668D01*
X426180Y190658D01*
X426080Y190652D01*
X425979Y190650D01*
X425979Y190649D02*
X423382Y190649D01*
X432865Y195842D02*
X436759Y184158D01*
X440654Y195842D01*
X444944Y184158D02*
X448189Y184158D01*
X448302Y184160D01*
X448415Y184166D01*
X448528Y184176D01*
X448641Y184190D01*
X448753Y184207D01*
X448864Y184229D01*
X448974Y184254D01*
X449084Y184284D01*
X449192Y184317D01*
X449299Y184354D01*
X449405Y184394D01*
X449509Y184439D01*
X449612Y184487D01*
X449713Y184538D01*
X449812Y184593D01*
X449909Y184651D01*
X450004Y184713D01*
X450097Y184778D01*
X450187Y184846D01*
X450275Y184917D01*
X450361Y184992D01*
X450444Y185069D01*
X450524Y185149D01*
X450601Y185232D01*
X450676Y185318D01*
X450747Y185406D01*
X450815Y185496D01*
X450880Y185589D01*
X450942Y185684D01*
X451000Y185781D01*
X451055Y185880D01*
X451106Y185981D01*
X451154Y186084D01*
X451199Y186188D01*
X451239Y186294D01*
X451276Y186401D01*
X451309Y186509D01*
X451339Y186619D01*
X451364Y186729D01*
X451386Y186840D01*
X451403Y186952D01*
X451417Y187065D01*
X451427Y187178D01*
X451433Y187291D01*
X451435Y187404D01*
X451433Y187517D01*
X451427Y187630D01*
X451417Y187743D01*
X451403Y187856D01*
X451386Y187968D01*
X451364Y188079D01*
X451339Y188189D01*
X451309Y188299D01*
X451276Y188407D01*
X451239Y188514D01*
X451199Y188620D01*
X451154Y188724D01*
X451106Y188827D01*
X451055Y188928D01*
X451000Y189027D01*
X450942Y189124D01*
X450880Y189219D01*
X450815Y189312D01*
X450747Y189402D01*
X450676Y189490D01*
X450601Y189576D01*
X450524Y189659D01*
X450444Y189739D01*
X450361Y189816D01*
X450275Y189891D01*
X450187Y189962D01*
X450097Y190030D01*
X450004Y190095D01*
X449909Y190157D01*
X449812Y190215D01*
X449713Y190270D01*
X449612Y190321D01*
X449509Y190369D01*
X449405Y190414D01*
X449299Y190454D01*
X449192Y190491D01*
X449084Y190524D01*
X448974Y190554D01*
X448864Y190579D01*
X448753Y190601D01*
X448641Y190618D01*
X448528Y190632D01*
X448415Y190642D01*
X448302Y190648D01*
X448189Y190650D01*
X448839Y195842D02*
X444944Y195842D01*
X448839Y195842D02*
X448940Y195840D01*
X449040Y195834D01*
X449140Y195824D01*
X449240Y195811D01*
X449339Y195793D01*
X449438Y195772D01*
X449535Y195747D01*
X449632Y195718D01*
X449727Y195685D01*
X449821Y195649D01*
X449913Y195609D01*
X450004Y195566D01*
X450093Y195519D01*
X450180Y195469D01*
X450266Y195415D01*
X450349Y195358D01*
X450429Y195298D01*
X450508Y195235D01*
X450584Y195168D01*
X450657Y195099D01*
X450727Y195027D01*
X450795Y194953D01*
X450860Y194876D01*
X450921Y194796D01*
X450980Y194714D01*
X451035Y194630D01*
X451087Y194544D01*
X451136Y194456D01*
X451181Y194366D01*
X451223Y194274D01*
X451261Y194181D01*
X451295Y194086D01*
X451326Y193991D01*
X451353Y193894D01*
X451376Y193796D01*
X451396Y193697D01*
X451411Y193597D01*
X451423Y193497D01*
X451431Y193397D01*
X451435Y193296D01*
X451435Y193196D01*
X451431Y193095D01*
X451423Y192995D01*
X451411Y192895D01*
X451396Y192795D01*
X451376Y192696D01*
X451353Y192598D01*
X451326Y192501D01*
X451295Y192406D01*
X451261Y192311D01*
X451223Y192218D01*
X451181Y192126D01*
X451136Y192036D01*
X451087Y191948D01*
X451035Y191862D01*
X450980Y191778D01*
X450921Y191696D01*
X450860Y191616D01*
X450795Y191539D01*
X450727Y191465D01*
X450657Y191393D01*
X450584Y191324D01*
X450508Y191257D01*
X450429Y191194D01*
X450349Y191134D01*
X450266Y191077D01*
X450180Y191023D01*
X450093Y190973D01*
X450004Y190926D01*
X449913Y190883D01*
X449821Y190843D01*
X449727Y190807D01*
X449632Y190774D01*
X449535Y190745D01*
X449438Y190720D01*
X449339Y190699D01*
X449240Y190681D01*
X449140Y190668D01*
X449040Y190658D01*
X448940Y190652D01*
X448839Y190650D01*
X448839Y190649D02*
X446242Y190649D01*
X385508Y95842D02*
X385508Y84158D01*
X385508Y95842D02*
X388754Y95842D01*
X388867Y95840D01*
X388980Y95834D01*
X389093Y95824D01*
X389206Y95810D01*
X389318Y95793D01*
X389429Y95771D01*
X389539Y95746D01*
X389649Y95716D01*
X389757Y95683D01*
X389864Y95646D01*
X389970Y95606D01*
X390074Y95561D01*
X390177Y95513D01*
X390278Y95462D01*
X390377Y95407D01*
X390474Y95349D01*
X390569Y95287D01*
X390662Y95222D01*
X390752Y95154D01*
X390840Y95083D01*
X390926Y95008D01*
X391009Y94931D01*
X391089Y94851D01*
X391166Y94768D01*
X391241Y94682D01*
X391312Y94594D01*
X391380Y94504D01*
X391445Y94411D01*
X391507Y94316D01*
X391565Y94219D01*
X391620Y94120D01*
X391671Y94019D01*
X391719Y93916D01*
X391764Y93812D01*
X391804Y93706D01*
X391841Y93599D01*
X391874Y93491D01*
X391904Y93381D01*
X391929Y93271D01*
X391951Y93160D01*
X391968Y93048D01*
X391982Y92935D01*
X391992Y92822D01*
X391998Y92709D01*
X392000Y92596D01*
X391999Y92596D02*
X391999Y87404D01*
X392000Y87404D02*
X391998Y87291D01*
X391992Y87178D01*
X391982Y87065D01*
X391968Y86952D01*
X391951Y86840D01*
X391929Y86729D01*
X391904Y86619D01*
X391874Y86509D01*
X391841Y86401D01*
X391804Y86294D01*
X391764Y86188D01*
X391719Y86084D01*
X391671Y85981D01*
X391620Y85880D01*
X391565Y85781D01*
X391507Y85684D01*
X391445Y85589D01*
X391380Y85496D01*
X391312Y85406D01*
X391241Y85318D01*
X391166Y85232D01*
X391089Y85149D01*
X391009Y85069D01*
X390926Y84992D01*
X390840Y84917D01*
X390752Y84846D01*
X390662Y84778D01*
X390569Y84713D01*
X390474Y84651D01*
X390377Y84593D01*
X390278Y84538D01*
X390177Y84487D01*
X390074Y84439D01*
X389970Y84394D01*
X389864Y84354D01*
X389757Y84317D01*
X389649Y84284D01*
X389539Y84254D01*
X389429Y84229D01*
X389318Y84207D01*
X389206Y84190D01*
X389093Y84176D01*
X388980Y84166D01*
X388867Y84160D01*
X388754Y84158D01*
X385508Y84158D01*
X396670Y84158D02*
X400565Y95842D01*
X404459Y84158D01*
X403486Y87079D02*
X397644Y87079D01*
X411233Y84158D02*
X411233Y95842D01*
X414478Y95842D02*
X407987Y95842D01*
X421901Y95842D02*
X418006Y84158D01*
X425795Y84158D02*
X421901Y95842D01*
X424822Y87079D02*
X418980Y87079D01*
X438664Y84158D02*
X438664Y95842D01*
X435419Y95842D02*
X441910Y95842D01*
X446087Y92596D02*
X446087Y87404D01*
X446086Y92596D02*
X446088Y92709D01*
X446094Y92822D01*
X446104Y92935D01*
X446118Y93048D01*
X446135Y93160D01*
X446157Y93271D01*
X446182Y93381D01*
X446212Y93491D01*
X446245Y93599D01*
X446282Y93706D01*
X446322Y93812D01*
X446367Y93916D01*
X446415Y94019D01*
X446466Y94120D01*
X446521Y94219D01*
X446579Y94316D01*
X446641Y94411D01*
X446706Y94504D01*
X446774Y94594D01*
X446845Y94682D01*
X446920Y94768D01*
X446997Y94851D01*
X447077Y94931D01*
X447160Y95008D01*
X447246Y95083D01*
X447334Y95154D01*
X447424Y95222D01*
X447517Y95287D01*
X447612Y95349D01*
X447709Y95407D01*
X447808Y95462D01*
X447909Y95513D01*
X448012Y95561D01*
X448116Y95606D01*
X448222Y95646D01*
X448329Y95683D01*
X448437Y95716D01*
X448547Y95746D01*
X448657Y95771D01*
X448768Y95793D01*
X448880Y95810D01*
X448993Y95824D01*
X449106Y95834D01*
X449219Y95840D01*
X449332Y95842D01*
X449445Y95840D01*
X449558Y95834D01*
X449671Y95824D01*
X449784Y95810D01*
X449896Y95793D01*
X450007Y95771D01*
X450117Y95746D01*
X450227Y95716D01*
X450335Y95683D01*
X450442Y95646D01*
X450548Y95606D01*
X450652Y95561D01*
X450755Y95513D01*
X450856Y95462D01*
X450955Y95407D01*
X451052Y95349D01*
X451147Y95287D01*
X451240Y95222D01*
X451330Y95154D01*
X451418Y95083D01*
X451504Y95008D01*
X451587Y94931D01*
X451667Y94851D01*
X451744Y94768D01*
X451819Y94682D01*
X451890Y94594D01*
X451958Y94504D01*
X452023Y94411D01*
X452085Y94316D01*
X452143Y94219D01*
X452198Y94120D01*
X452249Y94019D01*
X452297Y93916D01*
X452342Y93812D01*
X452382Y93706D01*
X452419Y93599D01*
X452452Y93491D01*
X452482Y93381D01*
X452507Y93271D01*
X452529Y93160D01*
X452546Y93048D01*
X452560Y92935D01*
X452570Y92822D01*
X452576Y92709D01*
X452578Y92596D01*
X452578Y87404D01*
X452576Y87291D01*
X452570Y87178D01*
X452560Y87065D01*
X452546Y86952D01*
X452529Y86840D01*
X452507Y86729D01*
X452482Y86619D01*
X452452Y86509D01*
X452419Y86401D01*
X452382Y86294D01*
X452342Y86188D01*
X452297Y86084D01*
X452249Y85981D01*
X452198Y85880D01*
X452143Y85781D01*
X452085Y85684D01*
X452023Y85589D01*
X451958Y85496D01*
X451890Y85406D01*
X451819Y85318D01*
X451744Y85232D01*
X451667Y85149D01*
X451587Y85069D01*
X451504Y84992D01*
X451418Y84917D01*
X451330Y84846D01*
X451240Y84778D01*
X451147Y84713D01*
X451052Y84651D01*
X450955Y84593D01*
X450856Y84538D01*
X450755Y84487D01*
X450652Y84439D01*
X450548Y84394D01*
X450442Y84354D01*
X450335Y84317D01*
X450227Y84284D01*
X450117Y84254D01*
X450007Y84229D01*
X449896Y84207D01*
X449784Y84190D01*
X449671Y84176D01*
X449558Y84166D01*
X449445Y84160D01*
X449332Y84158D01*
X449219Y84160D01*
X449106Y84166D01*
X448993Y84176D01*
X448880Y84190D01*
X448768Y84207D01*
X448657Y84229D01*
X448547Y84254D01*
X448437Y84284D01*
X448329Y84317D01*
X448222Y84354D01*
X448116Y84394D01*
X448012Y84439D01*
X447909Y84487D01*
X447808Y84538D01*
X447709Y84593D01*
X447612Y84651D01*
X447517Y84713D01*
X447424Y84778D01*
X447334Y84846D01*
X447246Y84917D01*
X447160Y84992D01*
X447077Y85069D01*
X446997Y85149D01*
X446920Y85232D01*
X446845Y85318D01*
X446774Y85406D01*
X446706Y85496D01*
X446641Y85589D01*
X446579Y85684D01*
X446521Y85781D01*
X446466Y85880D01*
X446415Y85981D01*
X446367Y86084D01*
X446322Y86188D01*
X446282Y86294D01*
X446245Y86401D01*
X446212Y86509D01*
X446182Y86619D01*
X446157Y86729D01*
X446135Y86840D01*
X446118Y86952D01*
X446104Y87065D01*
X446094Y87178D01*
X446088Y87291D01*
X446086Y87404D01*
X457920Y84158D02*
X457920Y95842D01*
X463113Y95842D01*
X463113Y90649D02*
X457920Y90649D01*
X388754Y104158D02*
X388754Y115842D01*
X391999Y115842D02*
X385508Y115842D01*
X398660Y115842D02*
X398660Y104158D01*
X395414Y115842D02*
X401905Y115842D01*
X406486Y115842D02*
X406486Y104158D01*
X411678Y104158D01*
X422084Y104158D02*
X425979Y104158D01*
X426078Y104160D01*
X426178Y104166D01*
X426277Y104175D01*
X426375Y104188D01*
X426473Y104205D01*
X426571Y104226D01*
X426667Y104251D01*
X426762Y104279D01*
X426856Y104311D01*
X426949Y104346D01*
X427041Y104385D01*
X427131Y104428D01*
X427219Y104473D01*
X427306Y104523D01*
X427390Y104575D01*
X427473Y104631D01*
X427553Y104689D01*
X427631Y104751D01*
X427706Y104816D01*
X427779Y104884D01*
X427849Y104954D01*
X427917Y105027D01*
X427982Y105102D01*
X428044Y105180D01*
X428102Y105260D01*
X428158Y105343D01*
X428210Y105427D01*
X428260Y105514D01*
X428305Y105602D01*
X428348Y105692D01*
X428387Y105784D01*
X428422Y105877D01*
X428454Y105971D01*
X428482Y106066D01*
X428507Y106162D01*
X428528Y106260D01*
X428545Y106358D01*
X428558Y106456D01*
X428567Y106555D01*
X428573Y106655D01*
X428575Y106754D01*
X428575Y108053D01*
X428573Y108152D01*
X428567Y108252D01*
X428558Y108351D01*
X428545Y108449D01*
X428528Y108547D01*
X428507Y108645D01*
X428482Y108741D01*
X428454Y108836D01*
X428422Y108930D01*
X428387Y109023D01*
X428348Y109115D01*
X428305Y109205D01*
X428260Y109293D01*
X428210Y109380D01*
X428158Y109464D01*
X428102Y109547D01*
X428044Y109627D01*
X427982Y109705D01*
X427917Y109780D01*
X427849Y109853D01*
X427779Y109923D01*
X427706Y109991D01*
X427631Y110056D01*
X427553Y110118D01*
X427473Y110176D01*
X427390Y110232D01*
X427306Y110284D01*
X427219Y110334D01*
X427131Y110379D01*
X427041Y110422D01*
X426949Y110461D01*
X426856Y110496D01*
X426762Y110528D01*
X426667Y110556D01*
X426571Y110581D01*
X426473Y110602D01*
X426375Y110619D01*
X426277Y110632D01*
X426178Y110641D01*
X426078Y110647D01*
X425979Y110649D01*
X422084Y110649D01*
X422084Y115842D01*
X428575Y115842D01*
X432865Y115842D02*
X436759Y104158D01*
X440654Y115842D01*
X388754Y75842D02*
X388754Y64158D01*
X385508Y75842D02*
X391999Y75842D01*
X398660Y75842D02*
X398660Y64158D01*
X395414Y75842D02*
X401905Y75842D01*
X406486Y75842D02*
X406486Y64158D01*
X411678Y64158D01*
X422084Y64158D02*
X425329Y64158D01*
X425442Y64160D01*
X425555Y64166D01*
X425668Y64176D01*
X425781Y64190D01*
X425893Y64207D01*
X426004Y64229D01*
X426114Y64254D01*
X426224Y64284D01*
X426332Y64317D01*
X426439Y64354D01*
X426545Y64394D01*
X426649Y64439D01*
X426752Y64487D01*
X426853Y64538D01*
X426952Y64593D01*
X427049Y64651D01*
X427144Y64713D01*
X427237Y64778D01*
X427327Y64846D01*
X427415Y64917D01*
X427501Y64992D01*
X427584Y65069D01*
X427664Y65149D01*
X427741Y65232D01*
X427816Y65318D01*
X427887Y65406D01*
X427955Y65496D01*
X428020Y65589D01*
X428082Y65684D01*
X428140Y65781D01*
X428195Y65880D01*
X428246Y65981D01*
X428294Y66084D01*
X428339Y66188D01*
X428379Y66294D01*
X428416Y66401D01*
X428449Y66509D01*
X428479Y66619D01*
X428504Y66729D01*
X428526Y66840D01*
X428543Y66952D01*
X428557Y67065D01*
X428567Y67178D01*
X428573Y67291D01*
X428575Y67404D01*
X428573Y67517D01*
X428567Y67630D01*
X428557Y67743D01*
X428543Y67856D01*
X428526Y67968D01*
X428504Y68079D01*
X428479Y68189D01*
X428449Y68299D01*
X428416Y68407D01*
X428379Y68514D01*
X428339Y68620D01*
X428294Y68724D01*
X428246Y68827D01*
X428195Y68928D01*
X428140Y69027D01*
X428082Y69124D01*
X428020Y69219D01*
X427955Y69312D01*
X427887Y69402D01*
X427816Y69490D01*
X427741Y69576D01*
X427664Y69659D01*
X427584Y69739D01*
X427501Y69816D01*
X427415Y69891D01*
X427327Y69962D01*
X427237Y70030D01*
X427144Y70095D01*
X427049Y70157D01*
X426952Y70215D01*
X426853Y70270D01*
X426752Y70321D01*
X426649Y70369D01*
X426545Y70414D01*
X426439Y70454D01*
X426332Y70491D01*
X426224Y70524D01*
X426114Y70554D01*
X426004Y70579D01*
X425893Y70601D01*
X425781Y70618D01*
X425668Y70632D01*
X425555Y70642D01*
X425442Y70648D01*
X425329Y70650D01*
X425979Y75842D02*
X422084Y75842D01*
X425979Y75842D02*
X426080Y75840D01*
X426180Y75834D01*
X426280Y75824D01*
X426380Y75811D01*
X426479Y75793D01*
X426578Y75772D01*
X426675Y75747D01*
X426772Y75718D01*
X426867Y75685D01*
X426961Y75649D01*
X427053Y75609D01*
X427144Y75566D01*
X427233Y75519D01*
X427320Y75469D01*
X427406Y75415D01*
X427489Y75358D01*
X427569Y75298D01*
X427648Y75235D01*
X427724Y75168D01*
X427797Y75099D01*
X427867Y75027D01*
X427935Y74953D01*
X428000Y74876D01*
X428061Y74796D01*
X428120Y74714D01*
X428175Y74630D01*
X428227Y74544D01*
X428276Y74456D01*
X428321Y74366D01*
X428363Y74274D01*
X428401Y74181D01*
X428435Y74086D01*
X428466Y73991D01*
X428493Y73894D01*
X428516Y73796D01*
X428536Y73697D01*
X428551Y73597D01*
X428563Y73497D01*
X428571Y73397D01*
X428575Y73296D01*
X428575Y73196D01*
X428571Y73095D01*
X428563Y72995D01*
X428551Y72895D01*
X428536Y72795D01*
X428516Y72696D01*
X428493Y72598D01*
X428466Y72501D01*
X428435Y72406D01*
X428401Y72311D01*
X428363Y72218D01*
X428321Y72126D01*
X428276Y72036D01*
X428227Y71948D01*
X428175Y71862D01*
X428120Y71778D01*
X428061Y71696D01*
X428000Y71616D01*
X427935Y71539D01*
X427867Y71465D01*
X427797Y71393D01*
X427724Y71324D01*
X427648Y71257D01*
X427569Y71194D01*
X427489Y71134D01*
X427406Y71077D01*
X427320Y71023D01*
X427233Y70973D01*
X427144Y70926D01*
X427053Y70883D01*
X426961Y70843D01*
X426867Y70807D01*
X426772Y70774D01*
X426675Y70745D01*
X426578Y70720D01*
X426479Y70699D01*
X426380Y70681D01*
X426280Y70668D01*
X426180Y70658D01*
X426080Y70652D01*
X425979Y70650D01*
X425979Y70649D02*
X423382Y70649D01*
X432865Y75842D02*
X436759Y64158D01*
X440654Y75842D01*
X444944Y64158D02*
X448189Y64158D01*
X448302Y64160D01*
X448415Y64166D01*
X448528Y64176D01*
X448641Y64190D01*
X448753Y64207D01*
X448864Y64229D01*
X448974Y64254D01*
X449084Y64284D01*
X449192Y64317D01*
X449299Y64354D01*
X449405Y64394D01*
X449509Y64439D01*
X449612Y64487D01*
X449713Y64538D01*
X449812Y64593D01*
X449909Y64651D01*
X450004Y64713D01*
X450097Y64778D01*
X450187Y64846D01*
X450275Y64917D01*
X450361Y64992D01*
X450444Y65069D01*
X450524Y65149D01*
X450601Y65232D01*
X450676Y65318D01*
X450747Y65406D01*
X450815Y65496D01*
X450880Y65589D01*
X450942Y65684D01*
X451000Y65781D01*
X451055Y65880D01*
X451106Y65981D01*
X451154Y66084D01*
X451199Y66188D01*
X451239Y66294D01*
X451276Y66401D01*
X451309Y66509D01*
X451339Y66619D01*
X451364Y66729D01*
X451386Y66840D01*
X451403Y66952D01*
X451417Y67065D01*
X451427Y67178D01*
X451433Y67291D01*
X451435Y67404D01*
X451433Y67517D01*
X451427Y67630D01*
X451417Y67743D01*
X451403Y67856D01*
X451386Y67968D01*
X451364Y68079D01*
X451339Y68189D01*
X451309Y68299D01*
X451276Y68407D01*
X451239Y68514D01*
X451199Y68620D01*
X451154Y68724D01*
X451106Y68827D01*
X451055Y68928D01*
X451000Y69027D01*
X450942Y69124D01*
X450880Y69219D01*
X450815Y69312D01*
X450747Y69402D01*
X450676Y69490D01*
X450601Y69576D01*
X450524Y69659D01*
X450444Y69739D01*
X450361Y69816D01*
X450275Y69891D01*
X450187Y69962D01*
X450097Y70030D01*
X450004Y70095D01*
X449909Y70157D01*
X449812Y70215D01*
X449713Y70270D01*
X449612Y70321D01*
X449509Y70369D01*
X449405Y70414D01*
X449299Y70454D01*
X449192Y70491D01*
X449084Y70524D01*
X448974Y70554D01*
X448864Y70579D01*
X448753Y70601D01*
X448641Y70618D01*
X448528Y70632D01*
X448415Y70642D01*
X448302Y70648D01*
X448189Y70650D01*
X448839Y75842D02*
X444944Y75842D01*
X448839Y75842D02*
X448940Y75840D01*
X449040Y75834D01*
X449140Y75824D01*
X449240Y75811D01*
X449339Y75793D01*
X449438Y75772D01*
X449535Y75747D01*
X449632Y75718D01*
X449727Y75685D01*
X449821Y75649D01*
X449913Y75609D01*
X450004Y75566D01*
X450093Y75519D01*
X450180Y75469D01*
X450266Y75415D01*
X450349Y75358D01*
X450429Y75298D01*
X450508Y75235D01*
X450584Y75168D01*
X450657Y75099D01*
X450727Y75027D01*
X450795Y74953D01*
X450860Y74876D01*
X450921Y74796D01*
X450980Y74714D01*
X451035Y74630D01*
X451087Y74544D01*
X451136Y74456D01*
X451181Y74366D01*
X451223Y74274D01*
X451261Y74181D01*
X451295Y74086D01*
X451326Y73991D01*
X451353Y73894D01*
X451376Y73796D01*
X451396Y73697D01*
X451411Y73597D01*
X451423Y73497D01*
X451431Y73397D01*
X451435Y73296D01*
X451435Y73196D01*
X451431Y73095D01*
X451423Y72995D01*
X451411Y72895D01*
X451396Y72795D01*
X451376Y72696D01*
X451353Y72598D01*
X451326Y72501D01*
X451295Y72406D01*
X451261Y72311D01*
X451223Y72218D01*
X451181Y72126D01*
X451136Y72036D01*
X451087Y71948D01*
X451035Y71862D01*
X450980Y71778D01*
X450921Y71696D01*
X450860Y71616D01*
X450795Y71539D01*
X450727Y71465D01*
X450657Y71393D01*
X450584Y71324D01*
X450508Y71257D01*
X450429Y71194D01*
X450349Y71134D01*
X450266Y71077D01*
X450180Y71023D01*
X450093Y70973D01*
X450004Y70926D01*
X449913Y70883D01*
X449821Y70843D01*
X449727Y70807D01*
X449632Y70774D01*
X449535Y70745D01*
X449438Y70720D01*
X449339Y70699D01*
X449240Y70681D01*
X449140Y70668D01*
X449040Y70658D01*
X448940Y70652D01*
X448839Y70650D01*
X448839Y70649D02*
X446242Y70649D01*
X385508Y35842D02*
X389403Y24158D01*
X393297Y35842D01*
X400150Y24158D02*
X402747Y24158D01*
X400150Y24158D02*
X400051Y24160D01*
X399951Y24166D01*
X399852Y24175D01*
X399754Y24188D01*
X399656Y24205D01*
X399558Y24226D01*
X399462Y24251D01*
X399367Y24279D01*
X399273Y24311D01*
X399180Y24346D01*
X399088Y24385D01*
X398998Y24428D01*
X398910Y24473D01*
X398823Y24523D01*
X398739Y24575D01*
X398656Y24631D01*
X398576Y24689D01*
X398498Y24751D01*
X398423Y24816D01*
X398350Y24884D01*
X398280Y24954D01*
X398212Y25027D01*
X398147Y25102D01*
X398085Y25180D01*
X398027Y25260D01*
X397971Y25343D01*
X397919Y25427D01*
X397869Y25514D01*
X397824Y25602D01*
X397781Y25692D01*
X397742Y25784D01*
X397707Y25877D01*
X397675Y25971D01*
X397647Y26066D01*
X397622Y26162D01*
X397601Y26260D01*
X397584Y26358D01*
X397571Y26456D01*
X397562Y26555D01*
X397556Y26655D01*
X397554Y26754D01*
X397554Y33246D01*
X397556Y33345D01*
X397562Y33445D01*
X397571Y33544D01*
X397584Y33642D01*
X397601Y33740D01*
X397622Y33838D01*
X397647Y33934D01*
X397675Y34029D01*
X397707Y34123D01*
X397742Y34216D01*
X397781Y34308D01*
X397824Y34398D01*
X397869Y34486D01*
X397919Y34573D01*
X397971Y34657D01*
X398027Y34740D01*
X398085Y34820D01*
X398147Y34898D01*
X398212Y34973D01*
X398280Y35046D01*
X398350Y35116D01*
X398423Y35184D01*
X398498Y35249D01*
X398576Y35311D01*
X398656Y35369D01*
X398739Y35425D01*
X398823Y35477D01*
X398910Y35527D01*
X398998Y35572D01*
X399088Y35615D01*
X399180Y35654D01*
X399272Y35689D01*
X399367Y35721D01*
X399462Y35749D01*
X399558Y35774D01*
X399656Y35795D01*
X399754Y35812D01*
X399852Y35825D01*
X399951Y35834D01*
X400051Y35840D01*
X400150Y35842D01*
X402747Y35842D01*
X409675Y24158D02*
X412272Y24158D01*
X409675Y24158D02*
X409576Y24160D01*
X409476Y24166D01*
X409377Y24175D01*
X409279Y24188D01*
X409181Y24205D01*
X409083Y24226D01*
X408987Y24251D01*
X408892Y24279D01*
X408798Y24311D01*
X408705Y24346D01*
X408613Y24385D01*
X408523Y24428D01*
X408435Y24473D01*
X408348Y24523D01*
X408264Y24575D01*
X408181Y24631D01*
X408101Y24689D01*
X408023Y24751D01*
X407948Y24816D01*
X407875Y24884D01*
X407805Y24954D01*
X407737Y25027D01*
X407672Y25102D01*
X407610Y25180D01*
X407552Y25260D01*
X407496Y25343D01*
X407444Y25427D01*
X407394Y25514D01*
X407349Y25602D01*
X407306Y25692D01*
X407267Y25784D01*
X407232Y25877D01*
X407200Y25971D01*
X407172Y26066D01*
X407147Y26162D01*
X407126Y26260D01*
X407109Y26358D01*
X407096Y26456D01*
X407087Y26555D01*
X407081Y26655D01*
X407079Y26754D01*
X407079Y33246D01*
X407081Y33345D01*
X407087Y33445D01*
X407096Y33544D01*
X407109Y33642D01*
X407126Y33740D01*
X407147Y33838D01*
X407172Y33934D01*
X407200Y34029D01*
X407232Y34123D01*
X407267Y34216D01*
X407306Y34308D01*
X407349Y34398D01*
X407394Y34486D01*
X407444Y34573D01*
X407496Y34657D01*
X407552Y34740D01*
X407610Y34820D01*
X407672Y34898D01*
X407737Y34973D01*
X407805Y35046D01*
X407875Y35116D01*
X407948Y35184D01*
X408023Y35249D01*
X408101Y35311D01*
X408181Y35369D01*
X408264Y35425D01*
X408348Y35477D01*
X408435Y35527D01*
X408523Y35572D01*
X408613Y35615D01*
X408705Y35654D01*
X408797Y35689D01*
X408892Y35721D01*
X408987Y35749D01*
X409083Y35774D01*
X409181Y35795D01*
X409279Y35812D01*
X409377Y35825D01*
X409476Y35834D01*
X409576Y35840D01*
X409675Y35842D01*
X412272Y35842D01*
X425217Y35842D02*
X425217Y24158D01*
X421971Y35842D02*
X428462Y35842D01*
X432639Y32596D02*
X432639Y27404D01*
X432639Y32596D02*
X432641Y32709D01*
X432647Y32822D01*
X432657Y32935D01*
X432671Y33048D01*
X432688Y33160D01*
X432710Y33271D01*
X432735Y33381D01*
X432765Y33491D01*
X432798Y33599D01*
X432835Y33706D01*
X432875Y33812D01*
X432920Y33916D01*
X432968Y34019D01*
X433019Y34120D01*
X433074Y34219D01*
X433132Y34316D01*
X433194Y34411D01*
X433259Y34504D01*
X433327Y34594D01*
X433398Y34682D01*
X433473Y34768D01*
X433550Y34851D01*
X433630Y34931D01*
X433713Y35008D01*
X433799Y35083D01*
X433887Y35154D01*
X433977Y35222D01*
X434070Y35287D01*
X434165Y35349D01*
X434262Y35407D01*
X434361Y35462D01*
X434462Y35513D01*
X434565Y35561D01*
X434669Y35606D01*
X434775Y35646D01*
X434882Y35683D01*
X434990Y35716D01*
X435100Y35746D01*
X435210Y35771D01*
X435321Y35793D01*
X435433Y35810D01*
X435546Y35824D01*
X435659Y35834D01*
X435772Y35840D01*
X435885Y35842D01*
X435998Y35840D01*
X436111Y35834D01*
X436224Y35824D01*
X436337Y35810D01*
X436449Y35793D01*
X436560Y35771D01*
X436670Y35746D01*
X436780Y35716D01*
X436888Y35683D01*
X436995Y35646D01*
X437101Y35606D01*
X437205Y35561D01*
X437308Y35513D01*
X437409Y35462D01*
X437508Y35407D01*
X437605Y35349D01*
X437700Y35287D01*
X437793Y35222D01*
X437883Y35154D01*
X437971Y35083D01*
X438057Y35008D01*
X438140Y34931D01*
X438220Y34851D01*
X438297Y34768D01*
X438372Y34682D01*
X438443Y34594D01*
X438511Y34504D01*
X438576Y34411D01*
X438638Y34316D01*
X438696Y34219D01*
X438751Y34120D01*
X438802Y34019D01*
X438850Y33916D01*
X438895Y33812D01*
X438935Y33706D01*
X438972Y33599D01*
X439005Y33491D01*
X439035Y33381D01*
X439060Y33271D01*
X439082Y33160D01*
X439099Y33048D01*
X439113Y32935D01*
X439123Y32822D01*
X439129Y32709D01*
X439131Y32596D01*
X439130Y32596D02*
X439130Y27404D01*
X439131Y27404D02*
X439129Y27291D01*
X439123Y27178D01*
X439113Y27065D01*
X439099Y26952D01*
X439082Y26840D01*
X439060Y26729D01*
X439035Y26619D01*
X439005Y26509D01*
X438972Y26401D01*
X438935Y26294D01*
X438895Y26188D01*
X438850Y26084D01*
X438802Y25981D01*
X438751Y25880D01*
X438696Y25781D01*
X438638Y25684D01*
X438576Y25589D01*
X438511Y25496D01*
X438443Y25406D01*
X438372Y25318D01*
X438297Y25232D01*
X438220Y25149D01*
X438140Y25069D01*
X438057Y24992D01*
X437971Y24917D01*
X437883Y24846D01*
X437793Y24778D01*
X437700Y24713D01*
X437605Y24651D01*
X437508Y24593D01*
X437409Y24538D01*
X437308Y24487D01*
X437205Y24439D01*
X437101Y24394D01*
X436995Y24354D01*
X436888Y24317D01*
X436780Y24284D01*
X436670Y24254D01*
X436560Y24229D01*
X436449Y24207D01*
X436337Y24190D01*
X436224Y24176D01*
X436111Y24166D01*
X435998Y24160D01*
X435885Y24158D01*
X435772Y24160D01*
X435659Y24166D01*
X435546Y24176D01*
X435433Y24190D01*
X435321Y24207D01*
X435210Y24229D01*
X435100Y24254D01*
X434990Y24284D01*
X434882Y24317D01*
X434775Y24354D01*
X434669Y24394D01*
X434565Y24439D01*
X434462Y24487D01*
X434361Y24538D01*
X434262Y24593D01*
X434165Y24651D01*
X434070Y24713D01*
X433977Y24778D01*
X433887Y24846D01*
X433799Y24917D01*
X433713Y24992D01*
X433630Y25069D01*
X433550Y25149D01*
X433473Y25232D01*
X433398Y25318D01*
X433327Y25406D01*
X433259Y25496D01*
X433194Y25589D01*
X433132Y25684D01*
X433074Y25781D01*
X433019Y25880D01*
X432968Y25981D01*
X432920Y26084D01*
X432875Y26188D01*
X432835Y26294D01*
X432798Y26401D01*
X432765Y26509D01*
X432735Y26619D01*
X432710Y26729D01*
X432688Y26840D01*
X432671Y26952D01*
X432657Y27065D01*
X432647Y27178D01*
X432641Y27291D01*
X432639Y27404D01*
X444473Y24158D02*
X444473Y35842D01*
X449666Y35842D01*
X449666Y30649D02*
X444473Y30649D01*
X389403Y44158D02*
X385508Y44158D01*
X389403Y44158D02*
X389502Y44160D01*
X389602Y44166D01*
X389701Y44175D01*
X389799Y44188D01*
X389897Y44205D01*
X389995Y44226D01*
X390091Y44251D01*
X390186Y44279D01*
X390280Y44311D01*
X390373Y44346D01*
X390465Y44385D01*
X390555Y44428D01*
X390643Y44473D01*
X390730Y44523D01*
X390814Y44575D01*
X390897Y44631D01*
X390977Y44689D01*
X391055Y44751D01*
X391130Y44816D01*
X391203Y44884D01*
X391273Y44954D01*
X391341Y45027D01*
X391406Y45102D01*
X391468Y45180D01*
X391526Y45260D01*
X391582Y45343D01*
X391634Y45427D01*
X391684Y45514D01*
X391729Y45602D01*
X391772Y45692D01*
X391811Y45784D01*
X391846Y45877D01*
X391878Y45971D01*
X391906Y46066D01*
X391931Y46162D01*
X391952Y46260D01*
X391969Y46358D01*
X391982Y46456D01*
X391991Y46555D01*
X391997Y46655D01*
X391999Y46754D01*
X391999Y48053D01*
X391997Y48152D01*
X391991Y48252D01*
X391982Y48351D01*
X391969Y48449D01*
X391952Y48547D01*
X391931Y48645D01*
X391906Y48741D01*
X391878Y48836D01*
X391846Y48930D01*
X391811Y49023D01*
X391772Y49115D01*
X391729Y49205D01*
X391684Y49293D01*
X391634Y49380D01*
X391582Y49464D01*
X391526Y49547D01*
X391468Y49627D01*
X391406Y49705D01*
X391341Y49780D01*
X391273Y49853D01*
X391203Y49923D01*
X391130Y49991D01*
X391055Y50056D01*
X390977Y50118D01*
X390897Y50176D01*
X390814Y50232D01*
X390730Y50284D01*
X390643Y50334D01*
X390555Y50379D01*
X390465Y50422D01*
X390373Y50461D01*
X390280Y50496D01*
X390186Y50528D01*
X390091Y50556D01*
X389995Y50581D01*
X389897Y50602D01*
X389799Y50619D01*
X389701Y50632D01*
X389602Y50641D01*
X389502Y50647D01*
X389403Y50649D01*
X385508Y50649D01*
X385508Y55842D01*
X391999Y55842D01*
X396289Y55842D02*
X400184Y44158D01*
X404078Y55842D01*
X388754Y4158D02*
X385508Y4158D01*
X388754Y4158D02*
X388867Y4160D01*
X388980Y4166D01*
X389093Y4176D01*
X389206Y4190D01*
X389318Y4207D01*
X389429Y4229D01*
X389539Y4254D01*
X389649Y4284D01*
X389757Y4317D01*
X389864Y4354D01*
X389970Y4394D01*
X390074Y4439D01*
X390177Y4487D01*
X390278Y4538D01*
X390377Y4593D01*
X390474Y4651D01*
X390569Y4713D01*
X390662Y4778D01*
X390752Y4846D01*
X390840Y4917D01*
X390926Y4992D01*
X391009Y5069D01*
X391089Y5149D01*
X391166Y5232D01*
X391241Y5318D01*
X391312Y5406D01*
X391380Y5496D01*
X391445Y5589D01*
X391507Y5684D01*
X391565Y5781D01*
X391620Y5880D01*
X391671Y5981D01*
X391719Y6084D01*
X391764Y6188D01*
X391804Y6294D01*
X391841Y6401D01*
X391874Y6509D01*
X391904Y6619D01*
X391929Y6729D01*
X391951Y6840D01*
X391968Y6952D01*
X391982Y7065D01*
X391992Y7178D01*
X391998Y7291D01*
X392000Y7404D01*
X391998Y7517D01*
X391992Y7630D01*
X391982Y7743D01*
X391968Y7856D01*
X391951Y7968D01*
X391929Y8079D01*
X391904Y8189D01*
X391874Y8299D01*
X391841Y8407D01*
X391804Y8514D01*
X391764Y8620D01*
X391719Y8724D01*
X391671Y8827D01*
X391620Y8928D01*
X391565Y9027D01*
X391507Y9124D01*
X391445Y9219D01*
X391380Y9312D01*
X391312Y9402D01*
X391241Y9490D01*
X391166Y9576D01*
X391089Y9659D01*
X391009Y9739D01*
X390926Y9816D01*
X390840Y9891D01*
X390752Y9962D01*
X390662Y10030D01*
X390569Y10095D01*
X390474Y10157D01*
X390377Y10215D01*
X390278Y10270D01*
X390177Y10321D01*
X390074Y10369D01*
X389970Y10414D01*
X389864Y10454D01*
X389757Y10491D01*
X389649Y10524D01*
X389539Y10554D01*
X389429Y10579D01*
X389318Y10601D01*
X389206Y10618D01*
X389093Y10632D01*
X388980Y10642D01*
X388867Y10648D01*
X388754Y10650D01*
X389403Y15842D02*
X385508Y15842D01*
X389403Y15842D02*
X389504Y15840D01*
X389604Y15834D01*
X389704Y15824D01*
X389804Y15811D01*
X389903Y15793D01*
X390002Y15772D01*
X390099Y15747D01*
X390196Y15718D01*
X390291Y15685D01*
X390385Y15649D01*
X390477Y15609D01*
X390568Y15566D01*
X390657Y15519D01*
X390744Y15469D01*
X390830Y15415D01*
X390913Y15358D01*
X390993Y15298D01*
X391072Y15235D01*
X391148Y15168D01*
X391221Y15099D01*
X391291Y15027D01*
X391359Y14953D01*
X391424Y14876D01*
X391485Y14796D01*
X391544Y14714D01*
X391599Y14630D01*
X391651Y14544D01*
X391700Y14456D01*
X391745Y14366D01*
X391787Y14274D01*
X391825Y14181D01*
X391859Y14086D01*
X391890Y13991D01*
X391917Y13894D01*
X391940Y13796D01*
X391960Y13697D01*
X391975Y13597D01*
X391987Y13497D01*
X391995Y13397D01*
X391999Y13296D01*
X391999Y13196D01*
X391995Y13095D01*
X391987Y12995D01*
X391975Y12895D01*
X391960Y12795D01*
X391940Y12696D01*
X391917Y12598D01*
X391890Y12501D01*
X391859Y12406D01*
X391825Y12311D01*
X391787Y12218D01*
X391745Y12126D01*
X391700Y12036D01*
X391651Y11948D01*
X391599Y11862D01*
X391544Y11778D01*
X391485Y11696D01*
X391424Y11616D01*
X391359Y11539D01*
X391291Y11465D01*
X391221Y11393D01*
X391148Y11324D01*
X391072Y11257D01*
X390993Y11194D01*
X390913Y11134D01*
X390830Y11077D01*
X390744Y11023D01*
X390657Y10973D01*
X390568Y10926D01*
X390477Y10883D01*
X390385Y10843D01*
X390291Y10807D01*
X390196Y10774D01*
X390099Y10745D01*
X390002Y10720D01*
X389903Y10699D01*
X389804Y10681D01*
X389704Y10668D01*
X389604Y10658D01*
X389504Y10652D01*
X389403Y10650D01*
X389403Y10649D02*
X386806Y10649D01*
X396289Y15842D02*
X400184Y4158D01*
X404078Y15842D01*
X408368Y4158D02*
X411614Y4158D01*
X411727Y4160D01*
X411840Y4166D01*
X411953Y4176D01*
X412066Y4190D01*
X412178Y4207D01*
X412289Y4229D01*
X412399Y4254D01*
X412509Y4284D01*
X412617Y4317D01*
X412724Y4354D01*
X412830Y4394D01*
X412934Y4439D01*
X413037Y4487D01*
X413138Y4538D01*
X413237Y4593D01*
X413334Y4651D01*
X413429Y4713D01*
X413522Y4778D01*
X413612Y4846D01*
X413700Y4917D01*
X413786Y4992D01*
X413869Y5069D01*
X413949Y5149D01*
X414026Y5232D01*
X414101Y5318D01*
X414172Y5406D01*
X414240Y5496D01*
X414305Y5589D01*
X414367Y5684D01*
X414425Y5781D01*
X414480Y5880D01*
X414531Y5981D01*
X414579Y6084D01*
X414624Y6188D01*
X414664Y6294D01*
X414701Y6401D01*
X414734Y6509D01*
X414764Y6619D01*
X414789Y6729D01*
X414811Y6840D01*
X414828Y6952D01*
X414842Y7065D01*
X414852Y7178D01*
X414858Y7291D01*
X414860Y7404D01*
X414858Y7517D01*
X414852Y7630D01*
X414842Y7743D01*
X414828Y7856D01*
X414811Y7968D01*
X414789Y8079D01*
X414764Y8189D01*
X414734Y8299D01*
X414701Y8407D01*
X414664Y8514D01*
X414624Y8620D01*
X414579Y8724D01*
X414531Y8827D01*
X414480Y8928D01*
X414425Y9027D01*
X414367Y9124D01*
X414305Y9219D01*
X414240Y9312D01*
X414172Y9402D01*
X414101Y9490D01*
X414026Y9576D01*
X413949Y9659D01*
X413869Y9739D01*
X413786Y9816D01*
X413700Y9891D01*
X413612Y9962D01*
X413522Y10030D01*
X413429Y10095D01*
X413334Y10157D01*
X413237Y10215D01*
X413138Y10270D01*
X413037Y10321D01*
X412934Y10369D01*
X412830Y10414D01*
X412724Y10454D01*
X412617Y10491D01*
X412509Y10524D01*
X412399Y10554D01*
X412289Y10579D01*
X412178Y10601D01*
X412066Y10618D01*
X411953Y10632D01*
X411840Y10642D01*
X411727Y10648D01*
X411614Y10650D01*
X412263Y15842D02*
X408368Y15842D01*
X412263Y15842D02*
X412364Y15840D01*
X412464Y15834D01*
X412564Y15824D01*
X412664Y15811D01*
X412763Y15793D01*
X412862Y15772D01*
X412959Y15747D01*
X413056Y15718D01*
X413151Y15685D01*
X413245Y15649D01*
X413337Y15609D01*
X413428Y15566D01*
X413517Y15519D01*
X413604Y15469D01*
X413690Y15415D01*
X413773Y15358D01*
X413853Y15298D01*
X413932Y15235D01*
X414008Y15168D01*
X414081Y15099D01*
X414151Y15027D01*
X414219Y14953D01*
X414284Y14876D01*
X414345Y14796D01*
X414404Y14714D01*
X414459Y14630D01*
X414511Y14544D01*
X414560Y14456D01*
X414605Y14366D01*
X414647Y14274D01*
X414685Y14181D01*
X414719Y14086D01*
X414750Y13991D01*
X414777Y13894D01*
X414800Y13796D01*
X414820Y13697D01*
X414835Y13597D01*
X414847Y13497D01*
X414855Y13397D01*
X414859Y13296D01*
X414859Y13196D01*
X414855Y13095D01*
X414847Y12995D01*
X414835Y12895D01*
X414820Y12795D01*
X414800Y12696D01*
X414777Y12598D01*
X414750Y12501D01*
X414719Y12406D01*
X414685Y12311D01*
X414647Y12218D01*
X414605Y12126D01*
X414560Y12036D01*
X414511Y11948D01*
X414459Y11862D01*
X414404Y11778D01*
X414345Y11696D01*
X414284Y11616D01*
X414219Y11539D01*
X414151Y11465D01*
X414081Y11393D01*
X414008Y11324D01*
X413932Y11257D01*
X413853Y11194D01*
X413773Y11134D01*
X413690Y11077D01*
X413604Y11023D01*
X413517Y10973D01*
X413428Y10926D01*
X413337Y10883D01*
X413245Y10843D01*
X413151Y10807D01*
X413056Y10774D01*
X412959Y10745D01*
X412862Y10720D01*
X412763Y10699D01*
X412664Y10681D01*
X412564Y10668D01*
X412464Y10658D01*
X412364Y10652D01*
X412263Y10650D01*
X412263Y10649D02*
X409666Y10649D01*
X368570Y267808D02*
X365324Y267808D01*
X368570Y267808D02*
X368683Y267810D01*
X368796Y267816D01*
X368909Y267826D01*
X369022Y267840D01*
X369134Y267857D01*
X369245Y267879D01*
X369355Y267904D01*
X369465Y267934D01*
X369573Y267967D01*
X369680Y268004D01*
X369786Y268044D01*
X369890Y268089D01*
X369993Y268137D01*
X370094Y268188D01*
X370193Y268243D01*
X370290Y268301D01*
X370385Y268363D01*
X370478Y268428D01*
X370568Y268496D01*
X370656Y268567D01*
X370742Y268642D01*
X370825Y268719D01*
X370905Y268799D01*
X370982Y268882D01*
X371057Y268968D01*
X371128Y269056D01*
X371196Y269146D01*
X371261Y269239D01*
X371323Y269334D01*
X371381Y269431D01*
X371436Y269530D01*
X371487Y269631D01*
X371535Y269734D01*
X371580Y269838D01*
X371620Y269944D01*
X371657Y270051D01*
X371690Y270159D01*
X371720Y270269D01*
X371745Y270379D01*
X371767Y270490D01*
X371784Y270602D01*
X371798Y270715D01*
X371808Y270828D01*
X371814Y270941D01*
X371816Y271054D01*
X371814Y271167D01*
X371808Y271280D01*
X371798Y271393D01*
X371784Y271506D01*
X371767Y271618D01*
X371745Y271729D01*
X371720Y271839D01*
X371690Y271949D01*
X371657Y272057D01*
X371620Y272164D01*
X371580Y272270D01*
X371535Y272374D01*
X371487Y272477D01*
X371436Y272578D01*
X371381Y272677D01*
X371323Y272774D01*
X371261Y272869D01*
X371196Y272962D01*
X371128Y273052D01*
X371057Y273140D01*
X370982Y273226D01*
X370905Y273309D01*
X370825Y273389D01*
X370742Y273466D01*
X370656Y273541D01*
X370568Y273612D01*
X370478Y273680D01*
X370385Y273745D01*
X370290Y273807D01*
X370193Y273865D01*
X370094Y273920D01*
X369993Y273971D01*
X369890Y274019D01*
X369786Y274064D01*
X369680Y274104D01*
X369573Y274141D01*
X369465Y274174D01*
X369355Y274204D01*
X369245Y274229D01*
X369134Y274251D01*
X369022Y274268D01*
X368909Y274282D01*
X368796Y274292D01*
X368683Y274298D01*
X368570Y274300D01*
X369219Y279492D02*
X365324Y279492D01*
X369219Y279492D02*
X369320Y279490D01*
X369420Y279484D01*
X369520Y279474D01*
X369620Y279461D01*
X369719Y279443D01*
X369818Y279422D01*
X369915Y279397D01*
X370012Y279368D01*
X370107Y279335D01*
X370201Y279299D01*
X370293Y279259D01*
X370384Y279216D01*
X370473Y279169D01*
X370560Y279119D01*
X370646Y279065D01*
X370729Y279008D01*
X370809Y278948D01*
X370888Y278885D01*
X370964Y278818D01*
X371037Y278749D01*
X371107Y278677D01*
X371175Y278603D01*
X371240Y278526D01*
X371301Y278446D01*
X371360Y278364D01*
X371415Y278280D01*
X371467Y278194D01*
X371516Y278106D01*
X371561Y278016D01*
X371603Y277924D01*
X371641Y277831D01*
X371675Y277736D01*
X371706Y277641D01*
X371733Y277544D01*
X371756Y277446D01*
X371776Y277347D01*
X371791Y277247D01*
X371803Y277147D01*
X371811Y277047D01*
X371815Y276946D01*
X371815Y276846D01*
X371811Y276745D01*
X371803Y276645D01*
X371791Y276545D01*
X371776Y276445D01*
X371756Y276346D01*
X371733Y276248D01*
X371706Y276151D01*
X371675Y276056D01*
X371641Y275961D01*
X371603Y275868D01*
X371561Y275776D01*
X371516Y275686D01*
X371467Y275598D01*
X371415Y275512D01*
X371360Y275428D01*
X371301Y275346D01*
X371240Y275266D01*
X371175Y275189D01*
X371107Y275115D01*
X371037Y275043D01*
X370964Y274974D01*
X370888Y274907D01*
X370809Y274844D01*
X370729Y274784D01*
X370646Y274727D01*
X370560Y274673D01*
X370473Y274623D01*
X370384Y274576D01*
X370293Y274533D01*
X370201Y274493D01*
X370107Y274457D01*
X370012Y274424D01*
X369915Y274395D01*
X369818Y274370D01*
X369719Y274349D01*
X369620Y274331D01*
X369520Y274318D01*
X369420Y274308D01*
X369320Y274302D01*
X369219Y274300D01*
X369219Y274299D02*
X366623Y274299D01*
X376105Y279492D02*
X380000Y267808D01*
X383895Y279492D01*
X388184Y267808D02*
X391430Y267808D01*
X391543Y267810D01*
X391656Y267816D01*
X391769Y267826D01*
X391882Y267840D01*
X391994Y267857D01*
X392105Y267879D01*
X392215Y267904D01*
X392325Y267934D01*
X392433Y267967D01*
X392540Y268004D01*
X392646Y268044D01*
X392750Y268089D01*
X392853Y268137D01*
X392954Y268188D01*
X393053Y268243D01*
X393150Y268301D01*
X393245Y268363D01*
X393338Y268428D01*
X393428Y268496D01*
X393516Y268567D01*
X393602Y268642D01*
X393685Y268719D01*
X393765Y268799D01*
X393842Y268882D01*
X393917Y268968D01*
X393988Y269056D01*
X394056Y269146D01*
X394121Y269239D01*
X394183Y269334D01*
X394241Y269431D01*
X394296Y269530D01*
X394347Y269631D01*
X394395Y269734D01*
X394440Y269838D01*
X394480Y269944D01*
X394517Y270051D01*
X394550Y270159D01*
X394580Y270269D01*
X394605Y270379D01*
X394627Y270490D01*
X394644Y270602D01*
X394658Y270715D01*
X394668Y270828D01*
X394674Y270941D01*
X394676Y271054D01*
X394674Y271167D01*
X394668Y271280D01*
X394658Y271393D01*
X394644Y271506D01*
X394627Y271618D01*
X394605Y271729D01*
X394580Y271839D01*
X394550Y271949D01*
X394517Y272057D01*
X394480Y272164D01*
X394440Y272270D01*
X394395Y272374D01*
X394347Y272477D01*
X394296Y272578D01*
X394241Y272677D01*
X394183Y272774D01*
X394121Y272869D01*
X394056Y272962D01*
X393988Y273052D01*
X393917Y273140D01*
X393842Y273226D01*
X393765Y273309D01*
X393685Y273389D01*
X393602Y273466D01*
X393516Y273541D01*
X393428Y273612D01*
X393338Y273680D01*
X393245Y273745D01*
X393150Y273807D01*
X393053Y273865D01*
X392954Y273920D01*
X392853Y273971D01*
X392750Y274019D01*
X392646Y274064D01*
X392540Y274104D01*
X392433Y274141D01*
X392325Y274174D01*
X392215Y274204D01*
X392105Y274229D01*
X391994Y274251D01*
X391882Y274268D01*
X391769Y274282D01*
X391656Y274292D01*
X391543Y274298D01*
X391430Y274300D01*
X392079Y279492D02*
X388184Y279492D01*
X392079Y279492D02*
X392180Y279490D01*
X392280Y279484D01*
X392380Y279474D01*
X392480Y279461D01*
X392579Y279443D01*
X392678Y279422D01*
X392775Y279397D01*
X392872Y279368D01*
X392967Y279335D01*
X393061Y279299D01*
X393153Y279259D01*
X393244Y279216D01*
X393333Y279169D01*
X393420Y279119D01*
X393506Y279065D01*
X393589Y279008D01*
X393669Y278948D01*
X393748Y278885D01*
X393824Y278818D01*
X393897Y278749D01*
X393967Y278677D01*
X394035Y278603D01*
X394100Y278526D01*
X394161Y278446D01*
X394220Y278364D01*
X394275Y278280D01*
X394327Y278194D01*
X394376Y278106D01*
X394421Y278016D01*
X394463Y277924D01*
X394501Y277831D01*
X394535Y277736D01*
X394566Y277641D01*
X394593Y277544D01*
X394616Y277446D01*
X394636Y277347D01*
X394651Y277247D01*
X394663Y277147D01*
X394671Y277047D01*
X394675Y276946D01*
X394675Y276846D01*
X394671Y276745D01*
X394663Y276645D01*
X394651Y276545D01*
X394636Y276445D01*
X394616Y276346D01*
X394593Y276248D01*
X394566Y276151D01*
X394535Y276056D01*
X394501Y275961D01*
X394463Y275868D01*
X394421Y275776D01*
X394376Y275686D01*
X394327Y275598D01*
X394275Y275512D01*
X394220Y275428D01*
X394161Y275346D01*
X394100Y275266D01*
X394035Y275189D01*
X393967Y275115D01*
X393897Y275043D01*
X393824Y274974D01*
X393748Y274907D01*
X393669Y274844D01*
X393589Y274784D01*
X393506Y274727D01*
X393420Y274673D01*
X393333Y274623D01*
X393244Y274576D01*
X393153Y274533D01*
X393061Y274493D01*
X392967Y274457D01*
X392872Y274424D01*
X392775Y274395D01*
X392678Y274370D01*
X392579Y274349D01*
X392480Y274331D01*
X392380Y274318D01*
X392280Y274308D01*
X392180Y274302D01*
X392079Y274300D01*
X392079Y274299D02*
X389483Y274299D01*
X450715Y267808D02*
X454610Y267808D01*
X454709Y267810D01*
X454809Y267816D01*
X454908Y267825D01*
X455006Y267838D01*
X455104Y267855D01*
X455202Y267876D01*
X455298Y267901D01*
X455393Y267929D01*
X455487Y267961D01*
X455580Y267996D01*
X455672Y268035D01*
X455762Y268078D01*
X455850Y268123D01*
X455937Y268173D01*
X456021Y268225D01*
X456104Y268281D01*
X456184Y268339D01*
X456262Y268401D01*
X456337Y268466D01*
X456410Y268534D01*
X456480Y268604D01*
X456548Y268677D01*
X456613Y268752D01*
X456675Y268830D01*
X456733Y268910D01*
X456789Y268993D01*
X456841Y269077D01*
X456891Y269164D01*
X456936Y269252D01*
X456979Y269342D01*
X457018Y269434D01*
X457053Y269527D01*
X457085Y269621D01*
X457113Y269716D01*
X457138Y269812D01*
X457159Y269910D01*
X457176Y270008D01*
X457189Y270106D01*
X457198Y270205D01*
X457204Y270305D01*
X457206Y270404D01*
X457206Y271703D01*
X457204Y271802D01*
X457198Y271902D01*
X457189Y272001D01*
X457176Y272099D01*
X457159Y272197D01*
X457138Y272295D01*
X457113Y272391D01*
X457085Y272486D01*
X457053Y272580D01*
X457018Y272673D01*
X456979Y272765D01*
X456936Y272855D01*
X456891Y272943D01*
X456841Y273030D01*
X456789Y273114D01*
X456733Y273197D01*
X456675Y273277D01*
X456613Y273355D01*
X456548Y273430D01*
X456480Y273503D01*
X456410Y273573D01*
X456337Y273641D01*
X456262Y273706D01*
X456184Y273768D01*
X456104Y273826D01*
X456021Y273882D01*
X455937Y273934D01*
X455850Y273984D01*
X455762Y274029D01*
X455672Y274072D01*
X455580Y274111D01*
X455487Y274146D01*
X455393Y274178D01*
X455298Y274206D01*
X455202Y274231D01*
X455104Y274252D01*
X455006Y274269D01*
X454908Y274282D01*
X454809Y274291D01*
X454709Y274297D01*
X454610Y274299D01*
X450715Y274299D01*
X450715Y279492D01*
X457206Y279492D01*
X461496Y279492D02*
X465390Y267808D01*
X469285Y279492D01*
X527095Y279492D02*
X530990Y267808D01*
X534885Y279492D01*
X540134Y279492D02*
X540134Y267808D01*
X538836Y267808D02*
X541432Y267808D01*
X541432Y279492D02*
X538836Y279492D01*
X546414Y279492D02*
X546414Y267808D01*
X552905Y267808D02*
X546414Y279492D01*
X552905Y279492D02*
X552905Y267808D01*
X715508Y152842D02*
X715508Y141158D01*
X715508Y152842D02*
X720701Y152842D01*
X720701Y147649D02*
X715508Y147649D01*
X727494Y152842D02*
X727494Y141158D01*
X724248Y152842D02*
X730740Y152842D01*
X735297Y152842D02*
X735297Y141158D01*
X735297Y152842D02*
X738543Y152842D01*
X738656Y152840D01*
X738769Y152834D01*
X738882Y152824D01*
X738995Y152810D01*
X739107Y152793D01*
X739218Y152771D01*
X739328Y152746D01*
X739438Y152716D01*
X739546Y152683D01*
X739653Y152646D01*
X739759Y152606D01*
X739863Y152561D01*
X739966Y152513D01*
X740067Y152462D01*
X740166Y152407D01*
X740263Y152349D01*
X740358Y152287D01*
X740451Y152222D01*
X740541Y152154D01*
X740629Y152083D01*
X740715Y152008D01*
X740798Y151931D01*
X740878Y151851D01*
X740955Y151768D01*
X741030Y151682D01*
X741101Y151594D01*
X741169Y151504D01*
X741234Y151411D01*
X741296Y151316D01*
X741354Y151219D01*
X741409Y151120D01*
X741460Y151019D01*
X741508Y150916D01*
X741553Y150812D01*
X741593Y150706D01*
X741630Y150599D01*
X741663Y150491D01*
X741693Y150381D01*
X741718Y150271D01*
X741740Y150160D01*
X741757Y150048D01*
X741771Y149935D01*
X741781Y149822D01*
X741787Y149709D01*
X741789Y149596D01*
X741788Y149596D02*
X741788Y144404D01*
X741789Y144404D02*
X741787Y144291D01*
X741781Y144178D01*
X741771Y144065D01*
X741757Y143952D01*
X741740Y143840D01*
X741718Y143729D01*
X741693Y143619D01*
X741663Y143509D01*
X741630Y143401D01*
X741593Y143294D01*
X741553Y143188D01*
X741508Y143084D01*
X741460Y142981D01*
X741409Y142880D01*
X741354Y142781D01*
X741296Y142684D01*
X741234Y142589D01*
X741169Y142496D01*
X741101Y142406D01*
X741030Y142318D01*
X740955Y142232D01*
X740878Y142149D01*
X740798Y142069D01*
X740715Y141992D01*
X740629Y141917D01*
X740541Y141846D01*
X740451Y141778D01*
X740358Y141713D01*
X740263Y141651D01*
X740166Y141593D01*
X740067Y141538D01*
X739966Y141487D01*
X739863Y141439D01*
X739759Y141394D01*
X739653Y141354D01*
X739546Y141317D01*
X739438Y141284D01*
X739328Y141254D01*
X739218Y141229D01*
X739107Y141207D01*
X738995Y141190D01*
X738882Y141176D01*
X738769Y141166D01*
X738656Y141160D01*
X738543Y141158D01*
X735297Y141158D01*
X748068Y141158D02*
X748068Y152842D01*
X746770Y141158D02*
X749366Y141158D01*
X749366Y152842D02*
X746770Y152842D01*
X762546Y152842D02*
X762546Y141158D01*
X759300Y152842D02*
X765791Y152842D01*
X777109Y152842D02*
X769319Y141158D01*
X777109Y141158D02*
X769319Y152842D01*
X715508Y127842D02*
X715508Y116158D01*
X715508Y127842D02*
X720701Y127842D01*
X720701Y122649D02*
X715508Y122649D01*
X727494Y127842D02*
X727494Y116158D01*
X724248Y127842D02*
X730740Y127842D01*
X735297Y127842D02*
X735297Y116158D01*
X735297Y127842D02*
X738543Y127842D01*
X738656Y127840D01*
X738769Y127834D01*
X738882Y127824D01*
X738995Y127810D01*
X739107Y127793D01*
X739218Y127771D01*
X739328Y127746D01*
X739438Y127716D01*
X739546Y127683D01*
X739653Y127646D01*
X739759Y127606D01*
X739863Y127561D01*
X739966Y127513D01*
X740067Y127462D01*
X740166Y127407D01*
X740263Y127349D01*
X740358Y127287D01*
X740451Y127222D01*
X740541Y127154D01*
X740629Y127083D01*
X740715Y127008D01*
X740798Y126931D01*
X740878Y126851D01*
X740955Y126768D01*
X741030Y126682D01*
X741101Y126594D01*
X741169Y126504D01*
X741234Y126411D01*
X741296Y126316D01*
X741354Y126219D01*
X741409Y126120D01*
X741460Y126019D01*
X741508Y125916D01*
X741553Y125812D01*
X741593Y125706D01*
X741630Y125599D01*
X741663Y125491D01*
X741693Y125381D01*
X741718Y125271D01*
X741740Y125160D01*
X741757Y125048D01*
X741771Y124935D01*
X741781Y124822D01*
X741787Y124709D01*
X741789Y124596D01*
X741788Y124596D02*
X741788Y119404D01*
X741789Y119404D02*
X741787Y119291D01*
X741781Y119178D01*
X741771Y119065D01*
X741757Y118952D01*
X741740Y118840D01*
X741718Y118729D01*
X741693Y118619D01*
X741663Y118509D01*
X741630Y118401D01*
X741593Y118294D01*
X741553Y118188D01*
X741508Y118084D01*
X741460Y117981D01*
X741409Y117880D01*
X741354Y117781D01*
X741296Y117684D01*
X741234Y117589D01*
X741169Y117496D01*
X741101Y117406D01*
X741030Y117318D01*
X740955Y117232D01*
X740878Y117149D01*
X740798Y117069D01*
X740715Y116992D01*
X740629Y116917D01*
X740541Y116846D01*
X740451Y116778D01*
X740358Y116713D01*
X740263Y116651D01*
X740166Y116593D01*
X740067Y116538D01*
X739966Y116487D01*
X739863Y116439D01*
X739759Y116394D01*
X739653Y116354D01*
X739546Y116317D01*
X739438Y116284D01*
X739328Y116254D01*
X739218Y116229D01*
X739107Y116207D01*
X738995Y116190D01*
X738882Y116176D01*
X738769Y116166D01*
X738656Y116160D01*
X738543Y116158D01*
X735297Y116158D01*
X748068Y116158D02*
X748068Y127842D01*
X746770Y116158D02*
X749366Y116158D01*
X749366Y127842D02*
X746770Y127842D01*
X760517Y127842D02*
X760517Y116158D01*
X760517Y127842D02*
X763763Y127842D01*
X763876Y127840D01*
X763989Y127834D01*
X764102Y127824D01*
X764215Y127810D01*
X764327Y127793D01*
X764438Y127771D01*
X764548Y127746D01*
X764658Y127716D01*
X764766Y127683D01*
X764873Y127646D01*
X764979Y127606D01*
X765083Y127561D01*
X765186Y127513D01*
X765287Y127462D01*
X765386Y127407D01*
X765483Y127349D01*
X765578Y127287D01*
X765671Y127222D01*
X765761Y127154D01*
X765849Y127083D01*
X765935Y127008D01*
X766018Y126931D01*
X766098Y126851D01*
X766175Y126768D01*
X766250Y126682D01*
X766321Y126594D01*
X766389Y126504D01*
X766454Y126411D01*
X766516Y126316D01*
X766574Y126219D01*
X766629Y126120D01*
X766680Y126019D01*
X766728Y125916D01*
X766773Y125812D01*
X766813Y125706D01*
X766850Y125599D01*
X766883Y125491D01*
X766913Y125381D01*
X766938Y125271D01*
X766960Y125160D01*
X766977Y125048D01*
X766991Y124935D01*
X767001Y124822D01*
X767007Y124709D01*
X767009Y124596D01*
X767007Y124483D01*
X767001Y124370D01*
X766991Y124257D01*
X766977Y124144D01*
X766960Y124032D01*
X766938Y123921D01*
X766913Y123811D01*
X766883Y123701D01*
X766850Y123593D01*
X766813Y123486D01*
X766773Y123380D01*
X766728Y123276D01*
X766680Y123173D01*
X766629Y123072D01*
X766574Y122973D01*
X766516Y122876D01*
X766454Y122781D01*
X766389Y122688D01*
X766321Y122598D01*
X766250Y122510D01*
X766175Y122424D01*
X766098Y122341D01*
X766018Y122261D01*
X765935Y122184D01*
X765849Y122109D01*
X765761Y122038D01*
X765671Y121970D01*
X765578Y121905D01*
X765483Y121843D01*
X765386Y121785D01*
X765287Y121730D01*
X765186Y121679D01*
X765083Y121631D01*
X764979Y121586D01*
X764873Y121546D01*
X764766Y121509D01*
X764658Y121476D01*
X764548Y121446D01*
X764438Y121421D01*
X764327Y121399D01*
X764215Y121382D01*
X764102Y121368D01*
X763989Y121358D01*
X763876Y121352D01*
X763763Y121350D01*
X763763Y121351D02*
X760517Y121351D01*
X764412Y121351D02*
X767008Y116158D01*
X771224Y116158D02*
X779014Y127842D01*
X771224Y127842D02*
X779014Y116158D01*
X715508Y167158D02*
X715508Y178842D01*
X720701Y178842D01*
X720701Y173649D02*
X715508Y173649D01*
X727494Y178842D02*
X727494Y167158D01*
X724248Y178842D02*
X730740Y178842D01*
X735297Y178842D02*
X735297Y167158D01*
X735297Y178842D02*
X738543Y178842D01*
X738656Y178840D01*
X738769Y178834D01*
X738882Y178824D01*
X738995Y178810D01*
X739107Y178793D01*
X739218Y178771D01*
X739328Y178746D01*
X739438Y178716D01*
X739546Y178683D01*
X739653Y178646D01*
X739759Y178606D01*
X739863Y178561D01*
X739966Y178513D01*
X740067Y178462D01*
X740166Y178407D01*
X740263Y178349D01*
X740358Y178287D01*
X740451Y178222D01*
X740541Y178154D01*
X740629Y178083D01*
X740715Y178008D01*
X740798Y177931D01*
X740878Y177851D01*
X740955Y177768D01*
X741030Y177682D01*
X741101Y177594D01*
X741169Y177504D01*
X741234Y177411D01*
X741296Y177316D01*
X741354Y177219D01*
X741409Y177120D01*
X741460Y177019D01*
X741508Y176916D01*
X741553Y176812D01*
X741593Y176706D01*
X741630Y176599D01*
X741663Y176491D01*
X741693Y176381D01*
X741718Y176271D01*
X741740Y176160D01*
X741757Y176048D01*
X741771Y175935D01*
X741781Y175822D01*
X741787Y175709D01*
X741789Y175596D01*
X741788Y175596D02*
X741788Y170404D01*
X741789Y170404D02*
X741787Y170291D01*
X741781Y170178D01*
X741771Y170065D01*
X741757Y169952D01*
X741740Y169840D01*
X741718Y169729D01*
X741693Y169619D01*
X741663Y169509D01*
X741630Y169401D01*
X741593Y169294D01*
X741553Y169188D01*
X741508Y169084D01*
X741460Y168981D01*
X741409Y168880D01*
X741354Y168781D01*
X741296Y168684D01*
X741234Y168589D01*
X741169Y168496D01*
X741101Y168406D01*
X741030Y168318D01*
X740955Y168232D01*
X740878Y168149D01*
X740798Y168069D01*
X740715Y167992D01*
X740629Y167917D01*
X740541Y167846D01*
X740451Y167778D01*
X740358Y167713D01*
X740263Y167651D01*
X740166Y167593D01*
X740067Y167538D01*
X739966Y167487D01*
X739863Y167439D01*
X739759Y167394D01*
X739653Y167354D01*
X739546Y167317D01*
X739438Y167284D01*
X739328Y167254D01*
X739218Y167229D01*
X739107Y167207D01*
X738995Y167190D01*
X738882Y167176D01*
X738769Y167166D01*
X738656Y167160D01*
X738543Y167158D01*
X735297Y167158D01*
X748068Y167158D02*
X748068Y178842D01*
X746770Y167158D02*
X749366Y167158D01*
X749366Y178842D02*
X746770Y178842D01*
X759413Y178842D02*
X763308Y167158D01*
X767203Y178842D01*
X774056Y167158D02*
X776652Y167158D01*
X774056Y167158D02*
X773957Y167160D01*
X773857Y167166D01*
X773758Y167175D01*
X773660Y167188D01*
X773562Y167205D01*
X773464Y167226D01*
X773368Y167251D01*
X773273Y167279D01*
X773179Y167311D01*
X773086Y167346D01*
X772994Y167385D01*
X772904Y167428D01*
X772816Y167473D01*
X772729Y167523D01*
X772645Y167575D01*
X772562Y167631D01*
X772482Y167689D01*
X772404Y167751D01*
X772329Y167816D01*
X772256Y167884D01*
X772186Y167954D01*
X772118Y168027D01*
X772053Y168102D01*
X771991Y168180D01*
X771933Y168260D01*
X771877Y168343D01*
X771825Y168427D01*
X771775Y168514D01*
X771730Y168602D01*
X771687Y168692D01*
X771648Y168784D01*
X771613Y168877D01*
X771581Y168971D01*
X771553Y169066D01*
X771528Y169162D01*
X771507Y169260D01*
X771490Y169358D01*
X771477Y169456D01*
X771468Y169555D01*
X771462Y169655D01*
X771460Y169754D01*
X771459Y169754D02*
X771459Y176246D01*
X771460Y176246D02*
X771462Y176345D01*
X771468Y176445D01*
X771477Y176544D01*
X771490Y176642D01*
X771507Y176740D01*
X771528Y176838D01*
X771553Y176934D01*
X771581Y177029D01*
X771613Y177123D01*
X771648Y177216D01*
X771687Y177308D01*
X771730Y177398D01*
X771775Y177486D01*
X771825Y177573D01*
X771877Y177657D01*
X771933Y177740D01*
X771991Y177820D01*
X772053Y177898D01*
X772118Y177973D01*
X772186Y178046D01*
X772256Y178116D01*
X772329Y178184D01*
X772404Y178249D01*
X772482Y178311D01*
X772562Y178369D01*
X772645Y178425D01*
X772729Y178477D01*
X772816Y178527D01*
X772904Y178572D01*
X772994Y178615D01*
X773086Y178654D01*
X773178Y178689D01*
X773273Y178721D01*
X773368Y178749D01*
X773464Y178774D01*
X773562Y178795D01*
X773660Y178812D01*
X773758Y178825D01*
X773857Y178834D01*
X773957Y178840D01*
X774056Y178842D01*
X776652Y178842D01*
X783581Y167158D02*
X786177Y167158D01*
X783581Y167158D02*
X783482Y167160D01*
X783382Y167166D01*
X783283Y167175D01*
X783185Y167188D01*
X783087Y167205D01*
X782989Y167226D01*
X782893Y167251D01*
X782798Y167279D01*
X782704Y167311D01*
X782611Y167346D01*
X782519Y167385D01*
X782429Y167428D01*
X782341Y167473D01*
X782254Y167523D01*
X782170Y167575D01*
X782087Y167631D01*
X782007Y167689D01*
X781929Y167751D01*
X781854Y167816D01*
X781781Y167884D01*
X781711Y167954D01*
X781643Y168027D01*
X781578Y168102D01*
X781516Y168180D01*
X781458Y168260D01*
X781402Y168343D01*
X781350Y168427D01*
X781300Y168514D01*
X781255Y168602D01*
X781212Y168692D01*
X781173Y168784D01*
X781138Y168877D01*
X781106Y168971D01*
X781078Y169066D01*
X781053Y169162D01*
X781032Y169260D01*
X781015Y169358D01*
X781002Y169456D01*
X780993Y169555D01*
X780987Y169655D01*
X780985Y169754D01*
X780984Y169754D02*
X780984Y176246D01*
X780985Y176246D02*
X780987Y176345D01*
X780993Y176445D01*
X781002Y176544D01*
X781015Y176642D01*
X781032Y176740D01*
X781053Y176838D01*
X781078Y176934D01*
X781106Y177029D01*
X781138Y177123D01*
X781173Y177216D01*
X781212Y177308D01*
X781255Y177398D01*
X781300Y177486D01*
X781350Y177573D01*
X781402Y177657D01*
X781458Y177740D01*
X781516Y177820D01*
X781578Y177898D01*
X781643Y177973D01*
X781711Y178046D01*
X781781Y178116D01*
X781854Y178184D01*
X781929Y178249D01*
X782007Y178311D01*
X782087Y178369D01*
X782170Y178425D01*
X782254Y178477D01*
X782341Y178527D01*
X782429Y178572D01*
X782519Y178615D01*
X782611Y178654D01*
X782703Y178689D01*
X782798Y178721D01*
X782893Y178749D01*
X782989Y178774D01*
X783087Y178795D01*
X783185Y178812D01*
X783283Y178825D01*
X783382Y178834D01*
X783482Y178840D01*
X783581Y178842D01*
X786177Y178842D01*
X721999Y223649D02*
X720052Y223649D01*
X721999Y223649D02*
X721999Y217158D01*
X718104Y217158D01*
X718005Y217160D01*
X717905Y217166D01*
X717806Y217175D01*
X717708Y217188D01*
X717610Y217205D01*
X717512Y217226D01*
X717416Y217251D01*
X717321Y217279D01*
X717227Y217311D01*
X717134Y217346D01*
X717042Y217385D01*
X716952Y217428D01*
X716864Y217473D01*
X716777Y217523D01*
X716693Y217575D01*
X716610Y217631D01*
X716530Y217689D01*
X716452Y217751D01*
X716377Y217816D01*
X716304Y217884D01*
X716234Y217954D01*
X716166Y218027D01*
X716101Y218102D01*
X716039Y218180D01*
X715981Y218260D01*
X715925Y218343D01*
X715873Y218427D01*
X715823Y218514D01*
X715778Y218602D01*
X715735Y218692D01*
X715696Y218784D01*
X715661Y218877D01*
X715629Y218971D01*
X715601Y219066D01*
X715576Y219162D01*
X715555Y219260D01*
X715538Y219358D01*
X715525Y219456D01*
X715516Y219555D01*
X715510Y219655D01*
X715508Y219754D01*
X715508Y226246D01*
X715510Y226345D01*
X715516Y226445D01*
X715525Y226544D01*
X715538Y226642D01*
X715555Y226740D01*
X715576Y226838D01*
X715601Y226934D01*
X715629Y227029D01*
X715661Y227123D01*
X715696Y227216D01*
X715735Y227308D01*
X715778Y227398D01*
X715823Y227486D01*
X715873Y227573D01*
X715925Y227657D01*
X715981Y227740D01*
X716039Y227820D01*
X716101Y227898D01*
X716166Y227973D01*
X716234Y228046D01*
X716304Y228116D01*
X716377Y228184D01*
X716452Y228249D01*
X716530Y228311D01*
X716610Y228369D01*
X716693Y228425D01*
X716777Y228477D01*
X716864Y228527D01*
X716952Y228572D01*
X717042Y228615D01*
X717134Y228654D01*
X717226Y228689D01*
X717321Y228721D01*
X717416Y228749D01*
X717512Y228774D01*
X717610Y228795D01*
X717708Y228812D01*
X717806Y228825D01*
X717905Y228834D01*
X718005Y228840D01*
X718104Y228842D01*
X721999Y228842D01*
X727700Y228842D02*
X727700Y217158D01*
X734191Y217158D02*
X727700Y228842D01*
X734191Y228842D02*
X734191Y217158D01*
X739892Y217158D02*
X739892Y228842D01*
X743137Y228842D01*
X743250Y228840D01*
X743363Y228834D01*
X743476Y228824D01*
X743589Y228810D01*
X743701Y228793D01*
X743812Y228771D01*
X743922Y228746D01*
X744032Y228716D01*
X744140Y228683D01*
X744247Y228646D01*
X744353Y228606D01*
X744457Y228561D01*
X744560Y228513D01*
X744661Y228462D01*
X744760Y228407D01*
X744857Y228349D01*
X744952Y228287D01*
X745045Y228222D01*
X745135Y228154D01*
X745223Y228083D01*
X745309Y228008D01*
X745392Y227931D01*
X745472Y227851D01*
X745549Y227768D01*
X745624Y227682D01*
X745695Y227594D01*
X745763Y227504D01*
X745828Y227411D01*
X745890Y227316D01*
X745948Y227219D01*
X746003Y227120D01*
X746054Y227019D01*
X746102Y226916D01*
X746147Y226812D01*
X746187Y226706D01*
X746224Y226599D01*
X746257Y226491D01*
X746287Y226381D01*
X746312Y226271D01*
X746334Y226160D01*
X746351Y226048D01*
X746365Y225935D01*
X746375Y225822D01*
X746381Y225709D01*
X746383Y225596D01*
X746383Y220404D01*
X746384Y220404D02*
X746382Y220291D01*
X746376Y220178D01*
X746366Y220065D01*
X746352Y219952D01*
X746335Y219840D01*
X746313Y219729D01*
X746288Y219619D01*
X746258Y219509D01*
X746225Y219401D01*
X746188Y219294D01*
X746148Y219188D01*
X746103Y219084D01*
X746055Y218981D01*
X746004Y218880D01*
X745949Y218781D01*
X745891Y218684D01*
X745829Y218589D01*
X745764Y218496D01*
X745696Y218406D01*
X745625Y218318D01*
X745550Y218232D01*
X745473Y218149D01*
X745393Y218069D01*
X745310Y217992D01*
X745224Y217917D01*
X745136Y217846D01*
X745046Y217778D01*
X744953Y217713D01*
X744858Y217651D01*
X744761Y217593D01*
X744662Y217538D01*
X744561Y217487D01*
X744458Y217439D01*
X744354Y217394D01*
X744248Y217354D01*
X744141Y217317D01*
X744033Y217284D01*
X743923Y217254D01*
X743813Y217229D01*
X743702Y217207D01*
X743590Y217190D01*
X743477Y217176D01*
X743364Y217166D01*
X743251Y217160D01*
X743138Y217158D01*
X743137Y217158D02*
X739892Y217158D01*
X535842Y179403D02*
X535842Y175508D01*
X535842Y179403D02*
X535840Y179502D01*
X535834Y179602D01*
X535825Y179701D01*
X535812Y179799D01*
X535795Y179897D01*
X535774Y179995D01*
X535749Y180091D01*
X535721Y180186D01*
X535689Y180280D01*
X535654Y180373D01*
X535615Y180465D01*
X535572Y180555D01*
X535527Y180643D01*
X535477Y180730D01*
X535425Y180814D01*
X535369Y180897D01*
X535311Y180977D01*
X535249Y181055D01*
X535184Y181130D01*
X535116Y181203D01*
X535046Y181273D01*
X534973Y181341D01*
X534898Y181406D01*
X534820Y181468D01*
X534740Y181526D01*
X534657Y181582D01*
X534573Y181634D01*
X534486Y181684D01*
X534398Y181729D01*
X534308Y181772D01*
X534216Y181811D01*
X534123Y181846D01*
X534029Y181878D01*
X533934Y181906D01*
X533838Y181931D01*
X533740Y181952D01*
X533642Y181969D01*
X533544Y181982D01*
X533445Y181991D01*
X533345Y181997D01*
X533246Y181999D01*
X531947Y181999D01*
X531848Y181997D01*
X531748Y181991D01*
X531649Y181982D01*
X531551Y181969D01*
X531453Y181952D01*
X531355Y181931D01*
X531259Y181906D01*
X531164Y181878D01*
X531070Y181846D01*
X530977Y181811D01*
X530885Y181772D01*
X530795Y181729D01*
X530707Y181684D01*
X530620Y181634D01*
X530536Y181582D01*
X530453Y181526D01*
X530373Y181468D01*
X530295Y181406D01*
X530220Y181341D01*
X530147Y181273D01*
X530077Y181203D01*
X530009Y181130D01*
X529944Y181055D01*
X529882Y180977D01*
X529824Y180897D01*
X529768Y180814D01*
X529716Y180730D01*
X529666Y180643D01*
X529621Y180555D01*
X529578Y180465D01*
X529539Y180373D01*
X529504Y180280D01*
X529472Y180186D01*
X529444Y180091D01*
X529419Y179995D01*
X529398Y179897D01*
X529381Y179799D01*
X529368Y179701D01*
X529359Y179602D01*
X529353Y179502D01*
X529351Y179403D01*
X529351Y175508D01*
X524158Y175508D01*
X524158Y181999D01*
X524158Y186289D02*
X535842Y190184D01*
X524158Y194078D01*
X515842Y179403D02*
X515842Y175508D01*
X515842Y179403D02*
X515840Y179502D01*
X515834Y179602D01*
X515825Y179701D01*
X515812Y179799D01*
X515795Y179897D01*
X515774Y179995D01*
X515749Y180091D01*
X515721Y180186D01*
X515689Y180280D01*
X515654Y180373D01*
X515615Y180465D01*
X515572Y180555D01*
X515527Y180643D01*
X515477Y180730D01*
X515425Y180814D01*
X515369Y180897D01*
X515311Y180977D01*
X515249Y181055D01*
X515184Y181130D01*
X515116Y181203D01*
X515046Y181273D01*
X514973Y181341D01*
X514898Y181406D01*
X514820Y181468D01*
X514740Y181526D01*
X514657Y181582D01*
X514573Y181634D01*
X514486Y181684D01*
X514398Y181729D01*
X514308Y181772D01*
X514216Y181811D01*
X514123Y181846D01*
X514029Y181878D01*
X513934Y181906D01*
X513838Y181931D01*
X513740Y181952D01*
X513642Y181969D01*
X513544Y181982D01*
X513445Y181991D01*
X513345Y181997D01*
X513246Y181999D01*
X511947Y181999D01*
X511848Y181997D01*
X511748Y181991D01*
X511649Y181982D01*
X511551Y181969D01*
X511453Y181952D01*
X511355Y181931D01*
X511259Y181906D01*
X511164Y181878D01*
X511070Y181846D01*
X510977Y181811D01*
X510885Y181772D01*
X510795Y181729D01*
X510707Y181684D01*
X510620Y181634D01*
X510536Y181582D01*
X510453Y181526D01*
X510373Y181468D01*
X510295Y181406D01*
X510220Y181341D01*
X510147Y181273D01*
X510077Y181203D01*
X510009Y181130D01*
X509944Y181055D01*
X509882Y180977D01*
X509824Y180897D01*
X509768Y180814D01*
X509716Y180730D01*
X509666Y180643D01*
X509621Y180555D01*
X509578Y180465D01*
X509539Y180373D01*
X509504Y180280D01*
X509472Y180186D01*
X509444Y180091D01*
X509419Y179995D01*
X509398Y179897D01*
X509381Y179799D01*
X509368Y179701D01*
X509359Y179602D01*
X509353Y179502D01*
X509351Y179403D01*
X509351Y175508D01*
X504158Y175508D01*
X504158Y181999D01*
X504158Y186289D02*
X515842Y190184D01*
X504158Y194078D01*
X504158Y204919D02*
X515842Y204919D01*
X504158Y204919D02*
X504158Y208164D01*
X504160Y208277D01*
X504166Y208390D01*
X504176Y208503D01*
X504190Y208616D01*
X504207Y208728D01*
X504229Y208839D01*
X504254Y208949D01*
X504284Y209059D01*
X504317Y209167D01*
X504354Y209274D01*
X504394Y209380D01*
X504439Y209484D01*
X504487Y209587D01*
X504538Y209688D01*
X504593Y209787D01*
X504651Y209884D01*
X504713Y209979D01*
X504778Y210072D01*
X504846Y210162D01*
X504917Y210250D01*
X504992Y210336D01*
X505069Y210419D01*
X505149Y210499D01*
X505232Y210576D01*
X505318Y210651D01*
X505406Y210722D01*
X505496Y210790D01*
X505589Y210855D01*
X505684Y210917D01*
X505781Y210975D01*
X505880Y211030D01*
X505981Y211081D01*
X506084Y211129D01*
X506188Y211174D01*
X506294Y211214D01*
X506401Y211251D01*
X506509Y211284D01*
X506619Y211314D01*
X506729Y211339D01*
X506840Y211361D01*
X506952Y211378D01*
X507065Y211392D01*
X507178Y211402D01*
X507291Y211408D01*
X507404Y211410D01*
X507517Y211408D01*
X507630Y211402D01*
X507743Y211392D01*
X507856Y211378D01*
X507968Y211361D01*
X508079Y211339D01*
X508189Y211314D01*
X508299Y211284D01*
X508407Y211251D01*
X508514Y211214D01*
X508620Y211174D01*
X508724Y211129D01*
X508827Y211081D01*
X508928Y211030D01*
X509027Y210975D01*
X509124Y210917D01*
X509219Y210855D01*
X509312Y210790D01*
X509402Y210722D01*
X509490Y210651D01*
X509576Y210576D01*
X509659Y210499D01*
X509739Y210419D01*
X509816Y210336D01*
X509891Y210250D01*
X509962Y210162D01*
X510030Y210072D01*
X510095Y209979D01*
X510157Y209884D01*
X510215Y209787D01*
X510270Y209688D01*
X510321Y209587D01*
X510369Y209484D01*
X510414Y209380D01*
X510454Y209274D01*
X510491Y209167D01*
X510524Y209059D01*
X510554Y208949D01*
X510579Y208839D01*
X510601Y208728D01*
X510618Y208616D01*
X510632Y208503D01*
X510642Y208390D01*
X510648Y208277D01*
X510650Y208164D01*
X510649Y208164D02*
X510649Y204919D01*
X510649Y208813D02*
X515842Y211410D01*
X515842Y216679D02*
X515842Y221871D01*
X515842Y216679D02*
X504158Y216679D01*
X504158Y221871D01*
X509351Y220573D02*
X509351Y216679D01*
X509351Y231106D02*
X509351Y233053D01*
X515842Y233053D01*
X515842Y229158D01*
X515840Y229059D01*
X515834Y228959D01*
X515825Y228860D01*
X515812Y228762D01*
X515795Y228664D01*
X515774Y228566D01*
X515749Y228470D01*
X515721Y228375D01*
X515689Y228281D01*
X515654Y228188D01*
X515615Y228096D01*
X515572Y228006D01*
X515527Y227918D01*
X515477Y227831D01*
X515425Y227747D01*
X515369Y227664D01*
X515311Y227584D01*
X515249Y227506D01*
X515184Y227431D01*
X515116Y227358D01*
X515046Y227288D01*
X514973Y227220D01*
X514898Y227155D01*
X514820Y227093D01*
X514740Y227035D01*
X514657Y226979D01*
X514573Y226927D01*
X514486Y226877D01*
X514398Y226832D01*
X514308Y226789D01*
X514216Y226750D01*
X514123Y226715D01*
X514029Y226683D01*
X513934Y226655D01*
X513838Y226630D01*
X513740Y226609D01*
X513642Y226592D01*
X513544Y226579D01*
X513445Y226570D01*
X513345Y226564D01*
X513246Y226562D01*
X506754Y226562D01*
X506754Y226561D02*
X506655Y226563D01*
X506555Y226569D01*
X506456Y226578D01*
X506358Y226591D01*
X506260Y226609D01*
X506162Y226629D01*
X506066Y226654D01*
X505970Y226682D01*
X505876Y226714D01*
X505783Y226749D01*
X505692Y226788D01*
X505602Y226831D01*
X505513Y226876D01*
X505427Y226926D01*
X505342Y226978D01*
X505260Y227034D01*
X505180Y227093D01*
X505102Y227154D01*
X505026Y227219D01*
X504953Y227287D01*
X504883Y227357D01*
X504815Y227430D01*
X504750Y227506D01*
X504689Y227584D01*
X504630Y227664D01*
X504574Y227746D01*
X504522Y227831D01*
X504473Y227917D01*
X504427Y228006D01*
X504384Y228096D01*
X504345Y228187D01*
X504310Y228280D01*
X504278Y228374D01*
X504250Y228470D01*
X504225Y228566D01*
X504205Y228664D01*
X504187Y228762D01*
X504174Y228860D01*
X504165Y228959D01*
X504159Y229058D01*
X504157Y229158D01*
X504158Y229158D02*
X504158Y233053D01*
X544158Y175508D02*
X555842Y175508D01*
X544158Y175508D02*
X544158Y180701D01*
X549351Y180701D02*
X549351Y175508D01*
X544158Y187494D02*
X555842Y187494D01*
X544158Y184248D02*
X544158Y190740D01*
X544158Y195297D02*
X555842Y195297D01*
X544158Y195297D02*
X544158Y198543D01*
X544160Y198656D01*
X544166Y198769D01*
X544176Y198882D01*
X544190Y198995D01*
X544207Y199107D01*
X544229Y199218D01*
X544254Y199328D01*
X544284Y199438D01*
X544317Y199546D01*
X544354Y199653D01*
X544394Y199759D01*
X544439Y199863D01*
X544487Y199966D01*
X544538Y200067D01*
X544593Y200166D01*
X544651Y200263D01*
X544713Y200358D01*
X544778Y200451D01*
X544846Y200541D01*
X544917Y200629D01*
X544992Y200715D01*
X545069Y200798D01*
X545149Y200878D01*
X545232Y200955D01*
X545318Y201030D01*
X545406Y201101D01*
X545496Y201169D01*
X545589Y201234D01*
X545684Y201296D01*
X545781Y201354D01*
X545880Y201409D01*
X545981Y201460D01*
X546084Y201508D01*
X546188Y201553D01*
X546294Y201593D01*
X546401Y201630D01*
X546509Y201663D01*
X546619Y201693D01*
X546729Y201718D01*
X546840Y201740D01*
X546952Y201757D01*
X547065Y201771D01*
X547178Y201781D01*
X547291Y201787D01*
X547404Y201789D01*
X547404Y201788D02*
X552596Y201788D01*
X552596Y201789D02*
X552709Y201787D01*
X552822Y201781D01*
X552935Y201771D01*
X553048Y201757D01*
X553160Y201740D01*
X553271Y201718D01*
X553381Y201693D01*
X553491Y201663D01*
X553599Y201630D01*
X553706Y201593D01*
X553812Y201553D01*
X553916Y201508D01*
X554019Y201460D01*
X554120Y201409D01*
X554219Y201354D01*
X554316Y201296D01*
X554411Y201234D01*
X554504Y201169D01*
X554594Y201101D01*
X554682Y201030D01*
X554768Y200955D01*
X554851Y200878D01*
X554931Y200798D01*
X555008Y200715D01*
X555083Y200629D01*
X555154Y200541D01*
X555222Y200451D01*
X555287Y200358D01*
X555349Y200263D01*
X555407Y200166D01*
X555462Y200067D01*
X555513Y199966D01*
X555561Y199863D01*
X555606Y199759D01*
X555646Y199653D01*
X555683Y199546D01*
X555716Y199438D01*
X555746Y199328D01*
X555771Y199218D01*
X555793Y199107D01*
X555810Y198995D01*
X555824Y198882D01*
X555834Y198769D01*
X555840Y198656D01*
X555842Y198543D01*
X555842Y195297D01*
X555842Y208068D02*
X544158Y208068D01*
X555842Y206770D02*
X555842Y209366D01*
X544158Y209366D02*
X544158Y206770D01*
X544158Y219413D02*
X555842Y223308D01*
X544158Y227203D01*
X555842Y234056D02*
X555842Y236652D01*
X555842Y234056D02*
X555840Y233957D01*
X555834Y233857D01*
X555825Y233758D01*
X555812Y233660D01*
X555795Y233562D01*
X555774Y233464D01*
X555749Y233368D01*
X555721Y233273D01*
X555689Y233179D01*
X555654Y233086D01*
X555615Y232994D01*
X555572Y232904D01*
X555527Y232816D01*
X555477Y232729D01*
X555425Y232645D01*
X555369Y232562D01*
X555311Y232482D01*
X555249Y232404D01*
X555184Y232329D01*
X555116Y232256D01*
X555046Y232186D01*
X554973Y232118D01*
X554898Y232053D01*
X554820Y231991D01*
X554740Y231933D01*
X554657Y231877D01*
X554573Y231825D01*
X554486Y231775D01*
X554398Y231730D01*
X554308Y231687D01*
X554216Y231648D01*
X554123Y231613D01*
X554029Y231581D01*
X553934Y231553D01*
X553838Y231528D01*
X553740Y231507D01*
X553642Y231490D01*
X553544Y231477D01*
X553445Y231468D01*
X553345Y231462D01*
X553246Y231460D01*
X553246Y231459D02*
X546754Y231459D01*
X546655Y231461D01*
X546555Y231467D01*
X546456Y231476D01*
X546358Y231489D01*
X546260Y231507D01*
X546162Y231527D01*
X546066Y231552D01*
X545970Y231580D01*
X545876Y231612D01*
X545783Y231647D01*
X545692Y231686D01*
X545602Y231729D01*
X545513Y231774D01*
X545427Y231824D01*
X545342Y231876D01*
X545260Y231932D01*
X545180Y231991D01*
X545102Y232052D01*
X545026Y232117D01*
X544953Y232185D01*
X544883Y232255D01*
X544815Y232328D01*
X544750Y232404D01*
X544689Y232482D01*
X544630Y232562D01*
X544574Y232644D01*
X544522Y232729D01*
X544473Y232815D01*
X544427Y232904D01*
X544384Y232994D01*
X544345Y233085D01*
X544310Y233178D01*
X544278Y233272D01*
X544250Y233368D01*
X544225Y233464D01*
X544205Y233562D01*
X544187Y233660D01*
X544174Y233758D01*
X544165Y233857D01*
X544159Y233956D01*
X544157Y234056D01*
X544158Y234056D02*
X544158Y236652D01*
X555842Y243581D02*
X555842Y246177D01*
X555842Y243581D02*
X555840Y243482D01*
X555834Y243382D01*
X555825Y243283D01*
X555812Y243185D01*
X555795Y243087D01*
X555774Y242989D01*
X555749Y242893D01*
X555721Y242798D01*
X555689Y242704D01*
X555654Y242611D01*
X555615Y242519D01*
X555572Y242429D01*
X555527Y242341D01*
X555477Y242254D01*
X555425Y242170D01*
X555369Y242087D01*
X555311Y242007D01*
X555249Y241929D01*
X555184Y241854D01*
X555116Y241781D01*
X555046Y241711D01*
X554973Y241643D01*
X554898Y241578D01*
X554820Y241516D01*
X554740Y241458D01*
X554657Y241402D01*
X554573Y241350D01*
X554486Y241300D01*
X554398Y241255D01*
X554308Y241212D01*
X554216Y241173D01*
X554123Y241138D01*
X554029Y241106D01*
X553934Y241078D01*
X553838Y241053D01*
X553740Y241032D01*
X553642Y241015D01*
X553544Y241002D01*
X553445Y240993D01*
X553345Y240987D01*
X553246Y240985D01*
X553246Y240984D02*
X546754Y240984D01*
X546655Y240986D01*
X546555Y240992D01*
X546456Y241001D01*
X546358Y241014D01*
X546260Y241032D01*
X546162Y241052D01*
X546066Y241077D01*
X545970Y241105D01*
X545876Y241137D01*
X545783Y241172D01*
X545692Y241211D01*
X545602Y241254D01*
X545513Y241299D01*
X545427Y241349D01*
X545342Y241401D01*
X545260Y241457D01*
X545180Y241516D01*
X545102Y241577D01*
X545026Y241642D01*
X544953Y241710D01*
X544883Y241780D01*
X544815Y241853D01*
X544750Y241929D01*
X544689Y242007D01*
X544630Y242087D01*
X544574Y242169D01*
X544522Y242254D01*
X544473Y242340D01*
X544427Y242429D01*
X544384Y242519D01*
X544345Y242610D01*
X544310Y242703D01*
X544278Y242797D01*
X544250Y242893D01*
X544225Y242989D01*
X544205Y243087D01*
X544187Y243185D01*
X544174Y243283D01*
X544165Y243382D01*
X544159Y243481D01*
X544157Y243581D01*
X544158Y243581D02*
X544158Y246177D01*
D11*
X410000Y332500D03*
X490000Y332500D03*
X570000Y332500D03*
D12*
X650000Y360000D03*
D13*
X360419Y308194D02*
X349581Y308194D01*
X355000Y313612D02*
X355000Y302775D01*
D14*
X345000Y310000D02*
X345003Y310245D01*
X345012Y310491D01*
X345027Y310736D01*
X345048Y310980D01*
X345075Y311224D01*
X345108Y311467D01*
X345147Y311710D01*
X345192Y311951D01*
X345243Y312191D01*
X345300Y312430D01*
X345362Y312667D01*
X345431Y312903D01*
X345505Y313137D01*
X345585Y313369D01*
X345670Y313599D01*
X345761Y313827D01*
X345858Y314052D01*
X345960Y314276D01*
X346068Y314496D01*
X346181Y314714D01*
X346299Y314929D01*
X346423Y315141D01*
X346551Y315350D01*
X346685Y315556D01*
X346824Y315758D01*
X346968Y315957D01*
X347117Y316152D01*
X347270Y316344D01*
X347428Y316532D01*
X347590Y316716D01*
X347758Y316895D01*
X347929Y317071D01*
X348105Y317242D01*
X348284Y317410D01*
X348468Y317572D01*
X348656Y317730D01*
X348848Y317883D01*
X349043Y318032D01*
X349242Y318176D01*
X349444Y318315D01*
X349650Y318449D01*
X349859Y318577D01*
X350071Y318701D01*
X350286Y318819D01*
X350504Y318932D01*
X350724Y319040D01*
X350948Y319142D01*
X351173Y319239D01*
X351401Y319330D01*
X351631Y319415D01*
X351863Y319495D01*
X352097Y319569D01*
X352333Y319638D01*
X352570Y319700D01*
X352809Y319757D01*
X353049Y319808D01*
X353290Y319853D01*
X353533Y319892D01*
X353776Y319925D01*
X354020Y319952D01*
X354264Y319973D01*
X354509Y319988D01*
X354755Y319997D01*
X355000Y320000D01*
X355245Y319997D01*
X355491Y319988D01*
X355736Y319973D01*
X355980Y319952D01*
X356224Y319925D01*
X356467Y319892D01*
X356710Y319853D01*
X356951Y319808D01*
X357191Y319757D01*
X357430Y319700D01*
X357667Y319638D01*
X357903Y319569D01*
X358137Y319495D01*
X358369Y319415D01*
X358599Y319330D01*
X358827Y319239D01*
X359052Y319142D01*
X359276Y319040D01*
X359496Y318932D01*
X359714Y318819D01*
X359929Y318701D01*
X360141Y318577D01*
X360350Y318449D01*
X360556Y318315D01*
X360758Y318176D01*
X360957Y318032D01*
X361152Y317883D01*
X361344Y317730D01*
X361532Y317572D01*
X361716Y317410D01*
X361895Y317242D01*
X362071Y317071D01*
X362242Y316895D01*
X362410Y316716D01*
X362572Y316532D01*
X362730Y316344D01*
X362883Y316152D01*
X363032Y315957D01*
X363176Y315758D01*
X363315Y315556D01*
X363449Y315350D01*
X363577Y315141D01*
X363701Y314929D01*
X363819Y314714D01*
X363932Y314496D01*
X364040Y314276D01*
X364142Y314052D01*
X364239Y313827D01*
X364330Y313599D01*
X364415Y313369D01*
X364495Y313137D01*
X364569Y312903D01*
X364638Y312667D01*
X364700Y312430D01*
X364757Y312191D01*
X364808Y311951D01*
X364853Y311710D01*
X364892Y311467D01*
X364925Y311224D01*
X364952Y310980D01*
X364973Y310736D01*
X364988Y310491D01*
X364997Y310245D01*
X365000Y310000D01*
X364997Y309755D01*
X364988Y309509D01*
X364973Y309264D01*
X364952Y309020D01*
X364925Y308776D01*
X364892Y308533D01*
X364853Y308290D01*
X364808Y308049D01*
X364757Y307809D01*
X364700Y307570D01*
X364638Y307333D01*
X364569Y307097D01*
X364495Y306863D01*
X364415Y306631D01*
X364330Y306401D01*
X364239Y306173D01*
X364142Y305948D01*
X364040Y305724D01*
X363932Y305504D01*
X363819Y305286D01*
X363701Y305071D01*
X363577Y304859D01*
X363449Y304650D01*
X363315Y304444D01*
X363176Y304242D01*
X363032Y304043D01*
X362883Y303848D01*
X362730Y303656D01*
X362572Y303468D01*
X362410Y303284D01*
X362242Y303105D01*
X362071Y302929D01*
X361895Y302758D01*
X361716Y302590D01*
X361532Y302428D01*
X361344Y302270D01*
X361152Y302117D01*
X360957Y301968D01*
X360758Y301824D01*
X360556Y301685D01*
X360350Y301551D01*
X360141Y301423D01*
X359929Y301299D01*
X359714Y301181D01*
X359496Y301068D01*
X359276Y300960D01*
X359052Y300858D01*
X358827Y300761D01*
X358599Y300670D01*
X358369Y300585D01*
X358137Y300505D01*
X357903Y300431D01*
X357667Y300362D01*
X357430Y300300D01*
X357191Y300243D01*
X356951Y300192D01*
X356710Y300147D01*
X356467Y300108D01*
X356224Y300075D01*
X355980Y300048D01*
X355736Y300027D01*
X355491Y300012D01*
X355245Y300003D01*
X355000Y300000D01*
X354755Y300003D01*
X354509Y300012D01*
X354264Y300027D01*
X354020Y300048D01*
X353776Y300075D01*
X353533Y300108D01*
X353290Y300147D01*
X353049Y300192D01*
X352809Y300243D01*
X352570Y300300D01*
X352333Y300362D01*
X352097Y300431D01*
X351863Y300505D01*
X351631Y300585D01*
X351401Y300670D01*
X351173Y300761D01*
X350948Y300858D01*
X350724Y300960D01*
X350504Y301068D01*
X350286Y301181D01*
X350071Y301299D01*
X349859Y301423D01*
X349650Y301551D01*
X349444Y301685D01*
X349242Y301824D01*
X349043Y301968D01*
X348848Y302117D01*
X348656Y302270D01*
X348468Y302428D01*
X348284Y302590D01*
X348105Y302758D01*
X347929Y302929D01*
X347758Y303105D01*
X347590Y303284D01*
X347428Y303468D01*
X347270Y303656D01*
X347117Y303848D01*
X346968Y304043D01*
X346824Y304242D01*
X346685Y304444D01*
X346551Y304650D01*
X346423Y304859D01*
X346299Y305071D01*
X346181Y305286D01*
X346068Y305504D01*
X345960Y305724D01*
X345858Y305948D01*
X345761Y306173D01*
X345670Y306401D01*
X345585Y306631D01*
X345505Y306863D01*
X345431Y307097D01*
X345362Y307333D01*
X345300Y307570D01*
X345243Y307809D01*
X345192Y308049D01*
X345147Y308290D01*
X345108Y308533D01*
X345075Y308776D01*
X345048Y309020D01*
X345027Y309264D01*
X345012Y309509D01*
X345003Y309755D01*
X345000Y310000D01*
D13*
X429581Y308194D02*
X440419Y308194D01*
X435000Y313612D02*
X435000Y302775D01*
D14*
X425000Y310000D02*
X425003Y310245D01*
X425012Y310491D01*
X425027Y310736D01*
X425048Y310980D01*
X425075Y311224D01*
X425108Y311467D01*
X425147Y311710D01*
X425192Y311951D01*
X425243Y312191D01*
X425300Y312430D01*
X425362Y312667D01*
X425431Y312903D01*
X425505Y313137D01*
X425585Y313369D01*
X425670Y313599D01*
X425761Y313827D01*
X425858Y314052D01*
X425960Y314276D01*
X426068Y314496D01*
X426181Y314714D01*
X426299Y314929D01*
X426423Y315141D01*
X426551Y315350D01*
X426685Y315556D01*
X426824Y315758D01*
X426968Y315957D01*
X427117Y316152D01*
X427270Y316344D01*
X427428Y316532D01*
X427590Y316716D01*
X427758Y316895D01*
X427929Y317071D01*
X428105Y317242D01*
X428284Y317410D01*
X428468Y317572D01*
X428656Y317730D01*
X428848Y317883D01*
X429043Y318032D01*
X429242Y318176D01*
X429444Y318315D01*
X429650Y318449D01*
X429859Y318577D01*
X430071Y318701D01*
X430286Y318819D01*
X430504Y318932D01*
X430724Y319040D01*
X430948Y319142D01*
X431173Y319239D01*
X431401Y319330D01*
X431631Y319415D01*
X431863Y319495D01*
X432097Y319569D01*
X432333Y319638D01*
X432570Y319700D01*
X432809Y319757D01*
X433049Y319808D01*
X433290Y319853D01*
X433533Y319892D01*
X433776Y319925D01*
X434020Y319952D01*
X434264Y319973D01*
X434509Y319988D01*
X434755Y319997D01*
X435000Y320000D01*
X435245Y319997D01*
X435491Y319988D01*
X435736Y319973D01*
X435980Y319952D01*
X436224Y319925D01*
X436467Y319892D01*
X436710Y319853D01*
X436951Y319808D01*
X437191Y319757D01*
X437430Y319700D01*
X437667Y319638D01*
X437903Y319569D01*
X438137Y319495D01*
X438369Y319415D01*
X438599Y319330D01*
X438827Y319239D01*
X439052Y319142D01*
X439276Y319040D01*
X439496Y318932D01*
X439714Y318819D01*
X439929Y318701D01*
X440141Y318577D01*
X440350Y318449D01*
X440556Y318315D01*
X440758Y318176D01*
X440957Y318032D01*
X441152Y317883D01*
X441344Y317730D01*
X441532Y317572D01*
X441716Y317410D01*
X441895Y317242D01*
X442071Y317071D01*
X442242Y316895D01*
X442410Y316716D01*
X442572Y316532D01*
X442730Y316344D01*
X442883Y316152D01*
X443032Y315957D01*
X443176Y315758D01*
X443315Y315556D01*
X443449Y315350D01*
X443577Y315141D01*
X443701Y314929D01*
X443819Y314714D01*
X443932Y314496D01*
X444040Y314276D01*
X444142Y314052D01*
X444239Y313827D01*
X444330Y313599D01*
X444415Y313369D01*
X444495Y313137D01*
X444569Y312903D01*
X444638Y312667D01*
X444700Y312430D01*
X444757Y312191D01*
X444808Y311951D01*
X444853Y311710D01*
X444892Y311467D01*
X444925Y311224D01*
X444952Y310980D01*
X444973Y310736D01*
X444988Y310491D01*
X444997Y310245D01*
X445000Y310000D01*
X444997Y309755D01*
X444988Y309509D01*
X444973Y309264D01*
X444952Y309020D01*
X444925Y308776D01*
X444892Y308533D01*
X444853Y308290D01*
X444808Y308049D01*
X444757Y307809D01*
X444700Y307570D01*
X444638Y307333D01*
X444569Y307097D01*
X444495Y306863D01*
X444415Y306631D01*
X444330Y306401D01*
X444239Y306173D01*
X444142Y305948D01*
X444040Y305724D01*
X443932Y305504D01*
X443819Y305286D01*
X443701Y305071D01*
X443577Y304859D01*
X443449Y304650D01*
X443315Y304444D01*
X443176Y304242D01*
X443032Y304043D01*
X442883Y303848D01*
X442730Y303656D01*
X442572Y303468D01*
X442410Y303284D01*
X442242Y303105D01*
X442071Y302929D01*
X441895Y302758D01*
X441716Y302590D01*
X441532Y302428D01*
X441344Y302270D01*
X441152Y302117D01*
X440957Y301968D01*
X440758Y301824D01*
X440556Y301685D01*
X440350Y301551D01*
X440141Y301423D01*
X439929Y301299D01*
X439714Y301181D01*
X439496Y301068D01*
X439276Y300960D01*
X439052Y300858D01*
X438827Y300761D01*
X438599Y300670D01*
X438369Y300585D01*
X438137Y300505D01*
X437903Y300431D01*
X437667Y300362D01*
X437430Y300300D01*
X437191Y300243D01*
X436951Y300192D01*
X436710Y300147D01*
X436467Y300108D01*
X436224Y300075D01*
X435980Y300048D01*
X435736Y300027D01*
X435491Y300012D01*
X435245Y300003D01*
X435000Y300000D01*
X434755Y300003D01*
X434509Y300012D01*
X434264Y300027D01*
X434020Y300048D01*
X433776Y300075D01*
X433533Y300108D01*
X433290Y300147D01*
X433049Y300192D01*
X432809Y300243D01*
X432570Y300300D01*
X432333Y300362D01*
X432097Y300431D01*
X431863Y300505D01*
X431631Y300585D01*
X431401Y300670D01*
X431173Y300761D01*
X430948Y300858D01*
X430724Y300960D01*
X430504Y301068D01*
X430286Y301181D01*
X430071Y301299D01*
X429859Y301423D01*
X429650Y301551D01*
X429444Y301685D01*
X429242Y301824D01*
X429043Y301968D01*
X428848Y302117D01*
X428656Y302270D01*
X428468Y302428D01*
X428284Y302590D01*
X428105Y302758D01*
X427929Y302929D01*
X427758Y303105D01*
X427590Y303284D01*
X427428Y303468D01*
X427270Y303656D01*
X427117Y303848D01*
X426968Y304043D01*
X426824Y304242D01*
X426685Y304444D01*
X426551Y304650D01*
X426423Y304859D01*
X426299Y305071D01*
X426181Y305286D01*
X426068Y305504D01*
X425960Y305724D01*
X425858Y305948D01*
X425761Y306173D01*
X425670Y306401D01*
X425585Y306631D01*
X425505Y306863D01*
X425431Y307097D01*
X425362Y307333D01*
X425300Y307570D01*
X425243Y307809D01*
X425192Y308049D01*
X425147Y308290D01*
X425108Y308533D01*
X425075Y308776D01*
X425048Y309020D01*
X425027Y309264D01*
X425012Y309509D01*
X425003Y309755D01*
X425000Y310000D01*
D13*
X509581Y308194D02*
X520419Y308194D01*
X515000Y313612D02*
X515000Y302775D01*
D14*
X505000Y310000D02*
X505003Y310245D01*
X505012Y310491D01*
X505027Y310736D01*
X505048Y310980D01*
X505075Y311224D01*
X505108Y311467D01*
X505147Y311710D01*
X505192Y311951D01*
X505243Y312191D01*
X505300Y312430D01*
X505362Y312667D01*
X505431Y312903D01*
X505505Y313137D01*
X505585Y313369D01*
X505670Y313599D01*
X505761Y313827D01*
X505858Y314052D01*
X505960Y314276D01*
X506068Y314496D01*
X506181Y314714D01*
X506299Y314929D01*
X506423Y315141D01*
X506551Y315350D01*
X506685Y315556D01*
X506824Y315758D01*
X506968Y315957D01*
X507117Y316152D01*
X507270Y316344D01*
X507428Y316532D01*
X507590Y316716D01*
X507758Y316895D01*
X507929Y317071D01*
X508105Y317242D01*
X508284Y317410D01*
X508468Y317572D01*
X508656Y317730D01*
X508848Y317883D01*
X509043Y318032D01*
X509242Y318176D01*
X509444Y318315D01*
X509650Y318449D01*
X509859Y318577D01*
X510071Y318701D01*
X510286Y318819D01*
X510504Y318932D01*
X510724Y319040D01*
X510948Y319142D01*
X511173Y319239D01*
X511401Y319330D01*
X511631Y319415D01*
X511863Y319495D01*
X512097Y319569D01*
X512333Y319638D01*
X512570Y319700D01*
X512809Y319757D01*
X513049Y319808D01*
X513290Y319853D01*
X513533Y319892D01*
X513776Y319925D01*
X514020Y319952D01*
X514264Y319973D01*
X514509Y319988D01*
X514755Y319997D01*
X515000Y320000D01*
X515245Y319997D01*
X515491Y319988D01*
X515736Y319973D01*
X515980Y319952D01*
X516224Y319925D01*
X516467Y319892D01*
X516710Y319853D01*
X516951Y319808D01*
X517191Y319757D01*
X517430Y319700D01*
X517667Y319638D01*
X517903Y319569D01*
X518137Y319495D01*
X518369Y319415D01*
X518599Y319330D01*
X518827Y319239D01*
X519052Y319142D01*
X519276Y319040D01*
X519496Y318932D01*
X519714Y318819D01*
X519929Y318701D01*
X520141Y318577D01*
X520350Y318449D01*
X520556Y318315D01*
X520758Y318176D01*
X520957Y318032D01*
X521152Y317883D01*
X521344Y317730D01*
X521532Y317572D01*
X521716Y317410D01*
X521895Y317242D01*
X522071Y317071D01*
X522242Y316895D01*
X522410Y316716D01*
X522572Y316532D01*
X522730Y316344D01*
X522883Y316152D01*
X523032Y315957D01*
X523176Y315758D01*
X523315Y315556D01*
X523449Y315350D01*
X523577Y315141D01*
X523701Y314929D01*
X523819Y314714D01*
X523932Y314496D01*
X524040Y314276D01*
X524142Y314052D01*
X524239Y313827D01*
X524330Y313599D01*
X524415Y313369D01*
X524495Y313137D01*
X524569Y312903D01*
X524638Y312667D01*
X524700Y312430D01*
X524757Y312191D01*
X524808Y311951D01*
X524853Y311710D01*
X524892Y311467D01*
X524925Y311224D01*
X524952Y310980D01*
X524973Y310736D01*
X524988Y310491D01*
X524997Y310245D01*
X525000Y310000D01*
X524997Y309755D01*
X524988Y309509D01*
X524973Y309264D01*
X524952Y309020D01*
X524925Y308776D01*
X524892Y308533D01*
X524853Y308290D01*
X524808Y308049D01*
X524757Y307809D01*
X524700Y307570D01*
X524638Y307333D01*
X524569Y307097D01*
X524495Y306863D01*
X524415Y306631D01*
X524330Y306401D01*
X524239Y306173D01*
X524142Y305948D01*
X524040Y305724D01*
X523932Y305504D01*
X523819Y305286D01*
X523701Y305071D01*
X523577Y304859D01*
X523449Y304650D01*
X523315Y304444D01*
X523176Y304242D01*
X523032Y304043D01*
X522883Y303848D01*
X522730Y303656D01*
X522572Y303468D01*
X522410Y303284D01*
X522242Y303105D01*
X522071Y302929D01*
X521895Y302758D01*
X521716Y302590D01*
X521532Y302428D01*
X521344Y302270D01*
X521152Y302117D01*
X520957Y301968D01*
X520758Y301824D01*
X520556Y301685D01*
X520350Y301551D01*
X520141Y301423D01*
X519929Y301299D01*
X519714Y301181D01*
X519496Y301068D01*
X519276Y300960D01*
X519052Y300858D01*
X518827Y300761D01*
X518599Y300670D01*
X518369Y300585D01*
X518137Y300505D01*
X517903Y300431D01*
X517667Y300362D01*
X517430Y300300D01*
X517191Y300243D01*
X516951Y300192D01*
X516710Y300147D01*
X516467Y300108D01*
X516224Y300075D01*
X515980Y300048D01*
X515736Y300027D01*
X515491Y300012D01*
X515245Y300003D01*
X515000Y300000D01*
X514755Y300003D01*
X514509Y300012D01*
X514264Y300027D01*
X514020Y300048D01*
X513776Y300075D01*
X513533Y300108D01*
X513290Y300147D01*
X513049Y300192D01*
X512809Y300243D01*
X512570Y300300D01*
X512333Y300362D01*
X512097Y300431D01*
X511863Y300505D01*
X511631Y300585D01*
X511401Y300670D01*
X511173Y300761D01*
X510948Y300858D01*
X510724Y300960D01*
X510504Y301068D01*
X510286Y301181D01*
X510071Y301299D01*
X509859Y301423D01*
X509650Y301551D01*
X509444Y301685D01*
X509242Y301824D01*
X509043Y301968D01*
X508848Y302117D01*
X508656Y302270D01*
X508468Y302428D01*
X508284Y302590D01*
X508105Y302758D01*
X507929Y302929D01*
X507758Y303105D01*
X507590Y303284D01*
X507428Y303468D01*
X507270Y303656D01*
X507117Y303848D01*
X506968Y304043D01*
X506824Y304242D01*
X506685Y304444D01*
X506551Y304650D01*
X506423Y304859D01*
X506299Y305071D01*
X506181Y305286D01*
X506068Y305504D01*
X505960Y305724D01*
X505858Y305948D01*
X505761Y306173D01*
X505670Y306401D01*
X505585Y306631D01*
X505505Y306863D01*
X505431Y307097D01*
X505362Y307333D01*
X505300Y307570D01*
X505243Y307809D01*
X505192Y308049D01*
X505147Y308290D01*
X505108Y308533D01*
X505075Y308776D01*
X505048Y309020D01*
X505027Y309264D01*
X505012Y309509D01*
X505003Y309755D01*
X505000Y310000D01*
D10*
X31054Y12299D02*
X29106Y12299D01*
X31054Y12299D02*
X31054Y5808D01*
X27159Y5808D01*
X27060Y5810D01*
X26960Y5816D01*
X26861Y5825D01*
X26763Y5838D01*
X26665Y5855D01*
X26567Y5876D01*
X26471Y5901D01*
X26376Y5929D01*
X26282Y5961D01*
X26189Y5996D01*
X26097Y6035D01*
X26007Y6078D01*
X25919Y6123D01*
X25832Y6173D01*
X25748Y6225D01*
X25665Y6281D01*
X25585Y6339D01*
X25507Y6401D01*
X25432Y6466D01*
X25359Y6534D01*
X25289Y6604D01*
X25221Y6677D01*
X25156Y6752D01*
X25094Y6830D01*
X25036Y6910D01*
X24980Y6993D01*
X24928Y7077D01*
X24878Y7164D01*
X24833Y7252D01*
X24790Y7342D01*
X24751Y7434D01*
X24716Y7527D01*
X24684Y7621D01*
X24656Y7716D01*
X24631Y7812D01*
X24610Y7910D01*
X24593Y8008D01*
X24580Y8106D01*
X24571Y8205D01*
X24565Y8305D01*
X24563Y8404D01*
X24563Y14896D01*
X24565Y14995D01*
X24571Y15095D01*
X24580Y15194D01*
X24593Y15292D01*
X24610Y15390D01*
X24631Y15488D01*
X24656Y15584D01*
X24684Y15679D01*
X24716Y15773D01*
X24751Y15866D01*
X24790Y15958D01*
X24833Y16048D01*
X24878Y16136D01*
X24928Y16223D01*
X24980Y16307D01*
X25036Y16390D01*
X25094Y16470D01*
X25156Y16548D01*
X25221Y16623D01*
X25289Y16696D01*
X25359Y16766D01*
X25432Y16834D01*
X25507Y16899D01*
X25585Y16961D01*
X25665Y17019D01*
X25748Y17075D01*
X25832Y17127D01*
X25919Y17177D01*
X26007Y17222D01*
X26097Y17265D01*
X26189Y17304D01*
X26281Y17339D01*
X26376Y17371D01*
X26471Y17399D01*
X26567Y17424D01*
X26665Y17445D01*
X26763Y17462D01*
X26861Y17475D01*
X26960Y17484D01*
X27060Y17490D01*
X27159Y17492D01*
X31054Y17492D01*
X36754Y17492D02*
X36754Y5808D01*
X43246Y5808D02*
X36754Y17492D01*
X43246Y17492D02*
X43246Y5808D01*
X48946Y5808D02*
X48946Y17492D01*
X52192Y17492D01*
X52305Y17490D01*
X52418Y17484D01*
X52531Y17474D01*
X52644Y17460D01*
X52756Y17443D01*
X52867Y17421D01*
X52977Y17396D01*
X53087Y17366D01*
X53195Y17333D01*
X53302Y17296D01*
X53408Y17256D01*
X53512Y17211D01*
X53615Y17163D01*
X53716Y17112D01*
X53815Y17057D01*
X53912Y16999D01*
X54007Y16937D01*
X54100Y16872D01*
X54190Y16804D01*
X54278Y16733D01*
X54364Y16658D01*
X54447Y16581D01*
X54527Y16501D01*
X54604Y16418D01*
X54679Y16332D01*
X54750Y16244D01*
X54818Y16154D01*
X54883Y16061D01*
X54945Y15966D01*
X55003Y15869D01*
X55058Y15770D01*
X55109Y15669D01*
X55157Y15566D01*
X55202Y15462D01*
X55242Y15356D01*
X55279Y15249D01*
X55312Y15141D01*
X55342Y15031D01*
X55367Y14921D01*
X55389Y14810D01*
X55406Y14698D01*
X55420Y14585D01*
X55430Y14472D01*
X55436Y14359D01*
X55438Y14246D01*
X55438Y9054D01*
X55436Y8941D01*
X55430Y8828D01*
X55420Y8715D01*
X55406Y8602D01*
X55389Y8490D01*
X55367Y8379D01*
X55342Y8269D01*
X55312Y8159D01*
X55279Y8051D01*
X55242Y7944D01*
X55202Y7838D01*
X55157Y7734D01*
X55109Y7631D01*
X55058Y7530D01*
X55003Y7431D01*
X54945Y7334D01*
X54883Y7239D01*
X54818Y7146D01*
X54750Y7056D01*
X54679Y6968D01*
X54604Y6882D01*
X54527Y6799D01*
X54447Y6719D01*
X54364Y6642D01*
X54278Y6567D01*
X54190Y6496D01*
X54100Y6428D01*
X54007Y6363D01*
X53912Y6301D01*
X53815Y6243D01*
X53716Y6188D01*
X53615Y6137D01*
X53512Y6089D01*
X53408Y6044D01*
X53302Y6004D01*
X53195Y5967D01*
X53087Y5934D01*
X52977Y5904D01*
X52867Y5879D01*
X52756Y5857D01*
X52644Y5840D01*
X52531Y5826D01*
X52418Y5816D01*
X52305Y5810D01*
X52192Y5808D01*
X48946Y5808D01*
X31054Y132299D02*
X29106Y132299D01*
X31054Y132299D02*
X31054Y125808D01*
X27159Y125808D01*
X27060Y125810D01*
X26960Y125816D01*
X26861Y125825D01*
X26763Y125838D01*
X26665Y125855D01*
X26567Y125876D01*
X26471Y125901D01*
X26376Y125929D01*
X26282Y125961D01*
X26189Y125996D01*
X26097Y126035D01*
X26007Y126078D01*
X25919Y126123D01*
X25832Y126173D01*
X25748Y126225D01*
X25665Y126281D01*
X25585Y126339D01*
X25507Y126401D01*
X25432Y126466D01*
X25359Y126534D01*
X25289Y126604D01*
X25221Y126677D01*
X25156Y126752D01*
X25094Y126830D01*
X25036Y126910D01*
X24980Y126993D01*
X24928Y127077D01*
X24878Y127164D01*
X24833Y127252D01*
X24790Y127342D01*
X24751Y127434D01*
X24716Y127527D01*
X24684Y127621D01*
X24656Y127716D01*
X24631Y127812D01*
X24610Y127910D01*
X24593Y128008D01*
X24580Y128106D01*
X24571Y128205D01*
X24565Y128305D01*
X24563Y128404D01*
X24563Y134896D01*
X24565Y134995D01*
X24571Y135095D01*
X24580Y135194D01*
X24593Y135292D01*
X24610Y135390D01*
X24631Y135488D01*
X24656Y135584D01*
X24684Y135679D01*
X24716Y135773D01*
X24751Y135866D01*
X24790Y135958D01*
X24833Y136048D01*
X24878Y136136D01*
X24928Y136223D01*
X24980Y136307D01*
X25036Y136390D01*
X25094Y136470D01*
X25156Y136548D01*
X25221Y136623D01*
X25289Y136696D01*
X25359Y136766D01*
X25432Y136834D01*
X25507Y136899D01*
X25585Y136961D01*
X25665Y137019D01*
X25748Y137075D01*
X25832Y137127D01*
X25919Y137177D01*
X26007Y137222D01*
X26097Y137265D01*
X26189Y137304D01*
X26281Y137339D01*
X26376Y137371D01*
X26471Y137399D01*
X26567Y137424D01*
X26665Y137445D01*
X26763Y137462D01*
X26861Y137475D01*
X26960Y137484D01*
X27060Y137490D01*
X27159Y137492D01*
X31054Y137492D01*
X36754Y137492D02*
X36754Y125808D01*
X43246Y125808D02*
X36754Y137492D01*
X43246Y137492D02*
X43246Y125808D01*
X48946Y125808D02*
X48946Y137492D01*
X52192Y137492D01*
X52305Y137490D01*
X52418Y137484D01*
X52531Y137474D01*
X52644Y137460D01*
X52756Y137443D01*
X52867Y137421D01*
X52977Y137396D01*
X53087Y137366D01*
X53195Y137333D01*
X53302Y137296D01*
X53408Y137256D01*
X53512Y137211D01*
X53615Y137163D01*
X53716Y137112D01*
X53815Y137057D01*
X53912Y136999D01*
X54007Y136937D01*
X54100Y136872D01*
X54190Y136804D01*
X54278Y136733D01*
X54364Y136658D01*
X54447Y136581D01*
X54527Y136501D01*
X54604Y136418D01*
X54679Y136332D01*
X54750Y136244D01*
X54818Y136154D01*
X54883Y136061D01*
X54945Y135966D01*
X55003Y135869D01*
X55058Y135770D01*
X55109Y135669D01*
X55157Y135566D01*
X55202Y135462D01*
X55242Y135356D01*
X55279Y135249D01*
X55312Y135141D01*
X55342Y135031D01*
X55367Y134921D01*
X55389Y134810D01*
X55406Y134698D01*
X55420Y134585D01*
X55430Y134472D01*
X55436Y134359D01*
X55438Y134246D01*
X55438Y129054D01*
X55436Y128941D01*
X55430Y128828D01*
X55420Y128715D01*
X55406Y128602D01*
X55389Y128490D01*
X55367Y128379D01*
X55342Y128269D01*
X55312Y128159D01*
X55279Y128051D01*
X55242Y127944D01*
X55202Y127838D01*
X55157Y127734D01*
X55109Y127631D01*
X55058Y127530D01*
X55003Y127431D01*
X54945Y127334D01*
X54883Y127239D01*
X54818Y127146D01*
X54750Y127056D01*
X54679Y126968D01*
X54604Y126882D01*
X54527Y126799D01*
X54447Y126719D01*
X54364Y126642D01*
X54278Y126567D01*
X54190Y126496D01*
X54100Y126428D01*
X54007Y126363D01*
X53912Y126301D01*
X53815Y126243D01*
X53716Y126188D01*
X53615Y126137D01*
X53512Y126089D01*
X53408Y126044D01*
X53302Y126004D01*
X53195Y125967D01*
X53087Y125934D01*
X52977Y125904D01*
X52867Y125879D01*
X52756Y125857D01*
X52644Y125840D01*
X52531Y125826D01*
X52418Y125816D01*
X52305Y125810D01*
X52192Y125808D01*
X48946Y125808D01*
X695508Y282492D02*
X699403Y270808D01*
X703297Y282492D01*
X708547Y282492D02*
X708547Y270808D01*
X709845Y270808D02*
X707248Y270808D01*
X707248Y282492D02*
X709845Y282492D01*
X714826Y282492D02*
X714826Y270808D01*
X721317Y270808D02*
X714826Y282492D01*
X721317Y282492D02*
X721317Y270808D01*
X732733Y281194D02*
X732733Y282492D01*
X739224Y282492D01*
X735979Y270808D01*
X744276Y275352D02*
X752065Y275352D01*
X757117Y279896D02*
X760363Y282492D01*
X760363Y270808D01*
X763608Y270808D02*
X757117Y270808D01*
X772117Y282492D02*
X772224Y282490D01*
X772330Y282484D01*
X772436Y282474D01*
X772542Y282461D01*
X772648Y282443D01*
X772752Y282422D01*
X772856Y282397D01*
X772959Y282368D01*
X773060Y282336D01*
X773160Y282299D01*
X773259Y282259D01*
X773357Y282216D01*
X773453Y282169D01*
X773547Y282118D01*
X773639Y282064D01*
X773729Y282007D01*
X773817Y281947D01*
X773902Y281883D01*
X773985Y281816D01*
X774066Y281746D01*
X774144Y281674D01*
X774220Y281598D01*
X774292Y281520D01*
X774362Y281439D01*
X774429Y281356D01*
X774493Y281271D01*
X774553Y281183D01*
X774610Y281093D01*
X774664Y281001D01*
X774715Y280907D01*
X774762Y280811D01*
X774805Y280713D01*
X774845Y280614D01*
X774882Y280514D01*
X774914Y280413D01*
X774943Y280310D01*
X774968Y280206D01*
X774989Y280102D01*
X775007Y279996D01*
X775020Y279890D01*
X775030Y279784D01*
X775036Y279678D01*
X775038Y279571D01*
X772117Y282492D02*
X771996Y282490D01*
X771875Y282484D01*
X771755Y282474D01*
X771634Y282461D01*
X771515Y282443D01*
X771395Y282422D01*
X771277Y282397D01*
X771160Y282368D01*
X771043Y282335D01*
X770928Y282299D01*
X770814Y282258D01*
X770701Y282215D01*
X770589Y282167D01*
X770480Y282116D01*
X770372Y282061D01*
X770265Y282003D01*
X770161Y281942D01*
X770059Y281877D01*
X769959Y281809D01*
X769861Y281738D01*
X769765Y281664D01*
X769672Y281587D01*
X769582Y281506D01*
X769494Y281423D01*
X769409Y281337D01*
X769326Y281248D01*
X769247Y281157D01*
X769170Y281063D01*
X769097Y280967D01*
X769027Y280869D01*
X768960Y280768D01*
X768896Y280665D01*
X768836Y280560D01*
X768779Y280453D01*
X768725Y280345D01*
X768675Y280235D01*
X768629Y280123D01*
X768586Y280010D01*
X768547Y279895D01*
X774065Y277299D02*
X774144Y277376D01*
X774220Y277457D01*
X774293Y277540D01*
X774363Y277625D01*
X774430Y277713D01*
X774494Y277803D01*
X774554Y277895D01*
X774611Y277990D01*
X774665Y278086D01*
X774716Y278184D01*
X774763Y278284D01*
X774807Y278386D01*
X774847Y278489D01*
X774883Y278593D01*
X774915Y278699D01*
X774944Y278805D01*
X774969Y278913D01*
X774991Y279021D01*
X775008Y279131D01*
X775022Y279240D01*
X775031Y279350D01*
X775037Y279461D01*
X775039Y279571D01*
X774064Y277299D02*
X768547Y270808D01*
X775038Y270808D01*
X783223Y270808D02*
X779328Y282492D01*
X787117Y282492D02*
X783223Y270808D01*
D15*
X814000Y287000D02*
X814000Y373000D01*
X814000Y287000D02*
X671000Y287000D01*
X671000Y303000D01*
X671000Y357000D02*
X671000Y373000D01*
X734500Y373000D02*
X814000Y373000D01*
X687000Y373000D02*
X671000Y373000D01*
D13*
X620950Y236200D02*
X620950Y210800D01*
X646350Y210800D01*
X646350Y236200D01*
X620950Y236200D01*
D16*
X652700Y223500D02*
X709850Y223500D01*
D13*
X620950Y210800D02*
X620950Y185400D01*
X646350Y185400D01*
X646350Y210800D01*
D16*
X652700Y198100D02*
X709850Y198100D01*
D13*
X620950Y185400D02*
X620950Y160000D01*
X646350Y160000D01*
X646350Y185400D01*
D16*
X652700Y172700D02*
X709850Y172700D01*
D13*
X620950Y160000D02*
X620950Y134600D01*
X646350Y134600D01*
X646350Y160000D01*
D16*
X652700Y147300D02*
X709850Y147300D01*
D13*
X620950Y134600D02*
X620950Y109200D01*
X646350Y109200D01*
X646350Y134600D01*
D16*
X652700Y121900D02*
X709850Y121900D01*
D13*
X620950Y109200D02*
X620950Y83800D01*
X646350Y83800D01*
X646350Y109200D01*
D16*
X652700Y96500D02*
X709850Y96500D01*
D17*
X648890Y223500D03*
X648890Y198100D03*
X648890Y172700D03*
X648890Y147300D03*
X648890Y121900D03*
X648890Y96500D03*
D18*
X615870Y223500D03*
X615870Y198100D03*
X615870Y172700D03*
X615870Y147300D03*
X615870Y121900D03*
X615870Y96500D03*
D15*
X236510Y322766D02*
X203490Y322766D01*
X236510Y322766D02*
X236510Y257234D01*
X203490Y257234D01*
X203490Y322766D01*
D10*
X597394Y319050D02*
X642606Y319050D01*
X642606Y280950D02*
X597394Y280950D01*
D15*
X611700Y300000D02*
X621930Y310000D01*
X611700Y300000D02*
X621930Y290000D01*
X621930Y310000D01*
D19*
X250000Y130000D02*
X215000Y130000D01*
X250000Y130000D02*
X250000Y230000D01*
X215000Y230000D01*
X200000Y230000D01*
X200000Y215000D01*
X200000Y145000D01*
X215000Y130000D01*
X75000Y145000D02*
X75000Y215000D01*
X75000Y145000D02*
X110000Y145000D01*
X112000Y145000D01*
X110000Y215000D02*
X75000Y215000D01*
X110000Y215000D02*
X112000Y215000D01*
X112000Y145000D01*
X80000Y150000D02*
X80000Y210000D01*
X110000Y210000D01*
X110000Y215000D01*
X110000Y150000D02*
X80000Y150000D01*
X110000Y150000D02*
X110000Y145000D01*
X289500Y35000D02*
X289500Y22500D01*
X289500Y35000D02*
X289500Y85000D01*
X289500Y97500D01*
X245000Y97500D01*
X245000Y22500D01*
X289500Y22500D01*
X289500Y35000D02*
X282500Y35000D01*
X282500Y85000D01*
X289500Y85000D01*
D10*
X534500Y295000D02*
X534624Y295133D01*
X534752Y295263D01*
X534882Y295390D01*
X535016Y295514D01*
X535152Y295635D01*
X535292Y295752D01*
X535434Y295865D01*
X535579Y295975D01*
X535727Y296082D01*
X535877Y296185D01*
X536030Y296284D01*
X536185Y296379D01*
X536342Y296471D01*
X536502Y296558D01*
X536664Y296642D01*
X536827Y296722D01*
X536993Y296798D01*
X537160Y296869D01*
X537330Y296937D01*
X537500Y297000D01*
X537672Y297059D01*
X537846Y297114D01*
X538021Y297165D01*
X538197Y297211D01*
X538374Y297253D01*
X538552Y297291D01*
X538732Y297324D01*
X538911Y297353D01*
X539092Y297377D01*
X539273Y297397D01*
X539454Y297413D01*
X539636Y297424D01*
X539818Y297431D01*
X540000Y297433D01*
X540182Y297431D01*
X540364Y297424D01*
X540546Y297413D01*
X540727Y297397D01*
X540908Y297377D01*
X541089Y297353D01*
X541268Y297324D01*
X541448Y297291D01*
X541626Y297253D01*
X541803Y297211D01*
X541979Y297165D01*
X542154Y297114D01*
X542328Y297059D01*
X542500Y297000D01*
X542670Y296937D01*
X542840Y296869D01*
X543007Y296798D01*
X543173Y296722D01*
X543336Y296642D01*
X543498Y296558D01*
X543658Y296471D01*
X543815Y296379D01*
X543970Y296284D01*
X544123Y296185D01*
X544273Y296082D01*
X544421Y295975D01*
X544566Y295865D01*
X544708Y295752D01*
X544848Y295635D01*
X544984Y295514D01*
X545118Y295390D01*
X545248Y295263D01*
X545376Y295133D01*
X545500Y295000D01*
X545500Y285000D02*
X545376Y284867D01*
X545248Y284737D01*
X545118Y284610D01*
X544984Y284486D01*
X544848Y284365D01*
X544708Y284248D01*
X544566Y284135D01*
X544421Y284025D01*
X544273Y283918D01*
X544123Y283815D01*
X543970Y283716D01*
X543815Y283621D01*
X543658Y283529D01*
X543498Y283442D01*
X543336Y283358D01*
X543173Y283278D01*
X543007Y283202D01*
X542840Y283131D01*
X542670Y283063D01*
X542500Y283000D01*
X542328Y282941D01*
X542154Y282886D01*
X541979Y282835D01*
X541803Y282789D01*
X541626Y282747D01*
X541448Y282709D01*
X541268Y282676D01*
X541089Y282647D01*
X540908Y282623D01*
X540727Y282603D01*
X540546Y282587D01*
X540364Y282576D01*
X540182Y282569D01*
X540000Y282567D01*
X539818Y282569D01*
X539636Y282576D01*
X539454Y282587D01*
X539273Y282603D01*
X539092Y282623D01*
X538911Y282647D01*
X538732Y282676D01*
X538552Y282709D01*
X538374Y282747D01*
X538197Y282789D01*
X538021Y282835D01*
X537846Y282886D01*
X537672Y282941D01*
X537500Y283000D01*
X537330Y283063D01*
X537160Y283131D01*
X536993Y283202D01*
X536827Y283278D01*
X536664Y283358D01*
X536502Y283442D01*
X536342Y283529D01*
X536185Y283621D01*
X536030Y283716D01*
X535877Y283815D01*
X535727Y283918D01*
X535579Y284025D01*
X535434Y284135D01*
X535292Y284248D01*
X535152Y284365D01*
X535016Y284486D01*
X534882Y284610D01*
X534752Y284737D01*
X534624Y284867D01*
X534500Y285000D01*
D20*
X540000Y290000D03*
D21*
X534750Y295750D03*
D10*
X597394Y279050D02*
X642606Y279050D01*
X642606Y240950D02*
X597394Y240950D01*
D15*
X611700Y260000D02*
X621930Y270000D01*
X611700Y260000D02*
X621930Y250000D01*
X621930Y270000D01*
D19*
X159500Y35000D02*
X159500Y22500D01*
X159500Y35000D02*
X159500Y85000D01*
X159500Y97500D01*
X115000Y97500D01*
X115000Y22500D01*
X159500Y22500D01*
X159500Y35000D02*
X152500Y35000D01*
X152500Y85000D01*
X159500Y85000D01*
D10*
X507394Y139050D02*
X552606Y139050D01*
X552606Y100950D02*
X507394Y100950D01*
D15*
X521700Y120000D02*
X531930Y130000D01*
X521700Y120000D02*
X531930Y110000D01*
X531930Y130000D01*
D13*
X27300Y40950D02*
X27300Y28250D01*
X27300Y40950D02*
X33650Y47300D01*
X46350Y47300D01*
X52700Y40950D01*
X33650Y47300D02*
X27300Y53650D01*
X27300Y66350D01*
X33650Y72700D01*
X46350Y72700D01*
X52700Y66350D01*
X52700Y53650D01*
X46350Y47300D01*
X46350Y21900D02*
X33650Y21900D01*
X27300Y28250D01*
X46350Y21900D02*
X52700Y28250D01*
X52700Y40950D01*
X33650Y72700D02*
X27300Y79050D01*
X27300Y91750D01*
X33650Y98100D01*
X46350Y98100D01*
X52700Y91750D01*
X52700Y79050D01*
X46350Y72700D01*
X27300Y148250D02*
X27300Y160950D01*
X33650Y167300D01*
X46350Y167300D01*
X52700Y160950D01*
X33650Y167300D02*
X27300Y173650D01*
X27300Y186350D01*
X33650Y192700D01*
X46350Y192700D01*
X52700Y186350D01*
X52700Y173650D01*
X46350Y167300D01*
X46350Y141900D02*
X33650Y141900D01*
X27300Y148250D01*
X46350Y141900D02*
X52700Y148250D01*
X52700Y160950D01*
X33650Y192700D02*
X27300Y199050D01*
X27300Y211750D01*
X33650Y218100D01*
X46350Y218100D01*
X52700Y211750D01*
X52700Y199050D01*
X46350Y192700D01*
D19*
X295000Y130000D02*
X330000Y130000D01*
X330000Y230000D01*
X295000Y230000D01*
X280000Y230000D01*
X280000Y215000D01*
X280000Y145000D01*
X295000Y130000D01*
X135000Y145000D02*
X135000Y215000D01*
X135000Y145000D02*
X170000Y145000D01*
X172000Y145000D01*
X170000Y215000D02*
X135000Y215000D01*
X170000Y215000D02*
X172000Y215000D01*
X172000Y145000D01*
X140000Y150000D02*
X140000Y210000D01*
X170000Y210000D01*
X170000Y215000D01*
X170000Y150000D02*
X140000Y150000D01*
X170000Y150000D02*
X170000Y145000D01*
D13*
X77290Y258760D02*
X42690Y258760D01*
X42690Y321240D02*
X77290Y321240D01*
X42690Y321240D02*
X42690Y258760D01*
X77290Y258760D02*
X77290Y321240D01*
X508410Y149840D02*
X551590Y149840D01*
X554130Y167620D02*
X554128Y167720D01*
X554122Y167819D01*
X554112Y167919D01*
X554099Y168017D01*
X554081Y168116D01*
X554060Y168213D01*
X554035Y168309D01*
X554006Y168405D01*
X553973Y168499D01*
X553937Y168592D01*
X553897Y168683D01*
X553853Y168773D01*
X553806Y168861D01*
X553756Y168947D01*
X553702Y169031D01*
X553645Y169113D01*
X553585Y169192D01*
X553521Y169270D01*
X553455Y169344D01*
X553386Y169416D01*
X553314Y169485D01*
X553240Y169551D01*
X553162Y169615D01*
X553083Y169675D01*
X553001Y169732D01*
X552917Y169786D01*
X552831Y169836D01*
X552743Y169883D01*
X552653Y169927D01*
X552562Y169967D01*
X552469Y170003D01*
X552375Y170036D01*
X552279Y170065D01*
X552183Y170090D01*
X552086Y170111D01*
X551987Y170129D01*
X551889Y170142D01*
X551789Y170152D01*
X551690Y170158D01*
X551590Y170160D01*
X508410Y170160D02*
X508310Y170158D01*
X508211Y170152D01*
X508111Y170142D01*
X508013Y170129D01*
X507914Y170111D01*
X507817Y170090D01*
X507721Y170065D01*
X507625Y170036D01*
X507531Y170003D01*
X507438Y169967D01*
X507347Y169927D01*
X507257Y169883D01*
X507169Y169836D01*
X507083Y169786D01*
X506999Y169732D01*
X506917Y169675D01*
X506838Y169615D01*
X506760Y169551D01*
X506686Y169485D01*
X506614Y169416D01*
X506545Y169344D01*
X506479Y169270D01*
X506415Y169192D01*
X506355Y169113D01*
X506298Y169031D01*
X506244Y168947D01*
X506194Y168861D01*
X506147Y168773D01*
X506103Y168683D01*
X506063Y168592D01*
X506027Y168499D01*
X505994Y168405D01*
X505965Y168309D01*
X505940Y168213D01*
X505919Y168116D01*
X505901Y168017D01*
X505888Y167919D01*
X505878Y167819D01*
X505872Y167720D01*
X505870Y167620D01*
X505870Y152380D02*
X505872Y152280D01*
X505878Y152181D01*
X505888Y152081D01*
X505901Y151983D01*
X505919Y151884D01*
X505940Y151787D01*
X505965Y151691D01*
X505994Y151595D01*
X506027Y151501D01*
X506063Y151408D01*
X506103Y151317D01*
X506147Y151227D01*
X506194Y151139D01*
X506244Y151053D01*
X506298Y150969D01*
X506355Y150887D01*
X506415Y150808D01*
X506479Y150730D01*
X506545Y150656D01*
X506614Y150584D01*
X506686Y150515D01*
X506760Y150449D01*
X506838Y150385D01*
X506917Y150325D01*
X506999Y150268D01*
X507083Y150214D01*
X507169Y150164D01*
X507257Y150117D01*
X507347Y150073D01*
X507438Y150033D01*
X507531Y149997D01*
X507625Y149964D01*
X507721Y149935D01*
X507817Y149910D01*
X507914Y149889D01*
X508013Y149871D01*
X508111Y149858D01*
X508211Y149848D01*
X508310Y149842D01*
X508410Y149840D01*
X551590Y149840D02*
X551690Y149842D01*
X551789Y149848D01*
X551889Y149858D01*
X551987Y149871D01*
X552086Y149889D01*
X552183Y149910D01*
X552279Y149935D01*
X552375Y149964D01*
X552469Y149997D01*
X552562Y150033D01*
X552653Y150073D01*
X552743Y150117D01*
X552831Y150164D01*
X552917Y150214D01*
X553001Y150268D01*
X553083Y150325D01*
X553162Y150385D01*
X553240Y150449D01*
X553314Y150515D01*
X553386Y150584D01*
X553455Y150656D01*
X553521Y150730D01*
X553585Y150808D01*
X553645Y150887D01*
X553702Y150969D01*
X553756Y151053D01*
X553806Y151139D01*
X553853Y151227D01*
X553897Y151317D01*
X553937Y151408D01*
X553973Y151501D01*
X554006Y151595D01*
X554035Y151691D01*
X554060Y151787D01*
X554081Y151884D01*
X554099Y151983D01*
X554112Y152081D01*
X554122Y152181D01*
X554128Y152280D01*
X554130Y152380D01*
X554130Y167620D01*
X505870Y167620D02*
X505870Y152380D01*
X508410Y170160D02*
X551590Y170160D01*
X380160Y51590D02*
X380160Y8410D01*
X359840Y51590D02*
X359842Y51690D01*
X359848Y51789D01*
X359858Y51889D01*
X359871Y51987D01*
X359889Y52086D01*
X359910Y52183D01*
X359935Y52279D01*
X359964Y52375D01*
X359997Y52469D01*
X360033Y52562D01*
X360073Y52653D01*
X360117Y52743D01*
X360164Y52831D01*
X360214Y52917D01*
X360268Y53001D01*
X360325Y53083D01*
X360385Y53162D01*
X360449Y53240D01*
X360515Y53314D01*
X360584Y53386D01*
X360656Y53455D01*
X360730Y53521D01*
X360808Y53585D01*
X360887Y53645D01*
X360969Y53702D01*
X361053Y53756D01*
X361139Y53806D01*
X361227Y53853D01*
X361317Y53897D01*
X361408Y53937D01*
X361501Y53973D01*
X361595Y54006D01*
X361691Y54035D01*
X361787Y54060D01*
X361884Y54081D01*
X361983Y54099D01*
X362081Y54112D01*
X362181Y54122D01*
X362280Y54128D01*
X362380Y54130D01*
X359840Y8410D02*
X359842Y8310D01*
X359848Y8211D01*
X359858Y8111D01*
X359871Y8013D01*
X359889Y7914D01*
X359910Y7817D01*
X359935Y7721D01*
X359964Y7625D01*
X359997Y7531D01*
X360033Y7438D01*
X360073Y7347D01*
X360117Y7257D01*
X360164Y7169D01*
X360214Y7083D01*
X360268Y6999D01*
X360325Y6917D01*
X360385Y6838D01*
X360449Y6760D01*
X360515Y6686D01*
X360584Y6614D01*
X360656Y6545D01*
X360730Y6479D01*
X360808Y6415D01*
X360887Y6355D01*
X360969Y6298D01*
X361053Y6244D01*
X361139Y6194D01*
X361227Y6147D01*
X361317Y6103D01*
X361408Y6063D01*
X361501Y6027D01*
X361595Y5994D01*
X361691Y5965D01*
X361787Y5940D01*
X361884Y5919D01*
X361983Y5901D01*
X362081Y5888D01*
X362181Y5878D01*
X362280Y5872D01*
X362380Y5870D01*
X377620Y5870D02*
X377720Y5872D01*
X377819Y5878D01*
X377919Y5888D01*
X378017Y5901D01*
X378116Y5919D01*
X378213Y5940D01*
X378309Y5965D01*
X378405Y5994D01*
X378499Y6027D01*
X378592Y6063D01*
X378683Y6103D01*
X378773Y6147D01*
X378861Y6194D01*
X378947Y6244D01*
X379031Y6298D01*
X379113Y6355D01*
X379192Y6415D01*
X379270Y6479D01*
X379344Y6545D01*
X379416Y6614D01*
X379485Y6686D01*
X379551Y6760D01*
X379615Y6838D01*
X379675Y6917D01*
X379732Y6999D01*
X379786Y7083D01*
X379836Y7169D01*
X379883Y7257D01*
X379927Y7347D01*
X379967Y7438D01*
X380003Y7531D01*
X380036Y7625D01*
X380065Y7721D01*
X380090Y7817D01*
X380111Y7914D01*
X380129Y8013D01*
X380142Y8111D01*
X380152Y8211D01*
X380158Y8310D01*
X380160Y8410D01*
X380160Y51590D02*
X380158Y51690D01*
X380152Y51789D01*
X380142Y51889D01*
X380129Y51987D01*
X380111Y52086D01*
X380090Y52183D01*
X380065Y52279D01*
X380036Y52375D01*
X380003Y52469D01*
X379967Y52562D01*
X379927Y52653D01*
X379883Y52743D01*
X379836Y52831D01*
X379786Y52917D01*
X379732Y53001D01*
X379675Y53083D01*
X379615Y53162D01*
X379551Y53240D01*
X379485Y53314D01*
X379416Y53386D01*
X379344Y53455D01*
X379270Y53521D01*
X379192Y53585D01*
X379113Y53645D01*
X379031Y53702D01*
X378947Y53756D01*
X378861Y53806D01*
X378773Y53853D01*
X378683Y53897D01*
X378592Y53937D01*
X378499Y53973D01*
X378405Y54006D01*
X378309Y54035D01*
X378213Y54060D01*
X378116Y54081D01*
X378017Y54099D01*
X377919Y54112D01*
X377819Y54122D01*
X377720Y54128D01*
X377620Y54130D01*
X362380Y54130D01*
X362380Y5870D02*
X377620Y5870D01*
X359840Y8410D02*
X359840Y51590D01*
X380160Y68410D02*
X380160Y111590D01*
X362380Y114130D02*
X362280Y114128D01*
X362181Y114122D01*
X362081Y114112D01*
X361983Y114099D01*
X361884Y114081D01*
X361787Y114060D01*
X361691Y114035D01*
X361595Y114006D01*
X361501Y113973D01*
X361408Y113937D01*
X361317Y113897D01*
X361227Y113853D01*
X361139Y113806D01*
X361053Y113756D01*
X360969Y113702D01*
X360887Y113645D01*
X360808Y113585D01*
X360730Y113521D01*
X360656Y113455D01*
X360584Y113386D01*
X360515Y113314D01*
X360449Y113240D01*
X360385Y113162D01*
X360325Y113083D01*
X360268Y113001D01*
X360214Y112917D01*
X360164Y112831D01*
X360117Y112743D01*
X360073Y112653D01*
X360033Y112562D01*
X359997Y112469D01*
X359964Y112375D01*
X359935Y112279D01*
X359910Y112183D01*
X359889Y112086D01*
X359871Y111987D01*
X359858Y111889D01*
X359848Y111789D01*
X359842Y111690D01*
X359840Y111590D01*
X359840Y68410D02*
X359842Y68310D01*
X359848Y68211D01*
X359858Y68111D01*
X359871Y68013D01*
X359889Y67914D01*
X359910Y67817D01*
X359935Y67721D01*
X359964Y67625D01*
X359997Y67531D01*
X360033Y67438D01*
X360073Y67347D01*
X360117Y67257D01*
X360164Y67169D01*
X360214Y67083D01*
X360268Y66999D01*
X360325Y66917D01*
X360385Y66838D01*
X360449Y66760D01*
X360515Y66686D01*
X360584Y66614D01*
X360656Y66545D01*
X360730Y66479D01*
X360808Y66415D01*
X360887Y66355D01*
X360969Y66298D01*
X361053Y66244D01*
X361139Y66194D01*
X361227Y66147D01*
X361317Y66103D01*
X361408Y66063D01*
X361501Y66027D01*
X361595Y65994D01*
X361691Y65965D01*
X361787Y65940D01*
X361884Y65919D01*
X361983Y65901D01*
X362081Y65888D01*
X362181Y65878D01*
X362280Y65872D01*
X362380Y65870D01*
X377620Y65870D02*
X377720Y65872D01*
X377819Y65878D01*
X377919Y65888D01*
X378017Y65901D01*
X378116Y65919D01*
X378213Y65940D01*
X378309Y65965D01*
X378405Y65994D01*
X378499Y66027D01*
X378592Y66063D01*
X378683Y66103D01*
X378773Y66147D01*
X378861Y66194D01*
X378947Y66244D01*
X379031Y66298D01*
X379113Y66355D01*
X379192Y66415D01*
X379270Y66479D01*
X379344Y66545D01*
X379416Y66614D01*
X379485Y66686D01*
X379551Y66760D01*
X379615Y66838D01*
X379675Y66917D01*
X379732Y66999D01*
X379786Y67083D01*
X379836Y67169D01*
X379883Y67257D01*
X379927Y67347D01*
X379967Y67438D01*
X380003Y67531D01*
X380036Y67625D01*
X380065Y67721D01*
X380090Y67817D01*
X380111Y67914D01*
X380129Y68013D01*
X380142Y68111D01*
X380152Y68211D01*
X380158Y68310D01*
X380160Y68410D01*
X380160Y111590D02*
X380158Y111690D01*
X380152Y111789D01*
X380142Y111889D01*
X380129Y111987D01*
X380111Y112086D01*
X380090Y112183D01*
X380065Y112279D01*
X380036Y112375D01*
X380003Y112469D01*
X379967Y112562D01*
X379927Y112653D01*
X379883Y112743D01*
X379836Y112831D01*
X379786Y112917D01*
X379732Y113001D01*
X379675Y113083D01*
X379615Y113162D01*
X379551Y113240D01*
X379485Y113314D01*
X379416Y113386D01*
X379344Y113455D01*
X379270Y113521D01*
X379192Y113585D01*
X379113Y113645D01*
X379031Y113702D01*
X378947Y113756D01*
X378861Y113806D01*
X378773Y113853D01*
X378683Y113897D01*
X378592Y113937D01*
X378499Y113973D01*
X378405Y114006D01*
X378309Y114035D01*
X378213Y114060D01*
X378116Y114081D01*
X378017Y114099D01*
X377919Y114112D01*
X377819Y114122D01*
X377720Y114128D01*
X377620Y114130D01*
X362380Y114130D01*
X362380Y65870D02*
X377620Y65870D01*
X359840Y68410D02*
X359840Y111590D01*
X380160Y188410D02*
X380160Y231590D01*
X362380Y234130D02*
X362280Y234128D01*
X362181Y234122D01*
X362081Y234112D01*
X361983Y234099D01*
X361884Y234081D01*
X361787Y234060D01*
X361691Y234035D01*
X361595Y234006D01*
X361501Y233973D01*
X361408Y233937D01*
X361317Y233897D01*
X361227Y233853D01*
X361139Y233806D01*
X361053Y233756D01*
X360969Y233702D01*
X360887Y233645D01*
X360808Y233585D01*
X360730Y233521D01*
X360656Y233455D01*
X360584Y233386D01*
X360515Y233314D01*
X360449Y233240D01*
X360385Y233162D01*
X360325Y233083D01*
X360268Y233001D01*
X360214Y232917D01*
X360164Y232831D01*
X360117Y232743D01*
X360073Y232653D01*
X360033Y232562D01*
X359997Y232469D01*
X359964Y232375D01*
X359935Y232279D01*
X359910Y232183D01*
X359889Y232086D01*
X359871Y231987D01*
X359858Y231889D01*
X359848Y231789D01*
X359842Y231690D01*
X359840Y231590D01*
X359840Y188410D02*
X359842Y188310D01*
X359848Y188211D01*
X359858Y188111D01*
X359871Y188013D01*
X359889Y187914D01*
X359910Y187817D01*
X359935Y187721D01*
X359964Y187625D01*
X359997Y187531D01*
X360033Y187438D01*
X360073Y187347D01*
X360117Y187257D01*
X360164Y187169D01*
X360214Y187083D01*
X360268Y186999D01*
X360325Y186917D01*
X360385Y186838D01*
X360449Y186760D01*
X360515Y186686D01*
X360584Y186614D01*
X360656Y186545D01*
X360730Y186479D01*
X360808Y186415D01*
X360887Y186355D01*
X360969Y186298D01*
X361053Y186244D01*
X361139Y186194D01*
X361227Y186147D01*
X361317Y186103D01*
X361408Y186063D01*
X361501Y186027D01*
X361595Y185994D01*
X361691Y185965D01*
X361787Y185940D01*
X361884Y185919D01*
X361983Y185901D01*
X362081Y185888D01*
X362181Y185878D01*
X362280Y185872D01*
X362380Y185870D01*
X377620Y185870D02*
X377720Y185872D01*
X377819Y185878D01*
X377919Y185888D01*
X378017Y185901D01*
X378116Y185919D01*
X378213Y185940D01*
X378309Y185965D01*
X378405Y185994D01*
X378499Y186027D01*
X378592Y186063D01*
X378683Y186103D01*
X378773Y186147D01*
X378861Y186194D01*
X378947Y186244D01*
X379031Y186298D01*
X379113Y186355D01*
X379192Y186415D01*
X379270Y186479D01*
X379344Y186545D01*
X379416Y186614D01*
X379485Y186686D01*
X379551Y186760D01*
X379615Y186838D01*
X379675Y186917D01*
X379732Y186999D01*
X379786Y187083D01*
X379836Y187169D01*
X379883Y187257D01*
X379927Y187347D01*
X379967Y187438D01*
X380003Y187531D01*
X380036Y187625D01*
X380065Y187721D01*
X380090Y187817D01*
X380111Y187914D01*
X380129Y188013D01*
X380142Y188111D01*
X380152Y188211D01*
X380158Y188310D01*
X380160Y188410D01*
X380160Y231590D02*
X380158Y231690D01*
X380152Y231789D01*
X380142Y231889D01*
X380129Y231987D01*
X380111Y232086D01*
X380090Y232183D01*
X380065Y232279D01*
X380036Y232375D01*
X380003Y232469D01*
X379967Y232562D01*
X379927Y232653D01*
X379883Y232743D01*
X379836Y232831D01*
X379786Y232917D01*
X379732Y233001D01*
X379675Y233083D01*
X379615Y233162D01*
X379551Y233240D01*
X379485Y233314D01*
X379416Y233386D01*
X379344Y233455D01*
X379270Y233521D01*
X379192Y233585D01*
X379113Y233645D01*
X379031Y233702D01*
X378947Y233756D01*
X378861Y233806D01*
X378773Y233853D01*
X378683Y233897D01*
X378592Y233937D01*
X378499Y233973D01*
X378405Y234006D01*
X378309Y234035D01*
X378213Y234060D01*
X378116Y234081D01*
X378017Y234099D01*
X377919Y234112D01*
X377819Y234122D01*
X377720Y234128D01*
X377620Y234130D01*
X362380Y234130D01*
X362380Y185870D02*
X377620Y185870D01*
X359840Y188410D02*
X359840Y231590D01*
D10*
X454500Y295000D02*
X454624Y295133D01*
X454752Y295263D01*
X454882Y295390D01*
X455016Y295514D01*
X455152Y295635D01*
X455292Y295752D01*
X455434Y295865D01*
X455579Y295975D01*
X455727Y296082D01*
X455877Y296185D01*
X456030Y296284D01*
X456185Y296379D01*
X456342Y296471D01*
X456502Y296558D01*
X456664Y296642D01*
X456827Y296722D01*
X456993Y296798D01*
X457160Y296869D01*
X457330Y296937D01*
X457500Y297000D01*
X457672Y297059D01*
X457846Y297114D01*
X458021Y297165D01*
X458197Y297211D01*
X458374Y297253D01*
X458552Y297291D01*
X458732Y297324D01*
X458911Y297353D01*
X459092Y297377D01*
X459273Y297397D01*
X459454Y297413D01*
X459636Y297424D01*
X459818Y297431D01*
X460000Y297433D01*
X460182Y297431D01*
X460364Y297424D01*
X460546Y297413D01*
X460727Y297397D01*
X460908Y297377D01*
X461089Y297353D01*
X461268Y297324D01*
X461448Y297291D01*
X461626Y297253D01*
X461803Y297211D01*
X461979Y297165D01*
X462154Y297114D01*
X462328Y297059D01*
X462500Y297000D01*
X462670Y296937D01*
X462840Y296869D01*
X463007Y296798D01*
X463173Y296722D01*
X463336Y296642D01*
X463498Y296558D01*
X463658Y296471D01*
X463815Y296379D01*
X463970Y296284D01*
X464123Y296185D01*
X464273Y296082D01*
X464421Y295975D01*
X464566Y295865D01*
X464708Y295752D01*
X464848Y295635D01*
X464984Y295514D01*
X465118Y295390D01*
X465248Y295263D01*
X465376Y295133D01*
X465500Y295000D01*
X465500Y285000D02*
X465376Y284867D01*
X465248Y284737D01*
X465118Y284610D01*
X464984Y284486D01*
X464848Y284365D01*
X464708Y284248D01*
X464566Y284135D01*
X464421Y284025D01*
X464273Y283918D01*
X464123Y283815D01*
X463970Y283716D01*
X463815Y283621D01*
X463658Y283529D01*
X463498Y283442D01*
X463336Y283358D01*
X463173Y283278D01*
X463007Y283202D01*
X462840Y283131D01*
X462670Y283063D01*
X462500Y283000D01*
X462328Y282941D01*
X462154Y282886D01*
X461979Y282835D01*
X461803Y282789D01*
X461626Y282747D01*
X461448Y282709D01*
X461268Y282676D01*
X461089Y282647D01*
X460908Y282623D01*
X460727Y282603D01*
X460546Y282587D01*
X460364Y282576D01*
X460182Y282569D01*
X460000Y282567D01*
X459818Y282569D01*
X459636Y282576D01*
X459454Y282587D01*
X459273Y282603D01*
X459092Y282623D01*
X458911Y282647D01*
X458732Y282676D01*
X458552Y282709D01*
X458374Y282747D01*
X458197Y282789D01*
X458021Y282835D01*
X457846Y282886D01*
X457672Y282941D01*
X457500Y283000D01*
X457330Y283063D01*
X457160Y283131D01*
X456993Y283202D01*
X456827Y283278D01*
X456664Y283358D01*
X456502Y283442D01*
X456342Y283529D01*
X456185Y283621D01*
X456030Y283716D01*
X455877Y283815D01*
X455727Y283918D01*
X455579Y284025D01*
X455434Y284135D01*
X455292Y284248D01*
X455152Y284365D01*
X455016Y284486D01*
X454882Y284610D01*
X454752Y284737D01*
X454624Y284867D01*
X454500Y285000D01*
D20*
X460000Y290000D03*
D21*
X454750Y295750D03*
D10*
X385500Y295000D02*
X385376Y295133D01*
X385248Y295263D01*
X385118Y295390D01*
X384984Y295514D01*
X384848Y295635D01*
X384708Y295752D01*
X384566Y295865D01*
X384421Y295975D01*
X384273Y296082D01*
X384123Y296185D01*
X383970Y296284D01*
X383815Y296379D01*
X383658Y296471D01*
X383498Y296558D01*
X383336Y296642D01*
X383173Y296722D01*
X383007Y296798D01*
X382840Y296869D01*
X382670Y296937D01*
X382500Y297000D01*
X382328Y297059D01*
X382154Y297114D01*
X381979Y297165D01*
X381803Y297211D01*
X381626Y297253D01*
X381448Y297291D01*
X381268Y297324D01*
X381089Y297353D01*
X380908Y297377D01*
X380727Y297397D01*
X380546Y297413D01*
X380364Y297424D01*
X380182Y297431D01*
X380000Y297433D01*
X379818Y297431D01*
X379636Y297424D01*
X379454Y297413D01*
X379273Y297397D01*
X379092Y297377D01*
X378911Y297353D01*
X378732Y297324D01*
X378552Y297291D01*
X378374Y297253D01*
X378197Y297211D01*
X378021Y297165D01*
X377846Y297114D01*
X377672Y297059D01*
X377500Y297000D01*
X377330Y296937D01*
X377160Y296869D01*
X376993Y296798D01*
X376827Y296722D01*
X376664Y296642D01*
X376502Y296558D01*
X376342Y296471D01*
X376185Y296379D01*
X376030Y296284D01*
X375877Y296185D01*
X375727Y296082D01*
X375579Y295975D01*
X375434Y295865D01*
X375292Y295752D01*
X375152Y295635D01*
X375016Y295514D01*
X374882Y295390D01*
X374752Y295263D01*
X374624Y295133D01*
X374500Y295000D01*
X374500Y285000D02*
X374624Y284867D01*
X374752Y284737D01*
X374882Y284610D01*
X375016Y284486D01*
X375152Y284365D01*
X375292Y284248D01*
X375434Y284135D01*
X375579Y284025D01*
X375727Y283918D01*
X375877Y283815D01*
X376030Y283716D01*
X376185Y283621D01*
X376342Y283529D01*
X376502Y283442D01*
X376664Y283358D01*
X376827Y283278D01*
X376993Y283202D01*
X377160Y283131D01*
X377330Y283063D01*
X377500Y283000D01*
X377672Y282941D01*
X377846Y282886D01*
X378021Y282835D01*
X378197Y282789D01*
X378374Y282747D01*
X378552Y282709D01*
X378732Y282676D01*
X378911Y282647D01*
X379092Y282623D01*
X379273Y282603D01*
X379454Y282587D01*
X379636Y282576D01*
X379818Y282569D01*
X380000Y282567D01*
X380182Y282569D01*
X380364Y282576D01*
X380546Y282587D01*
X380727Y282603D01*
X380908Y282623D01*
X381089Y282647D01*
X381268Y282676D01*
X381448Y282709D01*
X381626Y282747D01*
X381803Y282789D01*
X381979Y282835D01*
X382154Y282886D01*
X382328Y282941D01*
X382500Y283000D01*
X382670Y283063D01*
X382840Y283131D01*
X383007Y283202D01*
X383173Y283278D01*
X383336Y283358D01*
X383498Y283442D01*
X383658Y283529D01*
X383815Y283621D01*
X383970Y283716D01*
X384123Y283815D01*
X384273Y283918D01*
X384421Y284025D01*
X384566Y284135D01*
X384708Y284248D01*
X384848Y284365D01*
X384984Y284486D01*
X385118Y284610D01*
X385248Y284737D01*
X385376Y284867D01*
X385500Y285000D01*
D20*
X380000Y290000D03*
D21*
X374750Y295750D03*
D15*
X574000Y326000D02*
X574000Y382000D01*
X574000Y396000D01*
X504000Y396000D01*
X504000Y382000D01*
X504000Y326000D01*
X574000Y326000D01*
X574000Y382000D02*
X504000Y382000D01*
X494000Y382000D02*
X494000Y326000D01*
X494000Y382000D02*
X494000Y396000D01*
X424000Y396000D01*
X424000Y382000D01*
X424000Y326000D01*
X494000Y326000D01*
X494000Y382000D02*
X424000Y382000D01*
X414000Y382000D02*
X414000Y326000D01*
X414000Y382000D02*
X414000Y396000D01*
X344000Y396000D01*
X344000Y382000D01*
X344000Y326000D01*
X414000Y326000D01*
X414000Y382000D02*
X344000Y382000D01*
X654000Y382000D02*
X654000Y326000D01*
X654000Y382000D02*
X654000Y396000D01*
X584000Y396000D01*
X584000Y382000D01*
X584000Y326000D01*
X654000Y326000D01*
X654000Y382000D02*
X584000Y382000D01*
M02*
