G04 EAGLE Gerber RS-274X export*
G75*
%MOMM*%
%FSLAX34Y34*%
%LPD*%
%INSolderpaste Top*%
%IPPOS*%
%AMOC8*
5,1,8,0,0,1.08239X$1,22.5*%
G01*
%ADD10R,1.000000X1.400000*%
%ADD11R,1.500000X1.300000*%
%ADD12R,2.235200X1.219200*%
%ADD13R,2.200000X3.600000*%
%ADD14R,1.300000X1.500000*%
%ADD15R,2.400000X2.400000*%
%ADD16R,1.700000X0.600000*%
%ADD17R,2.800000X1.000000*%
%ADD18R,1.600000X1.803000*%
%ADD19R,2.006600X1.498600*%
%ADD20R,2.006600X3.810000*%
%ADD21R,1.168400X1.600200*%
%ADD22R,1.600200X1.168400*%


D10*
X460000Y139000D03*
X450500Y161000D03*
X469500Y161000D03*
D11*
X400000Y159500D03*
X400000Y140500D03*
D12*
X250988Y266886D03*
X250988Y290000D03*
X250988Y313114D03*
D13*
X189010Y290000D03*
D14*
X280500Y285000D03*
X299500Y285000D03*
X280500Y310000D03*
X299500Y310000D03*
D10*
X560000Y91000D03*
X569500Y69000D03*
X550500Y69000D03*
D14*
X529500Y80000D03*
X510500Y80000D03*
D15*
X598000Y300000D03*
X642000Y300000D03*
D16*
X245000Y47500D03*
X245000Y60000D03*
D17*
X278500Y91000D03*
X278500Y29000D03*
D16*
X245000Y72500D03*
D18*
X554220Y290000D03*
X525780Y290000D03*
D15*
X598000Y260000D03*
X642000Y260000D03*
D16*
X115000Y47500D03*
X115000Y60000D03*
D17*
X148500Y91000D03*
X148500Y29000D03*
D16*
X115000Y72500D03*
D15*
X508000Y120000D03*
X552000Y120000D03*
D11*
X430000Y159500D03*
X430000Y140500D03*
D19*
X91496Y267394D03*
X91496Y290254D03*
X91496Y313114D03*
D20*
X28504Y290000D03*
D14*
X120500Y310000D03*
X139500Y310000D03*
X120500Y285000D03*
X139500Y285000D03*
D21*
X514760Y160000D03*
X530000Y160000D03*
X545240Y160000D03*
D22*
X370000Y14760D03*
X370000Y30000D03*
X370000Y45240D03*
X370000Y74760D03*
X370000Y90000D03*
X370000Y105240D03*
X370000Y194760D03*
X370000Y210000D03*
X370000Y225240D03*
D14*
X549500Y310000D03*
X530500Y310000D03*
D18*
X474220Y290000D03*
X445780Y290000D03*
D14*
X469500Y310000D03*
X450500Y310000D03*
D18*
X394220Y290000D03*
X365780Y290000D03*
D14*
X389500Y310000D03*
X370500Y310000D03*
M02*
