G04 EAGLE Gerber RS-274X export*
G75*
%MOMM*%
%FSLAX34Y34*%
%LPD*%
%INSoldermask Top*%
%IPPOS*%
%AMOC8*
5,1,8,0,0,1.08239X$1,22.5*%
G01*
%ADD10R,1.000000X1.400000*%
%ADD11R,1.500000X1.300000*%
%ADD12C,2.000000*%
%ADD13C,1.524000*%
%ADD14R,2.235200X1.219200*%
%ADD15R,2.200000X3.600000*%
%ADD16R,1.300000X1.500000*%
%ADD17R,2.400000X2.400000*%
%ADD18C,1.500000*%
%ADD19C,1.200000*%
%ADD20R,1.700000X0.600000*%
%ADD21R,2.800000X1.000000*%
%ADD22R,1.600000X1.803000*%
%ADD23R,2.006600X1.498600*%
%ADD24R,2.006600X3.810000*%
%ADD25R,1.168400X1.600200*%
%ADD26R,1.600200X1.168400*%
%ADD27C,2.184400*%
%ADD28R,4.900000X4.900000*%


D10*
X460000Y139000D03*
X450500Y161000D03*
X469500Y161000D03*
D11*
X400000Y159500D03*
X400000Y140500D03*
D12*
X679000Y320000D02*
X679000Y340000D01*
X740000Y340000D02*
X740000Y320000D01*
X720000Y378000D02*
X700000Y378000D01*
D13*
X609520Y223500D02*
X594280Y223500D01*
X594280Y198100D02*
X609520Y198100D01*
X609520Y172700D02*
X594280Y172700D01*
X594280Y147300D02*
X609520Y147300D01*
X609520Y121900D02*
X594280Y121900D01*
X594280Y96500D02*
X609520Y96500D01*
D14*
X250988Y266886D03*
X250988Y290000D03*
X250988Y313114D03*
D15*
X189010Y290000D03*
D16*
X280500Y285000D03*
X299500Y285000D03*
X280500Y310000D03*
X299500Y310000D03*
D10*
X560000Y91000D03*
X569500Y69000D03*
X550500Y69000D03*
D16*
X529500Y80000D03*
X510500Y80000D03*
D17*
X598000Y300000D03*
X642000Y300000D03*
D18*
X227500Y180000D02*
X212500Y180000D01*
X212500Y154600D02*
X227500Y154600D01*
X227500Y205400D02*
X212500Y205400D01*
D19*
X90000Y180000D03*
X90000Y160000D03*
X90000Y200000D03*
D20*
X245000Y47500D03*
X245000Y60000D03*
D21*
X278500Y91000D03*
X278500Y29000D03*
D20*
X245000Y72500D03*
D22*
X554220Y290000D03*
X525780Y290000D03*
D17*
X598000Y260000D03*
X642000Y260000D03*
D20*
X115000Y47500D03*
X115000Y60000D03*
D21*
X148500Y91000D03*
X148500Y29000D03*
D20*
X115000Y72500D03*
D17*
X508000Y120000D03*
X552000Y120000D03*
D11*
X430000Y159500D03*
X430000Y140500D03*
D13*
X47620Y34600D02*
X32380Y34600D01*
X32380Y60000D02*
X47620Y60000D01*
X47620Y85400D02*
X32380Y85400D01*
X32380Y154600D02*
X47620Y154600D01*
X47620Y180000D02*
X32380Y180000D01*
X32380Y205400D02*
X47620Y205400D01*
D18*
X292500Y180000D02*
X307500Y180000D01*
X307500Y154600D02*
X292500Y154600D01*
X292500Y205400D02*
X307500Y205400D01*
D19*
X150000Y180000D03*
X150000Y160000D03*
X150000Y200000D03*
D23*
X91496Y267394D03*
X91496Y290254D03*
X91496Y313114D03*
D24*
X28504Y290000D03*
D16*
X120500Y310000D03*
X139500Y310000D03*
X120500Y285000D03*
X139500Y285000D03*
D25*
X514760Y160000D03*
X530000Y160000D03*
X545240Y160000D03*
D26*
X370000Y14760D03*
X370000Y30000D03*
X370000Y45240D03*
X370000Y74760D03*
X370000Y90000D03*
X370000Y105240D03*
X370000Y194760D03*
X370000Y210000D03*
X370000Y225240D03*
D16*
X549500Y310000D03*
X530500Y310000D03*
D22*
X474220Y290000D03*
X445780Y290000D03*
D16*
X469500Y310000D03*
X450500Y310000D03*
D22*
X394220Y290000D03*
X365780Y290000D03*
D16*
X389500Y310000D03*
X370500Y310000D03*
D27*
X522000Y360000D03*
X557000Y360000D03*
X442000Y360000D03*
X477000Y360000D03*
X362000Y360000D03*
X397000Y360000D03*
X602000Y360000D03*
X637000Y360000D03*
D28*
X30000Y370000D03*
X770000Y30000D03*
M02*
