G04 EAGLE Gerber RS-274X export*
G75*
%MOMM*%
%FSLAX34Y34*%
%LPD*%
%INSoldermask Bottom*%
%IPPOS*%
%AMOC8*
5,1,8,0,0,1.08239X$1,22.5*%
G01*
%ADD10C,2.000000*%
%ADD11C,1.524000*%
%ADD12C,1.500000*%
%ADD13C,1.200000*%
%ADD14C,2.184400*%
%ADD15R,4.900000X4.900000*%


D10*
X679000Y340000D02*
X679000Y320000D01*
X740000Y320000D02*
X740000Y340000D01*
X720000Y378000D02*
X700000Y378000D01*
D11*
X609520Y223500D02*
X594280Y223500D01*
X594280Y198100D02*
X609520Y198100D01*
X609520Y172700D02*
X594280Y172700D01*
X594280Y147300D02*
X609520Y147300D01*
X609520Y121900D02*
X594280Y121900D01*
X594280Y96500D02*
X609520Y96500D01*
D12*
X227500Y180000D02*
X212500Y180000D01*
X212500Y154600D02*
X227500Y154600D01*
X227500Y205400D02*
X212500Y205400D01*
D13*
X90000Y180000D03*
X90000Y160000D03*
X90000Y200000D03*
D11*
X47620Y34600D02*
X32380Y34600D01*
X32380Y60000D02*
X47620Y60000D01*
X47620Y85400D02*
X32380Y85400D01*
X32380Y154600D02*
X47620Y154600D01*
X47620Y180000D02*
X32380Y180000D01*
X32380Y205400D02*
X47620Y205400D01*
D12*
X292500Y180000D02*
X307500Y180000D01*
X307500Y154600D02*
X292500Y154600D01*
X292500Y205400D02*
X307500Y205400D01*
D13*
X150000Y180000D03*
X150000Y160000D03*
X150000Y200000D03*
D14*
X522000Y360000D03*
X557000Y360000D03*
X442000Y360000D03*
X477000Y360000D03*
X362000Y360000D03*
X397000Y360000D03*
X602000Y360000D03*
X637000Y360000D03*
D15*
X30000Y370000D03*
X770000Y30000D03*
M02*
