M48
;GenerationSoftware,Autodesk,EAGLE,9.5.0*%
;CreationDate,2019-09-20T22:45:21Z*%
FMAT,2
ICI,OFF
METRIC,TZ,000.000
T5C0.350
T4C0.800
T3C1.000
T2C1.016
T1C3.200
%
G90
M71
T1
X3000Y37000
X77000Y3000
T2
X60190Y14730
X60190Y12190
X60190Y9650
X60190Y22350
X4000Y6000
X60190Y19810
X60190Y17270
X4000Y20540
X4000Y18000
X4000Y15460
X4000Y8540
X4000Y3460
T3
X44200Y36000
X47700Y36000
X36200Y36000
X39700Y36000
X60200Y36000
X63700Y36000
X67900Y33000
X74000Y33000
X71000Y37800
X22000Y18000
X55700Y36000
X22000Y20540
X22000Y15460
X30000Y18000
X30000Y15460
X30000Y20540
X52200Y36000
T4
X15000Y18000
X15000Y16000
X15000Y20000
X9000Y18000
X9000Y16000
X9000Y20000
T5
X48400Y14500
X46900Y10800
X23610Y32800
X37600Y12900
X42200Y10000
X52400Y9600
X50200Y24700
X49300Y14500
X30000Y24700
X38500Y22500
X38575Y12625
X44500Y12600
M30